<?xml version="1.0" encoding="utf-8" standalone="no"?>
<!DOCTYPE svg PUBLIC "-//W3C//DTD SVG 1.1//EN"
  "http://www.w3.org/Graphics/SVG/1.1/DTD/svg11.dtd">
<svg xmlns:xlink="http://www.w3.org/1999/xlink" width="460.8pt" height="345.6pt" viewBox="0 0 460.8 345.6" xmlns="http://www.w3.org/2000/svg" version="1.1">
 <metadata>
  <rdf:RDF xmlns:dc="http://purl.org/dc/elements/1.1/" xmlns:cc="http://creativecommons.org/ns#" xmlns:rdf="http://www.w3.org/1999/02/22-rdf-syntax-ns#">
   <cc:Work>
    <dc:type rdf:resource="http://purl.org/dc/dcmitype/StillImage"/>
    <dc:date>2024-07-14T12:22:37.905482</dc:date>
    <dc:format>image/svg+xml</dc:format>
    <dc:creator>
     <cc:Agent>
      <dc:title>Matplotlib v3.9.0, https://matplotlib.org/</dc:title>
     </cc:Agent>
    </dc:creator>
   </cc:Work>
  </rdf:RDF>
 </metadata>
 <defs>
  <style type="text/css">*{stroke-linejoin: round; stroke-linecap: butt}</style>
 </defs>
 <g id="figure_1">
  <g id="patch_1">
   <path d="M 0 345.6 
L 460.8 345.6 
L 460.8 0 
L 0 0 
z
" style="fill: #ffffff"/>
  </g>
  <g id="axes_1">
   <g id="patch_2">
    <path d="M 57.6 307.584 
L 414.72 307.584 
L 414.72 41.472 
L 57.6 41.472 
z
" style="fill: #ffffff"/>
   </g>
   <g id="PathCollection_1">
    <defs>
     <path id="mea12c00a2c" d="M 0 5.91608 
C 1.568963 5.91608 3.073876 5.292724 4.1833 4.1833 
C 5.292724 3.073876 5.91608 1.568963 5.91608 0 
C 5.91608 -1.568963 5.292724 -3.073876 4.1833 -4.1833 
C 3.073876 -5.292724 1.568963 -5.91608 0 -5.91608 
C -1.568963 -5.91608 -3.073876 -5.292724 -4.1833 -4.1833 
C -5.292724 -3.073876 -5.91608 -1.568963 -5.91608 0 
C -5.91608 1.568963 -5.292724 3.073876 -4.1833 4.1833 
C -3.073876 5.292724 -1.568963 5.91608 0 5.91608 
z
" style="stroke: #808080"/>
    </defs>
    <g clip-path="url(#pe729af3924)">
     <use xlink:href="#mea12c00a2c" x="73.832727" y="272.964756" style="fill: #808080; stroke: #808080"/>
    </g>
   </g>
   <g id="PathCollection_2">
    <g clip-path="url(#pe729af3924)">
     <use xlink:href="#mea12c00a2c" x="108.729766" y="249.28726" style="fill: #808080; stroke: #808080"/>
    </g>
   </g>
   <g id="PathCollection_3">
    <g clip-path="url(#pe729af3924)">
     <use xlink:href="#mea12c00a2c" x="77.878" y="221.922995" style="fill: #808080; stroke: #808080"/>
    </g>
   </g>
   <g id="PathCollection_4">
    <g clip-path="url(#pe729af3924)">
     <use xlink:href="#mea12c00a2c" x="115.209522" y="63.865326" style="fill: #808080; stroke: #808080"/>
    </g>
   </g>
   <g id="PathCollection_5">
    <g clip-path="url(#pe729af3924)">
     <use xlink:href="#mea12c00a2c" x="162.353223" y="128.214911" style="fill: #808080; stroke: #808080"/>
    </g>
   </g>
   <g id="PathCollection_6">
    <g clip-path="url(#pe729af3924)">
     <use xlink:href="#mea12c00a2c" x="197.958872" y="129.414811" style="fill: #808080; stroke: #808080"/>
    </g>
   </g>
   <g id="PathCollection_7">
    <g clip-path="url(#pe729af3924)">
     <use xlink:href="#mea12c00a2c" x="175.543457" y="158.72841" style="fill: #808080; stroke: #808080"/>
    </g>
   </g>
   <g id="PathCollection_8">
    <g clip-path="url(#pe729af3924)">
     <use xlink:href="#mea12c00a2c" x="244.607175" y="204.783933" style="fill: #808080; stroke: #808080"/>
    </g>
   </g>
   <g id="PathCollection_9">
    <g clip-path="url(#pe729af3924)">
     <use xlink:href="#mea12c00a2c" x="139.878455" y="185.153269" style="fill: #808080; stroke: #808080"/>
    </g>
   </g>
   <g id="PathCollection_10">
    <g clip-path="url(#pe729af3924)">
     <use xlink:href="#mea12c00a2c" x="114.502975" y="213.952346" style="fill: #808080; stroke: #808080"/>
    </g>
   </g>
   <g id="PathCollection_11">
    <g clip-path="url(#pe729af3924)">
     <use xlink:href="#mea12c00a2c" x="325.367675" y="208.496501" style="fill: #808080; stroke: #808080"/>
    </g>
   </g>
   <g id="PathCollection_12">
    <g clip-path="url(#pe729af3924)">
     <use xlink:href="#mea12c00a2c" x="239.658985" y="135.422009" style="fill: #808080; stroke: #808080"/>
    </g>
   </g>
   <g id="PathCollection_13">
    <g clip-path="url(#pe729af3924)">
     <use xlink:href="#mea12c00a2c" x="279.615431" y="78.893713" style="fill: #808080; stroke: #808080"/>
    </g>
   </g>
   <g id="PathCollection_14">
    <g clip-path="url(#pe729af3924)">
     <use xlink:href="#mea12c00a2c" x="398.487273" y="265.830056" style="fill: #808080; stroke: #808080"/>
    </g>
   </g>
   <g id="PathCollection_15">
    <g clip-path="url(#pe729af3924)">
     <use xlink:href="#mea12c00a2c" x="372.55332" y="285.190674" style="fill: #808080; stroke: #808080"/>
    </g>
   </g>
   <g id="matplotlib.axis_1"/>
   <g id="matplotlib.axis_2"/>
   <g id="line2d_1">
    <path d="M 263.242243 271.964609 
L 233.472694 271.727971 
L 193.287687 271.446662 
L 146.502619 271.472404 
L 102.070936 271.645683 
L 95.838139 271.505997 
L 91.948043 271.20793 
L 89.117087 270.541061 
L 88.157815 270.115123 
L 86.693697 269.119757 
L 86.033222 268.47919 
L 85.442994 267.657501 
L 85.000384 266.677511 
L 84.828406 265.407304 
L 85.058978 263.969893 
L 85.459423 263.011512 
L 86.231582 261.733859 
L 86.987151 260.712028 
L 88.607383 258.86875 
L 92.303164 255.064197 
L 93.720342 253.253534 
L 95.370761 250.081941 
L 96.146724 247.451369 
L 96.405136 245.349356 
L 94.974765 235.087505 
L 93.378568 229.578957 
L 92.025811 225.925179 
L 90.759002 221.808963 
L 90.402907 219.651836 
L 90.108642 214.148872 
L 90.189977 209.168801 
L 90.379273 205.818513 
L 90.877401 201.07913 
L 91.497977 196.922529 
L 95.112177 175.432514 
L 100.670817 141.648477 
L 104.746079 115.088558 
L 108.419439 90.176226 
L 109.463607 85.724066 
L 110.728958 82.489347 
L 112.196798 79.936711 
L 113.643029 78.227131 
L 115.160722 77.102113 
L 117.859114 76.165583 
L 120.942007 76.006877 
L 123.299842 76.281879 
L 125.7484 76.962102 
L 128.785406 78.413027 
L 130.195866 79.333694 
L 132.274815 81.124367 
L 135.611588 84.58124 
L 137.665367 87.112995 
L 143.607947 95.02219 
L 146.622212 98.745568 
L 149.867695 102.511921 
L 152.702293 105.475846 
L 157.993786 110.089623 
L 162.15759 113.109228 
L 166.047768 115.602379 
L 171.933858 118.970228 
L 177.097237 122.108073 
L 181.121436 125.515417 
L 183.14527 127.920596 
L 184.740172 130.468375 
L 186.287729 135.314991 
L 186.737624 140.889093 
L 186.82592 147.803084 
L 187.065556 151.010772 
L 187.436786 153.601283 
L 188.298051 157.06803 
L 189.201076 159.537873 
L 191.775482 164.552825 
L 193.897162 167.567169 
L 197.445893 171.246359 
L 201.328382 174.250264 
L 206.183172 177.322312 
L 210.584993 179.848644 
L 216.620482 183.109179 
L 221.178823 185.732143 
L 224.864165 188.206922 
L 226.61939 189.498414 
L 229.798429 192.092971 
L 231.396568 194.002531 
L 232.358268 195.959839 
L 232.772148 197.578939 
L 232.830013 199.235995 
L 232.224166 200.890704 
L 231.116144 202.052465 
L 230.245249 202.695459 
L 227.46358 204.170907 
L 225.318917 204.883907 
L 223.290146 205.261044 
L 221.661254 205.394499 
L 218.061375 205.367064 
L 213.349266 204.919033 
L 208.140323 204.131011 
L 198.508274 202.399905 
L 189.851198 200.813421 
L 179.186069 198.735527 
L 172.870237 197.679868 
L 165.996226 196.720273 
L 161.052007 196.203774 
L 157.086322 195.933871 
L 152.108922 195.929016 
L 137.927435 199.870019 
L 133.09037 203.152893 
L 130.33039 205.980369 
L 128.990583 207.813854 
L 128.293122 209.03785 
L 127.294842 211.880379 
L 127.256077 213.693955 
L 127.493851 214.655574 
L 128.812455 216.60042 
L 130.353943 217.618608 
L 131.984049 218.250839 
L 135.587812 219.120439 
L 139.202825 219.581258 
L 146.293811 220.175936 
L 154.758758 220.646061 
L 163.293062 220.90957 
L 188.120498 221.420887 
L 205.458848 221.632195 
L 225.910927 221.836866 
L 248.969541 222.129184 
L 288.221093 222.723858 
L 296.7278 222.197079 
L 302.248811 220.957786 
L 305.193232 219.757422 
L 307.761163 218.008671 
L 310.034991 215.147123 
L 312.035436 210.304229 
L 312.652208 207.500547 
L 312.874444 205.093506 
L 312.728201 202.367517 
L 311.535768 197.457451 
L 309.378155 192.683188 
L 306.020582 187.899779 
L 304.268594 185.970068 
L 299.50744 181.924828 
L 293.618679 178.480499 
L 287.711871 175.981198 
L 280.140884 173.335817 
L 274.909361 171.170274 
L 271.423838 169.301099 
L 259.583351 159.147535 
L 255.695682 152.340697 
L 254.273567 148.893535 
L 252.911584 144.244633 
L 252.362468 140.945655 
L 252.306221 134.949418 
L 252.801435 131.588447 
L 253.514839 128.628244 
L 254.510448 125.709236 
L 256.467028 121.072068 
L 260.497295 112.227556 
L 263.853814 104.555163 
L 264.785731 102.735922 
L 266.254461 100.208779 
L 267.932478 97.827474 
L 270.914773 94.78804 
L 272.685618 93.603134 
L 274.166569 92.887787 
L 276.363109 92.1985 
L 278.7971 91.730639 
L 281.37102 91.615232 
L 283.856321 91.885783 
L 285.04147 92.201736 
L 287.942998 93.427674 
L 291.027753 95.515038 
L 292.5571 96.916515 
L 295.025001 99.612478 
L 297.033135 102.298973 
L 298.218932 104.09531 
L 302.019439 110.598901 
L 317.946605 138.374639 
L 326.459788 152.651704 
L 362.598025 212.46928 
L 380.618059 241.70339 
L 382.895692 245.529065 
L 384.479345 248.485625 
L 385.281854 250.269823 
L 386.04673 252.438199 
L 386.84843 256.391988 
L 386.924424 259.299099 
L 386.673701 260.890359 
L 385.731425 263.143874 
L 384.290535 265.006414 
L 382.089302 267.023126 
L 379.800015 268.711098 
L 377.573854 270.014002 
L 374.230445 271.483542 
L 371.731548 272.285485 
L 366.635909 273.280204 
L 363.328028 273.574388 
L 357.23427 273.761662 
L 346.634129 273.54477 
L 328.292642 273.11325 
L 302.85337 272.623299 
L 275.295495 272.130758 
L 266.179299 272.01519 
L 266.179299 272.01519 
" clip-path="url(#pe729af3924)" style="fill: none; stroke: #1f77b4; stroke-width: 1.5; stroke-linecap: square"/>
   </g>
   <g id="line2d_2">
    <path d="M 85.355648 267.497044 
L 73.832727 272.964756 
" clip-path="url(#pe729af3924)" style="fill: none; stroke: #808080; stroke-width: 1.5; stroke-linecap: square"/>
   </g>
   <g id="line2d_3">
    <path d="M 96.138679 247.25303 
L 108.729766 249.28726 
" clip-path="url(#pe729af3924)" style="fill: none; stroke: #808080; stroke-width: 1.5; stroke-linecap: square"/>
   </g>
   <g id="line2d_4">
    <path d="M 90.414484 219.575625 
L 77.878 221.922995 
" clip-path="url(#pe729af3924)" style="fill: none; stroke: #808080; stroke-width: 1.5; stroke-linecap: square"/>
   </g>
   <g id="line2d_5">
    <path d="M 117.948536 76.322107 
L 115.209522 63.865326 
" clip-path="url(#pe729af3924)" style="fill: none; stroke: #808080; stroke-width: 1.5; stroke-linecap: square"/>
   </g>
   <g id="line2d_6">
    <path d="M 168.634078 117.11426 
L 162.353223 128.214911 
" clip-path="url(#pe729af3924)" style="fill: none; stroke: #808080; stroke-width: 1.5; stroke-linecap: square"/>
   </g>
   <g id="line2d_7">
    <path d="M 185.675886 132.850189 
L 197.958872 129.414811 
" clip-path="url(#pe729af3924)" style="fill: none; stroke: #808080; stroke-width: 1.5; stroke-linecap: square"/>
   </g>
   <g id="line2d_8">
    <path d="M 187.968579 155.849191 
L 175.543457 158.72841 
" clip-path="url(#pe729af3924)" style="fill: none; stroke: #808080; stroke-width: 1.5; stroke-linecap: square"/>
   </g>
   <g id="line2d_9">
    <path d="M 232.836875 199.871335 
L 244.607175 204.783933 
" clip-path="url(#pe729af3924)" style="fill: none; stroke: #808080; stroke-width: 1.5; stroke-linecap: square"/>
   </g>
   <g id="line2d_10">
    <path d="M 143.627057 197.344313 
L 139.878455 185.153269 
" clip-path="url(#pe729af3924)" style="fill: none; stroke: #808080; stroke-width: 1.5; stroke-linecap: square"/>
   </g>
   <g id="line2d_11">
    <path d="M 127.249731 213.51212 
L 114.502975 213.952346 
" clip-path="url(#pe729af3924)" style="fill: none; stroke: #808080; stroke-width: 1.5; stroke-linecap: square"/>
   </g>
   <g id="line2d_12">
    <path d="M 312.770335 206.501353 
L 325.367675 208.496501 
" clip-path="url(#pe729af3924)" style="fill: none; stroke: #808080; stroke-width: 1.5; stroke-linecap: square"/>
   </g>
   <g id="line2d_13">
    <path d="M 252.412057 135.602942 
L 239.658985 135.422009 
" clip-path="url(#pe729af3924)" style="fill: none; stroke: #808080; stroke-width: 1.5; stroke-linecap: square"/>
   </g>
   <g id="line2d_14">
    <path d="M 280.343434 91.627274 
L 279.615431 78.893713 
" clip-path="url(#pe729af3924)" style="fill: none; stroke: #808080; stroke-width: 1.5; stroke-linecap: square"/>
   </g>
   <g id="line2d_15">
    <path d="M 386.393538 261.778495 
L 398.487273 265.830056 
" clip-path="url(#pe729af3924)" style="fill: none; stroke: #808080; stroke-width: 1.5; stroke-linecap: square"/>
   </g>
   <g id="line2d_16">
    <path d="M 369.697663 272.760114 
L 372.55332 285.190674 
" clip-path="url(#pe729af3924)" style="fill: none; stroke: #808080; stroke-width: 1.5; stroke-linecap: square"/>
   </g>
   <g id="patch_3">
    <path d="M 57.6 307.584 
L 57.6 41.472 
" style="fill: none; stroke: #000000; stroke-width: 0.8; stroke-linejoin: miter; stroke-linecap: square"/>
   </g>
   <g id="patch_4">
    <path d="M 414.72 307.584 
L 414.72 41.472 
" style="fill: none; stroke: #000000; stroke-width: 0.8; stroke-linejoin: miter; stroke-linecap: square"/>
   </g>
   <g id="patch_5">
    <path d="M 57.6 307.584 
L 414.72 307.584 
" style="fill: none; stroke: #000000; stroke-width: 0.8; stroke-linejoin: miter; stroke-linecap: square"/>
   </g>
   <g id="patch_6">
    <path d="M 57.6 41.472 
L 414.72 41.472 
" style="fill: none; stroke: #000000; stroke-width: 0.8; stroke-linejoin: miter; stroke-linecap: square"/>
   </g>
   <g id="text_1">
    <!-- 1 -->
    <g style="fill: #ffffff" transform="translate(71.182746 276.129505) scale(0.0833 -0.0833)">
     <defs>
      <path id="DejaVuSans-31" d="M 794 531 
L 1825 531 
L 1825 4091 
L 703 3866 
L 703 4441 
L 1819 4666 
L 2450 4666 
L 2450 531 
L 3481 531 
L 3481 0 
L 794 0 
L 794 531 
z
" transform="scale(0.015625)"/>
     </defs>
     <use xlink:href="#DejaVuSans-31"/>
    </g>
   </g>
   <g id="text_2">
    <!-- 2 -->
    <g style="fill: #ffffff" transform="translate(106.079785 252.45201) scale(0.0833 -0.0833)">
     <defs>
      <path id="DejaVuSans-32" d="M 1228 531 
L 3431 531 
L 3431 0 
L 469 0 
L 469 531 
Q 828 903 1448 1529 
Q 2069 2156 2228 2338 
Q 2531 2678 2651 2914 
Q 2772 3150 2772 3378 
Q 2772 3750 2511 3984 
Q 2250 4219 1831 4219 
Q 1534 4219 1204 4116 
Q 875 4013 500 3803 
L 500 4441 
Q 881 4594 1212 4672 
Q 1544 4750 1819 4750 
Q 2544 4750 2975 4387 
Q 3406 4025 3406 3419 
Q 3406 3131 3298 2873 
Q 3191 2616 2906 2266 
Q 2828 2175 2409 1742 
Q 1991 1309 1228 531 
z
" transform="scale(0.015625)"/>
     </defs>
     <use xlink:href="#DejaVuSans-32"/>
    </g>
   </g>
   <g id="text_3">
    <!-- 3 -->
    <g style="fill: #ffffff" transform="translate(75.228019 225.087745) scale(0.0833 -0.0833)">
     <defs>
      <path id="DejaVuSans-33" d="M 2597 2516 
Q 3050 2419 3304 2112 
Q 3559 1806 3559 1356 
Q 3559 666 3084 287 
Q 2609 -91 1734 -91 
Q 1441 -91 1130 -33 
Q 819 25 488 141 
L 488 750 
Q 750 597 1062 519 
Q 1375 441 1716 441 
Q 2309 441 2620 675 
Q 2931 909 2931 1356 
Q 2931 1769 2642 2001 
Q 2353 2234 1838 2234 
L 1294 2234 
L 1294 2753 
L 1863 2753 
Q 2328 2753 2575 2939 
Q 2822 3125 2822 3475 
Q 2822 3834 2567 4026 
Q 2313 4219 1838 4219 
Q 1578 4219 1281 4162 
Q 984 4106 628 3988 
L 628 4550 
Q 988 4650 1302 4700 
Q 1616 4750 1894 4750 
Q 2613 4750 3031 4423 
Q 3450 4097 3450 3541 
Q 3450 3153 3228 2886 
Q 3006 2619 2597 2516 
z
" transform="scale(0.015625)"/>
     </defs>
     <use xlink:href="#DejaVuSans-33"/>
    </g>
   </g>
   <g id="text_4">
    <!-- 4 -->
    <g style="fill: #ffffff" transform="translate(112.559541 67.030076) scale(0.0833 -0.0833)">
     <defs>
      <path id="DejaVuSans-34" d="M 2419 4116 
L 825 1625 
L 2419 1625 
L 2419 4116 
z
M 2253 4666 
L 3047 4666 
L 3047 1625 
L 3713 1625 
L 3713 1100 
L 3047 1100 
L 3047 0 
L 2419 0 
L 2419 1100 
L 313 1100 
L 313 1709 
L 2253 4666 
z
" transform="scale(0.015625)"/>
     </defs>
     <use xlink:href="#DejaVuSans-34"/>
    </g>
   </g>
   <g id="text_5">
    <!-- 5 -->
    <g style="fill: #ffffff" transform="translate(159.703242 131.37966) scale(0.0833 -0.0833)">
     <defs>
      <path id="DejaVuSans-35" d="M 691 4666 
L 3169 4666 
L 3169 4134 
L 1269 4134 
L 1269 2991 
Q 1406 3038 1543 3061 
Q 1681 3084 1819 3084 
Q 2600 3084 3056 2656 
Q 3513 2228 3513 1497 
Q 3513 744 3044 326 
Q 2575 -91 1722 -91 
Q 1428 -91 1123 -41 
Q 819 9 494 109 
L 494 744 
Q 775 591 1075 516 
Q 1375 441 1709 441 
Q 2250 441 2565 725 
Q 2881 1009 2881 1497 
Q 2881 1984 2565 2268 
Q 2250 2553 1709 2553 
Q 1456 2553 1204 2497 
Q 953 2441 691 2322 
L 691 4666 
z
" transform="scale(0.015625)"/>
     </defs>
     <use xlink:href="#DejaVuSans-35"/>
    </g>
   </g>
   <g id="text_6">
    <!-- 6 -->
    <g style="fill: #ffffff" transform="translate(195.308891 132.57956) scale(0.0833 -0.0833)">
     <defs>
      <path id="DejaVuSans-36" d="M 2113 2584 
Q 1688 2584 1439 2293 
Q 1191 2003 1191 1497 
Q 1191 994 1439 701 
Q 1688 409 2113 409 
Q 2538 409 2786 701 
Q 3034 994 3034 1497 
Q 3034 2003 2786 2293 
Q 2538 2584 2113 2584 
z
M 3366 4563 
L 3366 3988 
Q 3128 4100 2886 4159 
Q 2644 4219 2406 4219 
Q 1781 4219 1451 3797 
Q 1122 3375 1075 2522 
Q 1259 2794 1537 2939 
Q 1816 3084 2150 3084 
Q 2853 3084 3261 2657 
Q 3669 2231 3669 1497 
Q 3669 778 3244 343 
Q 2819 -91 2113 -91 
Q 1303 -91 875 529 
Q 447 1150 447 2328 
Q 447 3434 972 4092 
Q 1497 4750 2381 4750 
Q 2619 4750 2861 4703 
Q 3103 4656 3366 4563 
z
" transform="scale(0.015625)"/>
     </defs>
     <use xlink:href="#DejaVuSans-36"/>
    </g>
   </g>
   <g id="text_7">
    <!-- 7 -->
    <g style="fill: #ffffff" transform="translate(172.893475 161.893159) scale(0.0833 -0.0833)">
     <defs>
      <path id="DejaVuSans-37" d="M 525 4666 
L 3525 4666 
L 3525 4397 
L 1831 0 
L 1172 0 
L 2766 4134 
L 525 4134 
L 525 4666 
z
" transform="scale(0.015625)"/>
     </defs>
     <use xlink:href="#DejaVuSans-37"/>
    </g>
   </g>
   <g id="text_8">
    <!-- 8 -->
    <g style="fill: #ffffff" transform="translate(241.957194 207.948682) scale(0.0833 -0.0833)">
     <defs>
      <path id="DejaVuSans-38" d="M 2034 2216 
Q 1584 2216 1326 1975 
Q 1069 1734 1069 1313 
Q 1069 891 1326 650 
Q 1584 409 2034 409 
Q 2484 409 2743 651 
Q 3003 894 3003 1313 
Q 3003 1734 2745 1975 
Q 2488 2216 2034 2216 
z
M 1403 2484 
Q 997 2584 770 2862 
Q 544 3141 544 3541 
Q 544 4100 942 4425 
Q 1341 4750 2034 4750 
Q 2731 4750 3128 4425 
Q 3525 4100 3525 3541 
Q 3525 3141 3298 2862 
Q 3072 2584 2669 2484 
Q 3125 2378 3379 2068 
Q 3634 1759 3634 1313 
Q 3634 634 3220 271 
Q 2806 -91 2034 -91 
Q 1263 -91 848 271 
Q 434 634 434 1313 
Q 434 1759 690 2068 
Q 947 2378 1403 2484 
z
M 1172 3481 
Q 1172 3119 1398 2916 
Q 1625 2713 2034 2713 
Q 2441 2713 2670 2916 
Q 2900 3119 2900 3481 
Q 2900 3844 2670 4047 
Q 2441 4250 2034 4250 
Q 1625 4250 1398 4047 
Q 1172 3844 1172 3481 
z
" transform="scale(0.015625)"/>
     </defs>
     <use xlink:href="#DejaVuSans-38"/>
    </g>
   </g>
   <g id="text_9">
    <!-- 9 -->
    <g style="fill: #ffffff" transform="translate(137.228474 188.318018) scale(0.0833 -0.0833)">
     <defs>
      <path id="DejaVuSans-39" d="M 703 97 
L 703 672 
Q 941 559 1184 500 
Q 1428 441 1663 441 
Q 2288 441 2617 861 
Q 2947 1281 2994 2138 
Q 2813 1869 2534 1725 
Q 2256 1581 1919 1581 
Q 1219 1581 811 2004 
Q 403 2428 403 3163 
Q 403 3881 828 4315 
Q 1253 4750 1959 4750 
Q 2769 4750 3195 4129 
Q 3622 3509 3622 2328 
Q 3622 1225 3098 567 
Q 2575 -91 1691 -91 
Q 1453 -91 1209 -44 
Q 966 3 703 97 
z
M 1959 2075 
Q 2384 2075 2632 2365 
Q 2881 2656 2881 3163 
Q 2881 3666 2632 3958 
Q 2384 4250 1959 4250 
Q 1534 4250 1286 3958 
Q 1038 3666 1038 3163 
Q 1038 2656 1286 2365 
Q 1534 2075 1959 2075 
z
" transform="scale(0.015625)"/>
     </defs>
     <use xlink:href="#DejaVuSans-39"/>
    </g>
   </g>
   <g id="text_10">
    <!-- 10 -->
    <g style="fill: #ffffff" transform="translate(109.203013 217.117095) scale(0.0833 -0.0833)">
     <defs>
      <path id="DejaVuSans-30" d="M 2034 4250 
Q 1547 4250 1301 3770 
Q 1056 3291 1056 2328 
Q 1056 1369 1301 889 
Q 1547 409 2034 409 
Q 2525 409 2770 889 
Q 3016 1369 3016 2328 
Q 3016 3291 2770 3770 
Q 2525 4250 2034 4250 
z
M 2034 4750 
Q 2819 4750 3233 4129 
Q 3647 3509 3647 2328 
Q 3647 1150 3233 529 
Q 2819 -91 2034 -91 
Q 1250 -91 836 529 
Q 422 1150 422 2328 
Q 422 3509 836 4129 
Q 1250 4750 2034 4750 
z
" transform="scale(0.015625)"/>
     </defs>
     <use xlink:href="#DejaVuSans-31"/>
     <use xlink:href="#DejaVuSans-30" x="63.623047"/>
    </g>
   </g>
   <g id="text_11">
    <!-- 11 -->
    <g style="fill: #ffffff" transform="translate(320.067712 211.66125) scale(0.0833 -0.0833)">
     <use xlink:href="#DejaVuSans-31"/>
     <use xlink:href="#DejaVuSans-31" x="63.623047"/>
    </g>
   </g>
   <g id="text_12">
    <!-- 12 -->
    <g style="fill: #ffffff" transform="translate(234.359023 138.586758) scale(0.0833 -0.0833)">
     <use xlink:href="#DejaVuSans-31"/>
     <use xlink:href="#DejaVuSans-32" x="63.623047"/>
    </g>
   </g>
   <g id="text_13">
    <!-- 13 -->
    <g style="fill: #ffffff" transform="translate(274.315469 82.058462) scale(0.0833 -0.0833)">
     <use xlink:href="#DejaVuSans-31"/>
     <use xlink:href="#DejaVuSans-33" x="63.623047"/>
    </g>
   </g>
   <g id="text_14">
    <!-- 14 -->
    <g style="fill: #ffffff" transform="translate(393.18731 268.994805) scale(0.0833 -0.0833)">
     <use xlink:href="#DejaVuSans-31"/>
     <use xlink:href="#DejaVuSans-34" x="63.623047"/>
    </g>
   </g>
   <g id="text_15">
    <!-- 15 -->
    <g style="fill: #ffffff" transform="translate(367.253357 288.355423) scale(0.0833 -0.0833)">
     <use xlink:href="#DejaVuSans-31"/>
     <use xlink:href="#DejaVuSans-35" x="63.623047"/>
    </g>
   </g>
  </g>
 </g>
 <defs>
  <clipPath id="pe729af3924">
   <rect x="57.6" y="41.472" width="357.12" height="266.112"/>
  </clipPath>
 </defs>
</svg>
