<?xml version="1.0" encoding="utf-8" standalone="no"?>
<!DOCTYPE svg PUBLIC "-//W3C//DTD SVG 1.1//EN"
  "http://www.w3.org/Graphics/SVG/1.1/DTD/svg11.dtd">
<svg xmlns:xlink="http://www.w3.org/1999/xlink" width="460.8pt" height="345.6pt" viewBox="0 0 460.8 345.6" xmlns="http://www.w3.org/2000/svg" version="1.1">
 <metadata>
  <rdf:RDF xmlns:dc="http://purl.org/dc/elements/1.1/" xmlns:cc="http://creativecommons.org/ns#" xmlns:rdf="http://www.w3.org/1999/02/22-rdf-syntax-ns#">
   <cc:Work>
    <dc:type rdf:resource="http://purl.org/dc/dcmitype/StillImage"/>
    <dc:date>2024-07-14T12:23:17.281380</dc:date>
    <dc:format>image/svg+xml</dc:format>
    <dc:creator>
     <cc:Agent>
      <dc:title>Matplotlib v3.9.0, https://matplotlib.org/</dc:title>
     </cc:Agent>
    </dc:creator>
   </cc:Work>
  </rdf:RDF>
 </metadata>
 <defs>
  <style type="text/css">*{stroke-linejoin: round; stroke-linecap: butt}</style>
 </defs>
 <g id="figure_1">
  <g id="patch_1">
   <path d="M 0 345.6 
L 460.8 345.6 
L 460.8 0 
L 0 0 
z
" style="fill: #ffffff"/>
  </g>
  <g id="axes_1">
   <g id="patch_2">
    <path d="M 57.6 307.584 
L 414.72 307.584 
L 414.72 41.472 
L 57.6 41.472 
z
" style="fill: #ffffff"/>
   </g>
   <g id="PathCollection_1">
    <defs>
     <path id="m289e0218c2" d="M 0 5.91608 
C 1.568963 5.91608 3.073876 5.292724 4.1833 4.1833 
C 5.292724 3.073876 5.91608 1.568963 5.91608 0 
C 5.91608 -1.568963 5.292724 -3.073876 4.1833 -4.1833 
C 3.073876 -5.292724 1.568963 -5.91608 0 -5.91608 
C -1.568963 -5.91608 -3.073876 -5.292724 -4.1833 -4.1833 
C -5.292724 -3.073876 -5.91608 -1.568963 -5.91608 0 
C -5.91608 1.568963 -5.292724 3.073876 -4.1833 4.1833 
C -3.073876 5.292724 -1.568963 5.91608 0 5.91608 
z
" style="stroke: #808080"/>
    </defs>
    <g clip-path="url(#p8f557f1389)">
     <use xlink:href="#m289e0218c2" x="111.504583" y="288.196229" style="fill: #808080; stroke: #808080"/>
    </g>
   </g>
   <g id="PathCollection_2">
    <g clip-path="url(#p8f557f1389)">
     <use xlink:href="#m289e0218c2" x="158.922503" y="251.394263" style="fill: #808080; stroke: #808080"/>
    </g>
   </g>
   <g id="PathCollection_3">
    <g clip-path="url(#p8f557f1389)">
     <use xlink:href="#m289e0218c2" x="246.04256" y="253.653815" style="fill: #808080; stroke: #808080"/>
    </g>
   </g>
   <g id="PathCollection_4">
    <g clip-path="url(#p8f557f1389)">
     <use xlink:href="#m289e0218c2" x="209.3899" y="216.273017" style="fill: #808080; stroke: #808080"/>
    </g>
   </g>
   <g id="PathCollection_5">
    <g clip-path="url(#p8f557f1389)">
     <use xlink:href="#m289e0218c2" x="164.81334" y="114.544816" style="fill: #808080; stroke: #808080"/>
    </g>
   </g>
   <g id="PathCollection_6">
    <g clip-path="url(#p8f557f1389)">
     <use xlink:href="#m289e0218c2" x="149.291535" y="70.444049" style="fill: #808080; stroke: #808080"/>
    </g>
   </g>
   <g id="PathCollection_7">
    <g clip-path="url(#p8f557f1389)">
     <use xlink:href="#m289e0218c2" x="220.858067" y="56.415835" style="fill: #808080; stroke: #808080"/>
    </g>
   </g>
   <g id="PathCollection_8">
    <g clip-path="url(#p8f557f1389)">
     <use xlink:href="#m289e0218c2" x="203.43552" y="79.770321" style="fill: #808080; stroke: #808080"/>
    </g>
   </g>
   <g id="PathCollection_9">
    <g clip-path="url(#p8f557f1389)">
     <use xlink:href="#m289e0218c2" x="247.629522" y="107.202756" style="fill: #808080; stroke: #808080"/>
    </g>
   </g>
   <g id="PathCollection_10">
    <g clip-path="url(#p8f557f1389)">
     <use xlink:href="#m289e0218c2" x="283.971284" y="73.433674" style="fill: #808080; stroke: #808080"/>
    </g>
   </g>
   <g id="PathCollection_11">
    <g clip-path="url(#p8f557f1389)">
     <use xlink:href="#m289e0218c2" x="300.776461" y="133.159931" style="fill: #808080; stroke: #808080"/>
    </g>
   </g>
   <g id="PathCollection_12">
    <g clip-path="url(#p8f557f1389)">
     <use xlink:href="#m289e0218c2" x="360.815417" y="142.195578" style="fill: #808080; stroke: #808080"/>
    </g>
   </g>
   <g id="PathCollection_13">
    <g clip-path="url(#p8f557f1389)">
     <use xlink:href="#m289e0218c2" x="351.347495" y="252.958783" style="fill: #808080; stroke: #808080"/>
    </g>
   </g>
   <g id="PathCollection_14">
    <g clip-path="url(#p8f557f1389)">
     <use xlink:href="#m289e0218c2" x="313.870175" y="229.589136" style="fill: #808080; stroke: #808080"/>
    </g>
   </g>
   <g id="PathCollection_15">
    <g clip-path="url(#p8f557f1389)">
     <use xlink:href="#m289e0218c2" x="272.513329" y="254.158118" style="fill: #808080; stroke: #808080"/>
    </g>
   </g>
   <g id="PathCollection_16">
    <g clip-path="url(#p8f557f1389)">
     <use xlink:href="#m289e0218c2" x="353.071218" y="281.633453" style="fill: #808080; stroke: #808080"/>
    </g>
   </g>
   <g id="matplotlib.axis_1"/>
   <g id="matplotlib.axis_2"/>
   <g id="line2d_1">
    <path d="M 272.495779 293.059442 
L 192.46448 293.994231 
L 146.905922 295.488 
L 141.357849 295.462188 
L 137.154582 295.218183 
L 133.731708 294.741959 
L 131.861734 294.295538 
L 129.339853 293.420882 
L 126.240392 291.470474 
L 124.29299 288.878457 
L 123.833369 286.858509 
L 124.077835 284.67037 
L 124.732349 283.048393 
L 125.918601 281.207793 
L 127.192349 279.781401 
L 130.104279 277.207967 
L 131.411361 276.208721 
L 133.87357 274.532781 
L 137.663258 272.23058 
L 142.994657 269.479946 
L 145.44284 268.368418 
L 150.238343 266.490063 
L 156.933854 264.512793 
L 160.017936 263.810423 
L 181.203522 262.287765 
L 191.515545 262.412197 
L 210.331895 262.715022 
L 215.401071 262.557526 
L 221.096708 261.906876 
L 226.569333 260.37058 
L 228.138669 259.606392 
L 231.931196 256.261543 
L 232.628914 255.155955 
L 233.821503 251.424555 
L 233.874113 250.015061 
L 233.356371 246.841074 
L 232.510827 244.787363 
L 231.469038 243.158387 
L 230.543689 242.016857 
L 227.786948 239.583823 
L 225.054993 237.877682 
L 221.267452 236.114542 
L 210.335935 231.958763 
L 207.512326 230.492071 
L 205.956126 229.489786 
L 203.245658 227.538058 
L 200.949397 225.498835 
L 198.174008 222.26874 
L 197.433947 221.231801 
L 195.268352 217.294979 
L 193.453134 211.373722 
L 192.175133 204.96918 
L 189.461436 188.91155 
L 183.363519 158.399193 
L 180.060393 140.593079 
L 179.36192 133.01958 
L 179.068478 128.292034 
L 178.669522 119.719518 
L 177.97415 114.939132 
L 177.466507 112.861955 
L 175.123282 107.318732 
L 172.323108 103.361744 
L 169.354543 100.521301 
L 166.950621 98.70245 
L 161.311292 95.274821 
L 155.762527 92.226316 
L 151.238654 89.585649 
L 147.995128 87.463551 
L 145.735271 85.81639 
L 141.340315 81.7022 
L 138.346733 77.127299 
L 137.455577 74.786777 
L 136.797269 70.592949 
L 137.75127 65.143758 
L 139.564411 61.996936 
L 141.333492 59.95986 
L 143.355618 58.263094 
L 146.833941 56.287176 
L 152.366205 54.473279 
L 156.920081 53.740414 
L 162.626906 53.568 
L 165.608376 53.634407 
L 170.912182 54.027725 
L 173.416076 54.299815 
L 183.218738 55.599343 
L 200.968345 58.195129 
L 203.083907 58.663036 
L 205.899397 59.616408 
L 207.873533 60.690609 
L 209.129985 61.684345 
L 211.209174 64.588388 
L 212.4012 69.147082 
L 212.759728 70.504165 
L 214.53808 74.018232 
L 215.188237 74.870543 
L 218.046071 77.966441 
L 221.559311 80.642423 
L 226.991866 84.211047 
L 231.869218 87.660393 
L 236.724424 91.160829 
L 239.484664 92.745711 
L 242.354974 93.880642 
L 244.725991 94.459279 
L 248.604295 94.780911 
L 252.377117 94.085769 
L 253.730471 93.567829 
L 256.308461 92.184838 
L 262.937502 87.532645 
L 265.365288 86.048132 
L 269.88078 84.339717 
L 271.866304 84.071522 
L 276.640122 84.259387 
L 279.371846 84.957963 
L 281.584771 85.929322 
L 283.441378 87.134651 
L 286.781178 90.378773 
L 289.668847 94.749969 
L 290.791993 96.86332 
L 292.060523 99.537353 
L 296.18517 108.559558 
L 297.192536 110.37996 
L 299.930001 114.649634 
L 303.543904 118.801548 
L 305.601377 120.943613 
L 308.597566 123.468301 
L 313.122759 126.49796 
L 320.386905 129.537456 
L 327.751682 131.224687 
L 335.559183 133.710728 
L 340.452972 136.366082 
L 343.333381 138.597822 
L 346.953423 142.679568 
L 348.774747 145.70246 
L 349.948554 148.651025 
L 350.73096 151.83049 
L 351.130083 155.754176 
L 351.011297 161.152705 
L 348.638881 192.10831 
L 347.590714 208.331753 
L 347.196338 217.082328 
L 347.031113 226.648381 
L 346.96256 233.695192 
L 346.552773 236.964793 
L 345.489991 240.42473 
L 344.831086 241.6928 
L 343.160459 243.614756 
L 342.648458 244.011867 
L 341.49333 244.68856 
L 339.974425 245.280397 
L 336.452669 245.732361 
L 332.657471 245.471029 
L 328.459022 244.767864 
L 319.260675 243.026274 
L 312.092373 241.921871 
L 307.199046 241.281646 
L 303.116377 240.87143 
L 289.302797 243.392579 
L 288.08496 244.381957 
L 287.16994 245.3448 
L 285.321714 248.488553 
L 284.768523 251.78096 
L 285.046586 253.855728 
L 285.706182 255.610352 
L 286.645789 257.195035 
L 287.673321 258.380858 
L 289.278202 259.634868 
L 292.477865 261.04608 
L 295.642873 261.641154 
L 300.509005 261.784066 
L 306.16101 261.430094 
L 314.311859 260.799809 
L 319.138517 260.585743 
L 321.313058 260.581552 
L 325.723759 260.879058 
L 330.089079 261.897317 
L 335.242053 264.822814 
L 337.993975 267.715008 
L 339.298679 269.773538 
L 340.281489 271.874611 
L 340.966531 274.550625 
L 341.111487 275.924375 
L 341.040031 278.357441 
L 340.159467 281.957054 
L 339.266824 283.87637 
L 338.077502 285.752054 
L 335.40634 288.806133 
L 334.395276 289.654516 
L 331.624111 291.427159 
L 328.580162 292.681002 
L 325.72873 293.350697 
L 321.585332 293.836655 
L 315.476577 293.956228 
L 305.811412 293.711627 
L 290.09954 293.079418 
L 281.432731 292.939837 
L 281.432731 292.939837 
" clip-path="url(#p8f557f1389)" style="fill: none; stroke: #1f77b4; stroke-width: 1.5; stroke-linecap: square"/>
   </g>
   <g id="line2d_2">
    <path d="M 123.875416 286.781989 
L 111.504583 288.196229 
" clip-path="url(#p8f557f1389)" style="fill: none; stroke: #808080; stroke-width: 1.5; stroke-linecap: square"/>
   </g>
   <g id="line2d_3">
    <path d="M 161.185395 263.638318 
L 158.922503 251.394263 
" clip-path="url(#p8f557f1389)" style="fill: none; stroke: #808080; stroke-width: 1.5; stroke-linecap: square"/>
   </g>
   <g id="line2d_4">
    <path d="M 233.793101 251.420363 
L 246.04256 253.653815 
" clip-path="url(#p8f557f1389)" style="fill: none; stroke: #808080; stroke-width: 1.5; stroke-linecap: square"/>
   </g>
   <g id="line2d_5">
    <path d="M 200.635738 225.127519 
L 209.3899 216.273017 
" clip-path="url(#p8f557f1389)" style="fill: none; stroke: #808080; stroke-width: 1.5; stroke-linecap: square"/>
   </g>
   <g id="line2d_6">
    <path d="M 176.605347 110.54655 
L 164.81334 114.544816 
" clip-path="url(#p8f557f1389)" style="fill: none; stroke: #808080; stroke-width: 1.5; stroke-linecap: square"/>
   </g>
   <g id="line2d_7">
    <path d="M 136.890585 69.324221 
L 149.291535 70.444049 
" clip-path="url(#p8f557f1389)" style="fill: none; stroke: #808080; stroke-width: 1.5; stroke-linecap: square"/>
   </g>
   <g id="line2d_8">
    <path d="M 210.433948 63.225777 
L 220.858067 56.415835 
" clip-path="url(#p8f557f1389)" style="fill: none; stroke: #808080; stroke-width: 1.5; stroke-linecap: square"/>
   </g>
   <g id="line2d_9">
    <path d="M 214.023053 73.217329 
L 203.43552 79.770321 
" clip-path="url(#p8f557f1389)" style="fill: none; stroke: #808080; stroke-width: 1.5; stroke-linecap: square"/>
   </g>
   <g id="line2d_10">
    <path d="M 248.213423 94.765046 
L 247.629522 107.202756 
" clip-path="url(#p8f557f1389)" style="fill: none; stroke: #808080; stroke-width: 1.5; stroke-linecap: square"/>
   </g>
   <g id="line2d_11">
    <path d="M 279.941658 85.215001 
L 283.971284 73.433674 
" clip-path="url(#p8f557f1389)" style="fill: none; stroke: #808080; stroke-width: 1.5; stroke-linecap: square"/>
   </g>
   <g id="line2d_12">
    <path d="M 308.216462 123.175745 
L 300.776461 133.159931 
" clip-path="url(#p8f557f1389)" style="fill: none; stroke: #808080; stroke-width: 1.5; stroke-linecap: square"/>
   </g>
   <g id="line2d_13">
    <path d="M 349.354848 147.063116 
L 360.815417 142.195578 
" clip-path="url(#p8f557f1389)" style="fill: none; stroke: #808080; stroke-width: 1.5; stroke-linecap: square"/>
   </g>
   <g id="line2d_14">
    <path d="M 343.092486 243.637173 
L 351.347495 252.958783 
" clip-path="url(#p8f557f1389)" style="fill: none; stroke: #808080; stroke-width: 1.5; stroke-linecap: square"/>
   </g>
   <g id="line2d_15">
    <path d="M 312.201378 241.928208 
L 313.870175 229.589136 
" clip-path="url(#p8f557f1389)" style="fill: none; stroke: #808080; stroke-width: 1.5; stroke-linecap: square"/>
   </g>
   <g id="line2d_16">
    <path d="M 284.884273 252.744854 
L 272.513329 254.158118 
" clip-path="url(#p8f557f1389)" style="fill: none; stroke: #808080; stroke-width: 1.5; stroke-linecap: square"/>
   </g>
   <g id="line2d_17">
    <path d="M 340.811774 279.45547 
L 353.071218 281.633453 
" clip-path="url(#p8f557f1389)" style="fill: none; stroke: #808080; stroke-width: 1.5; stroke-linecap: square"/>
   </g>
   <g id="patch_3">
    <path d="M 57.6 307.584 
L 57.6 41.472 
" style="fill: none; stroke: #000000; stroke-width: 0.8; stroke-linejoin: miter; stroke-linecap: square"/>
   </g>
   <g id="patch_4">
    <path d="M 414.72 307.584 
L 414.72 41.472 
" style="fill: none; stroke: #000000; stroke-width: 0.8; stroke-linejoin: miter; stroke-linecap: square"/>
   </g>
   <g id="patch_5">
    <path d="M 57.6 307.584 
L 414.72 307.584 
" style="fill: none; stroke: #000000; stroke-width: 0.8; stroke-linejoin: miter; stroke-linecap: square"/>
   </g>
   <g id="patch_6">
    <path d="M 57.6 41.472 
L 414.72 41.472 
" style="fill: none; stroke: #000000; stroke-width: 0.8; stroke-linejoin: miter; stroke-linecap: square"/>
   </g>
   <g id="text_1">
    <!-- 1 -->
    <g style="fill: #ffffff" transform="translate(108.854602 291.360978) scale(0.0833 -0.0833)">
     <defs>
      <path id="DejaVuSans-31" d="M 794 531 
L 1825 531 
L 1825 4091 
L 703 3866 
L 703 4441 
L 1819 4666 
L 2450 4666 
L 2450 531 
L 3481 531 
L 3481 0 
L 794 0 
L 794 531 
z
" transform="scale(0.015625)"/>
     </defs>
     <use xlink:href="#DejaVuSans-31"/>
    </g>
   </g>
   <g id="text_2">
    <!-- 1A -->
    <g style="fill: #ffffff" transform="translate(153.423402 254.559012) scale(0.0833 -0.0833)">
     <defs>
      <path id="DejaVuSans-41" d="M 2188 4044 
L 1331 1722 
L 3047 1722 
L 2188 4044 
z
M 1831 4666 
L 2547 4666 
L 4325 0 
L 3669 0 
L 3244 1197 
L 1141 1197 
L 716 0 
L 50 0 
L 1831 4666 
z
" transform="scale(0.015625)"/>
     </defs>
     <use xlink:href="#DejaVuSans-31"/>
     <use xlink:href="#DejaVuSans-41" x="63.623047"/>
    </g>
   </g>
   <g id="text_3">
    <!-- 2 -->
    <g style="fill: #ffffff" transform="translate(243.392579 256.818565) scale(0.0833 -0.0833)">
     <defs>
      <path id="DejaVuSans-32" d="M 1228 531 
L 3431 531 
L 3431 0 
L 469 0 
L 469 531 
Q 828 903 1448 1529 
Q 2069 2156 2228 2338 
Q 2531 2678 2651 2914 
Q 2772 3150 2772 3378 
Q 2772 3750 2511 3984 
Q 2250 4219 1831 4219 
Q 1534 4219 1204 4116 
Q 875 4013 500 3803 
L 500 4441 
Q 881 4594 1212 4672 
Q 1544 4750 1819 4750 
Q 2544 4750 2975 4387 
Q 3406 4025 3406 3419 
Q 3406 3131 3298 2873 
Q 3191 2616 2906 2266 
Q 2828 2175 2409 1742 
Q 1991 1309 1228 531 
z
" transform="scale(0.015625)"/>
     </defs>
     <use xlink:href="#DejaVuSans-32"/>
    </g>
   </g>
   <g id="text_4">
    <!-- 3 -->
    <g style="fill: #ffffff" transform="translate(206.739919 219.437766) scale(0.0833 -0.0833)">
     <defs>
      <path id="DejaVuSans-33" d="M 2597 2516 
Q 3050 2419 3304 2112 
Q 3559 1806 3559 1356 
Q 3559 666 3084 287 
Q 2609 -91 1734 -91 
Q 1441 -91 1130 -33 
Q 819 25 488 141 
L 488 750 
Q 750 597 1062 519 
Q 1375 441 1716 441 
Q 2309 441 2620 675 
Q 2931 909 2931 1356 
Q 2931 1769 2642 2001 
Q 2353 2234 1838 2234 
L 1294 2234 
L 1294 2753 
L 1863 2753 
Q 2328 2753 2575 2939 
Q 2822 3125 2822 3475 
Q 2822 3834 2567 4026 
Q 2313 4219 1838 4219 
Q 1578 4219 1281 4162 
Q 984 4106 628 3988 
L 628 4550 
Q 988 4650 1302 4700 
Q 1616 4750 1894 4750 
Q 2613 4750 3031 4423 
Q 3450 4097 3450 3541 
Q 3450 3153 3228 2886 
Q 3006 2619 2597 2516 
z
" transform="scale(0.015625)"/>
     </defs>
     <use xlink:href="#DejaVuSans-33"/>
    </g>
   </g>
   <g id="text_5">
    <!-- 4 -->
    <g style="fill: #ffffff" transform="translate(162.163358 117.709565) scale(0.0833 -0.0833)">
     <defs>
      <path id="DejaVuSans-34" d="M 2419 4116 
L 825 1625 
L 2419 1625 
L 2419 4116 
z
M 2253 4666 
L 3047 4666 
L 3047 1625 
L 3713 1625 
L 3713 1100 
L 3047 1100 
L 3047 0 
L 2419 0 
L 2419 1100 
L 313 1100 
L 313 1709 
L 2253 4666 
z
" transform="scale(0.015625)"/>
     </defs>
     <use xlink:href="#DejaVuSans-34"/>
    </g>
   </g>
   <g id="text_6">
    <!-- 5 -->
    <g style="fill: #ffffff" transform="translate(146.641554 73.608798) scale(0.0833 -0.0833)">
     <defs>
      <path id="DejaVuSans-35" d="M 691 4666 
L 3169 4666 
L 3169 4134 
L 1269 4134 
L 1269 2991 
Q 1406 3038 1543 3061 
Q 1681 3084 1819 3084 
Q 2600 3084 3056 2656 
Q 3513 2228 3513 1497 
Q 3513 744 3044 326 
Q 2575 -91 1722 -91 
Q 1428 -91 1123 -41 
Q 819 9 494 109 
L 494 744 
Q 775 591 1075 516 
Q 1375 441 1709 441 
Q 2250 441 2565 725 
Q 2881 1009 2881 1497 
Q 2881 1984 2565 2268 
Q 2250 2553 1709 2553 
Q 1456 2553 1204 2497 
Q 953 2441 691 2322 
L 691 4666 
z
" transform="scale(0.015625)"/>
     </defs>
     <use xlink:href="#DejaVuSans-35"/>
    </g>
   </g>
   <g id="text_7">
    <!-- 6 -->
    <g style="fill: #ffffff" transform="translate(218.208086 59.580585) scale(0.0833 -0.0833)">
     <defs>
      <path id="DejaVuSans-36" d="M 2113 2584 
Q 1688 2584 1439 2293 
Q 1191 2003 1191 1497 
Q 1191 994 1439 701 
Q 1688 409 2113 409 
Q 2538 409 2786 701 
Q 3034 994 3034 1497 
Q 3034 2003 2786 2293 
Q 2538 2584 2113 2584 
z
M 3366 4563 
L 3366 3988 
Q 3128 4100 2886 4159 
Q 2644 4219 2406 4219 
Q 1781 4219 1451 3797 
Q 1122 3375 1075 2522 
Q 1259 2794 1537 2939 
Q 1816 3084 2150 3084 
Q 2853 3084 3261 2657 
Q 3669 2231 3669 1497 
Q 3669 778 3244 343 
Q 2819 -91 2113 -91 
Q 1303 -91 875 529 
Q 447 1150 447 2328 
Q 447 3434 972 4092 
Q 1497 4750 2381 4750 
Q 2619 4750 2861 4703 
Q 3103 4656 3366 4563 
z
" transform="scale(0.015625)"/>
     </defs>
     <use xlink:href="#DejaVuSans-36"/>
    </g>
   </g>
   <g id="text_8">
    <!-- 7 -->
    <g style="fill: #ffffff" transform="translate(200.785538 82.935071) scale(0.0833 -0.0833)">
     <defs>
      <path id="DejaVuSans-37" d="M 525 4666 
L 3525 4666 
L 3525 4397 
L 1831 0 
L 1172 0 
L 2766 4134 
L 525 4134 
L 525 4666 
z
" transform="scale(0.015625)"/>
     </defs>
     <use xlink:href="#DejaVuSans-37"/>
    </g>
   </g>
   <g id="text_9">
    <!-- 8 -->
    <g style="fill: #ffffff" transform="translate(244.979541 110.367505) scale(0.0833 -0.0833)">
     <defs>
      <path id="DejaVuSans-38" d="M 2034 2216 
Q 1584 2216 1326 1975 
Q 1069 1734 1069 1313 
Q 1069 891 1326 650 
Q 1584 409 2034 409 
Q 2484 409 2743 651 
Q 3003 894 3003 1313 
Q 3003 1734 2745 1975 
Q 2488 2216 2034 2216 
z
M 1403 2484 
Q 997 2584 770 2862 
Q 544 3141 544 3541 
Q 544 4100 942 4425 
Q 1341 4750 2034 4750 
Q 2731 4750 3128 4425 
Q 3525 4100 3525 3541 
Q 3525 3141 3298 2862 
Q 3072 2584 2669 2484 
Q 3125 2378 3379 2068 
Q 3634 1759 3634 1313 
Q 3634 634 3220 271 
Q 2806 -91 2034 -91 
Q 1263 -91 848 271 
Q 434 634 434 1313 
Q 434 1759 690 2068 
Q 947 2378 1403 2484 
z
M 1172 3481 
Q 1172 3119 1398 2916 
Q 1625 2713 2034 2713 
Q 2441 2713 2670 2916 
Q 2900 3119 2900 3481 
Q 2900 3844 2670 4047 
Q 2441 4250 2034 4250 
Q 1625 4250 1398 4047 
Q 1172 3844 1172 3481 
z
" transform="scale(0.015625)"/>
     </defs>
     <use xlink:href="#DejaVuSans-38"/>
    </g>
   </g>
   <g id="text_10">
    <!-- 9 -->
    <g style="fill: #ffffff" transform="translate(281.321303 76.598423) scale(0.0833 -0.0833)">
     <defs>
      <path id="DejaVuSans-39" d="M 703 97 
L 703 672 
Q 941 559 1184 500 
Q 1428 441 1663 441 
Q 2288 441 2617 861 
Q 2947 1281 2994 2138 
Q 2813 1869 2534 1725 
Q 2256 1581 1919 1581 
Q 1219 1581 811 2004 
Q 403 2428 403 3163 
Q 403 3881 828 4315 
Q 1253 4750 1959 4750 
Q 2769 4750 3195 4129 
Q 3622 3509 3622 2328 
Q 3622 1225 3098 567 
Q 2575 -91 1691 -91 
Q 1453 -91 1209 -44 
Q 966 3 703 97 
z
M 1959 2075 
Q 2384 2075 2632 2365 
Q 2881 2656 2881 3163 
Q 2881 3666 2632 3958 
Q 2384 4250 1959 4250 
Q 1534 4250 1286 3958 
Q 1038 3666 1038 3163 
Q 1038 2656 1286 2365 
Q 1534 2075 1959 2075 
z
" transform="scale(0.015625)"/>
     </defs>
     <use xlink:href="#DejaVuSans-39"/>
    </g>
   </g>
   <g id="text_11">
    <!-- 10 -->
    <g style="fill: #ffffff" transform="translate(295.476499 136.32468) scale(0.0833 -0.0833)">
     <defs>
      <path id="DejaVuSans-30" d="M 2034 4250 
Q 1547 4250 1301 3770 
Q 1056 3291 1056 2328 
Q 1056 1369 1301 889 
Q 1547 409 2034 409 
Q 2525 409 2770 889 
Q 3016 1369 3016 2328 
Q 3016 3291 2770 3770 
Q 2525 4250 2034 4250 
z
M 2034 4750 
Q 2819 4750 3233 4129 
Q 3647 3509 3647 2328 
Q 3647 1150 3233 529 
Q 2819 -91 2034 -91 
Q 1250 -91 836 529 
Q 422 1150 422 2328 
Q 422 3509 836 4129 
Q 1250 4750 2034 4750 
z
" transform="scale(0.015625)"/>
     </defs>
     <use xlink:href="#DejaVuSans-31"/>
     <use xlink:href="#DejaVuSans-30" x="63.623047"/>
    </g>
   </g>
   <g id="text_12">
    <!-- 11 -->
    <g style="fill: #ffffff" transform="translate(355.515454 145.360327) scale(0.0833 -0.0833)">
     <use xlink:href="#DejaVuSans-31"/>
     <use xlink:href="#DejaVuSans-31" x="63.623047"/>
    </g>
   </g>
   <g id="text_13">
    <!-- 12 -->
    <g style="fill: #ffffff" transform="translate(346.047532 256.123532) scale(0.0833 -0.0833)">
     <use xlink:href="#DejaVuSans-31"/>
     <use xlink:href="#DejaVuSans-32" x="63.623047"/>
    </g>
   </g>
   <g id="text_14">
    <!-- 12A -->
    <g style="fill: #ffffff" transform="translate(305.721092 232.753885) scale(0.0833 -0.0833)">
     <use xlink:href="#DejaVuSans-31"/>
     <use xlink:href="#DejaVuSans-32" x="63.623047"/>
     <use xlink:href="#DejaVuSans-41" x="127.246094"/>
    </g>
   </g>
   <g id="text_15">
    <!-- 13 -->
    <g style="fill: #ffffff" transform="translate(267.213367 257.322867) scale(0.0833 -0.0833)">
     <use xlink:href="#DejaVuSans-31"/>
     <use xlink:href="#DejaVuSans-33" x="63.623047"/>
    </g>
   </g>
   <g id="text_16">
    <!-- 14 -->
    <g style="fill: #ffffff" transform="translate(347.771255 284.798202) scale(0.0833 -0.0833)">
     <use xlink:href="#DejaVuSans-31"/>
     <use xlink:href="#DejaVuSans-34" x="63.623047"/>
    </g>
   </g>
  </g>
 </g>
 <defs>
  <clipPath id="p8f557f1389">
   <rect x="57.6" y="41.472" width="357.12" height="266.112"/>
  </clipPath>
 </defs>
</svg>
