<?xml version="1.0" encoding="utf-8" standalone="no"?>
<!DOCTYPE svg PUBLIC "-//W3C//DTD SVG 1.1//EN"
  "http://www.w3.org/Graphics/SVG/1.1/DTD/svg11.dtd">
<svg xmlns:xlink="http://www.w3.org/1999/xlink" width="460.8pt" height="345.6pt" viewBox="0 0 460.8 345.6" xmlns="http://www.w3.org/2000/svg" version="1.1">
 <metadata>
  <rdf:RDF xmlns:dc="http://purl.org/dc/elements/1.1/" xmlns:cc="http://creativecommons.org/ns#" xmlns:rdf="http://www.w3.org/1999/02/22-rdf-syntax-ns#">
   <cc:Work>
    <dc:type rdf:resource="http://purl.org/dc/dcmitype/StillImage"/>
    <dc:date>2024-07-14T12:23:20.950003</dc:date>
    <dc:format>image/svg+xml</dc:format>
    <dc:creator>
     <cc:Agent>
      <dc:title>Matplotlib v3.9.0, https://matplotlib.org/</dc:title>
     </cc:Agent>
    </dc:creator>
   </cc:Work>
  </rdf:RDF>
 </metadata>
 <defs>
  <style type="text/css">*{stroke-linejoin: round; stroke-linecap: butt}</style>
 </defs>
 <g id="figure_1">
  <g id="patch_1">
   <path d="M 0 345.6 
L 460.8 345.6 
L 460.8 0 
L 0 0 
z
" style="fill: #ffffff"/>
  </g>
  <g id="axes_1">
   <g id="patch_2">
    <path d="M 57.6 307.584 
L 414.72 307.584 
L 414.72 41.472 
L 57.6 41.472 
z
" style="fill: #ffffff"/>
   </g>
   <g id="PathCollection_1">
    <defs>
     <path id="m44596b6da5" d="M 0 5.91608 
C 1.568963 5.91608 3.073876 5.292724 4.1833 4.1833 
C 5.292724 3.073876 5.91608 1.568963 5.91608 0 
C 5.91608 -1.568963 5.292724 -3.073876 4.1833 -4.1833 
C 3.073876 -5.292724 1.568963 -5.91608 0 -5.91608 
C -1.568963 -5.91608 -3.073876 -5.292724 -4.1833 -4.1833 
C -5.292724 -3.073876 -5.91608 -1.568963 -5.91608 0 
C -5.91608 1.568963 -5.292724 3.073876 -4.1833 4.1833 
C -3.073876 5.292724 -1.568963 5.91608 0 5.91608 
z
" style="stroke: #808080"/>
    </defs>
    <g clip-path="url(#pd34c72911b)">
     <use xlink:href="#m44596b6da5" x="73.832727" y="252.994143" style="fill: #808080; stroke: #808080"/>
    </g>
   </g>
   <g id="PathCollection_2">
    <g clip-path="url(#pd34c72911b)">
     <use xlink:href="#m44596b6da5" x="146.827899" y="165.346221" style="fill: #808080; stroke: #808080"/>
    </g>
   </g>
   <g id="PathCollection_3">
    <g clip-path="url(#pd34c72911b)">
     <use xlink:href="#m44596b6da5" x="148.041672" y="141.250743" style="fill: #808080; stroke: #808080"/>
    </g>
   </g>
   <g id="PathCollection_4">
    <g clip-path="url(#pd34c72911b)">
     <use xlink:href="#m44596b6da5" x="169.042001" y="151.908683" style="fill: #808080; stroke: #808080"/>
    </g>
   </g>
   <g id="PathCollection_5">
    <g clip-path="url(#pd34c72911b)">
     <use xlink:href="#m44596b6da5" x="332.040789" y="66.991946" style="fill: #808080; stroke: #808080"/>
    </g>
   </g>
   <g id="PathCollection_6">
    <g clip-path="url(#pd34c72911b)">
     <use xlink:href="#m44596b6da5" x="337.45972" y="89.367905" style="fill: #808080; stroke: #808080"/>
    </g>
   </g>
   <g id="PathCollection_7">
    <g clip-path="url(#pd34c72911b)">
     <use xlink:href="#m44596b6da5" x="361.41194" y="86.277879" style="fill: #808080; stroke: #808080"/>
    </g>
   </g>
   <g id="PathCollection_8">
    <g clip-path="url(#pd34c72911b)">
     <use xlink:href="#m44596b6da5" x="398.487273" y="135.44949" style="fill: #808080; stroke: #808080"/>
    </g>
   </g>
   <g id="PathCollection_9">
    <g clip-path="url(#pd34c72911b)">
     <use xlink:href="#m44596b6da5" x="365.255654" y="116.09799" style="fill: #808080; stroke: #808080"/>
    </g>
   </g>
   <g id="PathCollection_10">
    <g clip-path="url(#pd34c72911b)">
     <use xlink:href="#m44596b6da5" x="283.437476" y="126.587417" style="fill: #808080; stroke: #808080"/>
    </g>
   </g>
   <g id="PathCollection_11">
    <g clip-path="url(#pd34c72911b)">
     <use xlink:href="#m44596b6da5" x="296.011377" y="162.339208" style="fill: #808080; stroke: #808080"/>
    </g>
   </g>
   <g id="PathCollection_12">
    <g clip-path="url(#pd34c72911b)">
     <use xlink:href="#m44596b6da5" x="357.182692" y="188.239881" style="fill: #808080; stroke: #808080"/>
    </g>
   </g>
   <g id="PathCollection_13">
    <g clip-path="url(#pd34c72911b)">
     <use xlink:href="#m44596b6da5" x="341.884005" y="218.847021" style="fill: #808080; stroke: #808080"/>
    </g>
   </g>
   <g id="PathCollection_14">
    <g clip-path="url(#pd34c72911b)">
     <use xlink:href="#m44596b6da5" x="392.217439" y="242.170375" style="fill: #808080; stroke: #808080"/>
    </g>
   </g>
   <g id="PathCollection_15">
    <g clip-path="url(#pd34c72911b)">
     <use xlink:href="#m44596b6da5" x="363.936328" y="282.064054" style="fill: #808080; stroke: #808080"/>
    </g>
   </g>
   <g id="PathCollection_16">
    <g clip-path="url(#pd34c72911b)">
     <use xlink:href="#m44596b6da5" x="276.658099" y="207.358084" style="fill: #808080; stroke: #808080"/>
    </g>
   </g>
   <g id="PathCollection_17">
    <g clip-path="url(#pd34c72911b)">
     <use xlink:href="#m44596b6da5" x="240.499295" y="178.281711" style="fill: #808080; stroke: #808080"/>
    </g>
   </g>
   <g id="PathCollection_18">
    <g clip-path="url(#pd34c72911b)">
     <use xlink:href="#m44596b6da5" x="156.845418" y="215.963432" style="fill: #808080; stroke: #808080"/>
    </g>
   </g>
   <g id="PathCollection_19">
    <g clip-path="url(#pd34c72911b)">
     <use xlink:href="#m44596b6da5" x="156.436884" y="192.629675" style="fill: #808080; stroke: #808080"/>
    </g>
   </g>
   <g id="matplotlib.axis_1"/>
   <g id="matplotlib.axis_2"/>
   <g id="line2d_1">
    <path d="M 127.086692 217.054027 
L 87.744152 244.023877 
L 85.279507 245.494466 
L 83.832561 246.201783 
L 81.718789 246.873154 
L 80.134192 246.964261 
L 79.354706 246.83511 
L 78.6203 246.562416 
L 78.009982 246.128936 
L 77.277317 245.047256 
L 77.05014 243.845719 
L 77.230541 242.367416 
L 77.858617 240.183376 
L 78.907637 237.57958 
L 80.023129 235.149104 
L 85.981715 223.021797 
L 87.977255 219.211839 
L 90.687827 214.564583 
L 91.614338 213.120842 
L 93.980957 209.66923 
L 98.973996 203.110432 
L 101.97628 199.727034 
L 107.087157 194.466853 
L 116.287812 185.423606 
L 125.742179 176.37593 
L 134.76362 167.970287 
L 136.072362 166.615045 
L 139.144797 162.706981 
L 142.329303 156.132165 
L 144.017033 153.77101 
L 147.311386 150.763199 
L 150.609811 148.897371 
L 154.074003 147.441059 
L 156.077607 146.819196 
L 163.870771 145.287321 
L 166.330907 144.467148 
L 169.852161 142.645016 
L 172.442001 141.07707 
L 177.349898 137.819028 
L 182.265902 134.116712 
L 188.212694 129.492277 
L 194.694197 124.604718 
L 200.71189 120.407315 
L 203.237472 118.792906 
L 208.923748 115.600586 
L 213.92643 113.229155 
L 216.525404 112.184491 
L 230.902329 107.079808 
L 290.980059 85.775536 
L 316.29728 76.784073 
L 320.996661 75.211029 
L 324.56679 74.37148 
L 327.498405 74.209275 
L 328.849852 74.39189 
L 330.925106 75.14876 
L 332.288178 75.997371 
L 338.340381 81.046838 
L 339.986942 81.779467 
L 341.276621 82.058331 
L 343.325224 82.197053 
L 344.43411 82.11425 
L 346.694747 81.678243 
L 350.808801 80.194726 
L 354.322225 78.832725 
L 356.847727 78.122444 
L 360.095099 77.875418 
L 362.401843 78.263424 
L 364.093207 78.836652 
L 366.061338 79.817458 
L 367.907317 81.070048 
L 370.102348 83.236534 
L 373.563764 87.982263 
L 376.865502 92.667331 
L 381.281859 98.506721 
L 385.872089 104.311353 
L 392.635323 112.838021 
L 394.657507 116.006822 
L 395.967312 118.347379 
L 397.026171 120.850934 
L 397.23409 122.766591 
L 396.78653 125.296441 
L 396.404497 126.127927 
L 395.693341 127.187224 
L 395.040078 127.928273 
L 393.788675 128.933552 
L 392.909261 129.440621 
L 391.663751 129.87477 
L 390.429947 130.070786 
L 389.03342 130.031715 
L 387.935686 129.844672 
L 386.483561 129.346577 
L 384.31961 128.051952 
L 383.095377 126.978852 
L 381.282853 124.916722 
L 378.840359 121.295263 
L 375.484487 115.326329 
L 373.533204 112.584561 
L 372.046955 111.040178 
L 370.134226 109.598411 
L 368.645958 108.847157 
L 366.36816 108.300026 
L 362.610042 108.365625 
L 360.192495 108.899541 
L 357.417155 109.83625 
L 342.223333 116.303451 
L 336.608673 118.146261 
L 327.90964 120.487042 
L 316.029984 123.264026 
L 303.155486 126.296302 
L 299.822659 127.099985 
L 295.941202 128.278067 
L 291.976504 130.139663 
L 287.721237 133.52907 
L 286.291729 135.235381 
L 283.802879 139.862905 
L 283.446114 141.233254 
L 283.025126 145.28538 
L 282.957894 150.520971 
L 283.059796 152.723993 
L 283.790202 157.311187 
L 285.083793 160.540291 
L 286.914308 163.633128 
L 291.221406 168.66547 
L 295.033498 171.691995 
L 296.332865 172.525856 
L 301.64584 175.208945 
L 305.781046 176.754676 
L 336.029586 185.838981 
L 341.724041 187.65887 
L 344.294739 188.629158 
L 346.534376 189.716258 
L 348.861326 191.261829 
L 350.908938 193.161236 
L 352.793748 195.729684 
L 353.623966 197.856545 
L 353.906464 199.501249 
L 353.95775 201.530673 
L 353.721671 203.45408 
L 352.997623 205.59221 
L 350.546576 210.568035 
L 350.003955 212.195418 
L 349.668305 213.866773 
L 349.586922 215.565414 
L 350.205026 219.171132 
L 350.835826 220.778033 
L 351.655803 222.318183 
L 352.891384 224.041422 
L 354.715614 225.865419 
L 356.646137 227.417909 
L 358.235636 228.516357 
L 360.624353 229.965678 
L 362.609725 231.025493 
L 368.558366 233.776796 
L 374.252187 236.469099 
L 377.326355 238.11266 
L 379.875026 239.638498 
L 381.561881 240.862142 
L 383.33771 242.639398 
L 384.825263 245.167194 
L 385.358903 247.568884 
L 385.288948 249.013536 
L 385.035351 250.842078 
L 384.694997 252.243863 
L 384.211375 253.616426 
L 382.602296 256.848611 
L 381.662695 258.451199 
L 377.053824 265.209496 
L 374.049879 268.497752 
L 372.628201 269.743932 
L 370.027209 271.581724 
L 368.330148 272.499611 
L 365.510836 273.643291 
L 363.203458 274.127699 
L 360.223718 274.25902 
L 357.937259 274.12445 
L 354.534718 273.6604 
L 351.142499 272.878932 
L 348.686399 272.112848 
L 344.917842 270.67175 
L 339.925329 268.173409 
L 335.948497 265.704926 
L 333.267434 263.864161 
L 326.979589 258.945702 
L 322.403118 254.83805 
L 317.253383 249.693521 
L 313.287863 245.146935 
L 311.340732 242.643022 
L 308.738561 238.960903 
L 305.245511 233.3116 
L 295.020075 216.359263 
L 293.683538 214.304687 
L 290.643816 210.090902 
L 287.003187 205.982777 
L 283.938867 203.085957 
L 281.943532 201.455289 
L 277.593684 198.51746 
L 275.911534 197.563386 
L 272.214236 195.66105 
L 268.951998 194.147667 
L 261.027396 190.875689 
L 255.327959 188.770373 
L 252.169997 187.778611 
L 248.155478 186.78594 
L 242.736602 186.214328 
L 240.263457 186.28922 
L 237.778053 186.570531 
L 233.701606 187.482365 
L 231.809279 188.118147 
L 227.665172 189.697361 
L 224.121971 191.170914 
L 213.325693 196.038617 
L 198.004461 202.476318 
L 193.189653 203.797587 
L 183.804615 205.912414 
L 175.56773 207.467896 
L 168.403311 208.671559 
L 165.189868 209.044887 
L 162.477483 209.044646 
L 160.761048 208.85254 
L 159.485011 208.446543 
L 158.330019 207.705334 
L 157.827656 207.095489 
L 157.530881 206.450333 
L 157.28065 204.83679 
L 157.140035 203.142024 
L 156.936464 202.384207 
L 156.476967 201.503963 
L 155.655249 200.772798 
L 155.287493 200.604737 
L 154.251803 200.337301 
L 152.588474 200.461506 
L 150.790182 201.032199 
L 148.966542 201.968157 
L 147.319544 203.027927 
L 132.603603 213.246051 
L 128.011186 216.403415 
L 128.011186 216.403415 
" clip-path="url(#pd34c72911b)" style="fill: none; stroke: #1f77b4; stroke-width: 1.5; stroke-linecap: square"/>
   </g>
   <g id="line2d_2">
    <path d="M 78.188439 246.367804 
L 73.832727 252.994143 
" clip-path="url(#pd34c72911b)" style="fill: none; stroke: #808080; stroke-width: 1.5; stroke-linecap: square"/>
   </g>
   <g id="line2d_3">
    <path d="M 139.771517 161.728478 
L 146.827899 165.346221 
" clip-path="url(#pd34c72911b)" style="fill: none; stroke: #808080; stroke-width: 1.5; stroke-linecap: square"/>
   </g>
   <g id="line2d_4">
    <path d="M 151.091984 148.570319 
L 148.041672 141.250743 
" clip-path="url(#pd34c72911b)" style="fill: none; stroke: #808080; stroke-width: 1.5; stroke-linecap: square"/>
   </g>
   <g id="line2d_5">
    <path d="M 166.119309 144.53722 
L 169.042001 151.908683 
" clip-path="url(#pd34c72911b)" style="fill: none; stroke: #808080; stroke-width: 1.5; stroke-linecap: square"/>
   </g>
   <g id="line2d_6">
    <path d="M 329.584509 74.53166 
L 332.040789 66.991946 
" clip-path="url(#pd34c72911b)" style="fill: none; stroke: #808080; stroke-width: 1.5; stroke-linecap: square"/>
   </g>
   <g id="line2d_7">
    <path d="M 339.660526 81.7497 
L 337.45972 89.367905 
" clip-path="url(#pd34c72911b)" style="fill: none; stroke: #808080; stroke-width: 1.5; stroke-linecap: square"/>
   </g>
   <g id="line2d_8">
    <path d="M 364.818408 79.117113 
L 361.41194 86.277879 
" clip-path="url(#pd34c72911b)" style="fill: none; stroke: #808080; stroke-width: 1.5; stroke-linecap: square"/>
   </g>
   <g id="line2d_9">
    <path d="M 394.153994 128.808459 
L 398.487273 135.44949 
" clip-path="url(#pd34c72911b)" style="fill: none; stroke: #808080; stroke-width: 1.5; stroke-linecap: square"/>
   </g>
   <g id="line2d_10">
    <path d="M 366.19075 108.223589 
L 365.255654 116.09799 
" clip-path="url(#pd34c72911b)" style="fill: none; stroke: #808080; stroke-width: 1.5; stroke-linecap: square"/>
   </g>
   <g id="line2d_11">
    <path d="M 288.738524 132.48483 
L 283.437476 126.587417 
" clip-path="url(#pd34c72911b)" style="fill: none; stroke: #808080; stroke-width: 1.5; stroke-linecap: square"/>
   </g>
   <g id="line2d_12">
    <path d="M 290.396164 167.938313 
L 296.011377 162.339208 
" clip-path="url(#pd34c72911b)" style="fill: none; stroke: #808080; stroke-width: 1.5; stroke-linecap: square"/>
   </g>
   <g id="line2d_13">
    <path d="M 351.227549 193.475993 
L 357.182692 188.239881 
" clip-path="url(#pd34c72911b)" style="fill: none; stroke: #808080; stroke-width: 1.5; stroke-linecap: square"/>
   </g>
   <g id="line2d_14">
    <path d="M 349.581637 216.942539 
L 341.884005 218.847021 
" clip-path="url(#pd34c72911b)" style="fill: none; stroke: #808080; stroke-width: 1.5; stroke-linecap: square"/>
   </g>
   <g id="line2d_15">
    <path d="M 384.856753 245.120105 
L 392.217439 242.170375 
" clip-path="url(#pd34c72911b)" style="fill: none; stroke: #808080; stroke-width: 1.5; stroke-linecap: square"/>
   </g>
   <g id="line2d_16">
    <path d="M 362.886006 274.204193 
L 363.936328 282.064054 
" clip-path="url(#pd34c72911b)" style="fill: none; stroke: #808080; stroke-width: 1.5; stroke-linecap: square"/>
   </g>
   <g id="line2d_17">
    <path d="M 281.355974 200.969769 
L 276.658099 207.358084 
" clip-path="url(#pd34c72911b)" style="fill: none; stroke: #808080; stroke-width: 1.5; stroke-linecap: square"/>
   </g>
   <g id="line2d_18">
    <path d="M 241.013404 186.194757 
L 240.499295 178.281711 
" clip-path="url(#pd34c72911b)" style="fill: none; stroke: #808080; stroke-width: 1.5; stroke-linecap: square"/>
   </g>
   <g id="line2d_19">
    <path d="M 159.719274 208.572793 
L 156.845418 215.963432 
" clip-path="url(#pd34c72911b)" style="fill: none; stroke: #808080; stroke-width: 1.5; stroke-linecap: square"/>
   </g>
   <g id="line2d_20">
    <path d="M 154.583589 200.339791 
L 156.436884 192.629675 
" clip-path="url(#pd34c72911b)" style="fill: none; stroke: #808080; stroke-width: 1.5; stroke-linecap: square"/>
   </g>
   <g id="patch_3">
    <path d="M 57.6 307.584 
L 57.6 41.472 
" style="fill: none; stroke: #000000; stroke-width: 0.8; stroke-linejoin: miter; stroke-linecap: square"/>
   </g>
   <g id="patch_4">
    <path d="M 414.72 307.584 
L 414.72 41.472 
" style="fill: none; stroke: #000000; stroke-width: 0.8; stroke-linejoin: miter; stroke-linecap: square"/>
   </g>
   <g id="patch_5">
    <path d="M 57.6 307.584 
L 414.72 307.584 
" style="fill: none; stroke: #000000; stroke-width: 0.8; stroke-linejoin: miter; stroke-linecap: square"/>
   </g>
   <g id="patch_6">
    <path d="M 57.6 41.472 
L 414.72 41.472 
" style="fill: none; stroke: #000000; stroke-width: 0.8; stroke-linejoin: miter; stroke-linecap: square"/>
   </g>
   <g id="text_1">
    <!-- 1 -->
    <g style="fill: #ffffff" transform="translate(71.182746 256.158892) scale(0.0833 -0.0833)">
     <defs>
      <path id="DejaVuSans-31" d="M 794 531 
L 1825 531 
L 1825 4091 
L 703 3866 
L 703 4441 
L 1819 4666 
L 2450 4666 
L 2450 531 
L 3481 531 
L 3481 0 
L 794 0 
L 794 531 
z
" transform="scale(0.015625)"/>
     </defs>
     <use xlink:href="#DejaVuSans-31"/>
    </g>
   </g>
   <g id="text_2">
    <!-- 2 -->
    <g style="fill: #ffffff" transform="translate(144.177918 168.51097) scale(0.0833 -0.0833)">
     <defs>
      <path id="DejaVuSans-32" d="M 1228 531 
L 3431 531 
L 3431 0 
L 469 0 
L 469 531 
Q 828 903 1448 1529 
Q 2069 2156 2228 2338 
Q 2531 2678 2651 2914 
Q 2772 3150 2772 3378 
Q 2772 3750 2511 3984 
Q 2250 4219 1831 4219 
Q 1534 4219 1204 4116 
Q 875 4013 500 3803 
L 500 4441 
Q 881 4594 1212 4672 
Q 1544 4750 1819 4750 
Q 2544 4750 2975 4387 
Q 3406 4025 3406 3419 
Q 3406 3131 3298 2873 
Q 3191 2616 2906 2266 
Q 2828 2175 2409 1742 
Q 1991 1309 1228 531 
z
" transform="scale(0.015625)"/>
     </defs>
     <use xlink:href="#DejaVuSans-32"/>
    </g>
   </g>
   <g id="text_3">
    <!-- 3 -->
    <g style="fill: #ffffff" transform="translate(145.391691 144.415492) scale(0.0833 -0.0833)">
     <defs>
      <path id="DejaVuSans-33" d="M 2597 2516 
Q 3050 2419 3304 2112 
Q 3559 1806 3559 1356 
Q 3559 666 3084 287 
Q 2609 -91 1734 -91 
Q 1441 -91 1130 -33 
Q 819 25 488 141 
L 488 750 
Q 750 597 1062 519 
Q 1375 441 1716 441 
Q 2309 441 2620 675 
Q 2931 909 2931 1356 
Q 2931 1769 2642 2001 
Q 2353 2234 1838 2234 
L 1294 2234 
L 1294 2753 
L 1863 2753 
Q 2328 2753 2575 2939 
Q 2822 3125 2822 3475 
Q 2822 3834 2567 4026 
Q 2313 4219 1838 4219 
Q 1578 4219 1281 4162 
Q 984 4106 628 3988 
L 628 4550 
Q 988 4650 1302 4700 
Q 1616 4750 1894 4750 
Q 2613 4750 3031 4423 
Q 3450 4097 3450 3541 
Q 3450 3153 3228 2886 
Q 3006 2619 2597 2516 
z
" transform="scale(0.015625)"/>
     </defs>
     <use xlink:href="#DejaVuSans-33"/>
    </g>
   </g>
   <g id="text_4">
    <!-- 4 -->
    <g style="fill: #ffffff" transform="translate(166.392019 155.073433) scale(0.0833 -0.0833)">
     <defs>
      <path id="DejaVuSans-34" d="M 2419 4116 
L 825 1625 
L 2419 1625 
L 2419 4116 
z
M 2253 4666 
L 3047 4666 
L 3047 1625 
L 3713 1625 
L 3713 1100 
L 3047 1100 
L 3047 0 
L 2419 0 
L 2419 1100 
L 313 1100 
L 313 1709 
L 2253 4666 
z
" transform="scale(0.015625)"/>
     </defs>
     <use xlink:href="#DejaVuSans-34"/>
    </g>
   </g>
   <g id="text_5">
    <!-- 5 -->
    <g style="fill: #ffffff" transform="translate(329.390808 70.156695) scale(0.0833 -0.0833)">
     <defs>
      <path id="DejaVuSans-35" d="M 691 4666 
L 3169 4666 
L 3169 4134 
L 1269 4134 
L 1269 2991 
Q 1406 3038 1543 3061 
Q 1681 3084 1819 3084 
Q 2600 3084 3056 2656 
Q 3513 2228 3513 1497 
Q 3513 744 3044 326 
Q 2575 -91 1722 -91 
Q 1428 -91 1123 -41 
Q 819 9 494 109 
L 494 744 
Q 775 591 1075 516 
Q 1375 441 1709 441 
Q 2250 441 2565 725 
Q 2881 1009 2881 1497 
Q 2881 1984 2565 2268 
Q 2250 2553 1709 2553 
Q 1456 2553 1204 2497 
Q 953 2441 691 2322 
L 691 4666 
z
" transform="scale(0.015625)"/>
     </defs>
     <use xlink:href="#DejaVuSans-35"/>
    </g>
   </g>
   <g id="text_6">
    <!-- 6 -->
    <g style="fill: #ffffff" transform="translate(334.809739 92.532654) scale(0.0833 -0.0833)">
     <defs>
      <path id="DejaVuSans-36" d="M 2113 2584 
Q 1688 2584 1439 2293 
Q 1191 2003 1191 1497 
Q 1191 994 1439 701 
Q 1688 409 2113 409 
Q 2538 409 2786 701 
Q 3034 994 3034 1497 
Q 3034 2003 2786 2293 
Q 2538 2584 2113 2584 
z
M 3366 4563 
L 3366 3988 
Q 3128 4100 2886 4159 
Q 2644 4219 2406 4219 
Q 1781 4219 1451 3797 
Q 1122 3375 1075 2522 
Q 1259 2794 1537 2939 
Q 1816 3084 2150 3084 
Q 2853 3084 3261 2657 
Q 3669 2231 3669 1497 
Q 3669 778 3244 343 
Q 2819 -91 2113 -91 
Q 1303 -91 875 529 
Q 447 1150 447 2328 
Q 447 3434 972 4092 
Q 1497 4750 2381 4750 
Q 2619 4750 2861 4703 
Q 3103 4656 3366 4563 
z
" transform="scale(0.015625)"/>
     </defs>
     <use xlink:href="#DejaVuSans-36"/>
    </g>
   </g>
   <g id="text_7">
    <!-- 7 -->
    <g style="fill: #ffffff" transform="translate(358.761958 89.442628) scale(0.0833 -0.0833)">
     <defs>
      <path id="DejaVuSans-37" d="M 525 4666 
L 3525 4666 
L 3525 4397 
L 1831 0 
L 1172 0 
L 2766 4134 
L 525 4134 
L 525 4666 
z
" transform="scale(0.015625)"/>
     </defs>
     <use xlink:href="#DejaVuSans-37"/>
    </g>
   </g>
   <g id="text_8">
    <!-- 8 -->
    <g style="fill: #ffffff" transform="translate(395.837291 138.61424) scale(0.0833 -0.0833)">
     <defs>
      <path id="DejaVuSans-38" d="M 2034 2216 
Q 1584 2216 1326 1975 
Q 1069 1734 1069 1313 
Q 1069 891 1326 650 
Q 1584 409 2034 409 
Q 2484 409 2743 651 
Q 3003 894 3003 1313 
Q 3003 1734 2745 1975 
Q 2488 2216 2034 2216 
z
M 1403 2484 
Q 997 2584 770 2862 
Q 544 3141 544 3541 
Q 544 4100 942 4425 
Q 1341 4750 2034 4750 
Q 2731 4750 3128 4425 
Q 3525 4100 3525 3541 
Q 3525 3141 3298 2862 
Q 3072 2584 2669 2484 
Q 3125 2378 3379 2068 
Q 3634 1759 3634 1313 
Q 3634 634 3220 271 
Q 2806 -91 2034 -91 
Q 1263 -91 848 271 
Q 434 634 434 1313 
Q 434 1759 690 2068 
Q 947 2378 1403 2484 
z
M 1172 3481 
Q 1172 3119 1398 2916 
Q 1625 2713 2034 2713 
Q 2441 2713 2670 2916 
Q 2900 3119 2900 3481 
Q 2900 3844 2670 4047 
Q 2441 4250 2034 4250 
Q 1625 4250 1398 4047 
Q 1172 3844 1172 3481 
z
" transform="scale(0.015625)"/>
     </defs>
     <use xlink:href="#DejaVuSans-38"/>
    </g>
   </g>
   <g id="text_9">
    <!-- 9 -->
    <g style="fill: #ffffff" transform="translate(362.605673 119.262739) scale(0.0833 -0.0833)">
     <defs>
      <path id="DejaVuSans-39" d="M 703 97 
L 703 672 
Q 941 559 1184 500 
Q 1428 441 1663 441 
Q 2288 441 2617 861 
Q 2947 1281 2994 2138 
Q 2813 1869 2534 1725 
Q 2256 1581 1919 1581 
Q 1219 1581 811 2004 
Q 403 2428 403 3163 
Q 403 3881 828 4315 
Q 1253 4750 1959 4750 
Q 2769 4750 3195 4129 
Q 3622 3509 3622 2328 
Q 3622 1225 3098 567 
Q 2575 -91 1691 -91 
Q 1453 -91 1209 -44 
Q 966 3 703 97 
z
M 1959 2075 
Q 2384 2075 2632 2365 
Q 2881 2656 2881 3163 
Q 2881 3666 2632 3958 
Q 2384 4250 1959 4250 
Q 1534 4250 1286 3958 
Q 1038 3666 1038 3163 
Q 1038 2656 1286 2365 
Q 1534 2075 1959 2075 
z
" transform="scale(0.015625)"/>
     </defs>
     <use xlink:href="#DejaVuSans-39"/>
    </g>
   </g>
   <g id="text_10">
    <!-- 10 -->
    <g style="fill: #ffffff" transform="translate(278.137513 129.752166) scale(0.0833 -0.0833)">
     <defs>
      <path id="DejaVuSans-30" d="M 2034 4250 
Q 1547 4250 1301 3770 
Q 1056 3291 1056 2328 
Q 1056 1369 1301 889 
Q 1547 409 2034 409 
Q 2525 409 2770 889 
Q 3016 1369 3016 2328 
Q 3016 3291 2770 3770 
Q 2525 4250 2034 4250 
z
M 2034 4750 
Q 2819 4750 3233 4129 
Q 3647 3509 3647 2328 
Q 3647 1150 3233 529 
Q 2819 -91 2034 -91 
Q 1250 -91 836 529 
Q 422 1150 422 2328 
Q 422 3509 836 4129 
Q 1250 4750 2034 4750 
z
" transform="scale(0.015625)"/>
     </defs>
     <use xlink:href="#DejaVuSans-31"/>
     <use xlink:href="#DejaVuSans-30" x="63.623047"/>
    </g>
   </g>
   <g id="text_11">
    <!-- 11 -->
    <g style="fill: #ffffff" transform="translate(290.711415 165.503957) scale(0.0833 -0.0833)">
     <use xlink:href="#DejaVuSans-31"/>
     <use xlink:href="#DejaVuSans-31" x="63.623047"/>
    </g>
   </g>
   <g id="text_12">
    <!-- 12 -->
    <g style="fill: #ffffff" transform="translate(351.88273 191.40463) scale(0.0833 -0.0833)">
     <use xlink:href="#DejaVuSans-31"/>
     <use xlink:href="#DejaVuSans-32" x="63.623047"/>
    </g>
   </g>
   <g id="text_13">
    <!-- 13 -->
    <g style="fill: #ffffff" transform="translate(336.584043 222.01177) scale(0.0833 -0.0833)">
     <use xlink:href="#DejaVuSans-31"/>
     <use xlink:href="#DejaVuSans-33" x="63.623047"/>
    </g>
   </g>
   <g id="text_14">
    <!-- 14 -->
    <g style="fill: #ffffff" transform="translate(386.917476 245.335124) scale(0.0833 -0.0833)">
     <use xlink:href="#DejaVuSans-31"/>
     <use xlink:href="#DejaVuSans-34" x="63.623047"/>
    </g>
   </g>
   <g id="text_15">
    <!-- 15 -->
    <g style="fill: #ffffff" transform="translate(358.636365 285.228803) scale(0.0833 -0.0833)">
     <use xlink:href="#DejaVuSans-31"/>
     <use xlink:href="#DejaVuSans-35" x="63.623047"/>
    </g>
   </g>
   <g id="text_16">
    <!-- 16 -->
    <g style="fill: #ffffff" transform="translate(271.358137 210.522833) scale(0.0833 -0.0833)">
     <use xlink:href="#DejaVuSans-31"/>
     <use xlink:href="#DejaVuSans-36" x="63.623047"/>
    </g>
   </g>
   <g id="text_17">
    <!-- 17 -->
    <g style="fill: #ffffff" transform="translate(235.199332 181.446461) scale(0.0833 -0.0833)">
     <use xlink:href="#DejaVuSans-31"/>
     <use xlink:href="#DejaVuSans-37" x="63.623047"/>
    </g>
   </g>
   <g id="text_18">
    <!-- 18 -->
    <g style="fill: #ffffff" transform="translate(151.545456 219.128182) scale(0.0833 -0.0833)">
     <use xlink:href="#DejaVuSans-31"/>
     <use xlink:href="#DejaVuSans-38" x="63.623047"/>
    </g>
   </g>
   <g id="text_19">
    <!-- 19 -->
    <g style="fill: #ffffff" transform="translate(151.136922 195.794424) scale(0.0833 -0.0833)">
     <use xlink:href="#DejaVuSans-31"/>
     <use xlink:href="#DejaVuSans-39" x="63.623047"/>
    </g>
   </g>
  </g>
 </g>
 <defs>
  <clipPath id="pd34c72911b">
   <rect x="57.6" y="41.472" width="357.12" height="266.112"/>
  </clipPath>
 </defs>
</svg>
