<?xml version="1.0" encoding="utf-8" standalone="no"?>
<!DOCTYPE svg PUBLIC "-//W3C//DTD SVG 1.1//EN"
  "http://www.w3.org/Graphics/SVG/1.1/DTD/svg11.dtd">
<svg xmlns:xlink="http://www.w3.org/1999/xlink" width="460.8pt" height="345.6pt" viewBox="0 0 460.8 345.6" xmlns="http://www.w3.org/2000/svg" version="1.1">
 <metadata>
  <rdf:RDF xmlns:dc="http://purl.org/dc/elements/1.1/" xmlns:cc="http://creativecommons.org/ns#" xmlns:rdf="http://www.w3.org/1999/02/22-rdf-syntax-ns#">
   <cc:Work>
    <dc:type rdf:resource="http://purl.org/dc/dcmitype/StillImage"/>
    <dc:date>2024-07-14T12:23:24.197997</dc:date>
    <dc:format>image/svg+xml</dc:format>
    <dc:creator>
     <cc:Agent>
      <dc:title>Matplotlib v3.9.0, https://matplotlib.org/</dc:title>
     </cc:Agent>
    </dc:creator>
   </cc:Work>
  </rdf:RDF>
 </metadata>
 <defs>
  <style type="text/css">*{stroke-linejoin: round; stroke-linecap: butt}</style>
 </defs>
 <g id="figure_1">
  <g id="patch_1">
   <path d="M 0 345.6 
L 460.8 345.6 
L 460.8 0 
L 0 0 
z
" style="fill: #ffffff"/>
  </g>
  <g id="axes_1">
   <g id="patch_2">
    <path d="M 57.6 307.584 
L 414.72 307.584 
L 414.72 41.472 
L 57.6 41.472 
z
" style="fill: #ffffff"/>
   </g>
   <g id="PathCollection_1">
    <defs>
     <path id="mf647f8ed5d" d="M 0 5.91608 
C 1.568963 5.91608 3.073876 5.292724 4.1833 4.1833 
C 5.292724 3.073876 5.91608 1.568963 5.91608 0 
C 5.91608 -1.568963 5.292724 -3.073876 4.1833 -4.1833 
C 3.073876 -5.292724 1.568963 -5.91608 0 -5.91608 
C -1.568963 -5.91608 -3.073876 -5.292724 -4.1833 -4.1833 
C -5.292724 -3.073876 -5.91608 -1.568963 -5.91608 0 
C -5.91608 1.568963 -5.292724 3.073876 -4.1833 4.1833 
C -3.073876 5.292724 -1.568963 5.91608 0 5.91608 
z
" style="stroke: #808080"/>
    </defs>
    <g clip-path="url(#p5829000e05)">
     <use xlink:href="#mf647f8ed5d" x="191.894702" y="53.568" style="fill: #808080; stroke: #808080"/>
    </g>
   </g>
   <g id="PathCollection_2">
    <g clip-path="url(#p5829000e05)">
     <use xlink:href="#mf647f8ed5d" x="191.912525" y="149.532629" style="fill: #808080; stroke: #808080"/>
    </g>
   </g>
   <g id="PathCollection_3">
    <g clip-path="url(#p5829000e05)">
     <use xlink:href="#mf647f8ed5d" x="162.215764" y="166.65854" style="fill: #808080; stroke: #808080"/>
    </g>
   </g>
   <g id="PathCollection_4">
    <g clip-path="url(#p5829000e05)">
     <use xlink:href="#mf647f8ed5d" x="205.766661" y="181.077937" style="fill: #808080; stroke: #808080"/>
    </g>
   </g>
   <g id="PathCollection_5">
    <g clip-path="url(#p5829000e05)">
     <use xlink:href="#mf647f8ed5d" x="254.527221" y="158.220006" style="fill: #808080; stroke: #808080"/>
    </g>
   </g>
   <g id="PathCollection_6">
    <g clip-path="url(#p5829000e05)">
     <use xlink:href="#mf647f8ed5d" x="300.475559" y="166.819468" style="fill: #808080; stroke: #808080"/>
    </g>
   </g>
   <g id="PathCollection_7">
    <g clip-path="url(#p5829000e05)">
     <use xlink:href="#mf647f8ed5d" x="356.203922" y="174.853954" style="fill: #808080; stroke: #808080"/>
    </g>
   </g>
   <g id="PathCollection_8">
    <g clip-path="url(#p5829000e05)">
     <use xlink:href="#mf647f8ed5d" x="328.3594" y="234.738511" style="fill: #808080; stroke: #808080"/>
    </g>
   </g>
   <g id="PathCollection_9">
    <g clip-path="url(#p5829000e05)">
     <use xlink:href="#mf647f8ed5d" x="295.690713" y="227.981547" style="fill: #808080; stroke: #808080"/>
    </g>
   </g>
   <g id="PathCollection_10">
    <g clip-path="url(#p5829000e05)">
     <use xlink:href="#mf647f8ed5d" x="322.552559" y="195.490182" style="fill: #808080; stroke: #808080"/>
    </g>
   </g>
   <g id="PathCollection_11">
    <g clip-path="url(#p5829000e05)">
     <use xlink:href="#mf647f8ed5d" x="188.258237" y="194.654848" style="fill: #808080; stroke: #808080"/>
    </g>
   </g>
   <g id="PathCollection_12">
    <g clip-path="url(#p5829000e05)">
     <use xlink:href="#mf647f8ed5d" x="175.696209" y="213.406132" style="fill: #808080; stroke: #808080"/>
    </g>
   </g>
   <g id="PathCollection_13">
    <g clip-path="url(#p5829000e05)">
     <use xlink:href="#mf647f8ed5d" x="160.50317" y="280.506521" style="fill: #808080; stroke: #808080"/>
    </g>
   </g>
   <g id="PathCollection_14">
    <g clip-path="url(#p5829000e05)">
     <use xlink:href="#mf647f8ed5d" x="117.378662" y="266.899427" style="fill: #808080; stroke: #808080"/>
    </g>
   </g>
   <g id="matplotlib.axis_1"/>
   <g id="matplotlib.axis_2"/>
   <g id="line2d_1">
    <path d="M 145.305176 143.275414 
L 160.731006 105.512539 
L 163.93781 96.610895 
L 167.116968 85.248858 
L 168.195118 81.406223 
L 170.268482 75.407289 
L 172.618295 71.067046 
L 173.807024 69.601869 
L 175.742164 67.887888 
L 178.036687 66.616224 
L 182.293995 65.786878 
L 186.496013 66.588579 
L 187.491228 67.030897 
L 189.702817 68.717233 
L 191.444443 71.011757 
L 192.329078 72.808672 
L 192.937265 74.577943 
L 193.269003 76.678952 
L 193.213714 80.466298 
L 192.660817 83.507232 
L 192.135564 85.442372 
L 189.315789 93.68054 
L 187.076555 99.181866 
L 182.238705 110.046295 
L 181.105266 112.921361 
L 179.999472 116.238744 
L 178.810743 123.67521 
L 178.783098 125.886799 
L 179.446575 134.650219 
L 179.695378 139.432779 
L 179.47422 142.086685 
L 178.893678 144.519433 
L 177.760238 146.979825 
L 175.714519 149.606087 
L 172.120687 152.370572 
L 169.135043 153.89104 
L 165.430632 155.383862 
L 157.938876 158.203637 
L 155.312614 159.337076 
L 152.382259 161.023413 
L 150.889437 162.267431 
L 149.507194 163.870833 
L 148.180241 166.524739 
L 147.710278 169.123356 
L 147.931437 172.053711 
L 148.4014 173.601823 
L 149.396615 175.426384 
L 151.19353 177.16801 
L 154.372689 178.93728 
L 156.280184 179.462533 
L 160.039885 179.517822 
L 162.251473 179.10315 
L 171.982463 176.228084 
L 180.745883 172.965991 
L 187.933546 170.560889 
L 194.291863 168.819263 
L 200.65018 167.713468 
L 205.101003 167.271151 
L 208.50132 167.132926 
L 213.090366 167.160571 
L 216.988291 167.409375 
L 220.526833 167.796403 
L 228.847935 169.206291 
L 239.380626 171.19672 
L 245.711298 172.053711 
L 250.32799 172.247225 
L 254.14298 172.109001 
L 263.348717 170.312085 
L 267.025483 169.012777 
L 273.687894 165.778328 
L 286.12808 158.341862 
L 294.78092 154.167488 
L 304.594845 151.734741 
L 312.611854 151.043619 
L 321.568787 150.794815 
L 330.332207 150.82246 
L 340.007907 151.154199 
L 344.901047 151.568871 
L 351.674037 152.978759 
L 353.664467 153.697526 
L 359.221083 156.73846 
L 362.427887 159.447656 
L 365.164728 162.59917 
L 367.56983 166.46945 
L 368.758559 169.123356 
L 370.361961 175.841056 
L 370.417251 181.204159 
L 369.477326 187.147803 
L 368.730914 189.442326 
L 366.851064 193.50612 
L 363.229588 199.532699 
L 355.599607 211.668792 
L 351.06585 219.575221 
L 348.522524 224.855389 
L 345.122206 232.568304 
L 342.274786 238.539593 
L 337.741029 244.704397 
L 331.438002 248.077069 
L 326.627796 249.016994 
L 323.255124 249.265798 
L 318.804302 249.238153 
L 315.846302 249.016994 
L 312.169536 248.574677 
L 307.386976 247.662396 
L 302.659705 246.335443 
L 298.015369 244.566172 
L 292.928715 241.912266 
L 287.924996 238.097276 
L 285.823987 235.968622 
L 284.303519 234.061126 
L 282.506604 230.522585 
L 282.174865 227.979258 
L 282.783052 225.518865 
L 283.888847 223.556081 
L 285.906921 221.150978 
L 288.00793 219.243483 
L 290.440678 217.474212 
L 293.81335 215.539072 
L 297.821855 213.852736 
L 301.028658 212.857521 
L 304.124882 212.11111 
L 303.876079 212.194044 
L 308.243966 211.419988 
L 313.247685 210.728867 
L 317.809087 209.899521 
L 320.877666 209.180755 
L 324.94146 207.992026 
L 329.475217 206.056886 
L 332.488506 203.983521 
L 334.423646 201.661353 
L 335.667665 198.841578 
L 336.082338 196.049447 
L 335.999403 194.086662 
L 335.667665 192.372681 
L 335.087123 190.60341 
L 333.70488 187.921859 
L 332.129123 185.959074 
L 329.696376 183.913355 
L 327.512432 182.724626 
L 326.296058 182.227019 
L 324.582077 181.674121 
L 319.08075 180.540682 
L 309.681499 179.213729 
L 301.692135 178.384383 
L 294.697986 178.08029 
L 289.445463 178.163224 
L 282.589538 178.633187 
L 279.272155 178.93728 
L 270.176997 180.264234 
L 264.371577 181.452963 
L 255.359354 183.775131 
L 246.264195 186.567261 
L 225.447618 193.837859 
L 215.440179 197.044662 
L 208.860703 199.47741 
L 200.733115 202.960662 
L 191.02977 207.632643 
L 188.486443 208.323764 
L 186.800107 208.323764 
L 184.643808 207.494418 
L 180.192986 203.734718 
L 178.230201 202.545989 
L 176.737379 201.965447 
L 174.636369 201.523129 
L 172.563005 201.467839 
L 170.931959 201.688998 
L 169.68794 201.993092 
L 164.131324 206.637428 
L 163.578426 208.13025 
L 163.191398 211.115895 
L 163.467847 214.239764 
L 166.591716 232.402435 
L 173.724089 273.565628 
L 174.221697 278.98402 
L 173.55822 284.236543 
L 173.005323 285.895234 
L 171.982463 287.996244 
L 167.725155 292.695869 
L 165.430632 294.022823 
L 158.519418 295.488 
L 152.326969 295.349776 
L 142.955363 294.824523 
L 138.808634 294.409851 
L 133.196728 293.386991 
L 129.768766 292.419421 
L 126.230224 291.175402 
L 123.07871 289.876094 
L 118.987271 287.719795 
L 115.421085 285.287048 
L 112.407795 282.716076 
L 110.196206 280.421553 
L 105.690095 274.14617 
L 102.870319 267.760208 
L 102.455646 266.184451 
L 101.902749 262.977647 
L 102.151553 256.149368 
L 103.008544 251.919704 
L 104.197272 248.242938 
L 108.150487 239.009556 
L 143.038297 148.776741 
L 143.038297 148.776741 
" clip-path="url(#p5829000e05)" style="fill: none; stroke: #1f77b4; stroke-width: 1.5; stroke-linecap: square"/>
   </g>
   <g id="line2d_2">
    <path d="M 186.419595 66.259838 
L 191.894702 53.568 
" clip-path="url(#p5829000e05)" style="fill: none; stroke: #808080; stroke-width: 1.5; stroke-linecap: square"/>
   </g>
   <g id="line2d_3">
    <path d="M 178.799846 145.160306 
L 191.912525 149.532629 
" clip-path="url(#p5829000e05)" style="fill: none; stroke: #808080; stroke-width: 1.5; stroke-linecap: square"/>
   </g>
   <g id="line2d_4">
    <path d="M 150.159745 173.4196 
L 162.215764 166.65854 
" clip-path="url(#p5829000e05)" style="fill: none; stroke: #808080; stroke-width: 1.5; stroke-linecap: square"/>
   </g>
   <g id="line2d_5">
    <path d="M 204.988182 167.277448 
L 205.766661 181.077937 
" clip-path="url(#p5829000e05)" style="fill: none; stroke: #808080; stroke-width: 1.5; stroke-linecap: square"/>
   </g>
   <g id="line2d_6">
    <path d="M 255.815912 171.98223 
L 254.527221 158.220006 
" clip-path="url(#p5829000e05)" style="fill: none; stroke: #808080; stroke-width: 1.5; stroke-linecap: square"/>
   </g>
   <g id="line2d_7">
    <path d="M 295.776459 153.820314 
L 300.475559 166.819468 
" clip-path="url(#p5829000e05)" style="fill: none; stroke: #808080; stroke-width: 1.5; stroke-linecap: square"/>
   </g>
   <g id="line2d_8">
    <path d="M 369.60656 171.473297 
L 356.203922 174.853954 
" clip-path="url(#p5829000e05)" style="fill: none; stroke: #808080; stroke-width: 1.5; stroke-linecap: square"/>
   </g>
   <g id="line2d_9">
    <path d="M 332.799335 247.82845 
L 328.3594 234.738511 
" clip-path="url(#p5829000e05)" style="fill: none; stroke: #808080; stroke-width: 1.5; stroke-linecap: square"/>
   </g>
   <g id="line2d_10">
    <path d="M 281.872918 227.623668 
L 295.690713 227.981547 
" clip-path="url(#p5829000e05)" style="fill: none; stroke: #808080; stroke-width: 1.5; stroke-linecap: square"/>
   </g>
   <g id="line2d_11">
    <path d="M 336.040816 192.469182 
L 322.552559 195.490182 
" clip-path="url(#p5829000e05)" style="fill: none; stroke: #808080; stroke-width: 1.5; stroke-linecap: square"/>
   </g>
   <g id="line2d_12">
    <path d="M 185.628561 208.224827 
L 188.258237 194.654848 
" clip-path="url(#p5829000e05)" style="fill: none; stroke: #808080; stroke-width: 1.5; stroke-linecap: square"/>
   </g>
   <g id="line2d_13">
    <path d="M 164.833166 204.858978 
L 175.696209 213.406132 
" clip-path="url(#p5829000e05)" style="fill: none; stroke: #808080; stroke-width: 1.5; stroke-linecap: square"/>
   </g>
   <g id="line2d_14">
    <path d="M 172.477965 287.41042 
L 160.50317 280.506521 
" clip-path="url(#p5829000e05)" style="fill: none; stroke: #808080; stroke-width: 1.5; stroke-linecap: square"/>
   </g>
   <g id="line2d_15">
    <path d="M 105.511215 273.986262 
L 117.378662 266.899427 
" clip-path="url(#p5829000e05)" style="fill: none; stroke: #808080; stroke-width: 1.5; stroke-linecap: square"/>
   </g>
   <g id="patch_3">
    <path d="M 57.6 307.584 
L 57.6 41.472 
" style="fill: none; stroke: #000000; stroke-width: 0.8; stroke-linejoin: miter; stroke-linecap: square"/>
   </g>
   <g id="patch_4">
    <path d="M 414.72 307.584 
L 414.72 41.472 
" style="fill: none; stroke: #000000; stroke-width: 0.8; stroke-linejoin: miter; stroke-linecap: square"/>
   </g>
   <g id="patch_5">
    <path d="M 57.6 307.584 
L 414.72 307.584 
" style="fill: none; stroke: #000000; stroke-width: 0.8; stroke-linejoin: miter; stroke-linecap: square"/>
   </g>
   <g id="patch_6">
    <path d="M 57.6 41.472 
L 414.72 41.472 
" style="fill: none; stroke: #000000; stroke-width: 0.8; stroke-linejoin: miter; stroke-linecap: square"/>
   </g>
   <g id="text_1">
    <!-- 1 -->
    <g style="fill: #ffffff" transform="translate(189.244721 56.732749) scale(0.0833 -0.0833)">
     <defs>
      <path id="DejaVuSans-31" d="M 794 531 
L 1825 531 
L 1825 4091 
L 703 3866 
L 703 4441 
L 1819 4666 
L 2450 4666 
L 2450 531 
L 3481 531 
L 3481 0 
L 794 0 
L 794 531 
z
" transform="scale(0.015625)"/>
     </defs>
     <use xlink:href="#DejaVuSans-31"/>
    </g>
   </g>
   <g id="text_2">
    <!-- 2 -->
    <g style="fill: #ffffff" transform="translate(189.262543 152.697378) scale(0.0833 -0.0833)">
     <defs>
      <path id="DejaVuSans-32" d="M 1228 531 
L 3431 531 
L 3431 0 
L 469 0 
L 469 531 
Q 828 903 1448 1529 
Q 2069 2156 2228 2338 
Q 2531 2678 2651 2914 
Q 2772 3150 2772 3378 
Q 2772 3750 2511 3984 
Q 2250 4219 1831 4219 
Q 1534 4219 1204 4116 
Q 875 4013 500 3803 
L 500 4441 
Q 881 4594 1212 4672 
Q 1544 4750 1819 4750 
Q 2544 4750 2975 4387 
Q 3406 4025 3406 3419 
Q 3406 3131 3298 2873 
Q 3191 2616 2906 2266 
Q 2828 2175 2409 1742 
Q 1991 1309 1228 531 
z
" transform="scale(0.015625)"/>
     </defs>
     <use xlink:href="#DejaVuSans-32"/>
    </g>
   </g>
   <g id="text_3">
    <!-- 3 -->
    <g style="fill: #ffffff" transform="translate(159.565783 169.823289) scale(0.0833 -0.0833)">
     <defs>
      <path id="DejaVuSans-33" d="M 2597 2516 
Q 3050 2419 3304 2112 
Q 3559 1806 3559 1356 
Q 3559 666 3084 287 
Q 2609 -91 1734 -91 
Q 1441 -91 1130 -33 
Q 819 25 488 141 
L 488 750 
Q 750 597 1062 519 
Q 1375 441 1716 441 
Q 2309 441 2620 675 
Q 2931 909 2931 1356 
Q 2931 1769 2642 2001 
Q 2353 2234 1838 2234 
L 1294 2234 
L 1294 2753 
L 1863 2753 
Q 2328 2753 2575 2939 
Q 2822 3125 2822 3475 
Q 2822 3834 2567 4026 
Q 2313 4219 1838 4219 
Q 1578 4219 1281 4162 
Q 984 4106 628 3988 
L 628 4550 
Q 988 4650 1302 4700 
Q 1616 4750 1894 4750 
Q 2613 4750 3031 4423 
Q 3450 4097 3450 3541 
Q 3450 3153 3228 2886 
Q 3006 2619 2597 2516 
z
" transform="scale(0.015625)"/>
     </defs>
     <use xlink:href="#DejaVuSans-33"/>
    </g>
   </g>
   <g id="text_4">
    <!-- 4 -->
    <g style="fill: #ffffff" transform="translate(203.11668 184.242686) scale(0.0833 -0.0833)">
     <defs>
      <path id="DejaVuSans-34" d="M 2419 4116 
L 825 1625 
L 2419 1625 
L 2419 4116 
z
M 2253 4666 
L 3047 4666 
L 3047 1625 
L 3713 1625 
L 3713 1100 
L 3047 1100 
L 3047 0 
L 2419 0 
L 2419 1100 
L 313 1100 
L 313 1709 
L 2253 4666 
z
" transform="scale(0.015625)"/>
     </defs>
     <use xlink:href="#DejaVuSans-34"/>
    </g>
   </g>
   <g id="text_5">
    <!-- 5 -->
    <g style="fill: #ffffff" transform="translate(251.87724 161.384755) scale(0.0833 -0.0833)">
     <defs>
      <path id="DejaVuSans-35" d="M 691 4666 
L 3169 4666 
L 3169 4134 
L 1269 4134 
L 1269 2991 
Q 1406 3038 1543 3061 
Q 1681 3084 1819 3084 
Q 2600 3084 3056 2656 
Q 3513 2228 3513 1497 
Q 3513 744 3044 326 
Q 2575 -91 1722 -91 
Q 1428 -91 1123 -41 
Q 819 9 494 109 
L 494 744 
Q 775 591 1075 516 
Q 1375 441 1709 441 
Q 2250 441 2565 725 
Q 2881 1009 2881 1497 
Q 2881 1984 2565 2268 
Q 2250 2553 1709 2553 
Q 1456 2553 1204 2497 
Q 953 2441 691 2322 
L 691 4666 
z
" transform="scale(0.015625)"/>
     </defs>
     <use xlink:href="#DejaVuSans-35"/>
    </g>
   </g>
   <g id="text_6">
    <!-- 6 -->
    <g style="fill: #ffffff" transform="translate(297.825578 169.984217) scale(0.0833 -0.0833)">
     <defs>
      <path id="DejaVuSans-36" d="M 2113 2584 
Q 1688 2584 1439 2293 
Q 1191 2003 1191 1497 
Q 1191 994 1439 701 
Q 1688 409 2113 409 
Q 2538 409 2786 701 
Q 3034 994 3034 1497 
Q 3034 2003 2786 2293 
Q 2538 2584 2113 2584 
z
M 3366 4563 
L 3366 3988 
Q 3128 4100 2886 4159 
Q 2644 4219 2406 4219 
Q 1781 4219 1451 3797 
Q 1122 3375 1075 2522 
Q 1259 2794 1537 2939 
Q 1816 3084 2150 3084 
Q 2853 3084 3261 2657 
Q 3669 2231 3669 1497 
Q 3669 778 3244 343 
Q 2819 -91 2113 -91 
Q 1303 -91 875 529 
Q 447 1150 447 2328 
Q 447 3434 972 4092 
Q 1497 4750 2381 4750 
Q 2619 4750 2861 4703 
Q 3103 4656 3366 4563 
z
" transform="scale(0.015625)"/>
     </defs>
     <use xlink:href="#DejaVuSans-36"/>
    </g>
   </g>
   <g id="text_7">
    <!-- 7 -->
    <g style="fill: #ffffff" transform="translate(353.553941 178.018704) scale(0.0833 -0.0833)">
     <defs>
      <path id="DejaVuSans-37" d="M 525 4666 
L 3525 4666 
L 3525 4397 
L 1831 0 
L 1172 0 
L 2766 4134 
L 525 4134 
L 525 4666 
z
" transform="scale(0.015625)"/>
     </defs>
     <use xlink:href="#DejaVuSans-37"/>
    </g>
   </g>
   <g id="text_8">
    <!-- 8 -->
    <g style="fill: #ffffff" transform="translate(325.709419 237.90326) scale(0.0833 -0.0833)">
     <defs>
      <path id="DejaVuSans-38" d="M 2034 2216 
Q 1584 2216 1326 1975 
Q 1069 1734 1069 1313 
Q 1069 891 1326 650 
Q 1584 409 2034 409 
Q 2484 409 2743 651 
Q 3003 894 3003 1313 
Q 3003 1734 2745 1975 
Q 2488 2216 2034 2216 
z
M 1403 2484 
Q 997 2584 770 2862 
Q 544 3141 544 3541 
Q 544 4100 942 4425 
Q 1341 4750 2034 4750 
Q 2731 4750 3128 4425 
Q 3525 4100 3525 3541 
Q 3525 3141 3298 2862 
Q 3072 2584 2669 2484 
Q 3125 2378 3379 2068 
Q 3634 1759 3634 1313 
Q 3634 634 3220 271 
Q 2806 -91 2034 -91 
Q 1263 -91 848 271 
Q 434 634 434 1313 
Q 434 1759 690 2068 
Q 947 2378 1403 2484 
z
M 1172 3481 
Q 1172 3119 1398 2916 
Q 1625 2713 2034 2713 
Q 2441 2713 2670 2916 
Q 2900 3119 2900 3481 
Q 2900 3844 2670 4047 
Q 2441 4250 2034 4250 
Q 1625 4250 1398 4047 
Q 1172 3844 1172 3481 
z
" transform="scale(0.015625)"/>
     </defs>
     <use xlink:href="#DejaVuSans-38"/>
    </g>
   </g>
   <g id="text_9">
    <!-- 9 -->
    <g style="fill: #ffffff" transform="translate(293.040732 231.146296) scale(0.0833 -0.0833)">
     <defs>
      <path id="DejaVuSans-39" d="M 703 97 
L 703 672 
Q 941 559 1184 500 
Q 1428 441 1663 441 
Q 2288 441 2617 861 
Q 2947 1281 2994 2138 
Q 2813 1869 2534 1725 
Q 2256 1581 1919 1581 
Q 1219 1581 811 2004 
Q 403 2428 403 3163 
Q 403 3881 828 4315 
Q 1253 4750 1959 4750 
Q 2769 4750 3195 4129 
Q 3622 3509 3622 2328 
Q 3622 1225 3098 567 
Q 2575 -91 1691 -91 
Q 1453 -91 1209 -44 
Q 966 3 703 97 
z
M 1959 2075 
Q 2384 2075 2632 2365 
Q 2881 2656 2881 3163 
Q 2881 3666 2632 3958 
Q 2384 4250 1959 4250 
Q 1534 4250 1286 3958 
Q 1038 3666 1038 3163 
Q 1038 2656 1286 2365 
Q 1534 2075 1959 2075 
z
" transform="scale(0.015625)"/>
     </defs>
     <use xlink:href="#DejaVuSans-39"/>
    </g>
   </g>
   <g id="text_10">
    <!-- 10 -->
    <g style="fill: #ffffff" transform="translate(317.252596 198.654932) scale(0.0833 -0.0833)">
     <defs>
      <path id="DejaVuSans-30" d="M 2034 4250 
Q 1547 4250 1301 3770 
Q 1056 3291 1056 2328 
Q 1056 1369 1301 889 
Q 1547 409 2034 409 
Q 2525 409 2770 889 
Q 3016 1369 3016 2328 
Q 3016 3291 2770 3770 
Q 2525 4250 2034 4250 
z
M 2034 4750 
Q 2819 4750 3233 4129 
Q 3647 3509 3647 2328 
Q 3647 1150 3233 529 
Q 2819 -91 2034 -91 
Q 1250 -91 836 529 
Q 422 1150 422 2328 
Q 422 3509 836 4129 
Q 1250 4750 2034 4750 
z
" transform="scale(0.015625)"/>
     </defs>
     <use xlink:href="#DejaVuSans-31"/>
     <use xlink:href="#DejaVuSans-30" x="63.623047"/>
    </g>
   </g>
   <g id="text_11">
    <!-- 11 -->
    <g style="fill: #ffffff" transform="translate(182.958274 197.819597) scale(0.0833 -0.0833)">
     <use xlink:href="#DejaVuSans-31"/>
     <use xlink:href="#DejaVuSans-31" x="63.623047"/>
    </g>
   </g>
   <g id="text_12">
    <!-- 12 -->
    <g style="fill: #ffffff" transform="translate(170.396246 216.570881) scale(0.0833 -0.0833)">
     <use xlink:href="#DejaVuSans-31"/>
     <use xlink:href="#DejaVuSans-32" x="63.623047"/>
    </g>
   </g>
   <g id="text_13">
    <!-- 13 -->
    <g style="fill: #ffffff" transform="translate(155.203208 283.67127) scale(0.0833 -0.0833)">
     <use xlink:href="#DejaVuSans-31"/>
     <use xlink:href="#DejaVuSans-33" x="63.623047"/>
    </g>
   </g>
   <g id="text_14">
    <!-- 14 -->
    <g style="fill: #ffffff" transform="translate(112.0787 270.064176) scale(0.0833 -0.0833)">
     <use xlink:href="#DejaVuSans-31"/>
     <use xlink:href="#DejaVuSans-34" x="63.623047"/>
    </g>
   </g>
  </g>
 </g>
 <defs>
  <clipPath id="p5829000e05">
   <rect x="57.6" y="41.472" width="357.12" height="266.112"/>
  </clipPath>
 </defs>
</svg>
