<?xml version="1.0" encoding="utf-8" standalone="no"?>
<!DOCTYPE svg PUBLIC "-//W3C//DTD SVG 1.1//EN"
  "http://www.w3.org/Graphics/SVG/1.1/DTD/svg11.dtd">
<svg xmlns:xlink="http://www.w3.org/1999/xlink" width="460.8pt" height="345.6pt" viewBox="0 0 460.8 345.6" xmlns="http://www.w3.org/2000/svg" version="1.1">
 <metadata>
  <rdf:RDF xmlns:dc="http://purl.org/dc/elements/1.1/" xmlns:cc="http://creativecommons.org/ns#" xmlns:rdf="http://www.w3.org/1999/02/22-rdf-syntax-ns#">
   <cc:Work>
    <dc:type rdf:resource="http://purl.org/dc/dcmitype/StillImage"/>
    <dc:date>2024-07-14T12:23:35.012802</dc:date>
    <dc:format>image/svg+xml</dc:format>
    <dc:creator>
     <cc:Agent>
      <dc:title>Matplotlib v3.9.0, https://matplotlib.org/</dc:title>
     </cc:Agent>
    </dc:creator>
   </cc:Work>
  </rdf:RDF>
 </metadata>
 <defs>
  <style type="text/css">*{stroke-linejoin: round; stroke-linecap: butt}</style>
 </defs>
 <g id="figure_1">
  <g id="patch_1">
   <path d="M 0 345.6 
L 460.8 345.6 
L 460.8 0 
L 0 0 
z
" style="fill: #ffffff"/>
  </g>
  <g id="axes_1">
   <g id="patch_2">
    <path d="M 57.6 307.584 
L 414.72 307.584 
L 414.72 41.472 
L 57.6 41.472 
z
" style="fill: #ffffff"/>
   </g>
   <g id="PathCollection_1">
    <defs>
     <path id="m185f297558" d="M 0 5.91608 
C 1.568963 5.91608 3.073876 5.292724 4.1833 4.1833 
C 5.292724 3.073876 5.91608 1.568963 5.91608 0 
C 5.91608 -1.568963 5.292724 -3.073876 4.1833 -4.1833 
C 3.073876 -5.292724 1.568963 -5.91608 0 -5.91608 
C -1.568963 -5.91608 -3.073876 -5.292724 -4.1833 -4.1833 
C -5.292724 -3.073876 -5.91608 -1.568963 -5.91608 0 
C -5.91608 1.568963 -5.292724 3.073876 -4.1833 4.1833 
C -3.073876 5.292724 -1.568963 5.91608 0 5.91608 
z
" style="stroke: #808080"/>
    </defs>
    <g clip-path="url(#pa867285cf8)">
     <use xlink:href="#m185f297558" x="390.883886" y="97.992123" style="fill: #808080; stroke: #808080"/>
    </g>
   </g>
   <g id="PathCollection_2">
    <g clip-path="url(#pa867285cf8)">
     <use xlink:href="#m185f297558" x="398.487273" y="125.367628" style="fill: #808080; stroke: #808080"/>
    </g>
   </g>
   <g id="PathCollection_3">
    <g clip-path="url(#pa867285cf8)">
     <use xlink:href="#m185f297558" x="356.42284" y="130.846503" style="fill: #808080; stroke: #808080"/>
    </g>
   </g>
   <g id="PathCollection_4">
    <g clip-path="url(#pa867285cf8)">
     <use xlink:href="#m185f297558" x="336.553423" y="141.853065" style="fill: #808080; stroke: #808080"/>
    </g>
   </g>
   <g id="PathCollection_5">
    <g clip-path="url(#pa867285cf8)">
     <use xlink:href="#m185f297558" x="316.598507" y="135.340801" style="fill: #808080; stroke: #808080"/>
    </g>
   </g>
   <g id="PathCollection_6">
    <g clip-path="url(#pa867285cf8)">
     <use xlink:href="#m185f297558" x="292.582405" y="133.34661" style="fill: #808080; stroke: #808080"/>
    </g>
   </g>
   <g id="PathCollection_7">
    <g clip-path="url(#pa867285cf8)">
     <use xlink:href="#m185f297558" x="256.415916" y="132.14141" style="fill: #808080; stroke: #808080"/>
    </g>
   </g>
   <g id="PathCollection_8">
    <g clip-path="url(#pa867285cf8)">
     <use xlink:href="#m185f297558" x="249.408694" y="183.85097" style="fill: #808080; stroke: #808080"/>
    </g>
   </g>
   <g id="PathCollection_9">
    <g clip-path="url(#pa867285cf8)">
     <use xlink:href="#m185f297558" x="230.195183" y="211.229137" style="fill: #808080; stroke: #808080"/>
    </g>
   </g>
   <g id="PathCollection_10">
    <g clip-path="url(#pa867285cf8)">
     <use xlink:href="#m185f297558" x="189.874722" y="175.893284" style="fill: #808080; stroke: #808080"/>
    </g>
   </g>
   <g id="PathCollection_11">
    <g clip-path="url(#pa867285cf8)">
     <use xlink:href="#m185f297558" x="167.749283" y="155.718627" style="fill: #808080; stroke: #808080"/>
    </g>
   </g>
   <g id="PathCollection_12">
    <g clip-path="url(#pa867285cf8)">
     <use xlink:href="#m185f297558" x="167.70662" y="199.993562" style="fill: #808080; stroke: #808080"/>
    </g>
   </g>
   <g id="PathCollection_13">
    <g clip-path="url(#pa867285cf8)">
     <use xlink:href="#m185f297558" x="91.669138" y="218.82528" style="fill: #808080; stroke: #808080"/>
    </g>
   </g>
   <g id="PathCollection_14">
    <g clip-path="url(#pa867285cf8)">
     <use xlink:href="#m185f297558" x="73.832727" y="249.982955" style="fill: #808080; stroke: #808080"/>
    </g>
   </g>
   <g id="PathCollection_15">
    <g clip-path="url(#pa867285cf8)">
     <use xlink:href="#m185f297558" x="215.53864" y="185.98" style="fill: #808080; stroke: #808080"/>
    </g>
   </g>
   <g id="PathCollection_16">
    <g clip-path="url(#pa867285cf8)">
     <use xlink:href="#m185f297558" x="221.568654" y="124.437815" style="fill: #808080; stroke: #808080"/>
    </g>
   </g>
   <g id="PathCollection_17">
    <g clip-path="url(#pa867285cf8)">
     <use xlink:href="#m185f297558" x="230.00293" y="121.493024" style="fill: #808080; stroke: #808080"/>
    </g>
   </g>
   <g id="PathCollection_18">
    <g clip-path="url(#pa867285cf8)">
     <use xlink:href="#m185f297558" x="245.899774" y="95.722387" style="fill: #808080; stroke: #808080"/>
    </g>
   </g>
   <g id="matplotlib.axis_1"/>
   <g id="matplotlib.axis_2"/>
   <g id="line2d_1">
    <path d="M 278.356017 99.21956 
L 360.933394 99.965289 
L 374.545674 100.231102 
L 378.472038 100.498963 
L 383.518169 102.216152 
L 387.421414 105.319495 
L 389.755776 108.466125 
L 391.168733 110.625557 
L 392.245051 112.719971 
L 392.867943 114.978929 
L 392.937347 116.446357 
L 392.301958 119.391071 
L 391.715491 120.660826 
L 390.703793 122.181713 
L 388.929224 124.032689 
L 387.567484 124.980284 
L 386.348644 125.596863 
L 384.886916 126.06438 
L 383.640345 126.284386 
L 381.995121 126.344083 
L 378.717926 126.019757 
L 373.63913 125.101876 
L 367.54117 123.85675 
L 363.122866 123.202637 
L 359.15552 122.981921 
L 356.200173 123.144299 
L 353.506202 123.720123 
L 352.103404 124.238868 
L 350.597149 125.019452 
L 348.480778 126.573305 
L 343.801465 131.051683 
L 341.546741 132.526653 
L 340.017915 133.142769 
L 333.288962 133.480466 
L 328.888919 131.662749 
L 323.430194 129.110967 
L 319.587185 127.818857 
L 316.694313 127.766542 
L 315.268406 127.954809 
L 311.109701 129.430081 
L 309.280208 130.65392 
L 307.892892 131.868979 
L 302.916995 136.855166 
L 300.742232 138.523801 
L 299.432722 139.268488 
L 295.943138 140.497714 
L 294.006416 140.821329 
L 291.290338 140.922697 
L 288.052046 140.363186 
L 286.101307 139.536524 
L 284.083859 138.072479 
L 282.565903 136.152855 
L 281.756122 134.70399 
L 278.021289 127.360214 
L 276.558568 124.80575 
L 274.918667 122.883583 
L 273.678571 121.929739 
L 270.687638 120.633395 
L 267.822886 120.191671 
L 264.105668 120.540162 
L 262.503043 121.050741 
L 256.973893 123.507426 
L 254.855907 124.563252 
L 251.548352 126.654262 
L 249.972996 127.8714 
L 247.379703 130.045302 
L 244.122063 133.483335 
L 241.082274 137.503903 
L 239.982524 139.506947 
L 238.712834 142.562435 
L 237.542669 146.407987 
L 237.107958 148.264899 
L 236.624174 150.844778 
L 236.353695 154.417092 
L 236.409847 156.328238 
L 236.662281 158.513473 
L 239.962459 174.522073 
L 241.071345 181.6731 
L 240.115488 186.36711 
L 234.980272 194.773931 
L 232.68949 198.266123 
L 231.477965 199.778843 
L 229.192117 202.075153 
L 227.777609 203.059647 
L 226.277979 203.618373 
L 225.277841 203.721519 
L 224.522597 203.685772 
L 222.849642 203.348896 
L 221.244787 202.719443 
L 220.174859 202.141142 
L 216.211218 199.440535 
L 189.003806 184.273458 
L 186.362765 182.598414 
L 184.586665 181.2614 
L 182.972954 179.713774 
L 180.847199 177.017487 
L 178.389124 172.418296 
L 175.765353 166.557667 
L 174.934079 165.276351 
L 173.871239 164.166206 
L 173.232241 163.734888 
L 172.458508 163.43476 
L 171.852864 163.322133 
L 171.144764 163.327369 
L 169.960206 163.642667 
L 168.994501 164.396522 
L 168.421285 165.22256 
L 168.131402 165.984506 
L 167.967624 167.125077 
L 168.250256 169.108944 
L 169.036077 171.323299 
L 170.771184 175.873417 
L 171.816916 178.95518 
L 174.254101 187.529884 
L 175.162708 191.816773 
L 175.455198 194.574835 
L 175.493402 196.387608 
L 175.393402 199.073488 
L 175.210748 200.735658 
L 174.328 204.417205 
L 173.68676 206.011814 
L 172.5317 208.173703 
L 169.502232 212.65848 
L 167.594545 215.138673 
L 164.795414 218.168271 
L 161.66935 220.955057 
L 158.840872 223.090055 
L 156.048216 224.945804 
L 151.025874 227.84305 
L 146.687445 230.072565 
L 144.479791 231.112522 
L 142.44323 231.908049 
L 138.343919 233.124563 
L 134.152322 233.971157 
L 131.955301 234.213346 
L 129.472868 234.331586 
L 125.245762 234.195452 
L 121.062643 233.580242 
L 115.26743 231.915434 
L 104.972799 228.594834 
L 98.382899 226.963455 
L 95.643173 226.568337 
L 93.480972 226.675254 
L 90.073353 227.81019 
L 88.180845 229.082715 
L 86.108614 231.109483 
L 84.601507 232.986035 
L 82.572489 236.105689 
L 81.578816 238.200944 
L 80.843901 240.355593 
L 80.491155 242.118215 
L 80.445777 243.527251 
L 80.627882 244.86503 
L 81.006733 246.166912 
L 82.484321 248.775686 
L 84.883087 250.943672 
L 86.025273 251.605478 
L 87.509723 252.25442 
L 88.812758 252.683583 
L 90.903316 253.135165 
L 93.131149 253.333613 
L 95.494718 253.256895 
L 98.693417 252.933592 
L 103.542888 251.996715 
L 110.538076 250.400586 
L 117.141776 248.588297 
L 122.547053 246.893019 
L 128.261238 244.866186 
L 136.301941 241.757875 
L 140.354032 240.024384 
L 144.847222 237.950094 
L 147.519549 236.58983 
L 154.598404 232.707474 
L 175.272311 220.612683 
L 216.804547 196.210948 
L 220.526936 192.928603 
L 221.802939 190.913234 
L 222.949219 188.309168 
L 223.827573 185.989511 
L 225.278915 181.415831 
L 226.145795 177.823953 
L 226.604466 175.20155 
L 227.176539 170.40154 
L 227.37407 165.627721 
L 227.024522 155.246568 
L 226.662326 149.117096 
L 225.910505 138.365561 
L 225.884703 137.205038 
L 225.990401 134.917271 
L 226.150097 133.876614 
L 226.568475 132.419357 
L 227.426413 130.599268 
L 228.248604 129.534425 
L 229.299356 128.730344 
L 230.598157 128.307429 
L 233.213244 127.869959 
L 233.945379 127.575228 
L 235.277384 126.519014 
L 235.836271 125.804676 
L 236.613784 124.10091 
L 236.827714 122.56939 
L 236.727508 117.495367 
L 236.877422 116.15651 
L 237.188722 114.751019 
L 237.55849 113.706742 
L 238.015384 112.80028 
L 238.830874 111.4813 
L 239.791882 110.185354 
L 242.097683 107.699463 
L 244.53575 105.680323 
L 248.53546 103.197749 
L 250.277903 102.31209 
L 251.932758 101.598603 
L 254.267518 100.793294 
L 258.994505 99.687866 
L 260.717071 99.467784 
L 263.172851 99.28499 
L 267.69862 99.101354 
L 276.306518 99.196828 
L 276.306518 99.196828 
" clip-path="url(#pa867285cf8)" style="fill: none; stroke: #1f77b4; stroke-width: 1.5; stroke-linecap: square"/>
   </g>
   <g id="line2d_2">
    <path d="M 385.574915 103.718093 
L 390.883886 97.992123 
" clip-path="url(#pa867285cf8)" style="fill: none; stroke: #808080; stroke-width: 1.5; stroke-linecap: square"/>
   </g>
   <g id="line2d_3">
    <path d="M 391.746538 121.426256 
L 398.487273 125.367628 
" clip-path="url(#pa867285cf8)" style="fill: none; stroke: #808080; stroke-width: 1.5; stroke-linecap: square"/>
   </g>
   <g id="line2d_4">
    <path d="M 355.76696 123.065646 
L 356.42284 130.846503 
" clip-path="url(#pa867285cf8)" style="fill: none; stroke: #808080; stroke-width: 1.5; stroke-linecap: square"/>
   </g>
   <g id="line2d_5">
    <path d="M 336.171832 134.053944 
L 336.553423 141.853065 
" clip-path="url(#pa867285cf8)" style="fill: none; stroke: #808080; stroke-width: 1.5; stroke-linecap: square"/>
   </g>
   <g id="line2d_6">
    <path d="M 315.287805 127.643141 
L 316.598507 135.340801 
" clip-path="url(#pa867285cf8)" style="fill: none; stroke: #808080; stroke-width: 1.5; stroke-linecap: square"/>
   </g>
   <g id="line2d_7">
    <path d="M 292.400967 141.152953 
L 292.582405 133.34661 
" clip-path="url(#pa867285cf8)" style="fill: none; stroke: #808080; stroke-width: 1.5; stroke-linecap: square"/>
   </g>
   <g id="line2d_8">
    <path d="M 252.252782 125.535336 
L 256.415916 132.14141 
" clip-path="url(#pa867285cf8)" style="fill: none; stroke: #808080; stroke-width: 1.5; stroke-linecap: square"/>
   </g>
   <g id="line2d_9">
    <path d="M 241.603723 183.617857 
L 249.408694 183.85097 
" clip-path="url(#pa867285cf8)" style="fill: none; stroke: #808080; stroke-width: 1.5; stroke-linecap: square"/>
   </g>
   <g id="line2d_10">
    <path d="M 227.41478 203.932476 
L 230.195183 211.229137 
" clip-path="url(#pa867285cf8)" style="fill: none; stroke: #808080; stroke-width: 1.5; stroke-linecap: square"/>
   </g>
   <g id="line2d_11">
    <path d="M 185.478977 182.346913 
L 189.874722 175.893284 
" clip-path="url(#pa867285cf8)" style="fill: none; stroke: #808080; stroke-width: 1.5; stroke-linecap: square"/>
   </g>
   <g id="line2d_12">
    <path d="M 170.073154 163.173259 
L 167.749283 155.718627 
" clip-path="url(#pa867285cf8)" style="fill: none; stroke: #808080; stroke-width: 1.5; stroke-linecap: square"/>
   </g>
   <g id="line2d_13">
    <path d="M 175.262373 201.963969 
L 167.70662 199.993562 
" clip-path="url(#pa867285cf8)" style="fill: none; stroke: #808080; stroke-width: 1.5; stroke-linecap: square"/>
   </g>
   <g id="line2d_14">
    <path d="M 92.766315 226.556264 
L 91.669138 218.82528 
" clip-path="url(#pa867285cf8)" style="fill: none; stroke: #808080; stroke-width: 1.5; stroke-linecap: square"/>
   </g>
   <g id="line2d_15">
    <path d="M 81.058418 247.023006 
L 73.832727 249.982955 
" clip-path="url(#pa867285cf8)" style="fill: none; stroke: #808080; stroke-width: 1.5; stroke-linecap: square"/>
   </g>
   <g id="line2d_16">
    <path d="M 222.575607 189.364229 
L 215.53864 185.98 
" clip-path="url(#pa867285cf8)" style="fill: none; stroke: #808080; stroke-width: 1.5; stroke-linecap: square"/>
   </g>
   <g id="line2d_17">
    <path d="M 227.430563 129.596295 
L 221.568654 124.437815 
" clip-path="url(#pa867285cf8)" style="fill: none; stroke: #808080; stroke-width: 1.5; stroke-linecap: square"/>
   </g>
   <g id="line2d_18">
    <path d="M 235.44578 127.09189 
L 230.00293 121.493024 
" clip-path="url(#pa867285cf8)" style="fill: none; stroke: #808080; stroke-width: 1.5; stroke-linecap: square"/>
   </g>
   <g id="line2d_19">
    <path d="M 249.160139 102.817591 
L 245.899774 95.722387 
" clip-path="url(#pa867285cf8)" style="fill: none; stroke: #808080; stroke-width: 1.5; stroke-linecap: square"/>
   </g>
   <g id="patch_3">
    <path d="M 57.6 307.584 
L 57.6 41.472 
" style="fill: none; stroke: #000000; stroke-width: 0.8; stroke-linejoin: miter; stroke-linecap: square"/>
   </g>
   <g id="patch_4">
    <path d="M 414.72 307.584 
L 414.72 41.472 
" style="fill: none; stroke: #000000; stroke-width: 0.8; stroke-linejoin: miter; stroke-linecap: square"/>
   </g>
   <g id="patch_5">
    <path d="M 57.6 307.584 
L 414.72 307.584 
" style="fill: none; stroke: #000000; stroke-width: 0.8; stroke-linejoin: miter; stroke-linecap: square"/>
   </g>
   <g id="patch_6">
    <path d="M 57.6 41.472 
L 414.72 41.472 
" style="fill: none; stroke: #000000; stroke-width: 0.8; stroke-linejoin: miter; stroke-linecap: square"/>
   </g>
   <g id="text_1">
    <!-- 1 -->
    <g style="fill: #ffffff" transform="translate(388.233905 101.156873) scale(0.0833 -0.0833)">
     <defs>
      <path id="DejaVuSans-31" d="M 794 531 
L 1825 531 
L 1825 4091 
L 703 3866 
L 703 4441 
L 1819 4666 
L 2450 4666 
L 2450 531 
L 3481 531 
L 3481 0 
L 794 0 
L 794 531 
z
" transform="scale(0.015625)"/>
     </defs>
     <use xlink:href="#DejaVuSans-31"/>
    </g>
   </g>
   <g id="text_2">
    <!-- 2 -->
    <g style="fill: #ffffff" transform="translate(395.837291 128.532377) scale(0.0833 -0.0833)">
     <defs>
      <path id="DejaVuSans-32" d="M 1228 531 
L 3431 531 
L 3431 0 
L 469 0 
L 469 531 
Q 828 903 1448 1529 
Q 2069 2156 2228 2338 
Q 2531 2678 2651 2914 
Q 2772 3150 2772 3378 
Q 2772 3750 2511 3984 
Q 2250 4219 1831 4219 
Q 1534 4219 1204 4116 
Q 875 4013 500 3803 
L 500 4441 
Q 881 4594 1212 4672 
Q 1544 4750 1819 4750 
Q 2544 4750 2975 4387 
Q 3406 4025 3406 3419 
Q 3406 3131 3298 2873 
Q 3191 2616 2906 2266 
Q 2828 2175 2409 1742 
Q 1991 1309 1228 531 
z
" transform="scale(0.015625)"/>
     </defs>
     <use xlink:href="#DejaVuSans-32"/>
    </g>
   </g>
   <g id="text_3">
    <!-- 3 -->
    <g style="fill: #ffffff" transform="translate(353.772859 134.011252) scale(0.0833 -0.0833)">
     <defs>
      <path id="DejaVuSans-33" d="M 2597 2516 
Q 3050 2419 3304 2112 
Q 3559 1806 3559 1356 
Q 3559 666 3084 287 
Q 2609 -91 1734 -91 
Q 1441 -91 1130 -33 
Q 819 25 488 141 
L 488 750 
Q 750 597 1062 519 
Q 1375 441 1716 441 
Q 2309 441 2620 675 
Q 2931 909 2931 1356 
Q 2931 1769 2642 2001 
Q 2353 2234 1838 2234 
L 1294 2234 
L 1294 2753 
L 1863 2753 
Q 2328 2753 2575 2939 
Q 2822 3125 2822 3475 
Q 2822 3834 2567 4026 
Q 2313 4219 1838 4219 
Q 1578 4219 1281 4162 
Q 984 4106 628 3988 
L 628 4550 
Q 988 4650 1302 4700 
Q 1616 4750 1894 4750 
Q 2613 4750 3031 4423 
Q 3450 4097 3450 3541 
Q 3450 3153 3228 2886 
Q 3006 2619 2597 2516 
z
" transform="scale(0.015625)"/>
     </defs>
     <use xlink:href="#DejaVuSans-33"/>
    </g>
   </g>
   <g id="text_4">
    <!-- 4 -->
    <g style="fill: #ffffff" transform="translate(333.903442 145.017815) scale(0.0833 -0.0833)">
     <defs>
      <path id="DejaVuSans-34" d="M 2419 4116 
L 825 1625 
L 2419 1625 
L 2419 4116 
z
M 2253 4666 
L 3047 4666 
L 3047 1625 
L 3713 1625 
L 3713 1100 
L 3047 1100 
L 3047 0 
L 2419 0 
L 2419 1100 
L 313 1100 
L 313 1709 
L 2253 4666 
z
" transform="scale(0.015625)"/>
     </defs>
     <use xlink:href="#DejaVuSans-34"/>
    </g>
   </g>
   <g id="text_5">
    <!-- 5 -->
    <g style="fill: #ffffff" transform="translate(313.948526 138.50555) scale(0.0833 -0.0833)">
     <defs>
      <path id="DejaVuSans-35" d="M 691 4666 
L 3169 4666 
L 3169 4134 
L 1269 4134 
L 1269 2991 
Q 1406 3038 1543 3061 
Q 1681 3084 1819 3084 
Q 2600 3084 3056 2656 
Q 3513 2228 3513 1497 
Q 3513 744 3044 326 
Q 2575 -91 1722 -91 
Q 1428 -91 1123 -41 
Q 819 9 494 109 
L 494 744 
Q 775 591 1075 516 
Q 1375 441 1709 441 
Q 2250 441 2565 725 
Q 2881 1009 2881 1497 
Q 2881 1984 2565 2268 
Q 2250 2553 1709 2553 
Q 1456 2553 1204 2497 
Q 953 2441 691 2322 
L 691 4666 
z
" transform="scale(0.015625)"/>
     </defs>
     <use xlink:href="#DejaVuSans-35"/>
    </g>
   </g>
   <g id="text_6">
    <!-- 6 -->
    <g style="fill: #ffffff" transform="translate(289.932424 136.51136) scale(0.0833 -0.0833)">
     <defs>
      <path id="DejaVuSans-36" d="M 2113 2584 
Q 1688 2584 1439 2293 
Q 1191 2003 1191 1497 
Q 1191 994 1439 701 
Q 1688 409 2113 409 
Q 2538 409 2786 701 
Q 3034 994 3034 1497 
Q 3034 2003 2786 2293 
Q 2538 2584 2113 2584 
z
M 3366 4563 
L 3366 3988 
Q 3128 4100 2886 4159 
Q 2644 4219 2406 4219 
Q 1781 4219 1451 3797 
Q 1122 3375 1075 2522 
Q 1259 2794 1537 2939 
Q 1816 3084 2150 3084 
Q 2853 3084 3261 2657 
Q 3669 2231 3669 1497 
Q 3669 778 3244 343 
Q 2819 -91 2113 -91 
Q 1303 -91 875 529 
Q 447 1150 447 2328 
Q 447 3434 972 4092 
Q 1497 4750 2381 4750 
Q 2619 4750 2861 4703 
Q 3103 4656 3366 4563 
z
" transform="scale(0.015625)"/>
     </defs>
     <use xlink:href="#DejaVuSans-36"/>
    </g>
   </g>
   <g id="text_7">
    <!-- 7 -->
    <g style="fill: #ffffff" transform="translate(253.765935 135.30616) scale(0.0833 -0.0833)">
     <defs>
      <path id="DejaVuSans-37" d="M 525 4666 
L 3525 4666 
L 3525 4397 
L 1831 0 
L 1172 0 
L 2766 4134 
L 525 4134 
L 525 4666 
z
" transform="scale(0.015625)"/>
     </defs>
     <use xlink:href="#DejaVuSans-37"/>
    </g>
   </g>
   <g id="text_8">
    <!-- 8 -->
    <g style="fill: #ffffff" transform="translate(246.758713 187.015719) scale(0.0833 -0.0833)">
     <defs>
      <path id="DejaVuSans-38" d="M 2034 2216 
Q 1584 2216 1326 1975 
Q 1069 1734 1069 1313 
Q 1069 891 1326 650 
Q 1584 409 2034 409 
Q 2484 409 2743 651 
Q 3003 894 3003 1313 
Q 3003 1734 2745 1975 
Q 2488 2216 2034 2216 
z
M 1403 2484 
Q 997 2584 770 2862 
Q 544 3141 544 3541 
Q 544 4100 942 4425 
Q 1341 4750 2034 4750 
Q 2731 4750 3128 4425 
Q 3525 4100 3525 3541 
Q 3525 3141 3298 2862 
Q 3072 2584 2669 2484 
Q 3125 2378 3379 2068 
Q 3634 1759 3634 1313 
Q 3634 634 3220 271 
Q 2806 -91 2034 -91 
Q 1263 -91 848 271 
Q 434 634 434 1313 
Q 434 1759 690 2068 
Q 947 2378 1403 2484 
z
M 1172 3481 
Q 1172 3119 1398 2916 
Q 1625 2713 2034 2713 
Q 2441 2713 2670 2916 
Q 2900 3119 2900 3481 
Q 2900 3844 2670 4047 
Q 2441 4250 2034 4250 
Q 1625 4250 1398 4047 
Q 1172 3844 1172 3481 
z
" transform="scale(0.015625)"/>
     </defs>
     <use xlink:href="#DejaVuSans-38"/>
    </g>
   </g>
   <g id="text_9">
    <!-- 9 -->
    <g style="fill: #ffffff" transform="translate(227.545202 214.393886) scale(0.0833 -0.0833)">
     <defs>
      <path id="DejaVuSans-39" d="M 703 97 
L 703 672 
Q 941 559 1184 500 
Q 1428 441 1663 441 
Q 2288 441 2617 861 
Q 2947 1281 2994 2138 
Q 2813 1869 2534 1725 
Q 2256 1581 1919 1581 
Q 1219 1581 811 2004 
Q 403 2428 403 3163 
Q 403 3881 828 4315 
Q 1253 4750 1959 4750 
Q 2769 4750 3195 4129 
Q 3622 3509 3622 2328 
Q 3622 1225 3098 567 
Q 2575 -91 1691 -91 
Q 1453 -91 1209 -44 
Q 966 3 703 97 
z
M 1959 2075 
Q 2384 2075 2632 2365 
Q 2881 2656 2881 3163 
Q 2881 3666 2632 3958 
Q 2384 4250 1959 4250 
Q 1534 4250 1286 3958 
Q 1038 3666 1038 3163 
Q 1038 2656 1286 2365 
Q 1534 2075 1959 2075 
z
" transform="scale(0.015625)"/>
     </defs>
     <use xlink:href="#DejaVuSans-39"/>
    </g>
   </g>
   <g id="text_10">
    <!-- 10 -->
    <g style="fill: #ffffff" transform="translate(184.57476 179.058034) scale(0.0833 -0.0833)">
     <defs>
      <path id="DejaVuSans-30" d="M 2034 4250 
Q 1547 4250 1301 3770 
Q 1056 3291 1056 2328 
Q 1056 1369 1301 889 
Q 1547 409 2034 409 
Q 2525 409 2770 889 
Q 3016 1369 3016 2328 
Q 3016 3291 2770 3770 
Q 2525 4250 2034 4250 
z
M 2034 4750 
Q 2819 4750 3233 4129 
Q 3647 3509 3647 2328 
Q 3647 1150 3233 529 
Q 2819 -91 2034 -91 
Q 1250 -91 836 529 
Q 422 1150 422 2328 
Q 422 3509 836 4129 
Q 1250 4750 2034 4750 
z
" transform="scale(0.015625)"/>
     </defs>
     <use xlink:href="#DejaVuSans-31"/>
     <use xlink:href="#DejaVuSans-30" x="63.623047"/>
    </g>
   </g>
   <g id="text_11">
    <!-- 11 -->
    <g style="fill: #ffffff" transform="translate(162.44932 158.883377) scale(0.0833 -0.0833)">
     <use xlink:href="#DejaVuSans-31"/>
     <use xlink:href="#DejaVuSans-31" x="63.623047"/>
    </g>
   </g>
   <g id="text_12">
    <!-- 12 -->
    <g style="fill: #ffffff" transform="translate(162.406658 203.158312) scale(0.0833 -0.0833)">
     <use xlink:href="#DejaVuSans-31"/>
     <use xlink:href="#DejaVuSans-32" x="63.623047"/>
    </g>
   </g>
   <g id="text_13">
    <!-- 13 -->
    <g style="fill: #ffffff" transform="translate(86.369175 221.99003) scale(0.0833 -0.0833)">
     <use xlink:href="#DejaVuSans-31"/>
     <use xlink:href="#DejaVuSans-33" x="63.623047"/>
    </g>
   </g>
   <g id="text_14">
    <!-- 14 -->
    <g style="fill: #ffffff" transform="translate(68.532765 253.147704) scale(0.0833 -0.0833)">
     <use xlink:href="#DejaVuSans-31"/>
     <use xlink:href="#DejaVuSans-34" x="63.623047"/>
    </g>
   </g>
   <g id="text_15">
    <!-- 15 -->
    <g style="fill: #ffffff" transform="translate(210.238678 189.144749) scale(0.0833 -0.0833)">
     <use xlink:href="#DejaVuSans-31"/>
     <use xlink:href="#DejaVuSans-35" x="63.623047"/>
    </g>
   </g>
   <g id="text_16">
    <!-- 16 -->
    <g style="fill: #ffffff" transform="translate(216.268691 127.602564) scale(0.0833 -0.0833)">
     <use xlink:href="#DejaVuSans-31"/>
     <use xlink:href="#DejaVuSans-36" x="63.623047"/>
    </g>
   </g>
   <g id="text_17">
    <!-- 17 -->
    <g style="fill: #ffffff" transform="translate(224.702968 124.657773) scale(0.0833 -0.0833)">
     <use xlink:href="#DejaVuSans-31"/>
     <use xlink:href="#DejaVuSans-37" x="63.623047"/>
    </g>
   </g>
   <g id="text_18">
    <!-- 18 -->
    <g style="fill: #ffffff" transform="translate(240.599812 98.887136) scale(0.0833 -0.0833)">
     <use xlink:href="#DejaVuSans-31"/>
     <use xlink:href="#DejaVuSans-38" x="63.623047"/>
    </g>
   </g>
  </g>
 </g>
 <defs>
  <clipPath id="pa867285cf8">
   <rect x="57.6" y="41.472" width="357.12" height="266.112"/>
  </clipPath>
 </defs>
</svg>
