<?xml version="1.0" encoding="utf-8" standalone="no"?>
<!DOCTYPE svg PUBLIC "-//W3C//DTD SVG 1.1//EN"
  "http://www.w3.org/Graphics/SVG/1.1/DTD/svg11.dtd">
<svg xmlns:xlink="http://www.w3.org/1999/xlink" width="460.8pt" height="345.6pt" viewBox="0 0 460.8 345.6" xmlns="http://www.w3.org/2000/svg" version="1.1">
 <metadata>
  <rdf:RDF xmlns:dc="http://purl.org/dc/elements/1.1/" xmlns:cc="http://creativecommons.org/ns#" xmlns:rdf="http://www.w3.org/1999/02/22-rdf-syntax-ns#">
   <cc:Work>
    <dc:type rdf:resource="http://purl.org/dc/dcmitype/StillImage"/>
    <dc:date>2024-07-14T12:23:38.018080</dc:date>
    <dc:format>image/svg+xml</dc:format>
    <dc:creator>
     <cc:Agent>
      <dc:title>Matplotlib v3.9.0, https://matplotlib.org/</dc:title>
     </cc:Agent>
    </dc:creator>
   </cc:Work>
  </rdf:RDF>
 </metadata>
 <defs>
  <style type="text/css">*{stroke-linejoin: round; stroke-linecap: butt}</style>
 </defs>
 <g id="figure_1">
  <g id="patch_1">
   <path d="M 0 345.6 
L 460.8 345.6 
L 460.8 0 
L 0 0 
z
" style="fill: #ffffff"/>
  </g>
  <g id="axes_1">
   <g id="patch_2">
    <path d="M 57.6 307.584 
L 414.72 307.584 
L 414.72 41.472 
L 57.6 41.472 
z
" style="fill: #ffffff"/>
   </g>
   <g id="PathCollection_1">
    <defs>
     <path id="m31187f051c" d="M 0 5.91608 
C 1.568963 5.91608 3.073876 5.292724 4.1833 4.1833 
C 5.292724 3.073876 5.91608 1.568963 5.91608 0 
C 5.91608 -1.568963 5.292724 -3.073876 4.1833 -4.1833 
C 3.073876 -5.292724 1.568963 -5.91608 0 -5.91608 
C -1.568963 -5.91608 -3.073876 -5.292724 -4.1833 -4.1833 
C -5.292724 -3.073876 -5.91608 -1.568963 -5.91608 0 
C -5.91608 1.568963 -5.292724 3.073876 -4.1833 4.1833 
C -3.073876 5.292724 -1.568963 5.91608 0 5.91608 
z
" style="stroke: #808080"/>
    </defs>
    <g clip-path="url(#paa532c179d)">
     <use xlink:href="#m31187f051c" x="107.637807" y="276.876996" style="fill: #808080; stroke: #808080"/>
    </g>
   </g>
   <g id="PathCollection_2">
    <g clip-path="url(#paa532c179d)">
     <use xlink:href="#m31187f051c" x="133.747671" y="229.021094" style="fill: #808080; stroke: #808080"/>
    </g>
   </g>
   <g id="PathCollection_3">
    <g clip-path="url(#paa532c179d)">
     <use xlink:href="#m31187f051c" x="112.201787" y="184.648965" style="fill: #808080; stroke: #808080"/>
    </g>
   </g>
   <g id="PathCollection_4">
    <g clip-path="url(#paa532c179d)">
     <use xlink:href="#m31187f051c" x="83.182387" y="99.494054" style="fill: #808080; stroke: #808080"/>
    </g>
   </g>
   <g id="PathCollection_5">
    <g clip-path="url(#paa532c179d)">
     <use xlink:href="#m31187f051c" x="104.886229" y="93.163835" style="fill: #808080; stroke: #808080"/>
    </g>
   </g>
   <g id="PathCollection_6">
    <g clip-path="url(#paa532c179d)">
     <use xlink:href="#m31187f051c" x="139.897667" y="134.273972" style="fill: #808080; stroke: #808080"/>
    </g>
   </g>
   <g id="PathCollection_7">
    <g clip-path="url(#paa532c179d)">
     <use xlink:href="#m31187f051c" x="177.624142" y="66.676479" style="fill: #808080; stroke: #808080"/>
    </g>
   </g>
   <g id="PathCollection_8">
    <g clip-path="url(#paa532c179d)">
     <use xlink:href="#m31187f051c" x="214.285098" y="85.954424" style="fill: #808080; stroke: #808080"/>
    </g>
   </g>
   <g id="PathCollection_9">
    <g clip-path="url(#paa532c179d)">
     <use xlink:href="#m31187f051c" x="211.578701" y="123.485487" style="fill: #808080; stroke: #808080"/>
    </g>
   </g>
   <g id="PathCollection_10">
    <g clip-path="url(#paa532c179d)">
     <use xlink:href="#m31187f051c" x="228.509199" y="165.752751" style="fill: #808080; stroke: #808080"/>
    </g>
   </g>
   <g id="PathCollection_11">
    <g clip-path="url(#paa532c179d)">
     <use xlink:href="#m31187f051c" x="296.196636" y="147.598396" style="fill: #808080; stroke: #808080"/>
    </g>
   </g>
   <g id="PathCollection_12">
    <g clip-path="url(#paa532c179d)">
     <use xlink:href="#m31187f051c" x="327.981256" y="80.386125" style="fill: #808080; stroke: #808080"/>
    </g>
   </g>
   <g id="PathCollection_13">
    <g clip-path="url(#paa532c179d)">
     <use xlink:href="#m31187f051c" x="362.914395" y="78.668648" style="fill: #808080; stroke: #808080"/>
    </g>
   </g>
   <g id="PathCollection_14">
    <g clip-path="url(#paa532c179d)">
     <use xlink:href="#m31187f051c" x="380.820908" y="111.638407" style="fill: #808080; stroke: #808080"/>
    </g>
   </g>
   <g id="PathCollection_15">
    <g clip-path="url(#paa532c179d)">
     <use xlink:href="#m31187f051c" x="360.574542" y="178.930967" style="fill: #808080; stroke: #808080"/>
    </g>
   </g>
   <g id="PathCollection_16">
    <g clip-path="url(#paa532c179d)">
     <use xlink:href="#m31187f051c" x="390.345749" y="277.305386" style="fill: #808080; stroke: #808080"/>
    </g>
   </g>
   <g id="matplotlib.axis_1"/>
   <g id="matplotlib.axis_2"/>
   <g id="line2d_1">
    <path d="M 287.765608 294.19711 
L 209.848923 294.268842 
L 143.72817 295.14462 
L 133.513392 295.454724 
L 127.730688 295.488 
L 124.070635 295.390524 
L 116.263091 294.895667 
L 111.979225 294.422692 
L 108.563489 293.777251 
L 105.028661 292.649819 
L 101.071346 290.515669 
L 97.602665 287.28559 
L 95.508792 283.183382 
L 94.560225 278.40867 
L 94.751086 274.740956 
L 95.538348 271.819811 
L 96.550942 269.617822 
L 98.204375 267.117377 
L 100.617486 264.532912 
L 104.017563 261.990417 
L 107.228912 260.056413 
L 113.760572 256.635067 
L 126.715441 249.880823 
L 135.777345 244.950172 
L 139.551216 242.644587 
L 142.043154 240.668358 
L 144.30976 237.972972 
L 145.687976 235.379398 
L 146.525889 232.634892 
L 146.844269 230.34522 
L 146.129378 224.452105 
L 144.464888 220.647333 
L 141.399626 216.957481 
L 138.853468 215.011295 
L 135.199037 212.86676 
L 125.185934 207.613533 
L 116.309281 202.990251 
L 110.341685 199.712071 
L 106.497505 197.105805 
L 103.21338 194.186015 
L 101.548205 192.312188 
L 97.857855 186.909061 
L 95.887758 182.905176 
L 92.489825 174.45517 
L 81.91194 143.365691 
L 74.515848 121.705778 
L 71.455616 112.700146 
L 69.815049 107.512139 
L 68.954847 100.112268 
L 69.97851 96.282218 
L 71.361664 93.572529 
L 73.854795 90.200466 
L 75.736028 88.361121 
L 78.603974 86.29619 
L 80.034371 85.484588 
L 83.53379 83.888539 
L 88.494507 82.121983 
L 94.699616 80.361813 
L 100.087756 79.48586 
L 104.732307 79.683362 
L 108.910699 80.721838 
L 111.175682 81.620786 
L 114.501777 83.553609 
L 117.063513 85.95412 
L 119.415066 90.2883 
L 119.827676 91.527245 
L 126.963017 117.677798 
L 130.430666 127.770933 
L 132.682958 133.892278 
L 135.351013 139.263565 
L 137.38334 142.351139 
L 138.669528 143.836614 
L 142.129528 145.903087 
L 142.970246 146.101691 
L 144.270226 146.168603 
L 146.162865 145.702363 
L 148.667656 143.97096 
L 150.366802 141.763269 
L 151.198074 139.995599 
L 151.832446 138.207925 
L 152.438386 135.721099 
L 153.293755 130.104139 
L 154.98517 117.136173 
L 155.657942 110.615756 
L 155.964917 106.95298 
L 156.992938 91.804815 
L 158.375257 77.625572 
L 159.445491 69.691274 
L 159.782172 68.065426 
L 161.821407 62.510441 
L 162.85724 60.856161 
L 166.09498 57.480865 
L 168.072577 56.110912 
L 172.127113 54.317454 
L 174.463946 53.800309 
L 177.207432 53.568 
L 179.353068 53.717402 
L 180.933458 54.028885 
L 183.468466 54.869522 
L 185.38017 55.869772 
L 188.77028 58.759171 
L 189.652283 59.901753 
L 191.444721 62.886066 
L 192.343067 65.285639 
L 193.610605 71.039402 
L 195.370521 76.976956 
L 197.260597 81.768439 
L 198.305192 84.011378 
L 200.055151 87.447548 
L 202.560614 91.718479 
L 204.916595 95.401434 
L 206.531629 97.633732 
L 210.754366 102.826851 
L 216.353187 108.485618 
L 222.109662 115.360856 
L 224.229242 119.952716 
L 224.938605 122.693224 
L 224.66559 130.207759 
L 223.217819 136.625427 
L 221.519774 142.636951 
L 217.522599 154.297101 
L 215.828981 159.657401 
L 214.809063 164.767172 
L 214.850858 166.24626 
L 216.2031 170.828755 
L 217.606166 173.121834 
L 219.157696 174.932667 
L 220.400639 176.067332 
L 222.07271 177.231877 
L 225.04723 178.405278 
L 226.259018 178.631293 
L 229.712041 178.673436 
L 231.736115 178.398903 
L 235.476189 177.708781 
L 238.660891 176.948512 
L 243.530947 175.399116 
L 248.28191 173.367728 
L 250.716556 172.191696 
L 256.814151 168.856584 
L 262.07869 165.416253 
L 268.333859 160.564 
L 273.102788 156.195269 
L 276.146352 153.009466 
L 279.499697 149.103996 
L 281.743319 146.128456 
L 284.256201 142.291938 
L 287.204596 137.240908 
L 288.872587 134.124566 
L 292.840217 125.89471 
L 296.74877 116.592164 
L 304.147389 98.527629 
L 305.889954 94.204692 
L 308.905945 85.922737 
L 311.238188 80.589594 
L 313.332327 77.026079 
L 315.30618 74.376406 
L 317.850472 71.716093 
L 323.273604 67.828844 
L 326.280902 66.31656 
L 332.27132 64.407672 
L 335.567199 63.768455 
L 338.90879 63.421992 
L 346.897401 63.214974 
L 351.102695 63.347268 
L 357.378031 63.765338 
L 363.911557 64.950491 
L 369.737077 67.466525 
L 372.3235 69.286468 
L 376.727559 74.045266 
L 379.907486 78.868334 
L 381.887204 82.372436 
L 388.356356 95.466402 
L 391.558073 101.965459 
L 392.787479 104.786242 
L 394.00045 111.549701 
L 393.649976 114.594112 
L 392.245877 119.164089 
L 389.571934 123.505583 
L 385.921664 128.375546 
L 383.286966 131.520574 
L 366.922899 149.785485 
L 359.099336 158.968081 
L 352.300028 167.589348 
L 350.343966 170.367734 
L 347.739485 176.084801 
L 347.249913 178.84412 
L 347.241394 183.147736 
L 347.784502 186.241777 
L 348.738946 189.236986 
L 350.231225 192.441184 
L 352.511867 196.528069 
L 356.594312 202.831929 
L 366.941442 216.916699 
L 375.152985 228.153783 
L 385.268652 243.031344 
L 386.418721 244.708781 
L 396.911671 260.835417 
L 399.9834 266.014487 
L 401.930769 270.005774 
L 403.2121 274.340974 
L 403.365153 278.674725 
L 401.86818 283.787474 
L 401.235767 284.981981 
L 400.139408 286.691848 
L 397.635637 289.493473 
L 394.861076 291.550742 
L 391.79819 293.002501 
L 388.278001 293.992782 
L 384.9542 294.467959 
L 382.377224 294.614289 
L 375.64288 294.595466 
L 364.253855 294.343812 
L 335.756606 294.295247 
L 311.956773 294.295212 
L 295.756943 294.19959 
L 295.756943 294.19959 
" clip-path="url(#paa532c179d)" style="fill: none; stroke: #1f77b4; stroke-width: 1.5; stroke-linecap: square"/>
   </g>
   <g id="line2d_2">
    <path d="M 94.669596 276.064382 
L 107.637807 276.876996 
" clip-path="url(#paa532c179d)" style="fill: none; stroke: #808080; stroke-width: 1.5; stroke-linecap: square"/>
   </g>
   <g id="line2d_3">
    <path d="M 146.652829 227.507249 
L 133.747671 229.021094 
" clip-path="url(#paa532c179d)" style="fill: none; stroke: #808080; stroke-width: 1.5; stroke-linecap: square"/>
   </g>
   <g id="line2d_4">
    <path d="M 102.437414 193.221704 
L 112.201787 184.648965 
" clip-path="url(#paa532c179d)" style="fill: none; stroke: #808080; stroke-width: 1.5; stroke-linecap: square"/>
   </g>
   <g id="line2d_5">
    <path d="M 72.885457 91.5689 
L 83.182387 99.494054 
" clip-path="url(#paa532c179d)" style="fill: none; stroke: #808080; stroke-width: 1.5; stroke-linecap: square"/>
   </g>
   <g id="line2d_6">
    <path d="M 110.072782 81.250208 
L 104.886229 93.163835 
" clip-path="url(#paa532c179d)" style="fill: none; stroke: #808080; stroke-width: 1.5; stroke-linecap: square"/>
   </g>
   <g id="line2d_7">
    <path d="M 148.139 144.319631 
L 139.897667 134.273972 
" clip-path="url(#paa532c179d)" style="fill: none; stroke: #808080; stroke-width: 1.5; stroke-linecap: square"/>
   </g>
   <g id="line2d_8">
    <path d="M 177.713156 53.683138 
L 177.624142 66.676479 
" clip-path="url(#paa532c179d)" style="fill: none; stroke: #808080; stroke-width: 1.5; stroke-linecap: square"/>
   </g>
   <g id="line2d_9">
    <path d="M 203.245202 92.806834 
L 214.285098 85.954424 
" clip-path="url(#paa532c179d)" style="fill: none; stroke: #808080; stroke-width: 1.5; stroke-linecap: square"/>
   </g>
   <g id="line2d_10">
    <path d="M 222.94951 117.19744 
L 211.578701 123.485487 
" clip-path="url(#paa532c179d)" style="fill: none; stroke: #808080; stroke-width: 1.5; stroke-linecap: square"/>
   </g>
   <g id="line2d_11">
    <path d="M 218.971548 174.577038 
L 228.509199 165.752751 
" clip-path="url(#paa532c179d)" style="fill: none; stroke: #808080; stroke-width: 1.5; stroke-linecap: square"/>
   </g>
   <g id="line2d_12">
    <path d="M 285.016772 140.976803 
L 296.196636 147.598396 
" clip-path="url(#paa532c179d)" style="fill: none; stroke: #808080; stroke-width: 1.5; stroke-linecap: square"/>
   </g>
   <g id="line2d_13">
    <path d="M 320.041016 70.100823 
L 327.981256 80.386125 
" clip-path="url(#paa532c179d)" style="fill: none; stroke: #808080; stroke-width: 1.5; stroke-linecap: square"/>
   </g>
   <g id="line2d_14">
    <path d="M 370.019589 67.789721 
L 362.914395 78.668648 
" clip-path="url(#paa532c179d)" style="fill: none; stroke: #808080; stroke-width: 1.5; stroke-linecap: square"/>
   </g>
   <g id="line2d_15">
    <path d="M 393.682161 113.488543 
L 380.820908 111.638407 
" clip-path="url(#paa532c179d)" style="fill: none; stroke: #808080; stroke-width: 1.5; stroke-linecap: square"/>
   </g>
   <g id="line2d_16">
    <path d="M 348.400003 174.390544 
L 360.574542 178.930967 
" clip-path="url(#paa532c179d)" style="fill: none; stroke: #808080; stroke-width: 1.5; stroke-linecap: square"/>
   </g>
   <g id="line2d_17">
    <path d="M 402.761794 281.136399 
L 390.345749 277.305386 
" clip-path="url(#paa532c179d)" style="fill: none; stroke: #808080; stroke-width: 1.5; stroke-linecap: square"/>
   </g>
   <g id="patch_3">
    <path d="M 57.6 307.584 
L 57.6 41.472 
" style="fill: none; stroke: #000000; stroke-width: 0.8; stroke-linejoin: miter; stroke-linecap: square"/>
   </g>
   <g id="patch_4">
    <path d="M 414.72 307.584 
L 414.72 41.472 
" style="fill: none; stroke: #000000; stroke-width: 0.8; stroke-linejoin: miter; stroke-linecap: square"/>
   </g>
   <g id="patch_5">
    <path d="M 57.6 307.584 
L 414.72 307.584 
" style="fill: none; stroke: #000000; stroke-width: 0.8; stroke-linejoin: miter; stroke-linecap: square"/>
   </g>
   <g id="patch_6">
    <path d="M 57.6 41.472 
L 414.72 41.472 
" style="fill: none; stroke: #000000; stroke-width: 0.8; stroke-linejoin: miter; stroke-linecap: square"/>
   </g>
   <g id="text_1">
    <!-- 1 -->
    <g style="fill: #ffffff" transform="translate(104.987826 280.041745) scale(0.0833 -0.0833)">
     <defs>
      <path id="DejaVuSans-31" d="M 794 531 
L 1825 531 
L 1825 4091 
L 703 3866 
L 703 4441 
L 1819 4666 
L 2450 4666 
L 2450 531 
L 3481 531 
L 3481 0 
L 794 0 
L 794 531 
z
" transform="scale(0.015625)"/>
     </defs>
     <use xlink:href="#DejaVuSans-31"/>
    </g>
   </g>
   <g id="text_2">
    <!-- 2 -->
    <g style="fill: #ffffff" transform="translate(131.09769 232.185843) scale(0.0833 -0.0833)">
     <defs>
      <path id="DejaVuSans-32" d="M 1228 531 
L 3431 531 
L 3431 0 
L 469 0 
L 469 531 
Q 828 903 1448 1529 
Q 2069 2156 2228 2338 
Q 2531 2678 2651 2914 
Q 2772 3150 2772 3378 
Q 2772 3750 2511 3984 
Q 2250 4219 1831 4219 
Q 1534 4219 1204 4116 
Q 875 4013 500 3803 
L 500 4441 
Q 881 4594 1212 4672 
Q 1544 4750 1819 4750 
Q 2544 4750 2975 4387 
Q 3406 4025 3406 3419 
Q 3406 3131 3298 2873 
Q 3191 2616 2906 2266 
Q 2828 2175 2409 1742 
Q 1991 1309 1228 531 
z
" transform="scale(0.015625)"/>
     </defs>
     <use xlink:href="#DejaVuSans-32"/>
    </g>
   </g>
   <g id="text_3">
    <!-- 3 -->
    <g style="fill: #ffffff" transform="translate(109.551806 187.813714) scale(0.0833 -0.0833)">
     <defs>
      <path id="DejaVuSans-33" d="M 2597 2516 
Q 3050 2419 3304 2112 
Q 3559 1806 3559 1356 
Q 3559 666 3084 287 
Q 2609 -91 1734 -91 
Q 1441 -91 1130 -33 
Q 819 25 488 141 
L 488 750 
Q 750 597 1062 519 
Q 1375 441 1716 441 
Q 2309 441 2620 675 
Q 2931 909 2931 1356 
Q 2931 1769 2642 2001 
Q 2353 2234 1838 2234 
L 1294 2234 
L 1294 2753 
L 1863 2753 
Q 2328 2753 2575 2939 
Q 2822 3125 2822 3475 
Q 2822 3834 2567 4026 
Q 2313 4219 1838 4219 
Q 1578 4219 1281 4162 
Q 984 4106 628 3988 
L 628 4550 
Q 988 4650 1302 4700 
Q 1616 4750 1894 4750 
Q 2613 4750 3031 4423 
Q 3450 4097 3450 3541 
Q 3450 3153 3228 2886 
Q 3006 2619 2597 2516 
z
" transform="scale(0.015625)"/>
     </defs>
     <use xlink:href="#DejaVuSans-33"/>
    </g>
   </g>
   <g id="text_4">
    <!-- 4 -->
    <g style="fill: #ffffff" transform="translate(80.532405 102.658803) scale(0.0833 -0.0833)">
     <defs>
      <path id="DejaVuSans-34" d="M 2419 4116 
L 825 1625 
L 2419 1625 
L 2419 4116 
z
M 2253 4666 
L 3047 4666 
L 3047 1625 
L 3713 1625 
L 3713 1100 
L 3047 1100 
L 3047 0 
L 2419 0 
L 2419 1100 
L 313 1100 
L 313 1709 
L 2253 4666 
z
" transform="scale(0.015625)"/>
     </defs>
     <use xlink:href="#DejaVuSans-34"/>
    </g>
   </g>
   <g id="text_5">
    <!-- 5 -->
    <g style="fill: #ffffff" transform="translate(102.236248 96.328585) scale(0.0833 -0.0833)">
     <defs>
      <path id="DejaVuSans-35" d="M 691 4666 
L 3169 4666 
L 3169 4134 
L 1269 4134 
L 1269 2991 
Q 1406 3038 1543 3061 
Q 1681 3084 1819 3084 
Q 2600 3084 3056 2656 
Q 3513 2228 3513 1497 
Q 3513 744 3044 326 
Q 2575 -91 1722 -91 
Q 1428 -91 1123 -41 
Q 819 9 494 109 
L 494 744 
Q 775 591 1075 516 
Q 1375 441 1709 441 
Q 2250 441 2565 725 
Q 2881 1009 2881 1497 
Q 2881 1984 2565 2268 
Q 2250 2553 1709 2553 
Q 1456 2553 1204 2497 
Q 953 2441 691 2322 
L 691 4666 
z
" transform="scale(0.015625)"/>
     </defs>
     <use xlink:href="#DejaVuSans-35"/>
    </g>
   </g>
   <g id="text_6">
    <!-- 6 -->
    <g style="fill: #ffffff" transform="translate(137.247685 137.438721) scale(0.0833 -0.0833)">
     <defs>
      <path id="DejaVuSans-36" d="M 2113 2584 
Q 1688 2584 1439 2293 
Q 1191 2003 1191 1497 
Q 1191 994 1439 701 
Q 1688 409 2113 409 
Q 2538 409 2786 701 
Q 3034 994 3034 1497 
Q 3034 2003 2786 2293 
Q 2538 2584 2113 2584 
z
M 3366 4563 
L 3366 3988 
Q 3128 4100 2886 4159 
Q 2644 4219 2406 4219 
Q 1781 4219 1451 3797 
Q 1122 3375 1075 2522 
Q 1259 2794 1537 2939 
Q 1816 3084 2150 3084 
Q 2853 3084 3261 2657 
Q 3669 2231 3669 1497 
Q 3669 778 3244 343 
Q 2819 -91 2113 -91 
Q 1303 -91 875 529 
Q 447 1150 447 2328 
Q 447 3434 972 4092 
Q 1497 4750 2381 4750 
Q 2619 4750 2861 4703 
Q 3103 4656 3366 4563 
z
" transform="scale(0.015625)"/>
     </defs>
     <use xlink:href="#DejaVuSans-36"/>
    </g>
   </g>
   <g id="text_7">
    <!-- 7 -->
    <g style="fill: #ffffff" transform="translate(174.97416 69.841228) scale(0.0833 -0.0833)">
     <defs>
      <path id="DejaVuSans-37" d="M 525 4666 
L 3525 4666 
L 3525 4397 
L 1831 0 
L 1172 0 
L 2766 4134 
L 525 4134 
L 525 4666 
z
" transform="scale(0.015625)"/>
     </defs>
     <use xlink:href="#DejaVuSans-37"/>
    </g>
   </g>
   <g id="text_8">
    <!-- 8 -->
    <g style="fill: #ffffff" transform="translate(211.635117 89.119173) scale(0.0833 -0.0833)">
     <defs>
      <path id="DejaVuSans-38" d="M 2034 2216 
Q 1584 2216 1326 1975 
Q 1069 1734 1069 1313 
Q 1069 891 1326 650 
Q 1584 409 2034 409 
Q 2484 409 2743 651 
Q 3003 894 3003 1313 
Q 3003 1734 2745 1975 
Q 2488 2216 2034 2216 
z
M 1403 2484 
Q 997 2584 770 2862 
Q 544 3141 544 3541 
Q 544 4100 942 4425 
Q 1341 4750 2034 4750 
Q 2731 4750 3128 4425 
Q 3525 4100 3525 3541 
Q 3525 3141 3298 2862 
Q 3072 2584 2669 2484 
Q 3125 2378 3379 2068 
Q 3634 1759 3634 1313 
Q 3634 634 3220 271 
Q 2806 -91 2034 -91 
Q 1263 -91 848 271 
Q 434 634 434 1313 
Q 434 1759 690 2068 
Q 947 2378 1403 2484 
z
M 1172 3481 
Q 1172 3119 1398 2916 
Q 1625 2713 2034 2713 
Q 2441 2713 2670 2916 
Q 2900 3119 2900 3481 
Q 2900 3844 2670 4047 
Q 2441 4250 2034 4250 
Q 1625 4250 1398 4047 
Q 1172 3844 1172 3481 
z
" transform="scale(0.015625)"/>
     </defs>
     <use xlink:href="#DejaVuSans-38"/>
    </g>
   </g>
   <g id="text_9">
    <!-- 9 -->
    <g style="fill: #ffffff" transform="translate(208.92872 126.650236) scale(0.0833 -0.0833)">
     <defs>
      <path id="DejaVuSans-39" d="M 703 97 
L 703 672 
Q 941 559 1184 500 
Q 1428 441 1663 441 
Q 2288 441 2617 861 
Q 2947 1281 2994 2138 
Q 2813 1869 2534 1725 
Q 2256 1581 1919 1581 
Q 1219 1581 811 2004 
Q 403 2428 403 3163 
Q 403 3881 828 4315 
Q 1253 4750 1959 4750 
Q 2769 4750 3195 4129 
Q 3622 3509 3622 2328 
Q 3622 1225 3098 567 
Q 2575 -91 1691 -91 
Q 1453 -91 1209 -44 
Q 966 3 703 97 
z
M 1959 2075 
Q 2384 2075 2632 2365 
Q 2881 2656 2881 3163 
Q 2881 3666 2632 3958 
Q 2384 4250 1959 4250 
Q 1534 4250 1286 3958 
Q 1038 3666 1038 3163 
Q 1038 2656 1286 2365 
Q 1534 2075 1959 2075 
z
" transform="scale(0.015625)"/>
     </defs>
     <use xlink:href="#DejaVuSans-39"/>
    </g>
   </g>
   <g id="text_10">
    <!-- 10 -->
    <g style="fill: #ffffff" transform="translate(223.209236 168.9175) scale(0.0833 -0.0833)">
     <defs>
      <path id="DejaVuSans-30" d="M 2034 4250 
Q 1547 4250 1301 3770 
Q 1056 3291 1056 2328 
Q 1056 1369 1301 889 
Q 1547 409 2034 409 
Q 2525 409 2770 889 
Q 3016 1369 3016 2328 
Q 3016 3291 2770 3770 
Q 2525 4250 2034 4250 
z
M 2034 4750 
Q 2819 4750 3233 4129 
Q 3647 3509 3647 2328 
Q 3647 1150 3233 529 
Q 2819 -91 2034 -91 
Q 1250 -91 836 529 
Q 422 1150 422 2328 
Q 422 3509 836 4129 
Q 1250 4750 2034 4750 
z
" transform="scale(0.015625)"/>
     </defs>
     <use xlink:href="#DejaVuSans-31"/>
     <use xlink:href="#DejaVuSans-30" x="63.623047"/>
    </g>
   </g>
   <g id="text_11">
    <!-- 11 -->
    <g style="fill: #ffffff" transform="translate(290.896673 150.763145) scale(0.0833 -0.0833)">
     <use xlink:href="#DejaVuSans-31"/>
     <use xlink:href="#DejaVuSans-31" x="63.623047"/>
    </g>
   </g>
   <g id="text_12">
    <!-- 12 -->
    <g style="fill: #ffffff" transform="translate(322.681293 83.550875) scale(0.0833 -0.0833)">
     <use xlink:href="#DejaVuSans-31"/>
     <use xlink:href="#DejaVuSans-32" x="63.623047"/>
    </g>
   </g>
   <g id="text_13">
    <!-- 13 -->
    <g style="fill: #ffffff" transform="translate(357.614432 81.833397) scale(0.0833 -0.0833)">
     <use xlink:href="#DejaVuSans-31"/>
     <use xlink:href="#DejaVuSans-33" x="63.623047"/>
    </g>
   </g>
   <g id="text_14">
    <!-- 14 -->
    <g style="fill: #ffffff" transform="translate(375.520945 114.803156) scale(0.0833 -0.0833)">
     <use xlink:href="#DejaVuSans-31"/>
     <use xlink:href="#DejaVuSans-34" x="63.623047"/>
    </g>
   </g>
   <g id="text_15">
    <!-- 15 -->
    <g style="fill: #ffffff" transform="translate(355.27458 182.095716) scale(0.0833 -0.0833)">
     <use xlink:href="#DejaVuSans-31"/>
     <use xlink:href="#DejaVuSans-35" x="63.623047"/>
    </g>
   </g>
   <g id="text_16">
    <!-- 16 -->
    <g style="fill: #ffffff" transform="translate(385.045786 280.470136) scale(0.0833 -0.0833)">
     <use xlink:href="#DejaVuSans-31"/>
     <use xlink:href="#DejaVuSans-36" x="63.623047"/>
    </g>
   </g>
  </g>
 </g>
 <defs>
  <clipPath id="paa532c179d">
   <rect x="57.6" y="41.472" width="357.12" height="266.112"/>
  </clipPath>
 </defs>
</svg>
