<?xml version="1.0" encoding="utf-8" standalone="no"?>
<!DOCTYPE svg PUBLIC "-//W3C//DTD SVG 1.1//EN"
  "http://www.w3.org/Graphics/SVG/1.1/DTD/svg11.dtd">
<svg xmlns:xlink="http://www.w3.org/1999/xlink" width="460.8pt" height="345.6pt" viewBox="0 0 460.8 345.6" xmlns="http://www.w3.org/2000/svg" version="1.1">
 <metadata>
  <rdf:RDF xmlns:dc="http://purl.org/dc/elements/1.1/" xmlns:cc="http://creativecommons.org/ns#" xmlns:rdf="http://www.w3.org/1999/02/22-rdf-syntax-ns#">
   <cc:Work>
    <dc:type rdf:resource="http://purl.org/dc/dcmitype/StillImage"/>
    <dc:date>2024-07-14T12:23:50.130042</dc:date>
    <dc:format>image/svg+xml</dc:format>
    <dc:creator>
     <cc:Agent>
      <dc:title>Matplotlib v3.9.0, https://matplotlib.org/</dc:title>
     </cc:Agent>
    </dc:creator>
   </cc:Work>
  </rdf:RDF>
 </metadata>
 <defs>
  <style type="text/css">*{stroke-linejoin: round; stroke-linecap: butt}</style>
 </defs>
 <g id="figure_1">
  <g id="patch_1">
   <path d="M 0 345.6 
L 460.8 345.6 
L 460.8 0 
L 0 0 
z
" style="fill: #ffffff"/>
  </g>
  <g id="axes_1">
   <g id="patch_2">
    <path d="M 57.6 307.584 
L 414.72 307.584 
L 414.72 41.472 
L 57.6 41.472 
z
" style="fill: #ffffff"/>
   </g>
   <g id="PathCollection_1">
    <defs>
     <path id="me8091f8243" d="M 0 5.91608 
C 1.568963 5.91608 3.073876 5.292724 4.1833 4.1833 
C 5.292724 3.073876 5.91608 1.568963 5.91608 0 
C 5.91608 -1.568963 5.292724 -3.073876 4.1833 -4.1833 
C 3.073876 -5.292724 1.568963 -5.91608 0 -5.91608 
C -1.568963 -5.91608 -3.073876 -5.292724 -4.1833 -4.1833 
C -5.292724 -3.073876 -5.91608 -1.568963 -5.91608 0 
C -5.91608 1.568963 -5.292724 3.073876 -4.1833 4.1833 
C -3.073876 5.292724 -1.568963 5.91608 0 5.91608 
z
" style="stroke: #808080"/>
    </defs>
    <g clip-path="url(#p642dee4652)">
     <use xlink:href="#me8091f8243" x="78.135335" y="82.837397" style="fill: #808080; stroke: #808080"/>
    </g>
   </g>
   <g id="PathCollection_2">
    <g clip-path="url(#p642dee4652)">
     <use xlink:href="#me8091f8243" x="85.910947" y="108.354891" style="fill: #808080; stroke: #808080"/>
    </g>
   </g>
   <g id="PathCollection_3">
    <g clip-path="url(#p642dee4652)">
     <use xlink:href="#me8091f8243" x="73.832727" y="168.395911" style="fill: #808080; stroke: #808080"/>
    </g>
   </g>
   <g id="PathCollection_4">
    <g clip-path="url(#p642dee4652)">
     <use xlink:href="#me8091f8243" x="283.967586" y="281.694909" style="fill: #808080; stroke: #808080"/>
    </g>
   </g>
   <g id="PathCollection_5">
    <g clip-path="url(#p642dee4652)">
     <use xlink:href="#me8091f8243" x="313.490403" y="226.536092" style="fill: #808080; stroke: #808080"/>
    </g>
   </g>
   <g id="PathCollection_6">
    <g clip-path="url(#p642dee4652)">
     <use xlink:href="#me8091f8243" x="207.871576" y="127.709186" style="fill: #808080; stroke: #808080"/>
    </g>
   </g>
   <g id="PathCollection_7">
    <g clip-path="url(#p642dee4652)">
     <use xlink:href="#me8091f8243" x="243.669251" y="102.998273" style="fill: #808080; stroke: #808080"/>
    </g>
   </g>
   <g id="PathCollection_8">
    <g clip-path="url(#p642dee4652)">
     <use xlink:href="#me8091f8243" x="292.906421" y="80.794802" style="fill: #808080; stroke: #808080"/>
    </g>
   </g>
   <g id="PathCollection_9">
    <g clip-path="url(#p642dee4652)">
     <use xlink:href="#me8091f8243" x="260.705349" y="130.118527" style="fill: #808080; stroke: #808080"/>
    </g>
   </g>
   <g id="PathCollection_10">
    <g clip-path="url(#p642dee4652)">
     <use xlink:href="#me8091f8243" x="365.001158" y="115.391313" style="fill: #808080; stroke: #808080"/>
    </g>
   </g>
   <g id="PathCollection_11">
    <g clip-path="url(#p642dee4652)">
     <use xlink:href="#me8091f8243" x="327.045795" y="165.208767" style="fill: #808080; stroke: #808080"/>
    </g>
   </g>
   <g id="PathCollection_12">
    <g clip-path="url(#p642dee4652)">
     <use xlink:href="#me8091f8243" x="361.028773" y="206.446772" style="fill: #808080; stroke: #808080"/>
    </g>
   </g>
   <g id="PathCollection_13">
    <g clip-path="url(#p642dee4652)">
     <use xlink:href="#me8091f8243" x="398.487273" y="197.20451" style="fill: #808080; stroke: #808080"/>
    </g>
   </g>
   <g id="PathCollection_14">
    <g clip-path="url(#p642dee4652)">
     <use xlink:href="#me8091f8243" x="382.502639" y="110.955345" style="fill: #808080; stroke: #808080"/>
    </g>
   </g>
   <g id="PathCollection_15">
    <g clip-path="url(#p642dee4652)">
     <use xlink:href="#me8091f8243" x="263.79654" y="84.32375" style="fill: #808080; stroke: #808080"/>
    </g>
   </g>
   <g id="matplotlib.axis_1"/>
   <g id="matplotlib.axis_2"/>
   <g id="line2d_1">
    <path d="M 194.052296 68.296305 
L 174.837385 69.079959 
L 129.006077 71.613811 
L 122.48586 72.13273 
L 116.085689 72.798107 
L 110.006248 73.803777 
L 107.243514 74.425958 
L 103.884464 75.435392 
L 101.518764 76.323378 
L 97.51924 78.496799 
L 94.166208 81.896113 
L 93.192291 83.775347 
L 92.727904 85.248882 
L 92.456235 87.095971 
L 92.718977 89.842775 
L 93.22586 91.583231 
L 93.891499 93.145784 
L 94.842791 95.071408 
L 97.676818 100.088177 
L 99.415612 103.572021 
L 100.135476 105.448455 
L 100.805733 108.553997 
L 100.518418 112.181653 
L 99.009959 115.579982 
L 97.12473 118.474929 
L 93.920257 123.024532 
L 91.29547 127.122878 
L 89.089796 131.09866 
L 87.170474 135.860959 
L 85.918323 140.613893 
L 85.410063 144.285292 
L 85.082222 148.3881 
L 85.200606 152.525287 
L 86.615892 160.233803 
L 88.770035 166.315476 
L 90.388782 169.652862 
L 94.15607 175.684358 
L 97.368399 179.63259 
L 105.291605 186.880044 
L 108.904315 189.371371 
L 112.752086 191.610306 
L 117.50712 194.132793 
L 141.131918 205.745729 
L 161.369984 215.368904 
L 169.951125 219.521013 
L 214.08371 241.479635 
L 240.090708 254.6874 
L 258.432493 264.270334 
L 262.072731 265.920919 
L 265.139849 266.996151 
L 270.665186 268.170598 
L 274.375294 268.354496 
L 279.168469 267.710367 
L 282.935449 266.061991 
L 287.537153 262.051262 
L 290.47582 257.898692 
L 293.658344 251.318648 
L 294.769354 248.652196 
L 296.634867 242.578334 
L 297.401668 239.113067 
L 298.261118 234.216192 
L 298.637034 230.456192 
L 298.642745 225.1662 
L 297.780601 219.69174 
L 297.287832 217.742635 
L 295.216842 211.980992 
L 293.253886 207.844791 
L 289.867001 202.015093 
L 284.932092 195.644705 
L 258.265274 166.906841 
L 248.594194 156.929498 
L 232.438366 140.191868 
L 226.993227 133.803733 
L 224.607526 130.091678 
L 223.813875 128.562386 
L 221.328936 121.049805 
L 220.995755 116.927433 
L 221.26797 111.663853 
L 222.695223 105.375895 
L 226.167032 98.85734 
L 229.562406 94.832081 
L 231.497111 93.126833 
L 238.094179 89.116936 
L 242.476622 87.417968 
L 247.095526 86.313499 
L 250.668257 85.863488 
L 254.313659 85.640572 
L 260.004317 85.610505 
L 264.584095 85.82808 
L 269.815114 86.395729 
L 273.379464 87.12312 
L 276.303756 88.016816 
L 278.248812 88.823312 
L 281.050125 90.295578 
L 282.344641 91.175445 
L 283.751238 92.38149 
L 285.115494 94.21348 
L 285.688199 95.786514 
L 285.816495 97.17438 
L 285.701066 98.570912 
L 285.197969 100.368809 
L 284.631983 101.609101 
L 283.449417 103.474221 
L 280.128531 107.575783 
L 277.407593 110.988511 
L 276.676 112.012189 
L 275.598667 113.808971 
L 274.896703 115.262243 
L 273.78961 119.04824 
L 273.801362 122.406874 
L 274.076117 123.674693 
L 275.092114 126.007132 
L 276.479149 127.8742 
L 277.931306 129.1504 
L 280.017372 130.289223 
L 281.472461 130.840395 
L 285.728578 131.442706 
L 287.934406 131.30686 
L 290.672544 130.800393 
L 294.766403 129.46338 
L 300.291586 126.797891 
L 309.109011 121.445817 
L 313.820565 118.90974 
L 316.947486 117.42767 
L 319.868276 116.20414 
L 324.668016 114.5334 
L 329.26414 113.393854 
L 332.867616 112.799201 
L 337.529146 112.489915 
L 343.018705 113.263695 
L 345.122518 113.892287 
L 346.668725 114.583769 
L 350.015631 117.472129 
L 350.413364 118.161379 
L 350.759959 121.651658 
L 350.437698 122.883284 
L 349.723437 124.394413 
L 348.113794 126.561816 
L 347.173553 127.57138 
L 343.788376 130.268446 
L 340.288601 132.366679 
L 338.513768 133.319787 
L 330.340449 137.20629 
L 326.440008 139.340301 
L 323.821501 140.990909 
L 320.840623 143.350614 
L 317.861845 146.980656 
L 314.973354 152.74637 
L 313.850746 155.894124 
L 312.374302 162.41351 
L 312.170425 167.782323 
L 312.810922 172.87708 
L 313.667748 176.385105 
L 315.037321 180.18353 
L 316.475648 183.089506 
L 318.689595 186.613876 
L 322.113089 190.848876 
L 330.570705 198.996044 
L 343.169294 210.563183 
L 347.910499 214.715445 
L 351.000681 217.246882 
L 354.084013 219.383802 
L 356.333169 220.466584 
L 359.327615 221.314722 
L 361.379019 221.478642 
L 363.49373 221.202486 
L 366.637982 220.207867 
L 367.981405 219.43518 
L 370.617659 217.274341 
L 372.603372 215.186874 
L 374.73666 212.405124 
L 378.84671 205.871054 
L 380.210112 203.439663 
L 381.762314 200.26228 
L 382.819799 197.705393 
L 384.233924 193.470655 
L 384.909191 190.862761 
L 385.808751 186.488414 
L 386.526491 180.835765 
L 386.673081 178.29691 
L 386.836432 173.403251 
L 386.652772 166.016996 
L 386.317074 161.62197 
L 385.455346 155.149828 
L 384.621716 150.679199 
L 383.076887 144.575862 
L 381.797731 140.494301 
L 380.111061 136.054001 
L 377.544655 130.489408 
L 376.063285 127.785932 
L 373.689881 124.01602 
L 370.249056 119.293569 
L 367.35564 115.836421 
L 364.864291 113.190386 
L 360.131051 108.858404 
L 356.879596 106.232216 
L 351.244125 102.161991 
L 346.535765 99.135423 
L 342.065683 96.552562 
L 337.436844 94.147606 
L 327.45847 89.456623 
L 320.368195 86.256352 
L 309.964561 81.716861 
L 300.078706 78.013078 
L 293.798012 75.98266 
L 284.866382 73.479474 
L 278.844928 72.078633 
L 273.776298 71.031498 
L 268.647995 70.122856 
L 262.991014 69.283253 
L 257.268211 68.611072 
L 247.804555 67.899635 
L 240.413267 67.537986 
L 232.468705 67.361091 
L 221.302187 67.406411 
L 201.649016 67.975968 
L 195.578656 68.227681 
L 195.578656 68.227681 
" clip-path="url(#p642dee4652)" style="fill: none; stroke: #1f77b4; stroke-width: 1.5; stroke-linecap: square"/>
   </g>
   <g id="line2d_2">
    <path d="M 92.70729 85.352252 
L 78.135335 82.837397 
" clip-path="url(#p642dee4652)" style="fill: none; stroke: #808080; stroke-width: 1.5; stroke-linecap: square"/>
   </g>
   <g id="line2d_3">
    <path d="M 100.113398 112.472746 
L 85.910947 108.354891 
" clip-path="url(#p642dee4652)" style="fill: none; stroke: #808080; stroke-width: 1.5; stroke-linecap: square"/>
   </g>
   <g id="line2d_4">
    <path d="M 87.784376 163.495108 
L 73.832727 168.395911 
" clip-path="url(#p642dee4652)" style="fill: none; stroke: #808080; stroke-width: 1.5; stroke-linecap: square"/>
   </g>
   <g id="line2d_5">
    <path d="M 279.347846 267.64769 
L 283.967586 281.694909 
" clip-path="url(#p642dee4652)" style="fill: none; stroke: #808080; stroke-width: 1.5; stroke-linecap: square"/>
   </g>
   <g id="line2d_6">
    <path d="M 298.704365 226.337426 
L 313.490403 226.536092 
" clip-path="url(#p642dee4652)" style="fill: none; stroke: #808080; stroke-width: 1.5; stroke-linecap: square"/>
   </g>
   <g id="line2d_7">
    <path d="M 222.1938 124.029476 
L 207.871576 127.709186 
" clip-path="url(#p642dee4652)" style="fill: none; stroke: #808080; stroke-width: 1.5; stroke-linecap: square"/>
   </g>
   <g id="line2d_8">
    <path d="M 237.02434 89.787991 
L 243.669251 102.998273 
" clip-path="url(#p642dee4652)" style="fill: none; stroke: #808080; stroke-width: 1.5; stroke-linecap: square"/>
   </g>
   <g id="line2d_9">
    <path d="M 282.791002 91.581121 
L 292.906421 80.794802 
" clip-path="url(#p642dee4652)" style="fill: none; stroke: #808080; stroke-width: 1.5; stroke-linecap: square"/>
   </g>
   <g id="line2d_10">
    <path d="M 274.283339 124.261516 
L 260.705349 130.118527 
" clip-path="url(#p642dee4652)" style="fill: none; stroke: #808080; stroke-width: 1.5; stroke-linecap: square"/>
   </g>
   <g id="line2d_11">
    <path d="M 350.820555 119.58379 
L 365.001158 115.391313 
" clip-path="url(#p642dee4652)" style="fill: none; stroke: #808080; stroke-width: 1.5; stroke-linecap: square"/>
   </g>
   <g id="line2d_12">
    <path d="M 312.418289 163.040262 
L 327.045795 165.208767 
" clip-path="url(#p642dee4652)" style="fill: none; stroke: #808080; stroke-width: 1.5; stroke-linecap: square"/>
   </g>
   <g id="line2d_13">
    <path d="M 366.523901 220.175207 
L 361.028773 206.446772 
" clip-path="url(#p642dee4652)" style="fill: none; stroke: #808080; stroke-width: 1.5; stroke-linecap: square"/>
   </g>
   <g id="line2d_14">
    <path d="M 384.218128 193.324061 
L 398.487273 197.20451 
" clip-path="url(#p642dee4652)" style="fill: none; stroke: #808080; stroke-width: 1.5; stroke-linecap: square"/>
   </g>
   <g id="line2d_15">
    <path d="M 371.183279 120.470515 
L 382.502639 110.955345 
" clip-path="url(#p642dee4652)" style="fill: none; stroke: #808080; stroke-width: 1.5; stroke-linecap: square"/>
   </g>
   <g id="line2d_16">
    <path d="M 266.596273 69.803838 
L 263.79654 84.32375 
" clip-path="url(#p642dee4652)" style="fill: none; stroke: #808080; stroke-width: 1.5; stroke-linecap: square"/>
   </g>
   <g id="patch_3">
    <path d="M 57.6 307.584 
L 57.6 41.472 
" style="fill: none; stroke: #000000; stroke-width: 0.8; stroke-linejoin: miter; stroke-linecap: square"/>
   </g>
   <g id="patch_4">
    <path d="M 414.72 307.584 
L 414.72 41.472 
" style="fill: none; stroke: #000000; stroke-width: 0.8; stroke-linejoin: miter; stroke-linecap: square"/>
   </g>
   <g id="patch_5">
    <path d="M 57.6 307.584 
L 414.72 307.584 
" style="fill: none; stroke: #000000; stroke-width: 0.8; stroke-linejoin: miter; stroke-linecap: square"/>
   </g>
   <g id="patch_6">
    <path d="M 57.6 41.472 
L 414.72 41.472 
" style="fill: none; stroke: #000000; stroke-width: 0.8; stroke-linejoin: miter; stroke-linecap: square"/>
   </g>
   <g id="text_1">
    <!-- 1 -->
    <g style="fill: #ffffff" transform="translate(75.485354 86.002146) scale(0.0833 -0.0833)">
     <defs>
      <path id="DejaVuSans-31" d="M 794 531 
L 1825 531 
L 1825 4091 
L 703 3866 
L 703 4441 
L 1819 4666 
L 2450 4666 
L 2450 531 
L 3481 531 
L 3481 0 
L 794 0 
L 794 531 
z
" transform="scale(0.015625)"/>
     </defs>
     <use xlink:href="#DejaVuSans-31"/>
    </g>
   </g>
   <g id="text_2">
    <!-- 2 -->
    <g style="fill: #ffffff" transform="translate(83.260965 111.51964) scale(0.0833 -0.0833)">
     <defs>
      <path id="DejaVuSans-32" d="M 1228 531 
L 3431 531 
L 3431 0 
L 469 0 
L 469 531 
Q 828 903 1448 1529 
Q 2069 2156 2228 2338 
Q 2531 2678 2651 2914 
Q 2772 3150 2772 3378 
Q 2772 3750 2511 3984 
Q 2250 4219 1831 4219 
Q 1534 4219 1204 4116 
Q 875 4013 500 3803 
L 500 4441 
Q 881 4594 1212 4672 
Q 1544 4750 1819 4750 
Q 2544 4750 2975 4387 
Q 3406 4025 3406 3419 
Q 3406 3131 3298 2873 
Q 3191 2616 2906 2266 
Q 2828 2175 2409 1742 
Q 1991 1309 1228 531 
z
" transform="scale(0.015625)"/>
     </defs>
     <use xlink:href="#DejaVuSans-32"/>
    </g>
   </g>
   <g id="text_3">
    <!-- 3 -->
    <g style="fill: #ffffff" transform="translate(71.182746 171.56066) scale(0.0833 -0.0833)">
     <defs>
      <path id="DejaVuSans-33" d="M 2597 2516 
Q 3050 2419 3304 2112 
Q 3559 1806 3559 1356 
Q 3559 666 3084 287 
Q 2609 -91 1734 -91 
Q 1441 -91 1130 -33 
Q 819 25 488 141 
L 488 750 
Q 750 597 1062 519 
Q 1375 441 1716 441 
Q 2309 441 2620 675 
Q 2931 909 2931 1356 
Q 2931 1769 2642 2001 
Q 2353 2234 1838 2234 
L 1294 2234 
L 1294 2753 
L 1863 2753 
Q 2328 2753 2575 2939 
Q 2822 3125 2822 3475 
Q 2822 3834 2567 4026 
Q 2313 4219 1838 4219 
Q 1578 4219 1281 4162 
Q 984 4106 628 3988 
L 628 4550 
Q 988 4650 1302 4700 
Q 1616 4750 1894 4750 
Q 2613 4750 3031 4423 
Q 3450 4097 3450 3541 
Q 3450 3153 3228 2886 
Q 3006 2619 2597 2516 
z
" transform="scale(0.015625)"/>
     </defs>
     <use xlink:href="#DejaVuSans-33"/>
    </g>
   </g>
   <g id="text_4">
    <!-- 4 -->
    <g style="fill: #ffffff" transform="translate(281.317605 284.859659) scale(0.0833 -0.0833)">
     <defs>
      <path id="DejaVuSans-34" d="M 2419 4116 
L 825 1625 
L 2419 1625 
L 2419 4116 
z
M 2253 4666 
L 3047 4666 
L 3047 1625 
L 3713 1625 
L 3713 1100 
L 3047 1100 
L 3047 0 
L 2419 0 
L 2419 1100 
L 313 1100 
L 313 1709 
L 2253 4666 
z
" transform="scale(0.015625)"/>
     </defs>
     <use xlink:href="#DejaVuSans-34"/>
    </g>
   </g>
   <g id="text_5">
    <!-- 5 -->
    <g style="fill: #ffffff" transform="translate(310.840421 229.700841) scale(0.0833 -0.0833)">
     <defs>
      <path id="DejaVuSans-35" d="M 691 4666 
L 3169 4666 
L 3169 4134 
L 1269 4134 
L 1269 2991 
Q 1406 3038 1543 3061 
Q 1681 3084 1819 3084 
Q 2600 3084 3056 2656 
Q 3513 2228 3513 1497 
Q 3513 744 3044 326 
Q 2575 -91 1722 -91 
Q 1428 -91 1123 -41 
Q 819 9 494 109 
L 494 744 
Q 775 591 1075 516 
Q 1375 441 1709 441 
Q 2250 441 2565 725 
Q 2881 1009 2881 1497 
Q 2881 1984 2565 2268 
Q 2250 2553 1709 2553 
Q 1456 2553 1204 2497 
Q 953 2441 691 2322 
L 691 4666 
z
" transform="scale(0.015625)"/>
     </defs>
     <use xlink:href="#DejaVuSans-35"/>
    </g>
   </g>
   <g id="text_6">
    <!-- 6 -->
    <g style="fill: #ffffff" transform="translate(205.221595 130.873935) scale(0.0833 -0.0833)">
     <defs>
      <path id="DejaVuSans-36" d="M 2113 2584 
Q 1688 2584 1439 2293 
Q 1191 2003 1191 1497 
Q 1191 994 1439 701 
Q 1688 409 2113 409 
Q 2538 409 2786 701 
Q 3034 994 3034 1497 
Q 3034 2003 2786 2293 
Q 2538 2584 2113 2584 
z
M 3366 4563 
L 3366 3988 
Q 3128 4100 2886 4159 
Q 2644 4219 2406 4219 
Q 1781 4219 1451 3797 
Q 1122 3375 1075 2522 
Q 1259 2794 1537 2939 
Q 1816 3084 2150 3084 
Q 2853 3084 3261 2657 
Q 3669 2231 3669 1497 
Q 3669 778 3244 343 
Q 2819 -91 2113 -91 
Q 1303 -91 875 529 
Q 447 1150 447 2328 
Q 447 3434 972 4092 
Q 1497 4750 2381 4750 
Q 2619 4750 2861 4703 
Q 3103 4656 3366 4563 
z
" transform="scale(0.015625)"/>
     </defs>
     <use xlink:href="#DejaVuSans-36"/>
    </g>
   </g>
   <g id="text_7">
    <!-- 7 -->
    <g style="fill: #ffffff" transform="translate(241.01927 106.163022) scale(0.0833 -0.0833)">
     <defs>
      <path id="DejaVuSans-37" d="M 525 4666 
L 3525 4666 
L 3525 4397 
L 1831 0 
L 1172 0 
L 2766 4134 
L 525 4134 
L 525 4666 
z
" transform="scale(0.015625)"/>
     </defs>
     <use xlink:href="#DejaVuSans-37"/>
    </g>
   </g>
   <g id="text_8">
    <!-- 8 -->
    <g style="fill: #ffffff" transform="translate(290.256439 83.959552) scale(0.0833 -0.0833)">
     <defs>
      <path id="DejaVuSans-38" d="M 2034 2216 
Q 1584 2216 1326 1975 
Q 1069 1734 1069 1313 
Q 1069 891 1326 650 
Q 1584 409 2034 409 
Q 2484 409 2743 651 
Q 3003 894 3003 1313 
Q 3003 1734 2745 1975 
Q 2488 2216 2034 2216 
z
M 1403 2484 
Q 997 2584 770 2862 
Q 544 3141 544 3541 
Q 544 4100 942 4425 
Q 1341 4750 2034 4750 
Q 2731 4750 3128 4425 
Q 3525 4100 3525 3541 
Q 3525 3141 3298 2862 
Q 3072 2584 2669 2484 
Q 3125 2378 3379 2068 
Q 3634 1759 3634 1313 
Q 3634 634 3220 271 
Q 2806 -91 2034 -91 
Q 1263 -91 848 271 
Q 434 634 434 1313 
Q 434 1759 690 2068 
Q 947 2378 1403 2484 
z
M 1172 3481 
Q 1172 3119 1398 2916 
Q 1625 2713 2034 2713 
Q 2441 2713 2670 2916 
Q 2900 3119 2900 3481 
Q 2900 3844 2670 4047 
Q 2441 4250 2034 4250 
Q 1625 4250 1398 4047 
Q 1172 3844 1172 3481 
z
" transform="scale(0.015625)"/>
     </defs>
     <use xlink:href="#DejaVuSans-38"/>
    </g>
   </g>
   <g id="text_9">
    <!-- 9 -->
    <g style="fill: #ffffff" transform="translate(258.055368 133.283276) scale(0.0833 -0.0833)">
     <defs>
      <path id="DejaVuSans-39" d="M 703 97 
L 703 672 
Q 941 559 1184 500 
Q 1428 441 1663 441 
Q 2288 441 2617 861 
Q 2947 1281 2994 2138 
Q 2813 1869 2534 1725 
Q 2256 1581 1919 1581 
Q 1219 1581 811 2004 
Q 403 2428 403 3163 
Q 403 3881 828 4315 
Q 1253 4750 1959 4750 
Q 2769 4750 3195 4129 
Q 3622 3509 3622 2328 
Q 3622 1225 3098 567 
Q 2575 -91 1691 -91 
Q 1453 -91 1209 -44 
Q 966 3 703 97 
z
M 1959 2075 
Q 2384 2075 2632 2365 
Q 2881 2656 2881 3163 
Q 2881 3666 2632 3958 
Q 2384 4250 1959 4250 
Q 1534 4250 1286 3958 
Q 1038 3666 1038 3163 
Q 1038 2656 1286 2365 
Q 1534 2075 1959 2075 
z
" transform="scale(0.015625)"/>
     </defs>
     <use xlink:href="#DejaVuSans-39"/>
    </g>
   </g>
   <g id="text_10">
    <!-- 10 -->
    <g style="fill: #ffffff" transform="translate(359.701195 118.556062) scale(0.0833 -0.0833)">
     <defs>
      <path id="DejaVuSans-30" d="M 2034 4250 
Q 1547 4250 1301 3770 
Q 1056 3291 1056 2328 
Q 1056 1369 1301 889 
Q 1547 409 2034 409 
Q 2525 409 2770 889 
Q 3016 1369 3016 2328 
Q 3016 3291 2770 3770 
Q 2525 4250 2034 4250 
z
M 2034 4750 
Q 2819 4750 3233 4129 
Q 3647 3509 3647 2328 
Q 3647 1150 3233 529 
Q 2819 -91 2034 -91 
Q 1250 -91 836 529 
Q 422 1150 422 2328 
Q 422 3509 836 4129 
Q 1250 4750 2034 4750 
z
" transform="scale(0.015625)"/>
     </defs>
     <use xlink:href="#DejaVuSans-31"/>
     <use xlink:href="#DejaVuSans-30" x="63.623047"/>
    </g>
   </g>
   <g id="text_11">
    <!-- 11 -->
    <g style="fill: #ffffff" transform="translate(321.745833 168.373516) scale(0.0833 -0.0833)">
     <use xlink:href="#DejaVuSans-31"/>
     <use xlink:href="#DejaVuSans-31" x="63.623047"/>
    </g>
   </g>
   <g id="text_12">
    <!-- 12 -->
    <g style="fill: #ffffff" transform="translate(355.72881 209.611521) scale(0.0833 -0.0833)">
     <use xlink:href="#DejaVuSans-31"/>
     <use xlink:href="#DejaVuSans-32" x="63.623047"/>
    </g>
   </g>
   <g id="text_13">
    <!-- 13 -->
    <g style="fill: #ffffff" transform="translate(393.18731 200.369259) scale(0.0833 -0.0833)">
     <use xlink:href="#DejaVuSans-31"/>
     <use xlink:href="#DejaVuSans-33" x="63.623047"/>
    </g>
   </g>
   <g id="text_14">
    <!-- 14 -->
    <g style="fill: #ffffff" transform="translate(377.202677 114.120094) scale(0.0833 -0.0833)">
     <use xlink:href="#DejaVuSans-31"/>
     <use xlink:href="#DejaVuSans-34" x="63.623047"/>
    </g>
   </g>
   <g id="text_15">
    <!-- 15 -->
    <g style="fill: #ffffff" transform="translate(258.496577 87.488499) scale(0.0833 -0.0833)">
     <use xlink:href="#DejaVuSans-31"/>
     <use xlink:href="#DejaVuSans-35" x="63.623047"/>
    </g>
   </g>
  </g>
 </g>
 <defs>
  <clipPath id="p642dee4652">
   <rect x="57.6" y="41.472" width="357.12" height="266.112"/>
  </clipPath>
 </defs>
</svg>
