<?xml version="1.0" encoding="utf-8" standalone="no"?>
<!DOCTYPE svg PUBLIC "-//W3C//DTD SVG 1.1//EN"
  "http://www.w3.org/Graphics/SVG/1.1/DTD/svg11.dtd">
<svg xmlns:xlink="http://www.w3.org/1999/xlink" width="460.8pt" height="345.6pt" viewBox="0 0 460.8 345.6" xmlns="http://www.w3.org/2000/svg" version="1.1">
 <metadata>
  <rdf:RDF xmlns:dc="http://purl.org/dc/elements/1.1/" xmlns:cc="http://creativecommons.org/ns#" xmlns:rdf="http://www.w3.org/1999/02/22-rdf-syntax-ns#">
   <cc:Work>
    <dc:type rdf:resource="http://purl.org/dc/dcmitype/StillImage"/>
    <dc:date>2024-07-14T12:23:53.946926</dc:date>
    <dc:format>image/svg+xml</dc:format>
    <dc:creator>
     <cc:Agent>
      <dc:title>Matplotlib v3.9.0, https://matplotlib.org/</dc:title>
     </cc:Agent>
    </dc:creator>
   </cc:Work>
  </rdf:RDF>
 </metadata>
 <defs>
  <style type="text/css">*{stroke-linejoin: round; stroke-linecap: butt}</style>
 </defs>
 <g id="figure_1">
  <g id="patch_1">
   <path d="M 0 345.6 
L 460.8 345.6 
L 460.8 0 
L 0 0 
z
" style="fill: #ffffff"/>
  </g>
  <g id="axes_1">
   <g id="patch_2">
    <path d="M 57.6 307.584 
L 414.72 307.584 
L 414.72 41.472 
L 57.6 41.472 
z
" style="fill: #ffffff"/>
   </g>
   <g id="PathCollection_1">
    <defs>
     <path id="mca0abf08df" d="M 0 5.91608 
C 1.568963 5.91608 3.073876 5.292724 4.1833 4.1833 
C 5.292724 3.073876 5.91608 1.568963 5.91608 0 
C 5.91608 -1.568963 5.292724 -3.073876 4.1833 -4.1833 
C 3.073876 -5.292724 1.568963 -5.91608 0 -5.91608 
C -1.568963 -5.91608 -3.073876 -5.292724 -4.1833 -4.1833 
C -5.292724 -3.073876 -5.91608 -1.568963 -5.91608 0 
C -5.91608 1.568963 -5.292724 3.073876 -4.1833 4.1833 
C -3.073876 5.292724 -1.568963 5.91608 0 5.91608 
z
" style="stroke: #808080"/>
    </defs>
    <g clip-path="url(#pf81523c9d6)">
     <use xlink:href="#mca0abf08df" x="338.064995" y="75.118462" style="fill: #808080; stroke: #808080"/>
    </g>
   </g>
   <g id="PathCollection_2">
    <g clip-path="url(#pf81523c9d6)">
     <use xlink:href="#mca0abf08df" x="325.267932" y="97.174061" style="fill: #808080; stroke: #808080"/>
    </g>
   </g>
   <g id="PathCollection_3">
    <g clip-path="url(#pf81523c9d6)">
     <use xlink:href="#mca0abf08df" x="353.133283" y="123.519455" style="fill: #808080; stroke: #808080"/>
    </g>
   </g>
   <g id="PathCollection_4">
    <g clip-path="url(#pf81523c9d6)">
     <use xlink:href="#mca0abf08df" x="333.583183" y="142.022222" style="fill: #808080; stroke: #808080"/>
    </g>
   </g>
   <g id="PathCollection_5">
    <g clip-path="url(#pf81523c9d6)">
     <use xlink:href="#mca0abf08df" x="190.240227" y="144.429048" style="fill: #808080; stroke: #808080"/>
    </g>
   </g>
   <g id="PathCollection_6">
    <g clip-path="url(#pf81523c9d6)">
     <use xlink:href="#mca0abf08df" x="195.643626" y="92.931901" style="fill: #808080; stroke: #808080"/>
    </g>
   </g>
   <g id="PathCollection_7">
    <g clip-path="url(#pf81523c9d6)">
     <use xlink:href="#mca0abf08df" x="166.448833" y="88.951004" style="fill: #808080; stroke: #808080"/>
    </g>
   </g>
   <g id="PathCollection_8">
    <g clip-path="url(#pf81523c9d6)">
     <use xlink:href="#mca0abf08df" x="157.757408" y="98.270844" style="fill: #808080; stroke: #808080"/>
    </g>
   </g>
   <g id="PathCollection_9">
    <g clip-path="url(#pf81523c9d6)">
     <use xlink:href="#mca0abf08df" x="131.424407" y="80.655974" style="fill: #808080; stroke: #808080"/>
    </g>
   </g>
   <g id="PathCollection_10">
    <g clip-path="url(#pf81523c9d6)">
     <use xlink:href="#mca0abf08df" x="120.842854" y="158.19963" style="fill: #808080; stroke: #808080"/>
    </g>
   </g>
   <g id="PathCollection_11">
    <g clip-path="url(#pf81523c9d6)">
     <use xlink:href="#mca0abf08df" x="85.756745" y="180.135544" style="fill: #808080; stroke: #808080"/>
    </g>
   </g>
   <g id="PathCollection_12">
    <g clip-path="url(#pf81523c9d6)">
     <use xlink:href="#mca0abf08df" x="73.832727" y="224.671966" style="fill: #808080; stroke: #808080"/>
    </g>
   </g>
   <g id="PathCollection_13">
    <g clip-path="url(#pf81523c9d6)">
     <use xlink:href="#mca0abf08df" x="191.211218" y="272.909168" style="fill: #808080; stroke: #808080"/>
    </g>
   </g>
   <g id="PathCollection_14">
    <g clip-path="url(#pf81523c9d6)">
     <use xlink:href="#mca0abf08df" x="385.306219" y="273.937538" style="fill: #808080; stroke: #808080"/>
    </g>
   </g>
   <g id="PathCollection_15">
    <g clip-path="url(#pf81523c9d6)">
     <use xlink:href="#mca0abf08df" x="378.130886" y="256.499302" style="fill: #808080; stroke: #808080"/>
    </g>
   </g>
   <g id="PathCollection_16">
    <g clip-path="url(#pf81523c9d6)">
     <use xlink:href="#mca0abf08df" x="398.487273" y="254.432163" style="fill: #808080; stroke: #808080"/>
    </g>
   </g>
   <g id="PathCollection_17">
    <g clip-path="url(#pf81523c9d6)">
     <use xlink:href="#mca0abf08df" x="397.130176" y="128.30672" style="fill: #808080; stroke: #808080"/>
    </g>
   </g>
   <g id="matplotlib.axis_1"/>
   <g id="matplotlib.axis_2"/>
   <g id="line2d_1">
    <path d="M 373.900086 109.896692 
L 365.066838 102.093185 
L 345.469577 84.587585 
L 345.019065 84.265791 
L 343.217018 83.316499 
L 342.01029 82.994705 
L 340.707024 82.865987 
L 339.564655 82.946435 
L 337.601711 83.590024 
L 336.121458 84.539316 
L 334.786012 85.874762 
L 333.772361 87.483732 
L 333.177042 89.060524 
L 332.839158 90.717763 
L 332.72653 92.51981 
L 332.790889 93.64609 
L 333.144862 95.625123 
L 334.126334 98.231656 
L 335.880112 101.192161 
L 337.456903 103.299913 
L 338.921067 104.941063 
L 342.637789 108.689964 
L 343.796247 110.02541 
L 344.552464 111.10342 
L 345.984447 114.868411 
L 346.161434 116.413023 
L 346.097075 118.359877 
L 344.777719 123.235058 
L 342.782596 126.903511 
L 341.350612 128.721647 
L 339.500296 130.507605 
L 337.891326 131.698243 
L 335.349152 133.098047 
L 331.680699 134.272596 
L 324.923023 135.12535 
L 315.977147 135.768938 
L 304.794802 136.364257 
L 270.47546 137.667523 
L 229.044469 139.115597 
L 202.78607 140.000531 
L 200.308255 139.791364 
L 198.490118 139.405212 
L 196.478905 138.729444 
L 194.902114 137.908869 
L 194.097629 137.265281 
L 193.035708 135.817207 
L 192.633466 134.417403 
L 192.520838 133.50029 
L 192.504748 127.257484 
L 192.40821 112.503224 
L 192.247313 107.483236 
L 191.619814 104.088308 
L 190.815329 101.513955 
L 189.045461 97.555888 
L 187.613478 95.126342 
L 184.862138 91.296993 
L 183.381885 89.736291 
L 181.209775 87.821616 
L 176.640298 84.700213 
L 172.939666 82.978615 
L 170.043519 82.061502 
L 167.002565 81.546631 
L 165.120069 81.562721 
L 163.092767 81.997143 
L 161.966487 82.479834 
L 160.904567 83.155602 
L 159.327776 85.488609 
L 158.635918 87.59636 
L 158.056689 88.674371 
L 156.962589 89.80065 
L 155.965027 90.395969 
L 154.999645 90.717763 
L 153.937724 90.862571 
L 152.730996 90.749943 
L 150.542796 90.009816 
L 143.592044 86.309184 
L 142.256598 85.923031 
L 140.599359 85.729955 
L 139.086926 85.842582 
L 138.378979 85.98739 
L 137.075713 86.50226 
L 136.17469 87.129759 
L 135.370204 88.191679 
L 135.03232 89.124882 
L 134.839244 90.959109 
L 135.418473 118.890837 
L 135.354115 136.702141 
L 135.144948 141.11072 
L 134.308284 146.532951 
L 133.503798 150.233583 
L 132.103994 154.352548 
L 130.189319 158.61632 
L 128.017209 162.139965 
L 125.861188 164.778677 
L 123.57645 166.982967 
L 119.135692 170.297446 
L 116.867043 171.632891 
L 111.348274 174.303782 
L 102.965538 178.149222 
L 99.747597 179.726013 
L 96.433117 181.688957 
L 92.925562 184.375938 
L 91.300501 185.90446 
L 87.969932 189.669451 
L 85.427759 193.321814 
L 83.400456 197.263792 
L 82.386805 199.822055 
L 81.131808 204.037558 
L 79.796362 210.441261 
L 79.040146 214.511956 
L 78.83098 216.684066 
L 78.943608 217.729897 
L 79.506747 219.000984 
L 80.375591 219.982456 
L 81.308794 220.690403 
L 82.998213 221.462709 
L 87.406793 222.556809 
L 90.415568 223.795716 
L 103.576946 230.13506 
L 110.49552 234.012679 
L 117.494542 237.954657 
L 135.933344 247.753287 
L 139.42481 249.426617 
L 143.25416 251.132126 
L 147.871905 253.0468 
L 152.634458 254.816668 
L 158.056689 256.522177 
L 174.001587 261.011205 
L 179.986957 262.491457 
L 189.68905 264.486581 
L 199.568129 265.999013 
L 206.132728 266.73914 
L 212.745597 267.28619 
L 218.232187 267.559715 
L 225.215119 267.704522 
L 237.250219 267.704522 
L 263.267272 267.495356 
L 281.915241 267.511446 
L 348.784056 268.058496 
L 375.766492 268.283751 
L 377.343283 268.138944 
L 378.936164 267.865419 
L 381.140453 267.044844 
L 382.331092 266.369076 
L 383.763075 265.178438 
L 384.277946 264.53485 
L 385.114611 262.427099 
L 385.69384 259.128709 
L 386.80403 257.069227 
L 389.780625 253.320325 
L 391.518313 250.34373 
L 391.936646 249.040464 
L 392.354978 244.937589 
L 392.451516 235.492932 
L 391.325237 194.753798 
L 391.293058 184.601194 
L 391.357416 158.278436 
L 390.922994 143.540266 
L 390.520752 136.669962 
L 389.603639 131.054654 
L 388.042937 126.469088 
L 385.999545 122.639739 
L 384.889355 120.91814 
L 382.315002 117.507123 
L 380.094623 115.254564 
L 377.069758 112.551493 
L 377.069758 112.551493 
" clip-path="url(#pf81523c9d6)" style="fill: none; stroke: #1f77b4; stroke-width: 1.5; stroke-linecap: square"/>
   </g>
   <g id="line2d_2">
    <path d="M 339.433688 83.04603 
L 338.064995 75.118462 
" clip-path="url(#pf81523c9d6)" style="fill: none; stroke: #808080; stroke-width: 1.5; stroke-linecap: square"/>
   </g>
   <g id="line2d_3">
    <path d="M 333.081122 95.257366 
L 325.267932 97.174061 
" clip-path="url(#pf81523c9d6)" style="fill: none; stroke: #808080; stroke-width: 1.5; stroke-linecap: square"/>
   </g>
   <g id="line2d_4">
    <path d="M 345.422201 121.226231 
L 353.133283 123.519455 
" clip-path="url(#pf81523c9d6)" style="fill: none; stroke: #808080; stroke-width: 1.5; stroke-linecap: square"/>
   </g>
   <g id="line2d_5">
    <path d="M 331.981839 134.138355 
L 333.583183 142.022222 
" clip-path="url(#pf81523c9d6)" style="fill: none; stroke: #808080; stroke-width: 1.5; stroke-linecap: square"/>
   </g>
   <g id="line2d_6">
    <path d="M 194.908446 137.877149 
L 190.240227 144.429048 
" clip-path="url(#pf81523c9d6)" style="fill: none; stroke: #808080; stroke-width: 1.5; stroke-linecap: square"/>
   </g>
   <g id="line2d_7">
    <path d="M 188.717461 97.024319 
L 195.643626 92.931901 
" clip-path="url(#pf81523c9d6)" style="fill: none; stroke: #808080; stroke-width: 1.5; stroke-linecap: square"/>
   </g>
   <g id="line2d_8">
    <path d="M 160.121451 83.982717 
L 166.448833 88.951004 
" clip-path="url(#pf81523c9d6)" style="fill: none; stroke: #808080; stroke-width: 1.5; stroke-linecap: square"/>
   </g>
   <g id="line2d_9">
    <path d="M 155.367571 90.589156 
L 157.757408 98.270844 
" clip-path="url(#pf81523c9d6)" style="fill: none; stroke: #808080; stroke-width: 1.5; stroke-linecap: square"/>
   </g>
   <g id="line2d_10">
    <path d="M 136.351173 87.01574 
L 131.424407 80.655974 
" clip-path="url(#pf81523c9d6)" style="fill: none; stroke: #808080; stroke-width: 1.5; stroke-linecap: square"/>
   </g>
   <g id="line2d_11">
    <path d="M 126.994853 163.383506 
L 120.842854 158.19963 
" clip-path="url(#pf81523c9d6)" style="fill: none; stroke: #808080; stroke-width: 1.5; stroke-linecap: square"/>
   </g>
   <g id="line2d_12">
    <path d="M 91.421268 185.84806 
L 85.756745 180.135544 
" clip-path="url(#pf81523c9d6)" style="fill: none; stroke: #808080; stroke-width: 1.5; stroke-linecap: square"/>
   </g>
   <g id="line2d_13">
    <path d="M 79.858364 219.341735 
L 73.832727 224.671966 
" clip-path="url(#pf81523c9d6)" style="fill: none; stroke: #808080; stroke-width: 1.5; stroke-linecap: square"/>
   </g>
   <g id="line2d_14">
    <path d="M 192.566734 264.979336 
L 191.211218 272.909168 
" clip-path="url(#pf81523c9d6)" style="fill: none; stroke: #808080; stroke-width: 1.5; stroke-linecap: square"/>
   </g>
   <g id="line2d_15">
    <path d="M 381.396987 266.906353 
L 385.306219 273.937538 
" clip-path="url(#pf81523c9d6)" style="fill: none; stroke: #808080; stroke-width: 1.5; stroke-linecap: square"/>
   </g>
   <g id="line2d_16">
    <path d="M 385.818918 258.86865 
L 378.130886 256.499302 
" clip-path="url(#pf81523c9d6)" style="fill: none; stroke: #808080; stroke-width: 1.5; stroke-linecap: square"/>
   </g>
   <g id="line2d_17">
    <path d="M 391.187102 251.051756 
L 398.487273 254.432163 
" clip-path="url(#pf81523c9d6)" style="fill: none; stroke: #808080; stroke-width: 1.5; stroke-linecap: square"/>
   </g>
   <g id="line2d_18">
    <path d="M 389.369768 130.427031 
L 397.130176 128.30672 
" clip-path="url(#pf81523c9d6)" style="fill: none; stroke: #808080; stroke-width: 1.5; stroke-linecap: square"/>
   </g>
   <g id="patch_3">
    <path d="M 57.6 307.584 
L 57.6 41.472 
" style="fill: none; stroke: #000000; stroke-width: 0.8; stroke-linejoin: miter; stroke-linecap: square"/>
   </g>
   <g id="patch_4">
    <path d="M 414.72 307.584 
L 414.72 41.472 
" style="fill: none; stroke: #000000; stroke-width: 0.8; stroke-linejoin: miter; stroke-linecap: square"/>
   </g>
   <g id="patch_5">
    <path d="M 57.6 307.584 
L 414.72 307.584 
" style="fill: none; stroke: #000000; stroke-width: 0.8; stroke-linejoin: miter; stroke-linecap: square"/>
   </g>
   <g id="patch_6">
    <path d="M 57.6 41.472 
L 414.72 41.472 
" style="fill: none; stroke: #000000; stroke-width: 0.8; stroke-linejoin: miter; stroke-linecap: square"/>
   </g>
   <g id="text_1">
    <!-- 1 -->
    <g style="fill: #ffffff" transform="translate(335.415014 78.283211) scale(0.0833 -0.0833)">
     <defs>
      <path id="DejaVuSans-31" d="M 794 531 
L 1825 531 
L 1825 4091 
L 703 3866 
L 703 4441 
L 1819 4666 
L 2450 4666 
L 2450 531 
L 3481 531 
L 3481 0 
L 794 0 
L 794 531 
z
" transform="scale(0.015625)"/>
     </defs>
     <use xlink:href="#DejaVuSans-31"/>
    </g>
   </g>
   <g id="text_2">
    <!-- 2 -->
    <g style="fill: #ffffff" transform="translate(322.617951 100.33881) scale(0.0833 -0.0833)">
     <defs>
      <path id="DejaVuSans-32" d="M 1228 531 
L 3431 531 
L 3431 0 
L 469 0 
L 469 531 
Q 828 903 1448 1529 
Q 2069 2156 2228 2338 
Q 2531 2678 2651 2914 
Q 2772 3150 2772 3378 
Q 2772 3750 2511 3984 
Q 2250 4219 1831 4219 
Q 1534 4219 1204 4116 
Q 875 4013 500 3803 
L 500 4441 
Q 881 4594 1212 4672 
Q 1544 4750 1819 4750 
Q 2544 4750 2975 4387 
Q 3406 4025 3406 3419 
Q 3406 3131 3298 2873 
Q 3191 2616 2906 2266 
Q 2828 2175 2409 1742 
Q 1991 1309 1228 531 
z
" transform="scale(0.015625)"/>
     </defs>
     <use xlink:href="#DejaVuSans-32"/>
    </g>
   </g>
   <g id="text_3">
    <!-- 3 -->
    <g style="fill: #ffffff" transform="translate(350.483302 126.684204) scale(0.0833 -0.0833)">
     <defs>
      <path id="DejaVuSans-33" d="M 2597 2516 
Q 3050 2419 3304 2112 
Q 3559 1806 3559 1356 
Q 3559 666 3084 287 
Q 2609 -91 1734 -91 
Q 1441 -91 1130 -33 
Q 819 25 488 141 
L 488 750 
Q 750 597 1062 519 
Q 1375 441 1716 441 
Q 2309 441 2620 675 
Q 2931 909 2931 1356 
Q 2931 1769 2642 2001 
Q 2353 2234 1838 2234 
L 1294 2234 
L 1294 2753 
L 1863 2753 
Q 2328 2753 2575 2939 
Q 2822 3125 2822 3475 
Q 2822 3834 2567 4026 
Q 2313 4219 1838 4219 
Q 1578 4219 1281 4162 
Q 984 4106 628 3988 
L 628 4550 
Q 988 4650 1302 4700 
Q 1616 4750 1894 4750 
Q 2613 4750 3031 4423 
Q 3450 4097 3450 3541 
Q 3450 3153 3228 2886 
Q 3006 2619 2597 2516 
z
" transform="scale(0.015625)"/>
     </defs>
     <use xlink:href="#DejaVuSans-33"/>
    </g>
   </g>
   <g id="text_4">
    <!-- 4 -->
    <g style="fill: #ffffff" transform="translate(330.933202 145.186971) scale(0.0833 -0.0833)">
     <defs>
      <path id="DejaVuSans-34" d="M 2419 4116 
L 825 1625 
L 2419 1625 
L 2419 4116 
z
M 2253 4666 
L 3047 4666 
L 3047 1625 
L 3713 1625 
L 3713 1100 
L 3047 1100 
L 3047 0 
L 2419 0 
L 2419 1100 
L 313 1100 
L 313 1709 
L 2253 4666 
z
" transform="scale(0.015625)"/>
     </defs>
     <use xlink:href="#DejaVuSans-34"/>
    </g>
   </g>
   <g id="text_5">
    <!-- 5 -->
    <g style="fill: #ffffff" transform="translate(187.590246 147.593797) scale(0.0833 -0.0833)">
     <defs>
      <path id="DejaVuSans-35" d="M 691 4666 
L 3169 4666 
L 3169 4134 
L 1269 4134 
L 1269 2991 
Q 1406 3038 1543 3061 
Q 1681 3084 1819 3084 
Q 2600 3084 3056 2656 
Q 3513 2228 3513 1497 
Q 3513 744 3044 326 
Q 2575 -91 1722 -91 
Q 1428 -91 1123 -41 
Q 819 9 494 109 
L 494 744 
Q 775 591 1075 516 
Q 1375 441 1709 441 
Q 2250 441 2565 725 
Q 2881 1009 2881 1497 
Q 2881 1984 2565 2268 
Q 2250 2553 1709 2553 
Q 1456 2553 1204 2497 
Q 953 2441 691 2322 
L 691 4666 
z
" transform="scale(0.015625)"/>
     </defs>
     <use xlink:href="#DejaVuSans-35"/>
    </g>
   </g>
   <g id="text_6">
    <!-- 6 -->
    <g style="fill: #ffffff" transform="translate(192.993645 96.09665) scale(0.0833 -0.0833)">
     <defs>
      <path id="DejaVuSans-36" d="M 2113 2584 
Q 1688 2584 1439 2293 
Q 1191 2003 1191 1497 
Q 1191 994 1439 701 
Q 1688 409 2113 409 
Q 2538 409 2786 701 
Q 3034 994 3034 1497 
Q 3034 2003 2786 2293 
Q 2538 2584 2113 2584 
z
M 3366 4563 
L 3366 3988 
Q 3128 4100 2886 4159 
Q 2644 4219 2406 4219 
Q 1781 4219 1451 3797 
Q 1122 3375 1075 2522 
Q 1259 2794 1537 2939 
Q 1816 3084 2150 3084 
Q 2853 3084 3261 2657 
Q 3669 2231 3669 1497 
Q 3669 778 3244 343 
Q 2819 -91 2113 -91 
Q 1303 -91 875 529 
Q 447 1150 447 2328 
Q 447 3434 972 4092 
Q 1497 4750 2381 4750 
Q 2619 4750 2861 4703 
Q 3103 4656 3366 4563 
z
" transform="scale(0.015625)"/>
     </defs>
     <use xlink:href="#DejaVuSans-36"/>
    </g>
   </g>
   <g id="text_7">
    <!-- 7 -->
    <g style="fill: #ffffff" transform="translate(163.798852 92.115754) scale(0.0833 -0.0833)">
     <defs>
      <path id="DejaVuSans-37" d="M 525 4666 
L 3525 4666 
L 3525 4397 
L 1831 0 
L 1172 0 
L 2766 4134 
L 525 4134 
L 525 4666 
z
" transform="scale(0.015625)"/>
     </defs>
     <use xlink:href="#DejaVuSans-37"/>
    </g>
   </g>
   <g id="text_8">
    <!-- 8 -->
    <g style="fill: #ffffff" transform="translate(155.107426 101.435593) scale(0.0833 -0.0833)">
     <defs>
      <path id="DejaVuSans-38" d="M 2034 2216 
Q 1584 2216 1326 1975 
Q 1069 1734 1069 1313 
Q 1069 891 1326 650 
Q 1584 409 2034 409 
Q 2484 409 2743 651 
Q 3003 894 3003 1313 
Q 3003 1734 2745 1975 
Q 2488 2216 2034 2216 
z
M 1403 2484 
Q 997 2584 770 2862 
Q 544 3141 544 3541 
Q 544 4100 942 4425 
Q 1341 4750 2034 4750 
Q 2731 4750 3128 4425 
Q 3525 4100 3525 3541 
Q 3525 3141 3298 2862 
Q 3072 2584 2669 2484 
Q 3125 2378 3379 2068 
Q 3634 1759 3634 1313 
Q 3634 634 3220 271 
Q 2806 -91 2034 -91 
Q 1263 -91 848 271 
Q 434 634 434 1313 
Q 434 1759 690 2068 
Q 947 2378 1403 2484 
z
M 1172 3481 
Q 1172 3119 1398 2916 
Q 1625 2713 2034 2713 
Q 2441 2713 2670 2916 
Q 2900 3119 2900 3481 
Q 2900 3844 2670 4047 
Q 2441 4250 2034 4250 
Q 1625 4250 1398 4047 
Q 1172 3844 1172 3481 
z
" transform="scale(0.015625)"/>
     </defs>
     <use xlink:href="#DejaVuSans-38"/>
    </g>
   </g>
   <g id="text_9">
    <!-- 9 -->
    <g style="fill: #ffffff" transform="translate(128.774426 83.820723) scale(0.0833 -0.0833)">
     <defs>
      <path id="DejaVuSans-39" d="M 703 97 
L 703 672 
Q 941 559 1184 500 
Q 1428 441 1663 441 
Q 2288 441 2617 861 
Q 2947 1281 2994 2138 
Q 2813 1869 2534 1725 
Q 2256 1581 1919 1581 
Q 1219 1581 811 2004 
Q 403 2428 403 3163 
Q 403 3881 828 4315 
Q 1253 4750 1959 4750 
Q 2769 4750 3195 4129 
Q 3622 3509 3622 2328 
Q 3622 1225 3098 567 
Q 2575 -91 1691 -91 
Q 1453 -91 1209 -44 
Q 966 3 703 97 
z
M 1959 2075 
Q 2384 2075 2632 2365 
Q 2881 2656 2881 3163 
Q 2881 3666 2632 3958 
Q 2384 4250 1959 4250 
Q 1534 4250 1286 3958 
Q 1038 3666 1038 3163 
Q 1038 2656 1286 2365 
Q 1534 2075 1959 2075 
z
" transform="scale(0.015625)"/>
     </defs>
     <use xlink:href="#DejaVuSans-39"/>
    </g>
   </g>
   <g id="text_10">
    <!-- 10 -->
    <g style="fill: #ffffff" transform="translate(115.542892 161.364379) scale(0.0833 -0.0833)">
     <defs>
      <path id="DejaVuSans-30" d="M 2034 4250 
Q 1547 4250 1301 3770 
Q 1056 3291 1056 2328 
Q 1056 1369 1301 889 
Q 1547 409 2034 409 
Q 2525 409 2770 889 
Q 3016 1369 3016 2328 
Q 3016 3291 2770 3770 
Q 2525 4250 2034 4250 
z
M 2034 4750 
Q 2819 4750 3233 4129 
Q 3647 3509 3647 2328 
Q 3647 1150 3233 529 
Q 2819 -91 2034 -91 
Q 1250 -91 836 529 
Q 422 1150 422 2328 
Q 422 3509 836 4129 
Q 1250 4750 2034 4750 
z
" transform="scale(0.015625)"/>
     </defs>
     <use xlink:href="#DejaVuSans-31"/>
     <use xlink:href="#DejaVuSans-30" x="63.623047"/>
    </g>
   </g>
   <g id="text_11">
    <!-- 11 -->
    <g style="fill: #ffffff" transform="translate(80.456783 183.300294) scale(0.0833 -0.0833)">
     <use xlink:href="#DejaVuSans-31"/>
     <use xlink:href="#DejaVuSans-31" x="63.623047"/>
    </g>
   </g>
   <g id="text_12">
    <!-- 12 -->
    <g style="fill: #ffffff" transform="translate(68.532765 227.836715) scale(0.0833 -0.0833)">
     <use xlink:href="#DejaVuSans-31"/>
     <use xlink:href="#DejaVuSans-32" x="63.623047"/>
    </g>
   </g>
   <g id="text_13">
    <!-- 13 -->
    <g style="fill: #ffffff" transform="translate(185.911256 276.073917) scale(0.0833 -0.0833)">
     <use xlink:href="#DejaVuSans-31"/>
     <use xlink:href="#DejaVuSans-33" x="63.623047"/>
    </g>
   </g>
   <g id="text_14">
    <!-- 14 -->
    <g style="fill: #ffffff" transform="translate(380.006257 277.102287) scale(0.0833 -0.0833)">
     <use xlink:href="#DejaVuSans-31"/>
     <use xlink:href="#DejaVuSans-34" x="63.623047"/>
    </g>
   </g>
   <g id="text_15">
    <!-- 15 -->
    <g style="fill: #ffffff" transform="translate(372.830923 259.664052) scale(0.0833 -0.0833)">
     <use xlink:href="#DejaVuSans-31"/>
     <use xlink:href="#DejaVuSans-35" x="63.623047"/>
    </g>
   </g>
   <g id="text_16">
    <!-- 16 -->
    <g style="fill: #ffffff" transform="translate(393.18731 257.596912) scale(0.0833 -0.0833)">
     <use xlink:href="#DejaVuSans-31"/>
     <use xlink:href="#DejaVuSans-36" x="63.623047"/>
    </g>
   </g>
   <g id="text_17">
    <!-- 17 -->
    <g style="fill: #ffffff" transform="translate(391.830214 131.471469) scale(0.0833 -0.0833)">
     <use xlink:href="#DejaVuSans-31"/>
     <use xlink:href="#DejaVuSans-37" x="63.623047"/>
    </g>
   </g>
  </g>
 </g>
 <defs>
  <clipPath id="pf81523c9d6">
   <rect x="57.6" y="41.472" width="357.12" height="266.112"/>
  </clipPath>
 </defs>
</svg>
