<?xml version="1.0" encoding="utf-8" standalone="no"?>
<!DOCTYPE svg PUBLIC "-//W3C//DTD SVG 1.1//EN"
  "http://www.w3.org/Graphics/SVG/1.1/DTD/svg11.dtd">
<svg xmlns:xlink="http://www.w3.org/1999/xlink" width="460.8pt" height="345.6pt" viewBox="0 0 460.8 345.6" xmlns="http://www.w3.org/2000/svg" version="1.1">
 <metadata>
  <rdf:RDF xmlns:dc="http://purl.org/dc/elements/1.1/" xmlns:cc="http://creativecommons.org/ns#" xmlns:rdf="http://www.w3.org/1999/02/22-rdf-syntax-ns#">
   <cc:Work>
    <dc:type rdf:resource="http://purl.org/dc/dcmitype/StillImage"/>
    <dc:date>2024-07-14T12:23:57.663126</dc:date>
    <dc:format>image/svg+xml</dc:format>
    <dc:creator>
     <cc:Agent>
      <dc:title>Matplotlib v3.9.0, https://matplotlib.org/</dc:title>
     </cc:Agent>
    </dc:creator>
   </cc:Work>
  </rdf:RDF>
 </metadata>
 <defs>
  <style type="text/css">*{stroke-linejoin: round; stroke-linecap: butt}</style>
 </defs>
 <g id="figure_1">
  <g id="patch_1">
   <path d="M 0 345.6 
L 460.8 345.6 
L 460.8 0 
L 0 0 
z
" style="fill: #ffffff"/>
  </g>
  <g id="axes_1">
   <g id="patch_2">
    <path d="M 57.6 307.584 
L 414.72 307.584 
L 414.72 41.472 
L 57.6 41.472 
z
" style="fill: #ffffff"/>
   </g>
   <g id="PathCollection_1">
    <defs>
     <path id="mbf4e8c43b2" d="M 0 5.91608 
C 1.568963 5.91608 3.073876 5.292724 4.1833 4.1833 
C 5.292724 3.073876 5.91608 1.568963 5.91608 0 
C 5.91608 -1.568963 5.292724 -3.073876 4.1833 -4.1833 
C 3.073876 -5.292724 1.568963 -5.91608 0 -5.91608 
C -1.568963 -5.91608 -3.073876 -5.292724 -4.1833 -4.1833 
C -5.292724 -3.073876 -5.91608 -1.568963 -5.91608 0 
C -5.91608 1.568963 -5.292724 3.073876 -4.1833 4.1833 
C -3.073876 5.292724 -1.568963 5.91608 0 5.91608 
z
" style="stroke: #808080"/>
    </defs>
    <g clip-path="url(#p8966a287d6)">
     <use xlink:href="#mbf4e8c43b2" x="220.043901" y="213.263987" style="fill: #808080; stroke: #808080"/>
    </g>
   </g>
   <g id="PathCollection_2">
    <g clip-path="url(#p8966a287d6)">
     <use xlink:href="#mbf4e8c43b2" x="274.055008" y="194.238854" style="fill: #808080; stroke: #808080"/>
    </g>
   </g>
   <g id="PathCollection_3">
    <g clip-path="url(#p8966a287d6)">
     <use xlink:href="#mbf4e8c43b2" x="278.772091" y="144.505562" style="fill: #808080; stroke: #808080"/>
    </g>
   </g>
   <g id="PathCollection_4">
    <g clip-path="url(#p8966a287d6)">
     <use xlink:href="#mbf4e8c43b2" x="320.133979" y="159.700896" style="fill: #808080; stroke: #808080"/>
    </g>
   </g>
   <g id="PathCollection_5">
    <g clip-path="url(#p8966a287d6)">
     <use xlink:href="#mbf4e8c43b2" x="398.487273" y="126.553836" style="fill: #808080; stroke: #808080"/>
    </g>
   </g>
   <g id="PathCollection_6">
    <g clip-path="url(#p8966a287d6)">
     <use xlink:href="#mbf4e8c43b2" x="157.443019" y="81.346965" style="fill: #808080; stroke: #808080"/>
    </g>
   </g>
   <g id="PathCollection_7">
    <g clip-path="url(#p8966a287d6)">
     <use xlink:href="#mbf4e8c43b2" x="172.436543" y="105.02123" style="fill: #808080; stroke: #808080"/>
    </g>
   </g>
   <g id="PathCollection_8">
    <g clip-path="url(#p8966a287d6)">
     <use xlink:href="#mbf4e8c43b2" x="124.942794" y="113.526918" style="fill: #808080; stroke: #808080"/>
    </g>
   </g>
   <g id="PathCollection_9">
    <g clip-path="url(#p8966a287d6)">
     <use xlink:href="#mbf4e8c43b2" x="82.273558" y="267.709035" style="fill: #808080; stroke: #808080"/>
    </g>
   </g>
   <g id="PathCollection_10">
    <g clip-path="url(#p8966a287d6)">
     <use xlink:href="#mbf4e8c43b2" x="110.089742" y="202.90669" style="fill: #808080; stroke: #808080"/>
    </g>
   </g>
   <g id="PathCollection_11">
    <g clip-path="url(#p8966a287d6)">
     <use xlink:href="#mbf4e8c43b2" x="118.418244" y="182.241248" style="fill: #808080; stroke: #808080"/>
    </g>
   </g>
   <g id="PathCollection_12">
    <g clip-path="url(#p8966a287d6)">
     <use xlink:href="#mbf4e8c43b2" x="138.25055" y="158.97955" style="fill: #808080; stroke: #808080"/>
    </g>
   </g>
   <g id="PathCollection_13">
    <g clip-path="url(#p8966a287d6)">
     <use xlink:href="#mbf4e8c43b2" x="138.945129" y="193.986205" style="fill: #808080; stroke: #808080"/>
    </g>
   </g>
   <g id="PathCollection_14">
    <g clip-path="url(#p8966a287d6)">
     <use xlink:href="#mbf4e8c43b2" x="173.233907" y="184.405677" style="fill: #808080; stroke: #808080"/>
    </g>
   </g>
   <g id="PathCollection_15">
    <g clip-path="url(#p8966a287d6)">
     <use xlink:href="#mbf4e8c43b2" x="144.895734" y="128.858985" style="fill: #808080; stroke: #808080"/>
    </g>
   </g>
   <g id="PathCollection_16">
    <g clip-path="url(#p8966a287d6)">
     <use xlink:href="#mbf4e8c43b2" x="185.371574" y="114.930036" style="fill: #808080; stroke: #808080"/>
    </g>
   </g>
   <g id="matplotlib.axis_1"/>
   <g id="matplotlib.axis_2"/>
   <g id="line2d_1">
    <path d="M 200.227196 136.229482 
L 204.425324 150.351345 
L 216.247221 190.34013 
L 218.281274 197.7561 
L 219.108675 199.887623 
L 220.491574 202.27459 
L 222.611503 204.27637 
L 224.3967 205.159198 
L 226.193166 205.549217 
L 228.7905 205.58206 
L 230.851378 205.356102 
L 234.776056 204.565911 
L 237.879769 203.684883 
L 243.592177 201.676353 
L 247.680498 200.032726 
L 254.352909 197.010707 
L 258.729143 194.884389 
L 261.682875 193.264124 
L 264.138186 191.712111 
L 267.077478 189.230544 
L 268.378056 187.587649 
L 269.761652 184.968102 
L 270.473159 182.879355 
L 270.999915 180.410892 
L 272.228663 171.79135 
L 273.560294 164.312007 
L 274.630267 161.80666 
L 277.903605 157.322535 
L 280.411671 154.956271 
L 284.367949 152.452445 
L 288.746344 150.8951 
L 292.278982 150.3311 
L 297.333695 150.048437 
L 309.469182 149.950445 
L 315.795081 149.973727 
L 322.189325 149.827894 
L 329.537914 149.081861 
L 338.43337 147.532985 
L 343.40194 146.539094 
L 353.501526 144.247809 
L 366.12578 141.020535 
L 374.400844 138.736836 
L 379.170129 137.169465 
L 381.709376 136.093474 
L 384.9398 134.149561 
L 387.201438 131.944546 
L 388.125659 130.505442 
L 388.486425 129.656514 
L 388.853999 128.178131 
L 388.838502 126.86546 
L 388.32463 125.287273 
L 387.602366 124.197388 
L 386.286522 122.858774 
L 384.06012 121.366591 
L 382.700491 120.781748 
L 380.025983 119.977198 
L 378.459111 119.664492 
L 369.970601 118.510804 
L 345.342823 115.235781 
L 315.063629 110.306813 
L 220.280305 94.743182 
L 192.24789 89.751806 
L 185.000395 88.398926 
L 175.269812 86.993059 
L 171.812327 86.758493 
L 169.162332 86.872366 
L 167.172006 87.164415 
L 165.710319 87.559581 
L 164.719042 87.950331 
L 163.738941 88.515808 
L 162.935773 89.305314 
L 162.601913 89.972802 
L 162.58825 91.565476 
L 162.772955 92.278958 
L 164.198211 96.130923 
L 164.395195 97.136733 
L 164.279567 99.04188 
L 163.916547 99.98937 
L 163.087577 101.077919 
L 161.361431 102.422829 
L 158.685494 103.837048 
L 146.692622 109.308941 
L 143.091453 111.377126 
L 140.57005 112.999691 
L 137.059532 115.581981 
L 134.448443 117.809347 
L 131.471023 120.631396 
L 129.465885 122.732284 
L 125.266211 127.752772 
L 123.606017 130.028432 
L 120.33484 135.08153 
L 112.610428 148.282191 
L 94.845921 178.920246 
L 92.245683 183.65871 
L 90.104726 187.884267 
L 87.667944 193.104365 
L 85.031646 199.41982 
L 83.350981 203.917607 
L 82.37727 206.857537 
L 81.432625 210.185001 
L 79.366171 218.284735 
L 77.83084 224.720186 
L 74.286909 242.033042 
L 74.072812 243.2684 
L 73.832727 246.137871 
L 74.026261 247.792175 
L 75.55454 251.783037 
L 78.59266 255.429143 
L 81.911015 257.43557 
L 84.845381 258.155035 
L 87.52449 258.094926 
L 89.437548 257.698704 
L 93.793592 255.791908 
L 95.237435 254.850168 
L 97.770107 252.734793 
L 100.320809 249.830923 
L 102.057259 246.874298 
L 102.671308 244.900899 
L 102.966355 241.452383 
L 102.443387 232.807956 
L 102.509943 229.399728 
L 102.273274 223.82645 
L 100.623641 206.565512 
L 100.423996 200.534149 
L 100.743603 197.670289 
L 101.956109 193.078354 
L 102.755002 190.817135 
L 104.753797 186.008025 
L 106.21696 183.060323 
L 107.817871 180.225762 
L 111.730781 175.4718 
L 114.344077 173.479639 
L 116.731044 172.09674 
L 120.111494 170.558297 
L 124.743032 168.877784 
L 126.239444 168.456863 
L 130.215634 167.73612 
L 132.569944 167.615485 
L 134.268998 167.787086 
L 136.232278 168.677779 
L 137.445052 170.211263 
L 138.215331 172.352858 
L 138.533183 174.04414 
L 138.876465 178.10652 
L 139.267076 180.099099 
L 140.214334 182.130956 
L 143.019596 185.013172 
L 144.728583 186.243198 
L 145.980682 186.886266 
L 147.023377 187.232499 
L 150.124696 187.451336 
L 154.351728 187.039756 
L 158.183456 186.16779 
L 160.973639 184.733426 
L 162.577721 183.252976 
L 163.315948 182.317858 
L 164.186404 180.907868 
L 165.296712 178.297244 
L 165.740543 176.137897 
L 165.792333 174.204741 
L 165.524936 172.131537 
L 165.064876 170.190469 
L 163.423642 165.002284 
L 160.942726 157.390247 
L 159.939635 154.150994 
L 154.950804 139.775896 
L 154.17625 136.162587 
L 154.427883 130.797702 
L 156.07617 125.559573 
L 159.180347 121.340871 
L 161.748893 118.983576 
L 168.647959 113.015922 
L 171.556988 110.696755 
L 173.837574 109.155918 
L 176.671449 107.635319 
L 178.292225 106.917608 
L 180.395739 106.154044 
L 182.853165 105.504772 
L 186.164027 105.019142 
L 187.340055 105.008105 
L 189.389664 105.274957 
L 190.583536 105.810495 
L 191.688872 106.73467 
L 192.565671 108.032901 
L 193.498303 110.538528 
L 194.684903 115.041194 
L 195.707035 118.277089 
L 199.608094 134.277192 
L 199.608094 134.277192 
" clip-path="url(#p8966a287d6)" style="fill: none; stroke: #1f77b4; stroke-width: 1.5; stroke-linecap: square"/>
   </g>
   <g id="line2d_2">
    <path d="M 224.181497 204.526865 
L 220.043901 213.263987 
" clip-path="url(#p8966a287d6)" style="fill: none; stroke: #808080; stroke-width: 1.5; stroke-linecap: square"/>
   </g>
   <g id="line2d_3">
    <path d="M 266.41652 188.313443 
L 274.055008 194.238854 
" clip-path="url(#p8966a287d6)" style="fill: none; stroke: #808080; stroke-width: 1.5; stroke-linecap: square"/>
   </g>
   <g id="line2d_4">
    <path d="M 283.135485 153.132137 
L 278.772091 144.505562 
" clip-path="url(#p8966a287d6)" style="fill: none; stroke: #808080; stroke-width: 1.5; stroke-linecap: square"/>
   </g>
   <g id="line2d_5">
    <path d="M 319.846939 150.037842 
L 320.133979 159.700896 
" clip-path="url(#p8966a287d6)" style="fill: none; stroke: #808080; stroke-width: 1.5; stroke-linecap: square"/>
   </g>
   <g id="line2d_6">
    <path d="M 388.847509 127.283196 
L 398.487273 126.553836 
" clip-path="url(#p8966a287d6)" style="fill: none; stroke: #808080; stroke-width: 1.5; stroke-linecap: square"/>
   </g>
   <g id="line2d_7">
    <path d="M 163.786872 88.641656 
L 157.443019 81.346965 
" clip-path="url(#p8966a287d6)" style="fill: none; stroke: #808080; stroke-width: 1.5; stroke-linecap: square"/>
   </g>
   <g id="line2d_8">
    <path d="M 164.39182 99.660311 
L 172.436543 105.02123 
" clip-path="url(#p8966a287d6)" style="fill: none; stroke: #808080; stroke-width: 1.5; stroke-linecap: square"/>
   </g>
   <g id="line2d_9">
    <path d="M 131.827546 120.313463 
L 124.942794 113.526918 
" clip-path="url(#p8966a287d6)" style="fill: none; stroke: #808080; stroke-width: 1.5; stroke-linecap: square"/>
   </g>
   <g id="line2d_10">
    <path d="M 84.276607 258.25151 
L 82.273558 267.709035 
" clip-path="url(#p8966a287d6)" style="fill: none; stroke: #808080; stroke-width: 1.5; stroke-linecap: square"/>
   </g>
   <g id="line2d_11">
    <path d="M 100.434728 203.394231 
L 110.089742 202.90669 
" clip-path="url(#p8966a287d6)" style="fill: none; stroke: #808080; stroke-width: 1.5; stroke-linecap: square"/>
   </g>
   <g id="line2d_12">
    <path d="M 111.599155 175.388727 
L 118.418244 182.241248 
" clip-path="url(#p8966a287d6)" style="fill: none; stroke: #808080; stroke-width: 1.5; stroke-linecap: square"/>
   </g>
   <g id="line2d_13">
    <path d="M 134.887927 168.0432 
L 138.25055 158.97955 
" clip-path="url(#p8966a287d6)" style="fill: none; stroke: #808080; stroke-width: 1.5; stroke-linecap: square"/>
   </g>
   <g id="line2d_14">
    <path d="M 144.040989 185.771023 
L 138.945129 193.986205 
" clip-path="url(#p8966a287d6)" style="fill: none; stroke: #808080; stroke-width: 1.5; stroke-linecap: square"/>
   </g>
   <g id="line2d_15">
    <path d="M 164.490539 180.281296 
L 173.233907 184.405677 
" clip-path="url(#p8966a287d6)" style="fill: none; stroke: #808080; stroke-width: 1.5; stroke-linecap: square"/>
   </g>
   <g id="line2d_16">
    <path d="M 154.330886 130.964907 
L 144.895734 128.858985 
" clip-path="url(#p8966a287d6)" style="fill: none; stroke: #808080; stroke-width: 1.5; stroke-linecap: square"/>
   </g>
   <g id="line2d_17">
    <path d="M 187.594298 105.521716 
L 185.371574 114.930036 
" clip-path="url(#p8966a287d6)" style="fill: none; stroke: #808080; stroke-width: 1.5; stroke-linecap: square"/>
   </g>
   <g id="patch_3">
    <path d="M 57.6 307.584 
L 57.6 41.472 
" style="fill: none; stroke: #000000; stroke-width: 0.8; stroke-linejoin: miter; stroke-linecap: square"/>
   </g>
   <g id="patch_4">
    <path d="M 414.72 307.584 
L 414.72 41.472 
" style="fill: none; stroke: #000000; stroke-width: 0.8; stroke-linejoin: miter; stroke-linecap: square"/>
   </g>
   <g id="patch_5">
    <path d="M 57.6 307.584 
L 414.72 307.584 
" style="fill: none; stroke: #000000; stroke-width: 0.8; stroke-linejoin: miter; stroke-linecap: square"/>
   </g>
   <g id="patch_6">
    <path d="M 57.6 41.472 
L 414.72 41.472 
" style="fill: none; stroke: #000000; stroke-width: 0.8; stroke-linejoin: miter; stroke-linecap: square"/>
   </g>
   <g id="text_1">
    <!-- 1 -->
    <g style="fill: #ffffff" transform="translate(217.39392 216.428736) scale(0.0833 -0.0833)">
     <defs>
      <path id="DejaVuSans-31" d="M 794 531 
L 1825 531 
L 1825 4091 
L 703 3866 
L 703 4441 
L 1819 4666 
L 2450 4666 
L 2450 531 
L 3481 531 
L 3481 0 
L 794 0 
L 794 531 
z
" transform="scale(0.015625)"/>
     </defs>
     <use xlink:href="#DejaVuSans-31"/>
    </g>
   </g>
   <g id="text_2">
    <!-- 2 -->
    <g style="fill: #ffffff" transform="translate(271.405027 197.403603) scale(0.0833 -0.0833)">
     <defs>
      <path id="DejaVuSans-32" d="M 1228 531 
L 3431 531 
L 3431 0 
L 469 0 
L 469 531 
Q 828 903 1448 1529 
Q 2069 2156 2228 2338 
Q 2531 2678 2651 2914 
Q 2772 3150 2772 3378 
Q 2772 3750 2511 3984 
Q 2250 4219 1831 4219 
Q 1534 4219 1204 4116 
Q 875 4013 500 3803 
L 500 4441 
Q 881 4594 1212 4672 
Q 1544 4750 1819 4750 
Q 2544 4750 2975 4387 
Q 3406 4025 3406 3419 
Q 3406 3131 3298 2873 
Q 3191 2616 2906 2266 
Q 2828 2175 2409 1742 
Q 1991 1309 1228 531 
z
" transform="scale(0.015625)"/>
     </defs>
     <use xlink:href="#DejaVuSans-32"/>
    </g>
   </g>
   <g id="text_3">
    <!-- 3 -->
    <g style="fill: #ffffff" transform="translate(276.12211 147.670311) scale(0.0833 -0.0833)">
     <defs>
      <path id="DejaVuSans-33" d="M 2597 2516 
Q 3050 2419 3304 2112 
Q 3559 1806 3559 1356 
Q 3559 666 3084 287 
Q 2609 -91 1734 -91 
Q 1441 -91 1130 -33 
Q 819 25 488 141 
L 488 750 
Q 750 597 1062 519 
Q 1375 441 1716 441 
Q 2309 441 2620 675 
Q 2931 909 2931 1356 
Q 2931 1769 2642 2001 
Q 2353 2234 1838 2234 
L 1294 2234 
L 1294 2753 
L 1863 2753 
Q 2328 2753 2575 2939 
Q 2822 3125 2822 3475 
Q 2822 3834 2567 4026 
Q 2313 4219 1838 4219 
Q 1578 4219 1281 4162 
Q 984 4106 628 3988 
L 628 4550 
Q 988 4650 1302 4700 
Q 1616 4750 1894 4750 
Q 2613 4750 3031 4423 
Q 3450 4097 3450 3541 
Q 3450 3153 3228 2886 
Q 3006 2619 2597 2516 
z
" transform="scale(0.015625)"/>
     </defs>
     <use xlink:href="#DejaVuSans-33"/>
    </g>
   </g>
   <g id="text_4">
    <!-- 4 -->
    <g style="fill: #ffffff" transform="translate(317.483998 162.865645) scale(0.0833 -0.0833)">
     <defs>
      <path id="DejaVuSans-34" d="M 2419 4116 
L 825 1625 
L 2419 1625 
L 2419 4116 
z
M 2253 4666 
L 3047 4666 
L 3047 1625 
L 3713 1625 
L 3713 1100 
L 3047 1100 
L 3047 0 
L 2419 0 
L 2419 1100 
L 313 1100 
L 313 1709 
L 2253 4666 
z
" transform="scale(0.015625)"/>
     </defs>
     <use xlink:href="#DejaVuSans-34"/>
    </g>
   </g>
   <g id="text_5">
    <!-- 5 -->
    <g style="fill: #ffffff" transform="translate(395.837291 129.718586) scale(0.0833 -0.0833)">
     <defs>
      <path id="DejaVuSans-35" d="M 691 4666 
L 3169 4666 
L 3169 4134 
L 1269 4134 
L 1269 2991 
Q 1406 3038 1543 3061 
Q 1681 3084 1819 3084 
Q 2600 3084 3056 2656 
Q 3513 2228 3513 1497 
Q 3513 744 3044 326 
Q 2575 -91 1722 -91 
Q 1428 -91 1123 -41 
Q 819 9 494 109 
L 494 744 
Q 775 591 1075 516 
Q 1375 441 1709 441 
Q 2250 441 2565 725 
Q 2881 1009 2881 1497 
Q 2881 1984 2565 2268 
Q 2250 2553 1709 2553 
Q 1456 2553 1204 2497 
Q 953 2441 691 2322 
L 691 4666 
z
" transform="scale(0.015625)"/>
     </defs>
     <use xlink:href="#DejaVuSans-35"/>
    </g>
   </g>
   <g id="text_6">
    <!-- 6 -->
    <g style="fill: #ffffff" transform="translate(154.793038 84.511714) scale(0.0833 -0.0833)">
     <defs>
      <path id="DejaVuSans-36" d="M 2113 2584 
Q 1688 2584 1439 2293 
Q 1191 2003 1191 1497 
Q 1191 994 1439 701 
Q 1688 409 2113 409 
Q 2538 409 2786 701 
Q 3034 994 3034 1497 
Q 3034 2003 2786 2293 
Q 2538 2584 2113 2584 
z
M 3366 4563 
L 3366 3988 
Q 3128 4100 2886 4159 
Q 2644 4219 2406 4219 
Q 1781 4219 1451 3797 
Q 1122 3375 1075 2522 
Q 1259 2794 1537 2939 
Q 1816 3084 2150 3084 
Q 2853 3084 3261 2657 
Q 3669 2231 3669 1497 
Q 3669 778 3244 343 
Q 2819 -91 2113 -91 
Q 1303 -91 875 529 
Q 447 1150 447 2328 
Q 447 3434 972 4092 
Q 1497 4750 2381 4750 
Q 2619 4750 2861 4703 
Q 3103 4656 3366 4563 
z
" transform="scale(0.015625)"/>
     </defs>
     <use xlink:href="#DejaVuSans-36"/>
    </g>
   </g>
   <g id="text_7">
    <!-- 7 -->
    <g style="fill: #ffffff" transform="translate(169.786561 108.185979) scale(0.0833 -0.0833)">
     <defs>
      <path id="DejaVuSans-37" d="M 525 4666 
L 3525 4666 
L 3525 4397 
L 1831 0 
L 1172 0 
L 2766 4134 
L 525 4134 
L 525 4666 
z
" transform="scale(0.015625)"/>
     </defs>
     <use xlink:href="#DejaVuSans-37"/>
    </g>
   </g>
   <g id="text_8">
    <!-- 8 -->
    <g style="fill: #ffffff" transform="translate(122.292813 116.691667) scale(0.0833 -0.0833)">
     <defs>
      <path id="DejaVuSans-38" d="M 2034 2216 
Q 1584 2216 1326 1975 
Q 1069 1734 1069 1313 
Q 1069 891 1326 650 
Q 1584 409 2034 409 
Q 2484 409 2743 651 
Q 3003 894 3003 1313 
Q 3003 1734 2745 1975 
Q 2488 2216 2034 2216 
z
M 1403 2484 
Q 997 2584 770 2862 
Q 544 3141 544 3541 
Q 544 4100 942 4425 
Q 1341 4750 2034 4750 
Q 2731 4750 3128 4425 
Q 3525 4100 3525 3541 
Q 3525 3141 3298 2862 
Q 3072 2584 2669 2484 
Q 3125 2378 3379 2068 
Q 3634 1759 3634 1313 
Q 3634 634 3220 271 
Q 2806 -91 2034 -91 
Q 1263 -91 848 271 
Q 434 634 434 1313 
Q 434 1759 690 2068 
Q 947 2378 1403 2484 
z
M 1172 3481 
Q 1172 3119 1398 2916 
Q 1625 2713 2034 2713 
Q 2441 2713 2670 2916 
Q 2900 3119 2900 3481 
Q 2900 3844 2670 4047 
Q 2441 4250 2034 4250 
Q 1625 4250 1398 4047 
Q 1172 3844 1172 3481 
z
" transform="scale(0.015625)"/>
     </defs>
     <use xlink:href="#DejaVuSans-38"/>
    </g>
   </g>
   <g id="text_9">
    <!-- 9 -->
    <g style="fill: #ffffff" transform="translate(79.623576 270.873784) scale(0.0833 -0.0833)">
     <defs>
      <path id="DejaVuSans-39" d="M 703 97 
L 703 672 
Q 941 559 1184 500 
Q 1428 441 1663 441 
Q 2288 441 2617 861 
Q 2947 1281 2994 2138 
Q 2813 1869 2534 1725 
Q 2256 1581 1919 1581 
Q 1219 1581 811 2004 
Q 403 2428 403 3163 
Q 403 3881 828 4315 
Q 1253 4750 1959 4750 
Q 2769 4750 3195 4129 
Q 3622 3509 3622 2328 
Q 3622 1225 3098 567 
Q 2575 -91 1691 -91 
Q 1453 -91 1209 -44 
Q 966 3 703 97 
z
M 1959 2075 
Q 2384 2075 2632 2365 
Q 2881 2656 2881 3163 
Q 2881 3666 2632 3958 
Q 2384 4250 1959 4250 
Q 1534 4250 1286 3958 
Q 1038 3666 1038 3163 
Q 1038 2656 1286 2365 
Q 1534 2075 1959 2075 
z
" transform="scale(0.015625)"/>
     </defs>
     <use xlink:href="#DejaVuSans-39"/>
    </g>
   </g>
   <g id="text_10">
    <!-- 10 -->
    <g style="fill: #ffffff" transform="translate(104.78978 206.071439) scale(0.0833 -0.0833)">
     <defs>
      <path id="DejaVuSans-30" d="M 2034 4250 
Q 1547 4250 1301 3770 
Q 1056 3291 1056 2328 
Q 1056 1369 1301 889 
Q 1547 409 2034 409 
Q 2525 409 2770 889 
Q 3016 1369 3016 2328 
Q 3016 3291 2770 3770 
Q 2525 4250 2034 4250 
z
M 2034 4750 
Q 2819 4750 3233 4129 
Q 3647 3509 3647 2328 
Q 3647 1150 3233 529 
Q 2819 -91 2034 -91 
Q 1250 -91 836 529 
Q 422 1150 422 2328 
Q 422 3509 836 4129 
Q 1250 4750 2034 4750 
z
" transform="scale(0.015625)"/>
     </defs>
     <use xlink:href="#DejaVuSans-31"/>
     <use xlink:href="#DejaVuSans-30" x="63.623047"/>
    </g>
   </g>
   <g id="text_11">
    <!-- 11 -->
    <g style="fill: #ffffff" transform="translate(113.118281 185.405997) scale(0.0833 -0.0833)">
     <use xlink:href="#DejaVuSans-31"/>
     <use xlink:href="#DejaVuSans-31" x="63.623047"/>
    </g>
   </g>
   <g id="text_12">
    <!-- 12 -->
    <g style="fill: #ffffff" transform="translate(132.950588 162.144299) scale(0.0833 -0.0833)">
     <use xlink:href="#DejaVuSans-31"/>
     <use xlink:href="#DejaVuSans-32" x="63.623047"/>
    </g>
   </g>
   <g id="text_13">
    <!-- 13 -->
    <g style="fill: #ffffff" transform="translate(133.645166 197.150954) scale(0.0833 -0.0833)">
     <use xlink:href="#DejaVuSans-31"/>
     <use xlink:href="#DejaVuSans-33" x="63.623047"/>
    </g>
   </g>
   <g id="text_14">
    <!-- 14 -->
    <g style="fill: #ffffff" transform="translate(167.933945 187.570426) scale(0.0833 -0.0833)">
     <use xlink:href="#DejaVuSans-31"/>
     <use xlink:href="#DejaVuSans-34" x="63.623047"/>
    </g>
   </g>
   <g id="text_15">
    <!-- 15 -->
    <g style="fill: #ffffff" transform="translate(139.595772 132.023734) scale(0.0833 -0.0833)">
     <use xlink:href="#DejaVuSans-31"/>
     <use xlink:href="#DejaVuSans-35" x="63.623047"/>
    </g>
   </g>
   <g id="text_16">
    <!-- 16 -->
    <g style="fill: #ffffff" transform="translate(180.071611 118.094785) scale(0.0833 -0.0833)">
     <use xlink:href="#DejaVuSans-31"/>
     <use xlink:href="#DejaVuSans-36" x="63.623047"/>
    </g>
   </g>
  </g>
 </g>
 <defs>
  <clipPath id="p8966a287d6">
   <rect x="57.6" y="41.472" width="357.12" height="266.112"/>
  </clipPath>
 </defs>
</svg>
