<?xml version="1.0" encoding="utf-8" standalone="no"?>
<!DOCTYPE svg PUBLIC "-//W3C//DTD SVG 1.1//EN"
  "http://www.w3.org/Graphics/SVG/1.1/DTD/svg11.dtd">
<svg xmlns:xlink="http://www.w3.org/1999/xlink" width="460.8pt" height="345.6pt" viewBox="0 0 460.8 345.6" xmlns="http://www.w3.org/2000/svg" version="1.1">
 <metadata>
  <rdf:RDF xmlns:dc="http://purl.org/dc/elements/1.1/" xmlns:cc="http://creativecommons.org/ns#" xmlns:rdf="http://www.w3.org/1999/02/22-rdf-syntax-ns#">
   <cc:Work>
    <dc:type rdf:resource="http://purl.org/dc/dcmitype/StillImage"/>
    <dc:date>2024-07-14T12:22:45.422678</dc:date>
    <dc:format>image/svg+xml</dc:format>
    <dc:creator>
     <cc:Agent>
      <dc:title>Matplotlib v3.9.0, https://matplotlib.org/</dc:title>
     </cc:Agent>
    </dc:creator>
   </cc:Work>
  </rdf:RDF>
 </metadata>
 <defs>
  <style type="text/css">*{stroke-linejoin: round; stroke-linecap: butt}</style>
 </defs>
 <g id="figure_1">
  <g id="patch_1">
   <path d="M 0 345.6 
L 460.8 345.6 
L 460.8 0 
L 0 0 
z
" style="fill: #ffffff"/>
  </g>
  <g id="axes_1">
   <g id="patch_2">
    <path d="M 57.6 307.584 
L 414.72 307.584 
L 414.72 41.472 
L 57.6 41.472 
z
" style="fill: #ffffff"/>
   </g>
   <g id="PathCollection_1">
    <defs>
     <path id="m2e9745a82e" d="M 0 5.91608 
C 1.568963 5.91608 3.073876 5.292724 4.1833 4.1833 
C 5.292724 3.073876 5.91608 1.568963 5.91608 0 
C 5.91608 -1.568963 5.292724 -3.073876 4.1833 -4.1833 
C 3.073876 -5.292724 1.568963 -5.91608 0 -5.91608 
C -1.568963 -5.91608 -3.073876 -5.292724 -4.1833 -4.1833 
C -5.292724 -3.073876 -5.91608 -1.568963 -5.91608 0 
C -5.91608 1.568963 -5.292724 3.073876 -4.1833 4.1833 
C -3.073876 5.292724 -1.568963 5.91608 0 5.91608 
z
" style="stroke: #808080"/>
    </defs>
    <g clip-path="url(#p7721ac1a9f)">
     <use xlink:href="#m2e9745a82e" x="193.761982" y="257.245551" style="fill: #808080; stroke: #808080"/>
    </g>
   </g>
   <g id="PathCollection_2">
    <g clip-path="url(#p7721ac1a9f)">
     <use xlink:href="#m2e9745a82e" x="197.246177" y="236.025126" style="fill: #808080; stroke: #808080"/>
    </g>
   </g>
   <g id="PathCollection_3">
    <g clip-path="url(#p7721ac1a9f)">
     <use xlink:href="#m2e9745a82e" x="87.181899" y="226.761715" style="fill: #808080; stroke: #808080"/>
    </g>
   </g>
   <g id="PathCollection_4">
    <g clip-path="url(#p7721ac1a9f)">
     <use xlink:href="#m2e9745a82e" x="109.889881" y="199.207877" style="fill: #808080; stroke: #808080"/>
    </g>
   </g>
   <g id="PathCollection_5">
    <g clip-path="url(#p7721ac1a9f)">
     <use xlink:href="#m2e9745a82e" x="73.832727" y="182.69812" style="fill: #808080; stroke: #808080"/>
    </g>
   </g>
   <g id="PathCollection_6">
    <g clip-path="url(#p7721ac1a9f)">
     <use xlink:href="#m2e9745a82e" x="91.752503" y="110.542437" style="fill: #808080; stroke: #808080"/>
    </g>
   </g>
   <g id="PathCollection_7">
    <g clip-path="url(#p7721ac1a9f)">
     <use xlink:href="#m2e9745a82e" x="118.015685" y="116.837354" style="fill: #808080; stroke: #808080"/>
    </g>
   </g>
   <g id="PathCollection_8">
    <g clip-path="url(#p7721ac1a9f)">
     <use xlink:href="#m2e9745a82e" x="144.409134" y="91.810449" style="fill: #808080; stroke: #808080"/>
    </g>
   </g>
   <g id="PathCollection_9">
    <g clip-path="url(#p7721ac1a9f)">
     <use xlink:href="#m2e9745a82e" x="281.249302" y="191.510483" style="fill: #808080; stroke: #808080"/>
    </g>
   </g>
   <g id="PathCollection_10">
    <g clip-path="url(#p7721ac1a9f)">
     <use xlink:href="#m2e9745a82e" x="285.598184" y="164.837252" style="fill: #808080; stroke: #808080"/>
    </g>
   </g>
   <g id="PathCollection_11">
    <g clip-path="url(#p7721ac1a9f)">
     <use xlink:href="#m2e9745a82e" x="398.487273" y="194.306373" style="fill: #808080; stroke: #808080"/>
    </g>
   </g>
   <g id="PathCollection_12">
    <g clip-path="url(#p7721ac1a9f)">
     <use xlink:href="#m2e9745a82e" x="374.773702" y="239.813713" style="fill: #808080; stroke: #808080"/>
    </g>
   </g>
   <g id="PathCollection_13">
    <g clip-path="url(#p7721ac1a9f)">
     <use xlink:href="#m2e9745a82e" x="328.532085" y="221.262071" style="fill: #808080; stroke: #808080"/>
    </g>
   </g>
   <g id="PathCollection_14">
    <g clip-path="url(#p7721ac1a9f)">
     <use xlink:href="#m2e9745a82e" x="333.075077" y="256.653608" style="fill: #808080; stroke: #808080"/>
    </g>
   </g>
   <g id="matplotlib.axis_1"/>
   <g id="matplotlib.axis_2"/>
   <g id="line2d_1">
    <path d="M 252.932044 253.237613 
L 205.319235 253.476385 
L 202.218494 252.987632 
L 200.6337 252.480763 
L 199.362797 251.867929 
L 198.229475 251.034609 
L 196.895949 249.540279 
L 196.113636 248.3899 
L 193.527374 243.965029 
L 191.687142 241.492296 
L 189.691381 239.629788 
L 187.447019 237.963538 
L 186.068207 237.148222 
L 182.404083 235.735799 
L 180.083209 235.260658 
L 177.057926 234.918099 
L 173.191044 234.906324 
L 164.033239 235.381702 
L 156.108717 235.432832 
L 148.645836 235.213413 
L 140.764266 234.71922 
L 136.113572 234.281423 
L 131.05319 233.691598 
L 124.984233 232.783271 
L 115.919276 231.1317 
L 107.636908 229.337767 
L 101.87634 228.000194 
L 99.29275 227.253004 
L 98.318958 226.857098 
L 97.170411 226.257544 
L 96.014808 225.423836 
L 95.313455 224.742933 
L 94.561259 223.782534 
L 93.820731 222.153678 
L 93.705708 221.081813 
L 94.010874 219.560365 
L 95.1248 217.674126 
L 98.496807 213.475844 
L 100.786505 210.629426 
L 101.808969 208.875322 
L 102.53199 207.037981 
L 102.877385 205.127183 
L 102.810759 203.198048 
L 102.584715 202.101957 
L 102.191363 201.014089 
L 101.163893 199.224204 
L 100.608345 198.490124 
L 99.152852 196.960232 
L 95.978038 194.330472 
L 88.531876 188.684048 
L 86.07364 186.501425 
L 83.298289 183.332565 
L 82.200473 181.742049 
L 81.19684 179.863425 
L 80.177092 176.992673 
L 79.832137 175.047536 
L 79.772399 171.44687 
L 80.248926 167.131182 
L 81.314004 161.020383 
L 82.314739 156.680412 
L 83.627421 152.345886 
L 85.880886 146.467574 
L 92.191923 130.953361 
L 93.539445 127.176661 
L 96.255046 117.80709 
L 97.716092 115.826611 
L 100.141149 114.163856 
L 103.164374 113.347367 
L 104.895306 113.14355 
L 109.188599 112.349231 
L 110.579411 111.838579 
L 113.896523 110.146817 
L 116.363422 108.640813 
L 122.619185 104.593167 
L 126.702827 102.402145 
L 131.035515 100.627811 
L 135.623529 99.548884 
L 140.474315 99.377234 
L 143.189596 99.602939 
L 147.033863 100.271836 
L 148.931382 100.739587 
L 152.432476 101.915133 
L 156.722883 103.839984 
L 159.758058 105.531181 
L 162.723665 107.377186 
L 168.713556 111.538281 
L 173.325859 115.452444 
L 174.574147 116.7224 
L 176.781837 119.212691 
L 182.630872 126.335723 
L 184.251786 128.60403 
L 185.398501 130.585451 
L 193.970444 148.989511 
L 197.817891 159.053146 
L 198.843028 160.976723 
L 201.28654 164.641287 
L 204.158854 168.001294 
L 207.589382 171.304178 
L 212.278699 175.275407 
L 214.038304 176.621154 
L 217.73927 179.115221 
L 219.91284 180.367895 
L 222.408915 181.659631 
L 227.585542 183.889703 
L 229.977208 184.77842 
L 235.884804 186.6312 
L 239.992565 187.527582 
L 242.515921 187.894814 
L 256.362761 188.214522 
L 263.714566 187.774486 
L 269.610211 187.11958 
L 270.671907 186.948658 
L 274.543789 186.035539 
L 277.762771 184.219477 
L 279.304777 182.708473 
L 284.123772 176.696632 
L 286.373241 174.239564 
L 287.834731 172.872031 
L 289.223932 171.815278 
L 292.953453 170.119571 
L 295.893052 169.624809 
L 297.500071 169.496839 
L 306.804458 168.92372 
L 316.366838 168.254807 
L 323.417253 167.842943 
L 328.855982 167.826433 
L 331.126402 167.999796 
L 334.161853 168.398255 
L 337.693396 169.10627 
L 341.686248 170.201245 
L 346.614217 171.992348 
L 349.036389 173.048762 
L 354.804904 175.846384 
L 375.333717 186.646967 
L 379.219549 188.765354 
L 382.473265 190.705542 
L 389.628151 195.800809 
L 390.767752 196.912846 
L 391.862846 198.659335 
L 392.102169 199.63307 
L 391.954922 201.045832 
L 391.476557 202.274504 
L 389.852205 205.310846 
L 387.038468 210.087233 
L 375.765073 228.334346 
L 374.23757 230.291377 
L 372.153798 232.19412 
L 370.071915 233.350226 
L 367.709701 233.96651 
L 365.009701 234.142268 
L 361.716647 233.817323 
L 357.698791 232.877932 
L 356.102662 232.382009 
L 350.89753 230.508058 
L 343.025903 227.52885 
L 340.230051 226.811388 
L 337.865002 226.313188 
L 336.072281 226.226174 
L 334.370689 226.664535 
L 333.750353 227.088337 
L 332.989713 227.888597 
L 332.541798 228.649738 
L 332.226796 229.457777 
L 331.954526 231.64846 
L 332.276867 234.250719 
L 333.137198 237.954514 
L 333.34296 239.574036 
L 333.315735 241.133769 
L 332.823425 243.799819 
L 331.911259 246.257941 
L 330.855566 248.000321 
L 328.375055 250.286191 
L 325.348386 251.938445 
L 322.47919 252.869066 
L 317.210938 253.334325 
L 308.217274 253.344505 
L 282.220963 253.147058 
L 267.845248 253.119016 
L 256.75514 253.204046 
L 256.75514 253.204046 
" clip-path="url(#p7721ac1a9f)" style="fill: none; stroke: #1f77b4; stroke-width: 1.5; stroke-linecap: square"/>
   </g>
   <g id="line2d_2">
    <path d="M 199.098428 251.448859 
L 193.761982 257.245551 
" clip-path="url(#p7721ac1a9f)" style="fill: none; stroke: #808080; stroke-width: 1.5; stroke-linecap: square"/>
   </g>
   <g id="line2d_3">
    <path d="M 191.435558 241.346405 
L 197.246177 236.025126 
" clip-path="url(#p7721ac1a9f)" style="fill: none; stroke: #808080; stroke-width: 1.5; stroke-linecap: square"/>
   </g>
   <g id="line2d_4">
    <path d="M 94.247891 223.275879 
L 87.181899 226.761715 
" clip-path="url(#p7721ac1a9f)" style="fill: none; stroke: #808080; stroke-width: 1.5; stroke-linecap: square"/>
   </g>
   <g id="line2d_5">
    <path d="M 102.513359 201.976671 
L 109.889881 199.207877 
" clip-path="url(#p7721ac1a9f)" style="fill: none; stroke: #808080; stroke-width: 1.5; stroke-linecap: square"/>
   </g>
   <g id="line2d_6">
    <path d="M 81.073768 179.592218 
L 73.832727 182.69812 
" clip-path="url(#p7721ac1a9f)" style="fill: none; stroke: #808080; stroke-width: 1.5; stroke-linecap: square"/>
   </g>
   <g id="line2d_7">
    <path d="M 97.852779 115.529011 
L 91.752503 110.542437 
" clip-path="url(#p7721ac1a9f)" style="fill: none; stroke: #808080; stroke-width: 1.5; stroke-linecap: square"/>
   </g>
   <g id="line2d_8">
    <path d="M 114.084016 110.009377 
L 118.015685 116.837354 
" clip-path="url(#p7721ac1a9f)" style="fill: none; stroke: #808080; stroke-width: 1.5; stroke-linecap: square"/>
   </g>
   <g id="line2d_9">
    <path d="M 143.468802 99.633177 
L 144.409134 91.810449 
" clip-path="url(#p7721ac1a9f)" style="fill: none; stroke: #808080; stroke-width: 1.5; stroke-linecap: square"/>
   </g>
   <g id="line2d_10">
    <path d="M 276.980852 184.887823 
L 281.249302 191.510483 
" clip-path="url(#p7721ac1a9f)" style="fill: none; stroke: #808080; stroke-width: 1.5; stroke-linecap: square"/>
   </g>
   <g id="line2d_11">
    <path d="M 289.233487 171.827521 
L 285.598184 164.837252 
" clip-path="url(#p7721ac1a9f)" style="fill: none; stroke: #808080; stroke-width: 1.5; stroke-linecap: square"/>
   </g>
   <g id="line2d_12">
    <path d="M 391.54477 198.032088 
L 398.487273 194.306373 
" clip-path="url(#p7721ac1a9f)" style="fill: none; stroke: #808080; stroke-width: 1.5; stroke-linecap: square"/>
   </g>
   <g id="line2d_13">
    <path d="M 371.084785 232.851587 
L 374.773702 239.813713 
" clip-path="url(#p7721ac1a9f)" style="fill: none; stroke: #808080; stroke-width: 1.5; stroke-linecap: square"/>
   </g>
   <g id="line2d_14">
    <path d="M 333.989409 226.945108 
L 328.532085 221.262071 
" clip-path="url(#p7721ac1a9f)" style="fill: none; stroke: #808080; stroke-width: 1.5; stroke-linecap: square"/>
   </g>
   <g id="line2d_15">
    <path d="M 328.377755 250.32791 
L 333.075077 256.653608 
" clip-path="url(#p7721ac1a9f)" style="fill: none; stroke: #808080; stroke-width: 1.5; stroke-linecap: square"/>
   </g>
   <g id="patch_3">
    <path d="M 57.6 307.584 
L 57.6 41.472 
" style="fill: none; stroke: #000000; stroke-width: 0.8; stroke-linejoin: miter; stroke-linecap: square"/>
   </g>
   <g id="patch_4">
    <path d="M 414.72 307.584 
L 414.72 41.472 
" style="fill: none; stroke: #000000; stroke-width: 0.8; stroke-linejoin: miter; stroke-linecap: square"/>
   </g>
   <g id="patch_5">
    <path d="M 57.6 307.584 
L 414.72 307.584 
" style="fill: none; stroke: #000000; stroke-width: 0.8; stroke-linejoin: miter; stroke-linecap: square"/>
   </g>
   <g id="patch_6">
    <path d="M 57.6 41.472 
L 414.72 41.472 
" style="fill: none; stroke: #000000; stroke-width: 0.8; stroke-linejoin: miter; stroke-linecap: square"/>
   </g>
   <g id="text_1">
    <!-- 1 -->
    <g style="fill: #ffffff" transform="translate(191.112001 260.4103) scale(0.0833 -0.0833)">
     <defs>
      <path id="DejaVuSans-31" d="M 794 531 
L 1825 531 
L 1825 4091 
L 703 3866 
L 703 4441 
L 1819 4666 
L 2450 4666 
L 2450 531 
L 3481 531 
L 3481 0 
L 794 0 
L 794 531 
z
" transform="scale(0.015625)"/>
     </defs>
     <use xlink:href="#DejaVuSans-31"/>
    </g>
   </g>
   <g id="text_2">
    <!-- 2 -->
    <g style="fill: #ffffff" transform="translate(194.596196 239.189875) scale(0.0833 -0.0833)">
     <defs>
      <path id="DejaVuSans-32" d="M 1228 531 
L 3431 531 
L 3431 0 
L 469 0 
L 469 531 
Q 828 903 1448 1529 
Q 2069 2156 2228 2338 
Q 2531 2678 2651 2914 
Q 2772 3150 2772 3378 
Q 2772 3750 2511 3984 
Q 2250 4219 1831 4219 
Q 1534 4219 1204 4116 
Q 875 4013 500 3803 
L 500 4441 
Q 881 4594 1212 4672 
Q 1544 4750 1819 4750 
Q 2544 4750 2975 4387 
Q 3406 4025 3406 3419 
Q 3406 3131 3298 2873 
Q 3191 2616 2906 2266 
Q 2828 2175 2409 1742 
Q 1991 1309 1228 531 
z
" transform="scale(0.015625)"/>
     </defs>
     <use xlink:href="#DejaVuSans-32"/>
    </g>
   </g>
   <g id="text_3">
    <!-- 3 -->
    <g style="fill: #ffffff" transform="translate(84.531917 229.926465) scale(0.0833 -0.0833)">
     <defs>
      <path id="DejaVuSans-33" d="M 2597 2516 
Q 3050 2419 3304 2112 
Q 3559 1806 3559 1356 
Q 3559 666 3084 287 
Q 2609 -91 1734 -91 
Q 1441 -91 1130 -33 
Q 819 25 488 141 
L 488 750 
Q 750 597 1062 519 
Q 1375 441 1716 441 
Q 2309 441 2620 675 
Q 2931 909 2931 1356 
Q 2931 1769 2642 2001 
Q 2353 2234 1838 2234 
L 1294 2234 
L 1294 2753 
L 1863 2753 
Q 2328 2753 2575 2939 
Q 2822 3125 2822 3475 
Q 2822 3834 2567 4026 
Q 2313 4219 1838 4219 
Q 1578 4219 1281 4162 
Q 984 4106 628 3988 
L 628 4550 
Q 988 4650 1302 4700 
Q 1616 4750 1894 4750 
Q 2613 4750 3031 4423 
Q 3450 4097 3450 3541 
Q 3450 3153 3228 2886 
Q 3006 2619 2597 2516 
z
" transform="scale(0.015625)"/>
     </defs>
     <use xlink:href="#DejaVuSans-33"/>
    </g>
   </g>
   <g id="text_4">
    <!-- 4 -->
    <g style="fill: #ffffff" transform="translate(107.2399 202.372626) scale(0.0833 -0.0833)">
     <defs>
      <path id="DejaVuSans-34" d="M 2419 4116 
L 825 1625 
L 2419 1625 
L 2419 4116 
z
M 2253 4666 
L 3047 4666 
L 3047 1625 
L 3713 1625 
L 3713 1100 
L 3047 1100 
L 3047 0 
L 2419 0 
L 2419 1100 
L 313 1100 
L 313 1709 
L 2253 4666 
z
" transform="scale(0.015625)"/>
     </defs>
     <use xlink:href="#DejaVuSans-34"/>
    </g>
   </g>
   <g id="text_5">
    <!-- 5 -->
    <g style="fill: #ffffff" transform="translate(71.182746 185.862869) scale(0.0833 -0.0833)">
     <defs>
      <path id="DejaVuSans-35" d="M 691 4666 
L 3169 4666 
L 3169 4134 
L 1269 4134 
L 1269 2991 
Q 1406 3038 1543 3061 
Q 1681 3084 1819 3084 
Q 2600 3084 3056 2656 
Q 3513 2228 3513 1497 
Q 3513 744 3044 326 
Q 2575 -91 1722 -91 
Q 1428 -91 1123 -41 
Q 819 9 494 109 
L 494 744 
Q 775 591 1075 516 
Q 1375 441 1709 441 
Q 2250 441 2565 725 
Q 2881 1009 2881 1497 
Q 2881 1984 2565 2268 
Q 2250 2553 1709 2553 
Q 1456 2553 1204 2497 
Q 953 2441 691 2322 
L 691 4666 
z
" transform="scale(0.015625)"/>
     </defs>
     <use xlink:href="#DejaVuSans-35"/>
    </g>
   </g>
   <g id="text_6">
    <!-- 6 -->
    <g style="fill: #ffffff" transform="translate(89.102521 113.707186) scale(0.0833 -0.0833)">
     <defs>
      <path id="DejaVuSans-36" d="M 2113 2584 
Q 1688 2584 1439 2293 
Q 1191 2003 1191 1497 
Q 1191 994 1439 701 
Q 1688 409 2113 409 
Q 2538 409 2786 701 
Q 3034 994 3034 1497 
Q 3034 2003 2786 2293 
Q 2538 2584 2113 2584 
z
M 3366 4563 
L 3366 3988 
Q 3128 4100 2886 4159 
Q 2644 4219 2406 4219 
Q 1781 4219 1451 3797 
Q 1122 3375 1075 2522 
Q 1259 2794 1537 2939 
Q 1816 3084 2150 3084 
Q 2853 3084 3261 2657 
Q 3669 2231 3669 1497 
Q 3669 778 3244 343 
Q 2819 -91 2113 -91 
Q 1303 -91 875 529 
Q 447 1150 447 2328 
Q 447 3434 972 4092 
Q 1497 4750 2381 4750 
Q 2619 4750 2861 4703 
Q 3103 4656 3366 4563 
z
" transform="scale(0.015625)"/>
     </defs>
     <use xlink:href="#DejaVuSans-36"/>
    </g>
   </g>
   <g id="text_7">
    <!-- 7 -->
    <g style="fill: #ffffff" transform="translate(115.365704 120.002104) scale(0.0833 -0.0833)">
     <defs>
      <path id="DejaVuSans-37" d="M 525 4666 
L 3525 4666 
L 3525 4397 
L 1831 0 
L 1172 0 
L 2766 4134 
L 525 4134 
L 525 4666 
z
" transform="scale(0.015625)"/>
     </defs>
     <use xlink:href="#DejaVuSans-37"/>
    </g>
   </g>
   <g id="text_8">
    <!-- 8 -->
    <g style="fill: #ffffff" transform="translate(141.759153 94.975198) scale(0.0833 -0.0833)">
     <defs>
      <path id="DejaVuSans-38" d="M 2034 2216 
Q 1584 2216 1326 1975 
Q 1069 1734 1069 1313 
Q 1069 891 1326 650 
Q 1584 409 2034 409 
Q 2484 409 2743 651 
Q 3003 894 3003 1313 
Q 3003 1734 2745 1975 
Q 2488 2216 2034 2216 
z
M 1403 2484 
Q 997 2584 770 2862 
Q 544 3141 544 3541 
Q 544 4100 942 4425 
Q 1341 4750 2034 4750 
Q 2731 4750 3128 4425 
Q 3525 4100 3525 3541 
Q 3525 3141 3298 2862 
Q 3072 2584 2669 2484 
Q 3125 2378 3379 2068 
Q 3634 1759 3634 1313 
Q 3634 634 3220 271 
Q 2806 -91 2034 -91 
Q 1263 -91 848 271 
Q 434 634 434 1313 
Q 434 1759 690 2068 
Q 947 2378 1403 2484 
z
M 1172 3481 
Q 1172 3119 1398 2916 
Q 1625 2713 2034 2713 
Q 2441 2713 2670 2916 
Q 2900 3119 2900 3481 
Q 2900 3844 2670 4047 
Q 2441 4250 2034 4250 
Q 1625 4250 1398 4047 
Q 1172 3844 1172 3481 
z
" transform="scale(0.015625)"/>
     </defs>
     <use xlink:href="#DejaVuSans-38"/>
    </g>
   </g>
   <g id="text_9">
    <!-- 9 -->
    <g style="fill: #ffffff" transform="translate(278.59932 194.675232) scale(0.0833 -0.0833)">
     <defs>
      <path id="DejaVuSans-39" d="M 703 97 
L 703 672 
Q 941 559 1184 500 
Q 1428 441 1663 441 
Q 2288 441 2617 861 
Q 2947 1281 2994 2138 
Q 2813 1869 2534 1725 
Q 2256 1581 1919 1581 
Q 1219 1581 811 2004 
Q 403 2428 403 3163 
Q 403 3881 828 4315 
Q 1253 4750 1959 4750 
Q 2769 4750 3195 4129 
Q 3622 3509 3622 2328 
Q 3622 1225 3098 567 
Q 2575 -91 1691 -91 
Q 1453 -91 1209 -44 
Q 966 3 703 97 
z
M 1959 2075 
Q 2384 2075 2632 2365 
Q 2881 2656 2881 3163 
Q 2881 3666 2632 3958 
Q 2384 4250 1959 4250 
Q 1534 4250 1286 3958 
Q 1038 3666 1038 3163 
Q 1038 2656 1286 2365 
Q 1534 2075 1959 2075 
z
" transform="scale(0.015625)"/>
     </defs>
     <use xlink:href="#DejaVuSans-39"/>
    </g>
   </g>
   <g id="text_10">
    <!-- 10 -->
    <g style="fill: #ffffff" transform="translate(280.298222 168.002001) scale(0.0833 -0.0833)">
     <defs>
      <path id="DejaVuSans-30" d="M 2034 4250 
Q 1547 4250 1301 3770 
Q 1056 3291 1056 2328 
Q 1056 1369 1301 889 
Q 1547 409 2034 409 
Q 2525 409 2770 889 
Q 3016 1369 3016 2328 
Q 3016 3291 2770 3770 
Q 2525 4250 2034 4250 
z
M 2034 4750 
Q 2819 4750 3233 4129 
Q 3647 3509 3647 2328 
Q 3647 1150 3233 529 
Q 2819 -91 2034 -91 
Q 1250 -91 836 529 
Q 422 1150 422 2328 
Q 422 3509 836 4129 
Q 1250 4750 2034 4750 
z
" transform="scale(0.015625)"/>
     </defs>
     <use xlink:href="#DejaVuSans-31"/>
     <use xlink:href="#DejaVuSans-30" x="63.623047"/>
    </g>
   </g>
   <g id="text_11">
    <!-- 11 -->
    <g style="fill: #ffffff" transform="translate(393.18731 197.471122) scale(0.0833 -0.0833)">
     <use xlink:href="#DejaVuSans-31"/>
     <use xlink:href="#DejaVuSans-31" x="63.623047"/>
    </g>
   </g>
   <g id="text_12">
    <!-- 12 -->
    <g style="fill: #ffffff" transform="translate(369.473739 242.978462) scale(0.0833 -0.0833)">
     <use xlink:href="#DejaVuSans-31"/>
     <use xlink:href="#DejaVuSans-32" x="63.623047"/>
    </g>
   </g>
   <g id="text_13">
    <!-- 13 -->
    <g style="fill: #ffffff" transform="translate(323.232122 224.42682) scale(0.0833 -0.0833)">
     <use xlink:href="#DejaVuSans-31"/>
     <use xlink:href="#DejaVuSans-33" x="63.623047"/>
    </g>
   </g>
   <g id="text_14">
    <!-- 14 -->
    <g style="fill: #ffffff" transform="translate(327.775115 259.818358) scale(0.0833 -0.0833)">
     <use xlink:href="#DejaVuSans-31"/>
     <use xlink:href="#DejaVuSans-34" x="63.623047"/>
    </g>
   </g>
  </g>
 </g>
 <defs>
  <clipPath id="p7721ac1a9f">
   <rect x="57.6" y="41.472" width="357.12" height="266.112"/>
  </clipPath>
 </defs>
</svg>
