<?xml version="1.0" encoding="utf-8" standalone="no"?>
<!DOCTYPE svg PUBLIC "-//W3C//DTD SVG 1.1//EN"
  "http://www.w3.org/Graphics/SVG/1.1/DTD/svg11.dtd">
<svg xmlns:xlink="http://www.w3.org/1999/xlink" width="460.8pt" height="345.6pt" viewBox="0 0 460.8 345.6" xmlns="http://www.w3.org/2000/svg" version="1.1">
 <metadata>
  <rdf:RDF xmlns:dc="http://purl.org/dc/elements/1.1/" xmlns:cc="http://creativecommons.org/ns#" xmlns:rdf="http://www.w3.org/1999/02/22-rdf-syntax-ns#">
   <cc:Work>
    <dc:type rdf:resource="http://purl.org/dc/dcmitype/StillImage"/>
    <dc:date>2024-07-14T12:22:49.804619</dc:date>
    <dc:format>image/svg+xml</dc:format>
    <dc:creator>
     <cc:Agent>
      <dc:title>Matplotlib v3.9.0, https://matplotlib.org/</dc:title>
     </cc:Agent>
    </dc:creator>
   </cc:Work>
  </rdf:RDF>
 </metadata>
 <defs>
  <style type="text/css">*{stroke-linejoin: round; stroke-linecap: butt}</style>
 </defs>
 <g id="figure_1">
  <g id="patch_1">
   <path d="M 0 345.6 
L 460.8 345.6 
L 460.8 0 
L 0 0 
z
" style="fill: #ffffff"/>
  </g>
  <g id="axes_1">
   <g id="patch_2">
    <path d="M 57.6 307.584 
L 414.72 307.584 
L 414.72 41.472 
L 57.6 41.472 
z
" style="fill: #ffffff"/>
   </g>
   <g id="PathCollection_1">
    <defs>
     <path id="m756c3b76ee" d="M 0 5.91608 
C 1.568963 5.91608 3.073876 5.292724 4.1833 4.1833 
C 5.292724 3.073876 5.91608 1.568963 5.91608 0 
C 5.91608 -1.568963 5.292724 -3.073876 4.1833 -4.1833 
C 3.073876 -5.292724 1.568963 -5.91608 0 -5.91608 
C -1.568963 -5.91608 -3.073876 -5.292724 -4.1833 -4.1833 
C -5.292724 -3.073876 -5.91608 -1.568963 -5.91608 0 
C -5.91608 1.568963 -5.292724 3.073876 -4.1833 4.1833 
C -3.073876 5.292724 -1.568963 5.91608 0 5.91608 
z
" style="stroke: #808080"/>
    </defs>
    <g clip-path="url(#p9a8222af1d)">
     <use xlink:href="#m756c3b76ee" x="398.487273" y="121.327443" style="fill: #808080; stroke: #808080"/>
    </g>
   </g>
   <g id="PathCollection_2">
    <g clip-path="url(#p9a8222af1d)">
     <use xlink:href="#m756c3b76ee" x="377.03549" y="64.603075" style="fill: #808080; stroke: #808080"/>
    </g>
   </g>
   <g id="PathCollection_3">
    <g clip-path="url(#p9a8222af1d)">
     <use xlink:href="#m756c3b76ee" x="249.177711" y="109.962172" style="fill: #808080; stroke: #808080"/>
    </g>
   </g>
   <g id="PathCollection_4">
    <g clip-path="url(#p9a8222af1d)">
     <use xlink:href="#m756c3b76ee" x="270.217344" y="149.682528" style="fill: #808080; stroke: #808080"/>
    </g>
   </g>
   <g id="PathCollection_5">
    <g clip-path="url(#p9a8222af1d)">
     <use xlink:href="#m756c3b76ee" x="213.35206" y="165.357624" style="fill: #808080; stroke: #808080"/>
    </g>
   </g>
   <g id="PathCollection_6">
    <g clip-path="url(#p9a8222af1d)">
     <use xlink:href="#m756c3b76ee" x="214.693899" y="173.282966" style="fill: #808080; stroke: #808080"/>
    </g>
   </g>
   <g id="PathCollection_7">
    <g clip-path="url(#p9a8222af1d)">
     <use xlink:href="#m756c3b76ee" x="176.96302" y="201.429687" style="fill: #808080; stroke: #808080"/>
    </g>
   </g>
   <g id="PathCollection_8">
    <g clip-path="url(#p9a8222af1d)">
     <use xlink:href="#m756c3b76ee" x="171.792063" y="178.260413" style="fill: #808080; stroke: #808080"/>
    </g>
   </g>
   <g id="PathCollection_9">
    <g clip-path="url(#p9a8222af1d)">
     <use xlink:href="#m756c3b76ee" x="165.433308" y="172.032125" style="fill: #808080; stroke: #808080"/>
    </g>
   </g>
   <g id="PathCollection_10">
    <g clip-path="url(#p9a8222af1d)">
     <use xlink:href="#m756c3b76ee" x="159.59112" y="169.92425" style="fill: #808080; stroke: #808080"/>
    </g>
   </g>
   <g id="PathCollection_11">
    <g clip-path="url(#p9a8222af1d)">
     <use xlink:href="#m756c3b76ee" x="147.809502" y="182.323902" style="fill: #808080; stroke: #808080"/>
    </g>
   </g>
   <g id="PathCollection_12">
    <g clip-path="url(#p9a8222af1d)">
     <use xlink:href="#m756c3b76ee" x="153.350375" y="162.972899" style="fill: #808080; stroke: #808080"/>
    </g>
   </g>
   <g id="PathCollection_13">
    <g clip-path="url(#p9a8222af1d)">
     <use xlink:href="#m756c3b76ee" x="88.552734" y="183.365438" style="fill: #808080; stroke: #808080"/>
    </g>
   </g>
   <g id="PathCollection_14">
    <g clip-path="url(#p9a8222af1d)">
     <use xlink:href="#m756c3b76ee" x="74.422829" y="218.751744" style="fill: #808080; stroke: #808080"/>
    </g>
   </g>
   <g id="PathCollection_15">
    <g clip-path="url(#p9a8222af1d)">
     <use xlink:href="#m756c3b76ee" x="73.832727" y="255.28358" style="fill: #808080; stroke: #808080"/>
    </g>
   </g>
   <g id="PathCollection_16">
    <g clip-path="url(#p9a8222af1d)">
     <use xlink:href="#m756c3b76ee" x="129.924677" y="284.452925" style="fill: #808080; stroke: #808080"/>
    </g>
   </g>
   <g id="PathCollection_17">
    <g clip-path="url(#p9a8222af1d)">
     <use xlink:href="#m756c3b76ee" x="147.502895" y="259.256629" style="fill: #808080; stroke: #808080"/>
    </g>
   </g>
   <g id="PathCollection_18">
    <g clip-path="url(#p9a8222af1d)">
     <use xlink:href="#m756c3b76ee" x="173.623575" y="235.752911" style="fill: #808080; stroke: #808080"/>
    </g>
   </g>
   <g id="PathCollection_19">
    <g clip-path="url(#p9a8222af1d)">
     <use xlink:href="#m756c3b76ee" x="182.654" y="214.139912" style="fill: #808080; stroke: #808080"/>
    </g>
   </g>
   <g id="PathCollection_20">
    <g clip-path="url(#p9a8222af1d)">
     <use xlink:href="#m756c3b76ee" x="218.285339" y="189.319737" style="fill: #808080; stroke: #808080"/>
    </g>
   </g>
   <g id="matplotlib.axis_1"/>
   <g id="matplotlib.axis_2"/>
   <g id="line2d_1">
    <path d="M 356.930374 132.242146 
L 383.953225 122.606767 
L 387.024393 121.67145 
L 389.148483 120.716127 
L 390.47401 119.733769 
L 391.082711 119.143462 
L 391.669606 118.403868 
L 392.351988 116.972999 
L 392.578827 116.036762 
L 392.569933 114.510406 
L 392.01112 112.170064 
L 386.788216 98.192969 
L 382.837457 87.9269 
L 377.449717 73.98561 
L 376.936314 73.040207 
L 376.151562 72.184284 
L 375.576092 71.857836 
L 374.092447 71.617122 
L 372.450286 71.856979 
L 369.261701 72.771327 
L 362.298349 75.043367 
L 351.424877 78.428973 
L 333.137094 84.21113 
L 325.687814 86.70955 
L 313.616361 91.1879 
L 285.27108 101.746542 
L 259.689876 111.57599 
L 257.583656 112.472991 
L 256.561287 113.041618 
L 255.620592 113.747856 
L 255.083438 114.386356 
L 254.767118 115.051243 
L 254.664601 115.594006 
L 254.69124 116.499084 
L 255.507466 119.015875 
L 256.858775 122.0644 
L 257.69442 124.493323 
L 258.906883 129.060461 
L 259.698207 131.48706 
L 263.77896 142.382148 
L 264.070169 144.175145 
L 263.968615 145.547568 
L 263.563714 146.489288 
L 262.82366 147.324556 
L 261.582068 148.118726 
L 260.324091 148.660191 
L 256.073461 150.052201 
L 252.348434 151.308797 
L 242.679453 154.890858 
L 239.494865 156.294294 
L 224.393197 164.035977 
L 223.352183 164.6777 
L 222.0873 165.633608 
L 221.385311 166.307912 
L 220.398097 167.619105 
L 220.009519 168.532051 
L 220.395168 171.915144 
L 221.317072 174.111556 
L 221.541191 174.923282 
L 221.574024 175.710169 
L 221.470733 176.267705 
L 220.886223 177.244456 
L 219.829723 178.181656 
L 216.939902 179.896828 
L 214.375043 181.347557 
L 212.749393 182.403074 
L 205.890797 187.199062 
L 194.217444 195.105601 
L 176.483159 207.286983 
L 174.677063 208.110826 
L 173.9454 208.220626 
L 173.429088 208.178753 
L 172.634333 207.796369 
L 171.865903 206.911673 
L 171.210118 205.573632 
L 170.086486 201.855574 
L 169.18214 198.193451 
L 166.560904 187.434111 
L 165.258061 182.047441 
L 164.683051 180.298828 
L 164.036746 179.627935 
L 161.742671 178.455881 
L 160.352252 177.849692 
L 158.253461 177.191564 
L 152.101918 176.128452 
L 150.770595 175.52536 
L 149.746363 174.716145 
L 149.221346 173.99235 
L 148.912454 173.102109 
L 148.811883 171.911681 
L 148.859699 170.151267 
L 148.706289 169.121029 
L 148.271464 168.372332 
L 147.558321 167.846081 
L 146.772145 167.582662 
L 144.190587 167.373296 
L 140.962201 167.633723 
L 138.117224 168.210533 
L 134.253813 169.563578 
L 130.36711 171.078362 
L 126.50215 172.460955 
L 122.322356 174.19741 
L 115.072293 177.417364 
L 110.27909 179.551291 
L 98.973807 185.240137 
L 94.693044 187.489806 
L 91.68386 190.917201 
L 89.481297 195.631283 
L 82.910228 213.597579 
L 82.364035 215.539278 
L 81.474861 220.633295 
L 81.275749 223.867227 
L 81.370985 232.509048 
L 81.549717 238.992333 
L 81.406603 242.288458 
L 80.409347 250.858209 
L 80.431214 251.288974 
L 80.839777 252.821461 
L 81.157897 253.252938 
L 82.040584 253.936219 
L 86.026101 256.189487 
L 92.122211 259.723708 
L 99.141396 263.735925 
L 103.470708 266.496087 
L 108.829673 269.962047 
L 112.725772 272.225443 
L 118.444792 275.888046 
L 121.677489 277.524096 
L 124.190723 278.18913 
L 125.510244 278.169396 
L 126.652416 277.858893 
L 127.432209 277.396069 
L 129.192184 275.473539 
L 130.878875 272.687929 
L 137.288102 261.201884 
L 140.461807 256.331295 
L 143.050354 253.015186 
L 144.278594 251.627738 
L 146.061149 249.839722 
L 149.193358 247.174312 
L 157.262261 240.76772 
L 158.459468 239.689749 
L 161.878449 236.357904 
L 167.686488 231.255013 
L 169.074019 229.372221 
L 173.46774 217.617589 
L 174.639417 213.634647 
L 175.383929 211.866301 
L 176.313532 210.240985 
L 177.849576 208.351163 
L 181.336295 205.422858 
L 192.418819 198.048303 
L 214.713608 182.802303 
L 218.620379 180.62192 
L 222.363988 179.01075 
L 229.409727 176.580069 
L 244.798084 171.282982 
L 275.220936 160.373972 
L 308.31761 148.479193 
L 340.518874 138.122634 
L 349.096262 135.016686 
L 349.096262 135.016686 
" clip-path="url(#p9a8222af1d)" style="fill: none; stroke: #1f77b4; stroke-width: 1.5; stroke-linecap: square"/>
   </g>
   <g id="line2d_2">
    <path d="M 391.950209 117.865714 
L 398.487273 121.327443 
" clip-path="url(#p9a8222af1d)" style="fill: none; stroke: #808080; stroke-width: 1.5; stroke-linecap: square"/>
   </g>
   <g id="line2d_3">
    <path d="M 375.035922 71.724767 
L 377.03549 64.603075 
" clip-path="url(#p9a8222af1d)" style="fill: none; stroke: #808080; stroke-width: 1.5; stroke-linecap: square"/>
   </g>
   <g id="line2d_4">
    <path d="M 255.020914 114.498001 
L 249.177711 109.962172 
" clip-path="url(#p9a8222af1d)" style="fill: none; stroke: #808080; stroke-width: 1.5; stroke-linecap: square"/>
   </g>
   <g id="line2d_5">
    <path d="M 263.785372 146.029242 
L 270.217344 149.682528 
" clip-path="url(#p9a8222af1d)" style="fill: none; stroke: #808080; stroke-width: 1.5; stroke-linecap: square"/>
   </g>
   <g id="line2d_6">
    <path d="M 220.162388 168.244871 
L 213.35206 165.357624 
" clip-path="url(#p9a8222af1d)" style="fill: none; stroke: #808080; stroke-width: 1.5; stroke-linecap: square"/>
   </g>
   <g id="line2d_7">
    <path d="M 221.382842 176.441258 
L 214.693899 173.282966 
" clip-path="url(#p9a8222af1d)" style="fill: none; stroke: #808080; stroke-width: 1.5; stroke-linecap: square"/>
   </g>
   <g id="line2d_8">
    <path d="M 173.902972 208.164141 
L 176.96302 201.429687 
" clip-path="url(#p9a8222af1d)" style="fill: none; stroke: #808080; stroke-width: 1.5; stroke-linecap: square"/>
   </g>
   <g id="line2d_9">
    <path d="M 164.954714 181.083077 
L 171.792063 178.260413 
" clip-path="url(#p9a8222af1d)" style="fill: none; stroke: #808080; stroke-width: 1.5; stroke-linecap: square"/>
   </g>
   <g id="line2d_10">
    <path d="M 162.172024 178.671462 
L 165.433308 172.032125 
" clip-path="url(#p9a8222af1d)" style="fill: none; stroke: #808080; stroke-width: 1.5; stroke-linecap: square"/>
   </g>
   <g id="line2d_11">
    <path d="M 158.101872 177.169863 
L 159.59112 169.92425 
" clip-path="url(#p9a8222af1d)" style="fill: none; stroke: #808080; stroke-width: 1.5; stroke-linecap: square"/>
   </g>
   <g id="line2d_12">
    <path d="M 151.271264 175.786856 
L 147.809502 182.323902 
" clip-path="url(#p9a8222af1d)" style="fill: none; stroke: #808080; stroke-width: 1.5; stroke-linecap: square"/>
   </g>
   <g id="line2d_13">
    <path d="M 148.384303 168.455133 
L 153.350375 162.972899 
" clip-path="url(#p9a8222af1d)" style="fill: none; stroke: #808080; stroke-width: 1.5; stroke-linecap: square"/>
   </g>
   <g id="line2d_14">
    <path d="M 93.791062 188.588147 
L 88.552734 183.365438 
" clip-path="url(#p9a8222af1d)" style="fill: none; stroke: #808080; stroke-width: 1.5; stroke-linecap: square"/>
   </g>
   <g id="line2d_15">
    <path d="M 81.76668 219.637528 
L 74.422829 218.751744 
" clip-path="url(#p9a8222af1d)" style="fill: none; stroke: #808080; stroke-width: 1.5; stroke-linecap: square"/>
   </g>
   <g id="line2d_16">
    <path d="M 80.674022 252.470495 
L 73.832727 255.28358 
" clip-path="url(#p9a8222af1d)" style="fill: none; stroke: #808080; stroke-width: 1.5; stroke-linecap: square"/>
   </g>
   <g id="line2d_17">
    <path d="M 126.538758 277.876275 
L 129.924677 284.452925 
" clip-path="url(#p9a8222af1d)" style="fill: none; stroke: #808080; stroke-width: 1.5; stroke-linecap: square"/>
   </g>
   <g id="line2d_18">
    <path d="M 141.779997 254.569924 
L 147.502895 259.256629 
" clip-path="url(#p9a8222af1d)" style="fill: none; stroke: #808080; stroke-width: 1.5; stroke-linecap: square"/>
   </g>
   <g id="line2d_19">
    <path d="M 167.974606 230.977357 
L 173.623575 235.752911 
" clip-path="url(#p9a8222af1d)" style="fill: none; stroke: #808080; stroke-width: 1.5; stroke-linecap: square"/>
   </g>
   <g id="line2d_20">
    <path d="M 176.556993 209.951444 
L 182.654 214.139912 
" clip-path="url(#p9a8222af1d)" style="fill: none; stroke: #808080; stroke-width: 1.5; stroke-linecap: square"/>
   </g>
   <g id="line2d_21">
    <path d="M 214.217159 183.141818 
L 218.285339 189.319737 
" clip-path="url(#p9a8222af1d)" style="fill: none; stroke: #808080; stroke-width: 1.5; stroke-linecap: square"/>
   </g>
   <g id="patch_3">
    <path d="M 57.6 307.584 
L 57.6 41.472 
" style="fill: none; stroke: #000000; stroke-width: 0.8; stroke-linejoin: miter; stroke-linecap: square"/>
   </g>
   <g id="patch_4">
    <path d="M 414.72 307.584 
L 414.72 41.472 
" style="fill: none; stroke: #000000; stroke-width: 0.8; stroke-linejoin: miter; stroke-linecap: square"/>
   </g>
   <g id="patch_5">
    <path d="M 57.6 307.584 
L 414.72 307.584 
" style="fill: none; stroke: #000000; stroke-width: 0.8; stroke-linejoin: miter; stroke-linecap: square"/>
   </g>
   <g id="patch_6">
    <path d="M 57.6 41.472 
L 414.72 41.472 
" style="fill: none; stroke: #000000; stroke-width: 0.8; stroke-linejoin: miter; stroke-linecap: square"/>
   </g>
   <g id="text_1">
    <!-- 1 -->
    <g style="fill: #ffffff" transform="translate(395.837291 124.492192) scale(0.0833 -0.0833)">
     <defs>
      <path id="DejaVuSans-31" d="M 794 531 
L 1825 531 
L 1825 4091 
L 703 3866 
L 703 4441 
L 1819 4666 
L 2450 4666 
L 2450 531 
L 3481 531 
L 3481 0 
L 794 0 
L 794 531 
z
" transform="scale(0.015625)"/>
     </defs>
     <use xlink:href="#DejaVuSans-31"/>
    </g>
   </g>
   <g id="text_2">
    <!-- 2 -->
    <g style="fill: #ffffff" transform="translate(374.385509 67.767825) scale(0.0833 -0.0833)">
     <defs>
      <path id="DejaVuSans-32" d="M 1228 531 
L 3431 531 
L 3431 0 
L 469 0 
L 469 531 
Q 828 903 1448 1529 
Q 2069 2156 2228 2338 
Q 2531 2678 2651 2914 
Q 2772 3150 2772 3378 
Q 2772 3750 2511 3984 
Q 2250 4219 1831 4219 
Q 1534 4219 1204 4116 
Q 875 4013 500 3803 
L 500 4441 
Q 881 4594 1212 4672 
Q 1544 4750 1819 4750 
Q 2544 4750 2975 4387 
Q 3406 4025 3406 3419 
Q 3406 3131 3298 2873 
Q 3191 2616 2906 2266 
Q 2828 2175 2409 1742 
Q 1991 1309 1228 531 
z
" transform="scale(0.015625)"/>
     </defs>
     <use xlink:href="#DejaVuSans-32"/>
    </g>
   </g>
   <g id="text_3">
    <!-- 3 -->
    <g style="fill: #ffffff" transform="translate(246.52773 113.126921) scale(0.0833 -0.0833)">
     <defs>
      <path id="DejaVuSans-33" d="M 2597 2516 
Q 3050 2419 3304 2112 
Q 3559 1806 3559 1356 
Q 3559 666 3084 287 
Q 2609 -91 1734 -91 
Q 1441 -91 1130 -33 
Q 819 25 488 141 
L 488 750 
Q 750 597 1062 519 
Q 1375 441 1716 441 
Q 2309 441 2620 675 
Q 2931 909 2931 1356 
Q 2931 1769 2642 2001 
Q 2353 2234 1838 2234 
L 1294 2234 
L 1294 2753 
L 1863 2753 
Q 2328 2753 2575 2939 
Q 2822 3125 2822 3475 
Q 2822 3834 2567 4026 
Q 2313 4219 1838 4219 
Q 1578 4219 1281 4162 
Q 984 4106 628 3988 
L 628 4550 
Q 988 4650 1302 4700 
Q 1616 4750 1894 4750 
Q 2613 4750 3031 4423 
Q 3450 4097 3450 3541 
Q 3450 3153 3228 2886 
Q 3006 2619 2597 2516 
z
" transform="scale(0.015625)"/>
     </defs>
     <use xlink:href="#DejaVuSans-33"/>
    </g>
   </g>
   <g id="text_4">
    <!-- 4 -->
    <g style="fill: #ffffff" transform="translate(267.567363 152.847278) scale(0.0833 -0.0833)">
     <defs>
      <path id="DejaVuSans-34" d="M 2419 4116 
L 825 1625 
L 2419 1625 
L 2419 4116 
z
M 2253 4666 
L 3047 4666 
L 3047 1625 
L 3713 1625 
L 3713 1100 
L 3047 1100 
L 3047 0 
L 2419 0 
L 2419 1100 
L 313 1100 
L 313 1709 
L 2253 4666 
z
" transform="scale(0.015625)"/>
     </defs>
     <use xlink:href="#DejaVuSans-34"/>
    </g>
   </g>
   <g id="text_5">
    <!-- 5 -->
    <g style="fill: #ffffff" transform="translate(210.702078 168.522373) scale(0.0833 -0.0833)">
     <defs>
      <path id="DejaVuSans-35" d="M 691 4666 
L 3169 4666 
L 3169 4134 
L 1269 4134 
L 1269 2991 
Q 1406 3038 1543 3061 
Q 1681 3084 1819 3084 
Q 2600 3084 3056 2656 
Q 3513 2228 3513 1497 
Q 3513 744 3044 326 
Q 2575 -91 1722 -91 
Q 1428 -91 1123 -41 
Q 819 9 494 109 
L 494 744 
Q 775 591 1075 516 
Q 1375 441 1709 441 
Q 2250 441 2565 725 
Q 2881 1009 2881 1497 
Q 2881 1984 2565 2268 
Q 2250 2553 1709 2553 
Q 1456 2553 1204 2497 
Q 953 2441 691 2322 
L 691 4666 
z
" transform="scale(0.015625)"/>
     </defs>
     <use xlink:href="#DejaVuSans-35"/>
    </g>
   </g>
   <g id="text_6">
    <!-- 6 -->
    <g style="fill: #ffffff" transform="translate(212.043918 176.447715) scale(0.0833 -0.0833)">
     <defs>
      <path id="DejaVuSans-36" d="M 2113 2584 
Q 1688 2584 1439 2293 
Q 1191 2003 1191 1497 
Q 1191 994 1439 701 
Q 1688 409 2113 409 
Q 2538 409 2786 701 
Q 3034 994 3034 1497 
Q 3034 2003 2786 2293 
Q 2538 2584 2113 2584 
z
M 3366 4563 
L 3366 3988 
Q 3128 4100 2886 4159 
Q 2644 4219 2406 4219 
Q 1781 4219 1451 3797 
Q 1122 3375 1075 2522 
Q 1259 2794 1537 2939 
Q 1816 3084 2150 3084 
Q 2853 3084 3261 2657 
Q 3669 2231 3669 1497 
Q 3669 778 3244 343 
Q 2819 -91 2113 -91 
Q 1303 -91 875 529 
Q 447 1150 447 2328 
Q 447 3434 972 4092 
Q 1497 4750 2381 4750 
Q 2619 4750 2861 4703 
Q 3103 4656 3366 4563 
z
" transform="scale(0.015625)"/>
     </defs>
     <use xlink:href="#DejaVuSans-36"/>
    </g>
   </g>
   <g id="text_7">
    <!-- 7 -->
    <g style="fill: #ffffff" transform="translate(174.313039 204.594436) scale(0.0833 -0.0833)">
     <defs>
      <path id="DejaVuSans-37" d="M 525 4666 
L 3525 4666 
L 3525 4397 
L 1831 0 
L 1172 0 
L 2766 4134 
L 525 4134 
L 525 4666 
z
" transform="scale(0.015625)"/>
     </defs>
     <use xlink:href="#DejaVuSans-37"/>
    </g>
   </g>
   <g id="text_8">
    <!-- 8 -->
    <g style="fill: #ffffff" transform="translate(169.142082 181.425162) scale(0.0833 -0.0833)">
     <defs>
      <path id="DejaVuSans-38" d="M 2034 2216 
Q 1584 2216 1326 1975 
Q 1069 1734 1069 1313 
Q 1069 891 1326 650 
Q 1584 409 2034 409 
Q 2484 409 2743 651 
Q 3003 894 3003 1313 
Q 3003 1734 2745 1975 
Q 2488 2216 2034 2216 
z
M 1403 2484 
Q 997 2584 770 2862 
Q 544 3141 544 3541 
Q 544 4100 942 4425 
Q 1341 4750 2034 4750 
Q 2731 4750 3128 4425 
Q 3525 4100 3525 3541 
Q 3525 3141 3298 2862 
Q 3072 2584 2669 2484 
Q 3125 2378 3379 2068 
Q 3634 1759 3634 1313 
Q 3634 634 3220 271 
Q 2806 -91 2034 -91 
Q 1263 -91 848 271 
Q 434 634 434 1313 
Q 434 1759 690 2068 
Q 947 2378 1403 2484 
z
M 1172 3481 
Q 1172 3119 1398 2916 
Q 1625 2713 2034 2713 
Q 2441 2713 2670 2916 
Q 2900 3119 2900 3481 
Q 2900 3844 2670 4047 
Q 2441 4250 2034 4250 
Q 1625 4250 1398 4047 
Q 1172 3844 1172 3481 
z
" transform="scale(0.015625)"/>
     </defs>
     <use xlink:href="#DejaVuSans-38"/>
    </g>
   </g>
   <g id="text_9">
    <!-- 9 -->
    <g style="fill: #ffffff" transform="translate(162.783326 175.196874) scale(0.0833 -0.0833)">
     <defs>
      <path id="DejaVuSans-39" d="M 703 97 
L 703 672 
Q 941 559 1184 500 
Q 1428 441 1663 441 
Q 2288 441 2617 861 
Q 2947 1281 2994 2138 
Q 2813 1869 2534 1725 
Q 2256 1581 1919 1581 
Q 1219 1581 811 2004 
Q 403 2428 403 3163 
Q 403 3881 828 4315 
Q 1253 4750 1959 4750 
Q 2769 4750 3195 4129 
Q 3622 3509 3622 2328 
Q 3622 1225 3098 567 
Q 2575 -91 1691 -91 
Q 1453 -91 1209 -44 
Q 966 3 703 97 
z
M 1959 2075 
Q 2384 2075 2632 2365 
Q 2881 2656 2881 3163 
Q 2881 3666 2632 3958 
Q 2384 4250 1959 4250 
Q 1534 4250 1286 3958 
Q 1038 3666 1038 3163 
Q 1038 2656 1286 2365 
Q 1534 2075 1959 2075 
z
" transform="scale(0.015625)"/>
     </defs>
     <use xlink:href="#DejaVuSans-39"/>
    </g>
   </g>
   <g id="text_10">
    <!-- 10 -->
    <g style="fill: #ffffff" transform="translate(154.291158 173.088999) scale(0.0833 -0.0833)">
     <defs>
      <path id="DejaVuSans-30" d="M 2034 4250 
Q 1547 4250 1301 3770 
Q 1056 3291 1056 2328 
Q 1056 1369 1301 889 
Q 1547 409 2034 409 
Q 2525 409 2770 889 
Q 3016 1369 3016 2328 
Q 3016 3291 2770 3770 
Q 2525 4250 2034 4250 
z
M 2034 4750 
Q 2819 4750 3233 4129 
Q 3647 3509 3647 2328 
Q 3647 1150 3233 529 
Q 2819 -91 2034 -91 
Q 1250 -91 836 529 
Q 422 1150 422 2328 
Q 422 3509 836 4129 
Q 1250 4750 2034 4750 
z
" transform="scale(0.015625)"/>
     </defs>
     <use xlink:href="#DejaVuSans-31"/>
     <use xlink:href="#DejaVuSans-30" x="63.623047"/>
    </g>
   </g>
   <g id="text_11">
    <!-- 11 -->
    <g style="fill: #ffffff" transform="translate(142.50954 185.488652) scale(0.0833 -0.0833)">
     <use xlink:href="#DejaVuSans-31"/>
     <use xlink:href="#DejaVuSans-31" x="63.623047"/>
    </g>
   </g>
   <g id="text_12">
    <!-- 12 -->
    <g style="fill: #ffffff" transform="translate(148.050412 166.137648) scale(0.0833 -0.0833)">
     <use xlink:href="#DejaVuSans-31"/>
     <use xlink:href="#DejaVuSans-32" x="63.623047"/>
    </g>
   </g>
   <g id="text_13">
    <!-- 13 -->
    <g style="fill: #ffffff" transform="translate(83.252771 186.530187) scale(0.0833 -0.0833)">
     <use xlink:href="#DejaVuSans-31"/>
     <use xlink:href="#DejaVuSans-33" x="63.623047"/>
    </g>
   </g>
   <g id="text_14">
    <!-- 14 -->
    <g style="fill: #ffffff" transform="translate(69.122866 221.916493) scale(0.0833 -0.0833)">
     <use xlink:href="#DejaVuSans-31"/>
     <use xlink:href="#DejaVuSans-34" x="63.623047"/>
    </g>
   </g>
   <g id="text_15">
    <!-- 15 -->
    <g style="fill: #ffffff" transform="translate(68.532765 258.44833) scale(0.0833 -0.0833)">
     <use xlink:href="#DejaVuSans-31"/>
     <use xlink:href="#DejaVuSans-35" x="63.623047"/>
    </g>
   </g>
   <g id="text_16">
    <!-- 16 -->
    <g style="fill: #ffffff" transform="translate(124.624715 287.617674) scale(0.0833 -0.0833)">
     <use xlink:href="#DejaVuSans-31"/>
     <use xlink:href="#DejaVuSans-36" x="63.623047"/>
    </g>
   </g>
   <g id="text_17">
    <!-- 17 -->
    <g style="fill: #ffffff" transform="translate(142.202933 262.421378) scale(0.0833 -0.0833)">
     <use xlink:href="#DejaVuSans-31"/>
     <use xlink:href="#DejaVuSans-37" x="63.623047"/>
    </g>
   </g>
   <g id="text_18">
    <!-- 18 -->
    <g style="fill: #ffffff" transform="translate(168.323613 238.91766) scale(0.0833 -0.0833)">
     <use xlink:href="#DejaVuSans-31"/>
     <use xlink:href="#DejaVuSans-38" x="63.623047"/>
    </g>
   </g>
   <g id="text_19">
    <!-- 19 -->
    <g style="fill: #ffffff" transform="translate(177.354038 217.304661) scale(0.0833 -0.0833)">
     <use xlink:href="#DejaVuSans-31"/>
     <use xlink:href="#DejaVuSans-39" x="63.623047"/>
    </g>
   </g>
   <g id="text_20">
    <!-- 20 -->
    <g style="fill: #ffffff" transform="translate(212.985376 192.484486) scale(0.0833 -0.0833)">
     <use xlink:href="#DejaVuSans-32"/>
     <use xlink:href="#DejaVuSans-30" x="63.623047"/>
    </g>
   </g>
  </g>
 </g>
 <defs>
  <clipPath id="p9a8222af1d">
   <rect x="57.6" y="41.472" width="357.12" height="266.112"/>
  </clipPath>
 </defs>
</svg>
