<?xml version="1.0" encoding="utf-8" standalone="no"?>
<!DOCTYPE svg PUBLIC "-//W3C//DTD SVG 1.1//EN"
  "http://www.w3.org/Graphics/SVG/1.1/DTD/svg11.dtd">
<svg xmlns:xlink="http://www.w3.org/1999/xlink" width="460.8pt" height="345.6pt" viewBox="0 0 460.8 345.6" xmlns="http://www.w3.org/2000/svg" version="1.1">
 <metadata>
  <rdf:RDF xmlns:dc="http://purl.org/dc/elements/1.1/" xmlns:cc="http://creativecommons.org/ns#" xmlns:rdf="http://www.w3.org/1999/02/22-rdf-syntax-ns#">
   <cc:Work>
    <dc:type rdf:resource="http://purl.org/dc/dcmitype/StillImage"/>
    <dc:date>2024-07-14T12:22:53.599089</dc:date>
    <dc:format>image/svg+xml</dc:format>
    <dc:creator>
     <cc:Agent>
      <dc:title>Matplotlib v3.9.0, https://matplotlib.org/</dc:title>
     </cc:Agent>
    </dc:creator>
   </cc:Work>
  </rdf:RDF>
 </metadata>
 <defs>
  <style type="text/css">*{stroke-linejoin: round; stroke-linecap: butt}</style>
 </defs>
 <g id="figure_1">
  <g id="patch_1">
   <path d="M 0 345.6 
L 460.8 345.6 
L 460.8 0 
L 0 0 
z
" style="fill: #ffffff"/>
  </g>
  <g id="axes_1">
   <g id="patch_2">
    <path d="M 57.6 307.584 
L 414.72 307.584 
L 414.72 41.472 
L 57.6 41.472 
z
" style="fill: #ffffff"/>
   </g>
   <g id="PathCollection_1">
    <defs>
     <path id="maa6bf7672b" d="M 0 5.91608 
C 1.568963 5.91608 3.073876 5.292724 4.1833 4.1833 
C 5.292724 3.073876 5.91608 1.568963 5.91608 0 
C 5.91608 -1.568963 5.292724 -3.073876 4.1833 -4.1833 
C 3.073876 -5.292724 1.568963 -5.91608 0 -5.91608 
C -1.568963 -5.91608 -3.073876 -5.292724 -4.1833 -4.1833 
C -5.292724 -3.073876 -5.91608 -1.568963 -5.91608 0 
C -5.91608 1.568963 -5.292724 3.073876 -4.1833 4.1833 
C -3.073876 5.292724 -1.568963 5.91608 0 5.91608 
z
" style="stroke: #808080"/>
    </defs>
    <g clip-path="url(#p94991cc76d)">
     <use xlink:href="#maa6bf7672b" x="284.451515" y="164.532157" style="fill: #808080; stroke: #808080"/>
    </g>
   </g>
   <g id="PathCollection_2">
    <g clip-path="url(#p94991cc76d)">
     <use xlink:href="#maa6bf7672b" x="254.328553" y="181.299706" style="fill: #808080; stroke: #808080"/>
    </g>
   </g>
   <g id="PathCollection_3">
    <g clip-path="url(#p94991cc76d)">
     <use xlink:href="#maa6bf7672b" x="270.852507" y="207.918988" style="fill: #808080; stroke: #808080"/>
    </g>
   </g>
   <g id="PathCollection_4">
    <g clip-path="url(#p94991cc76d)">
     <use xlink:href="#maa6bf7672b" x="155.490405" y="176.912254" style="fill: #808080; stroke: #808080"/>
    </g>
   </g>
   <g id="PathCollection_5">
    <g clip-path="url(#p94991cc76d)">
     <use xlink:href="#maa6bf7672b" x="132.875292" y="210.280744" style="fill: #808080; stroke: #808080"/>
    </g>
   </g>
   <g id="PathCollection_6">
    <g clip-path="url(#p94991cc76d)">
     <use xlink:href="#maa6bf7672b" x="108.297869" y="175.195313" style="fill: #808080; stroke: #808080"/>
    </g>
   </g>
   <g id="PathCollection_7">
    <g clip-path="url(#p94991cc76d)">
     <use xlink:href="#maa6bf7672b" x="73.832727" y="195.00603" style="fill: #808080; stroke: #808080"/>
    </g>
   </g>
   <g id="PathCollection_8">
    <g clip-path="url(#p94991cc76d)">
     <use xlink:href="#maa6bf7672b" x="85.301689" y="227.274022" style="fill: #808080; stroke: #808080"/>
    </g>
   </g>
   <g id="PathCollection_9">
    <g clip-path="url(#p94991cc76d)">
     <use xlink:href="#maa6bf7672b" x="193.176952" y="227.942673" style="fill: #808080; stroke: #808080"/>
    </g>
   </g>
   <g id="PathCollection_10">
    <g clip-path="url(#p94991cc76d)">
     <use xlink:href="#maa6bf7672b" x="252.323504" y="239.645494" style="fill: #808080; stroke: #808080"/>
    </g>
   </g>
   <g id="PathCollection_11">
    <g clip-path="url(#p94991cc76d)">
     <use xlink:href="#maa6bf7672b" x="381.699303" y="180.910046" style="fill: #808080; stroke: #808080"/>
    </g>
   </g>
   <g id="PathCollection_12">
    <g clip-path="url(#p94991cc76d)">
     <use xlink:href="#maa6bf7672b" x="349.4301" y="158.390691" style="fill: #808080; stroke: #808080"/>
    </g>
   </g>
   <g id="PathCollection_13">
    <g clip-path="url(#p94991cc76d)">
     <use xlink:href="#maa6bf7672b" x="385.821554" y="157.729406" style="fill: #808080; stroke: #808080"/>
    </g>
   </g>
   <g id="PathCollection_14">
    <g clip-path="url(#p94991cc76d)">
     <use xlink:href="#maa6bf7672b" x="398.487273" y="132.941584" style="fill: #808080; stroke: #808080"/>
    </g>
   </g>
   <g id="PathCollection_15">
    <g clip-path="url(#p94991cc76d)">
     <use xlink:href="#maa6bf7672b" x="376.90608" y="138.184469" style="fill: #808080; stroke: #808080"/>
    </g>
   </g>
   <g id="PathCollection_16">
    <g clip-path="url(#p94991cc76d)">
     <use xlink:href="#maa6bf7672b" x="395.535438" y="109.410506" style="fill: #808080; stroke: #808080"/>
    </g>
   </g>
   <g id="PathCollection_17">
    <g clip-path="url(#p94991cc76d)">
     <use xlink:href="#maa6bf7672b" x="105.211945" y="112.652701" style="fill: #808080; stroke: #808080"/>
    </g>
   </g>
   <g id="PathCollection_18">
    <g clip-path="url(#p94991cc76d)">
     <use xlink:href="#maa6bf7672b" x="136.30172" y="140.778248" style="fill: #808080; stroke: #808080"/>
    </g>
   </g>
   <g id="PathCollection_19">
    <g clip-path="url(#p94991cc76d)">
     <use xlink:href="#maa6bf7672b" x="177.531725" y="129.862762" style="fill: #808080; stroke: #808080"/>
    </g>
   </g>
   <g id="matplotlib.axis_1"/>
   <g id="matplotlib.axis_2"/>
   <g id="line2d_1">
    <path d="M 210.469861 130.474555 
L 231.619903 142.741473 
L 244.205606 149.727755 
L 249.549776 152.486556 
L 267.757127 161.267797 
L 270.214576 162.737662 
L 272.603626 164.624764 
L 273.619292 165.792356 
L 274.463697 167.40152 
L 274.726312 168.387985 
L 274.75696 169.859626 
L 274.197663 171.663005 
L 273.652309 172.677685 
L 272.103653 174.66081 
L 270.105731 176.846305 
L 267.923525 179.100463 
L 266.548301 180.704168 
L 264.158989 184.749405 
L 263.59101 186.304178 
L 263.077554 190.014258 
L 263.21192 195.049973 
L 263.046512 197.441127 
L 262.559035 200.113179 
L 262.08333 201.934381 
L 260.939415 204.816038 
L 258.357138 208.681333 
L 256.351981 210.659656 
L 252.669721 213.318818 
L 249.821409 214.911737 
L 244.199432 217.265272 
L 242.044389 217.921316 
L 240.213584 218.358612 
L 237.080494 218.924355 
L 232.096342 219.347315 
L 227.590592 219.214265 
L 224.882893 218.893972 
L 220.681849 217.982812 
L 216.840692 216.685722 
L 214.229805 215.573836 
L 208.545479 212.578005 
L 198.657149 206.804301 
L 181.905259 196.935113 
L 178.01517 194.830777 
L 170.315229 191.137864 
L 165.6102 189.456092 
L 160.440514 188.723955 
L 157.144317 188.776834 
L 152.854683 189.486676 
L 149.12974 190.923526 
L 145.574414 193.059695 
L 143.466131 194.460833 
L 139.274362 196.785166 
L 136.979362 197.591294 
L 131.11016 198.211099 
L 125.228594 196.694867 
L 120.485221 193.915087 
L 118.719396 192.649236 
L 115.748556 190.139436 
L 112.519245 187.949798 
L 103.684729 185.62402 
L 99.528539 185.997324 
L 95.686264 187.044165 
L 93.026314 188.091204 
L 89.543728 189.934438 
L 86.996308 191.827986 
L 85.191088 193.591904 
L 83.068403 196.362544 
L 81.551579 199.257223 
L 80.69698 202.108035 
L 80.458306 203.589081 
L 80.440351 206.638843 
L 80.807078 208.824732 
L 81.317838 210.38332 
L 81.964213 211.66752 
L 84.272104 214.200471 
L 85.669822 215.022843 
L 87.538246 215.662838 
L 91.080418 216.11993 
L 97.445648 216.042848 
L 103.192256 216.070339 
L 108.246781 216.474619 
L 112.933461 217.036941 
L 116.434199 217.49548 
L 125.846362 219.137329 
L 130.763101 219.753845 
L 136.49044 219.823493 
L 141.708268 219.558313 
L 154.03471 218.526334 
L 169.686747 217.689359 
L 184.453011 217.028513 
L 187.169128 216.995891 
L 192.885155 217.335586 
L 197.938495 218.299952 
L 206.951048 220.972134 
L 215.484936 223.598805 
L 223.254197 225.712874 
L 229.780889 227.289547 
L 236.814658 228.537376 
L 244.721901 229.256885 
L 249.101901 229.352841 
L 252.024466 229.292268 
L 255.689232 229.102064 
L 260.466212 228.686339 
L 267.136148 227.831148 
L 272.618695 226.830739 
L 280.904042 224.716075 
L 283.734071 223.787552 
L 289.758355 221.668877 
L 314.508772 212.300184 
L 320.155083 210.049511 
L 330.266104 205.568686 
L 339.870509 200.835901 
L 347.694225 196.787571 
L 360.265918 189.710986 
L 363.248398 187.802245 
L 366.847789 185.145977 
L 368.114626 184.00239 
L 369.392775 182.588757 
L 370.620085 180.907248 
L 371.525786 178.925833 
L 371.818654 177.214728 
L 371.54157 175.813919 
L 370.835214 174.594041 
L 369.775219 173.345027 
L 368.896154 172.525286 
L 363.58421 168.313391 
L 362.790184 167.552907 
L 361.7538 166.386039 
L 360.68006 164.743399 
L 360.162328 163.579161 
L 359.702144 161.686929 
L 359.638743 160.46534 
L 359.746867 159.403702 
L 360.409486 156.995185 
L 361.895728 154.412709 
L 362.835431 153.405001 
L 363.621696 152.755271 
L 365.675785 151.584193 
L 369.070241 150.781156 
L 377.078373 150.231855 
L 380.339845 149.184553 
L 382.169662 148.125019 
L 384.204941 146.415294 
L 385.221002 145.218238 
L 386.463242 143.370268 
L 387.264173 141.952557 
L 387.974278 140.309851 
L 388.640515 138.00492 
L 388.785009 136.796814 
L 388.420452 134.673076 
L 387.163414 133.721337 
L 386.278101 133.316662 
L 384.815076 131.812071 
L 384.733851 130.674074 
L 385.359574 127.208983 
L 386.30375 123.359407 
L 387.70561 118.954546 
L 388.013407 117.07698 
L 387.717053 115.71833 
L 386.633447 114.387171 
L 385.868096 113.853852 
L 383.990268 112.944534 
L 382.061139 112.348143 
L 380.536488 112.048764 
L 376.459287 111.714068 
L 342.032644 111.879152 
L 271.925017 112.522774 
L 230.335764 112.502392 
L 201.715711 112.630644 
L 158.18148 113.341939 
L 148.762148 113.276764 
L 142.859667 112.94358 
L 131.404003 112.182045 
L 126.728899 111.951198 
L 123.534117 111.938308 
L 121.010965 112.150872 
L 119.237248 112.440979 
L 117.614339 112.891758 
L 116.531523 113.365161 
L 115.720923 113.912028 
L 114.902629 114.832528 
L 114.403049 115.970064 
L 114.279273 117.177446 
L 114.491311 118.497556 
L 115.123481 119.968934 
L 116.31863 121.524364 
L 117.175531 122.303395 
L 119.622391 124.064023 
L 122.727136 125.656481 
L 126.452935 127.808039 
L 128.866056 129.196483 
L 131.843604 130.710413 
L 139.271722 131.965213 
L 142.729776 131.201441 
L 145.884044 130.05417 
L 152.833563 126.513444 
L 160.760865 122.461497 
L 164.838723 121.033065 
L 167.986744 120.300862 
L 170.317653 119.929071 
L 175.11318 119.450471 
L 178.447918 119.313277 
L 183.334535 119.661193 
L 188.579394 120.764068 
L 191.680259 121.651419 
L 197.432721 123.628492 
L 200.697415 125.049425 
L 207.166363 128.536417 
L 207.166363 128.536417 
" clip-path="url(#p94991cc76d)" style="fill: none; stroke: #1f77b4; stroke-width: 1.5; stroke-linecap: square"/>
   </g>
   <g id="line2d_2">
    <path d="M 274.444747 167.233177 
L 284.451515 164.532157 
" clip-path="url(#p94991cc76d)" style="fill: none; stroke: #808080; stroke-width: 1.5; stroke-linecap: square"/>
   </g>
   <g id="line2d_3">
    <path d="M 263.919435 185.229835 
L 254.328553 181.299706 
" clip-path="url(#p94991cc76d)" style="fill: none; stroke: #808080; stroke-width: 1.5; stroke-linecap: square"/>
   </g>
   <g id="line2d_4">
    <path d="M 261.387702 203.694252 
L 270.852507 207.918988 
" clip-path="url(#p94991cc76d)" style="fill: none; stroke: #808080; stroke-width: 1.5; stroke-linecap: square"/>
   </g>
   <g id="line2d_5">
    <path d="M 157.395478 187.100562 
L 155.490405 176.912254 
" clip-path="url(#p94991cc76d)" style="fill: none; stroke: #808080; stroke-width: 1.5; stroke-linecap: square"/>
   </g>
   <g id="line2d_6">
    <path d="M 132.304173 199.931601 
L 132.875292 210.280744 
" clip-path="url(#p94991cc76d)" style="fill: none; stroke: #808080; stroke-width: 1.5; stroke-linecap: square"/>
   </g>
   <g id="line2d_7">
    <path d="M 106.277498 185.361386 
L 108.297869 175.195313 
" clip-path="url(#p94991cc76d)" style="fill: none; stroke: #808080; stroke-width: 1.5; stroke-linecap: square"/>
   </g>
   <g id="line2d_8">
    <path d="M 83.290749 199.245929 
L 73.832727 195.00603 
" clip-path="url(#p94991cc76d)" style="fill: none; stroke: #808080; stroke-width: 1.5; stroke-linecap: square"/>
   </g>
   <g id="line2d_9">
    <path d="M 87.363769 217.116327 
L 85.301689 227.274022 
" clip-path="url(#p94991cc76d)" style="fill: none; stroke: #808080; stroke-width: 1.5; stroke-linecap: square"/>
   </g>
   <g id="line2d_10">
    <path d="M 195.306152 217.798836 
L 193.176952 227.942673 
" clip-path="url(#p94991cc76d)" style="fill: none; stroke: #808080; stroke-width: 1.5; stroke-linecap: square"/>
   </g>
   <g id="line2d_11">
    <path d="M 251.845081 229.291652 
L 252.323504 239.645494 
" clip-path="url(#p94991cc76d)" style="fill: none; stroke: #808080; stroke-width: 1.5; stroke-linecap: square"/>
   </g>
   <g id="line2d_12">
    <path d="M 371.597458 178.589775 
L 381.699303 180.910046 
" clip-path="url(#p94991cc76d)" style="fill: none; stroke: #808080; stroke-width: 1.5; stroke-linecap: square"/>
   </g>
   <g id="line2d_13">
    <path d="M 359.676209 159.955358 
L 349.4301 158.390691 
" clip-path="url(#p94991cc76d)" style="fill: none; stroke: #808080; stroke-width: 1.5; stroke-linecap: square"/>
   </g>
   <g id="line2d_14">
    <path d="M 381.192821 148.455477 
L 385.821554 157.729406 
" clip-path="url(#p94991cc76d)" style="fill: none; stroke: #808080; stroke-width: 1.5; stroke-linecap: square"/>
   </g>
   <g id="line2d_15">
    <path d="M 388.46646 135.590026 
L 398.487273 132.941584 
" clip-path="url(#p94991cc76d)" style="fill: none; stroke: #808080; stroke-width: 1.5; stroke-linecap: square"/>
   </g>
   <g id="line2d_16">
    <path d="M 385.736552 132.757342 
L 376.90608 138.184469 
" clip-path="url(#p94991cc76d)" style="fill: none; stroke: #808080; stroke-width: 1.5; stroke-linecap: square"/>
   </g>
   <g id="line2d_17">
    <path d="M 386.432164 114.366446 
L 395.535438 109.410506 
" clip-path="url(#p94991cc76d)" style="fill: none; stroke: #808080; stroke-width: 1.5; stroke-linecap: square"/>
   </g>
   <g id="line2d_18">
    <path d="M 115.190022 115.45786 
L 105.211945 112.652701 
" clip-path="url(#p94991cc76d)" style="fill: none; stroke: #808080; stroke-width: 1.5; stroke-linecap: square"/>
   </g>
   <g id="line2d_19">
    <path d="M 136.579132 130.417072 
L 136.30172 140.778248 
" clip-path="url(#p94991cc76d)" style="fill: none; stroke: #808080; stroke-width: 1.5; stroke-linecap: square"/>
   </g>
   <g id="line2d_20">
    <path d="M 177.953341 119.506451 
L 177.531725 129.862762 
" clip-path="url(#p94991cc76d)" style="fill: none; stroke: #808080; stroke-width: 1.5; stroke-linecap: square"/>
   </g>
   <g id="patch_3">
    <path d="M 57.6 307.584 
L 57.6 41.472 
" style="fill: none; stroke: #000000; stroke-width: 0.8; stroke-linejoin: miter; stroke-linecap: square"/>
   </g>
   <g id="patch_4">
    <path d="M 414.72 307.584 
L 414.72 41.472 
" style="fill: none; stroke: #000000; stroke-width: 0.8; stroke-linejoin: miter; stroke-linecap: square"/>
   </g>
   <g id="patch_5">
    <path d="M 57.6 307.584 
L 414.72 307.584 
" style="fill: none; stroke: #000000; stroke-width: 0.8; stroke-linejoin: miter; stroke-linecap: square"/>
   </g>
   <g id="patch_6">
    <path d="M 57.6 41.472 
L 414.72 41.472 
" style="fill: none; stroke: #000000; stroke-width: 0.8; stroke-linejoin: miter; stroke-linecap: square"/>
   </g>
   <g id="text_1">
    <!-- 1 -->
    <g style="fill: #ffffff" transform="translate(281.801534 167.696906) scale(0.0833 -0.0833)">
     <defs>
      <path id="DejaVuSans-31" d="M 794 531 
L 1825 531 
L 1825 4091 
L 703 3866 
L 703 4441 
L 1819 4666 
L 2450 4666 
L 2450 531 
L 3481 531 
L 3481 0 
L 794 0 
L 794 531 
z
" transform="scale(0.015625)"/>
     </defs>
     <use xlink:href="#DejaVuSans-31"/>
    </g>
   </g>
   <g id="text_2">
    <!-- 2 -->
    <g style="fill: #ffffff" transform="translate(251.678572 184.464455) scale(0.0833 -0.0833)">
     <defs>
      <path id="DejaVuSans-32" d="M 1228 531 
L 3431 531 
L 3431 0 
L 469 0 
L 469 531 
Q 828 903 1448 1529 
Q 2069 2156 2228 2338 
Q 2531 2678 2651 2914 
Q 2772 3150 2772 3378 
Q 2772 3750 2511 3984 
Q 2250 4219 1831 4219 
Q 1534 4219 1204 4116 
Q 875 4013 500 3803 
L 500 4441 
Q 881 4594 1212 4672 
Q 1544 4750 1819 4750 
Q 2544 4750 2975 4387 
Q 3406 4025 3406 3419 
Q 3406 3131 3298 2873 
Q 3191 2616 2906 2266 
Q 2828 2175 2409 1742 
Q 1991 1309 1228 531 
z
" transform="scale(0.015625)"/>
     </defs>
     <use xlink:href="#DejaVuSans-32"/>
    </g>
   </g>
   <g id="text_3">
    <!-- 3 -->
    <g style="fill: #ffffff" transform="translate(268.202526 211.083737) scale(0.0833 -0.0833)">
     <defs>
      <path id="DejaVuSans-33" d="M 2597 2516 
Q 3050 2419 3304 2112 
Q 3559 1806 3559 1356 
Q 3559 666 3084 287 
Q 2609 -91 1734 -91 
Q 1441 -91 1130 -33 
Q 819 25 488 141 
L 488 750 
Q 750 597 1062 519 
Q 1375 441 1716 441 
Q 2309 441 2620 675 
Q 2931 909 2931 1356 
Q 2931 1769 2642 2001 
Q 2353 2234 1838 2234 
L 1294 2234 
L 1294 2753 
L 1863 2753 
Q 2328 2753 2575 2939 
Q 2822 3125 2822 3475 
Q 2822 3834 2567 4026 
Q 2313 4219 1838 4219 
Q 1578 4219 1281 4162 
Q 984 4106 628 3988 
L 628 4550 
Q 988 4650 1302 4700 
Q 1616 4750 1894 4750 
Q 2613 4750 3031 4423 
Q 3450 4097 3450 3541 
Q 3450 3153 3228 2886 
Q 3006 2619 2597 2516 
z
" transform="scale(0.015625)"/>
     </defs>
     <use xlink:href="#DejaVuSans-33"/>
    </g>
   </g>
   <g id="text_4">
    <!-- 4 -->
    <g style="fill: #ffffff" transform="translate(152.840424 180.077003) scale(0.0833 -0.0833)">
     <defs>
      <path id="DejaVuSans-34" d="M 2419 4116 
L 825 1625 
L 2419 1625 
L 2419 4116 
z
M 2253 4666 
L 3047 4666 
L 3047 1625 
L 3713 1625 
L 3713 1100 
L 3047 1100 
L 3047 0 
L 2419 0 
L 2419 1100 
L 313 1100 
L 313 1709 
L 2253 4666 
z
" transform="scale(0.015625)"/>
     </defs>
     <use xlink:href="#DejaVuSans-34"/>
    </g>
   </g>
   <g id="text_5">
    <!-- 5 -->
    <g style="fill: #ffffff" transform="translate(130.225311 213.445493) scale(0.0833 -0.0833)">
     <defs>
      <path id="DejaVuSans-35" d="M 691 4666 
L 3169 4666 
L 3169 4134 
L 1269 4134 
L 1269 2991 
Q 1406 3038 1543 3061 
Q 1681 3084 1819 3084 
Q 2600 3084 3056 2656 
Q 3513 2228 3513 1497 
Q 3513 744 3044 326 
Q 2575 -91 1722 -91 
Q 1428 -91 1123 -41 
Q 819 9 494 109 
L 494 744 
Q 775 591 1075 516 
Q 1375 441 1709 441 
Q 2250 441 2565 725 
Q 2881 1009 2881 1497 
Q 2881 1984 2565 2268 
Q 2250 2553 1709 2553 
Q 1456 2553 1204 2497 
Q 953 2441 691 2322 
L 691 4666 
z
" transform="scale(0.015625)"/>
     </defs>
     <use xlink:href="#DejaVuSans-35"/>
    </g>
   </g>
   <g id="text_6">
    <!-- 6 -->
    <g style="fill: #ffffff" transform="translate(105.647887 178.360063) scale(0.0833 -0.0833)">
     <defs>
      <path id="DejaVuSans-36" d="M 2113 2584 
Q 1688 2584 1439 2293 
Q 1191 2003 1191 1497 
Q 1191 994 1439 701 
Q 1688 409 2113 409 
Q 2538 409 2786 701 
Q 3034 994 3034 1497 
Q 3034 2003 2786 2293 
Q 2538 2584 2113 2584 
z
M 3366 4563 
L 3366 3988 
Q 3128 4100 2886 4159 
Q 2644 4219 2406 4219 
Q 1781 4219 1451 3797 
Q 1122 3375 1075 2522 
Q 1259 2794 1537 2939 
Q 1816 3084 2150 3084 
Q 2853 3084 3261 2657 
Q 3669 2231 3669 1497 
Q 3669 778 3244 343 
Q 2819 -91 2113 -91 
Q 1303 -91 875 529 
Q 447 1150 447 2328 
Q 447 3434 972 4092 
Q 1497 4750 2381 4750 
Q 2619 4750 2861 4703 
Q 3103 4656 3366 4563 
z
" transform="scale(0.015625)"/>
     </defs>
     <use xlink:href="#DejaVuSans-36"/>
    </g>
   </g>
   <g id="text_7">
    <!-- 7 -->
    <g style="fill: #ffffff" transform="translate(71.182746 198.170779) scale(0.0833 -0.0833)">
     <defs>
      <path id="DejaVuSans-37" d="M 525 4666 
L 3525 4666 
L 3525 4397 
L 1831 0 
L 1172 0 
L 2766 4134 
L 525 4134 
L 525 4666 
z
" transform="scale(0.015625)"/>
     </defs>
     <use xlink:href="#DejaVuSans-37"/>
    </g>
   </g>
   <g id="text_8">
    <!-- 8 -->
    <g style="fill: #ffffff" transform="translate(82.651708 230.438771) scale(0.0833 -0.0833)">
     <defs>
      <path id="DejaVuSans-38" d="M 2034 2216 
Q 1584 2216 1326 1975 
Q 1069 1734 1069 1313 
Q 1069 891 1326 650 
Q 1584 409 2034 409 
Q 2484 409 2743 651 
Q 3003 894 3003 1313 
Q 3003 1734 2745 1975 
Q 2488 2216 2034 2216 
z
M 1403 2484 
Q 997 2584 770 2862 
Q 544 3141 544 3541 
Q 544 4100 942 4425 
Q 1341 4750 2034 4750 
Q 2731 4750 3128 4425 
Q 3525 4100 3525 3541 
Q 3525 3141 3298 2862 
Q 3072 2584 2669 2484 
Q 3125 2378 3379 2068 
Q 3634 1759 3634 1313 
Q 3634 634 3220 271 
Q 2806 -91 2034 -91 
Q 1263 -91 848 271 
Q 434 634 434 1313 
Q 434 1759 690 2068 
Q 947 2378 1403 2484 
z
M 1172 3481 
Q 1172 3119 1398 2916 
Q 1625 2713 2034 2713 
Q 2441 2713 2670 2916 
Q 2900 3119 2900 3481 
Q 2900 3844 2670 4047 
Q 2441 4250 2034 4250 
Q 1625 4250 1398 4047 
Q 1172 3844 1172 3481 
z
" transform="scale(0.015625)"/>
     </defs>
     <use xlink:href="#DejaVuSans-38"/>
    </g>
   </g>
   <g id="text_9">
    <!-- 9 -->
    <g style="fill: #ffffff" transform="translate(190.526971 231.107423) scale(0.0833 -0.0833)">
     <defs>
      <path id="DejaVuSans-39" d="M 703 97 
L 703 672 
Q 941 559 1184 500 
Q 1428 441 1663 441 
Q 2288 441 2617 861 
Q 2947 1281 2994 2138 
Q 2813 1869 2534 1725 
Q 2256 1581 1919 1581 
Q 1219 1581 811 2004 
Q 403 2428 403 3163 
Q 403 3881 828 4315 
Q 1253 4750 1959 4750 
Q 2769 4750 3195 4129 
Q 3622 3509 3622 2328 
Q 3622 1225 3098 567 
Q 2575 -91 1691 -91 
Q 1453 -91 1209 -44 
Q 966 3 703 97 
z
M 1959 2075 
Q 2384 2075 2632 2365 
Q 2881 2656 2881 3163 
Q 2881 3666 2632 3958 
Q 2384 4250 1959 4250 
Q 1534 4250 1286 3958 
Q 1038 3666 1038 3163 
Q 1038 2656 1286 2365 
Q 1534 2075 1959 2075 
z
" transform="scale(0.015625)"/>
     </defs>
     <use xlink:href="#DejaVuSans-39"/>
    </g>
   </g>
   <g id="text_10">
    <!-- 10 -->
    <g style="fill: #ffffff" transform="translate(247.023541 242.810243) scale(0.0833 -0.0833)">
     <defs>
      <path id="DejaVuSans-30" d="M 2034 4250 
Q 1547 4250 1301 3770 
Q 1056 3291 1056 2328 
Q 1056 1369 1301 889 
Q 1547 409 2034 409 
Q 2525 409 2770 889 
Q 3016 1369 3016 2328 
Q 3016 3291 2770 3770 
Q 2525 4250 2034 4250 
z
M 2034 4750 
Q 2819 4750 3233 4129 
Q 3647 3509 3647 2328 
Q 3647 1150 3233 529 
Q 2819 -91 2034 -91 
Q 1250 -91 836 529 
Q 422 1150 422 2328 
Q 422 3509 836 4129 
Q 1250 4750 2034 4750 
z
" transform="scale(0.015625)"/>
     </defs>
     <use xlink:href="#DejaVuSans-31"/>
     <use xlink:href="#DejaVuSans-30" x="63.623047"/>
    </g>
   </g>
   <g id="text_11">
    <!-- 11 -->
    <g style="fill: #ffffff" transform="translate(376.399341 184.074795) scale(0.0833 -0.0833)">
     <use xlink:href="#DejaVuSans-31"/>
     <use xlink:href="#DejaVuSans-31" x="63.623047"/>
    </g>
   </g>
   <g id="text_12">
    <!-- 12 -->
    <g style="fill: #ffffff" transform="translate(344.130137 161.55544) scale(0.0833 -0.0833)">
     <use xlink:href="#DejaVuSans-31"/>
     <use xlink:href="#DejaVuSans-32" x="63.623047"/>
    </g>
   </g>
   <g id="text_13">
    <!-- 13 -->
    <g style="fill: #ffffff" transform="translate(380.521592 160.894155) scale(0.0833 -0.0833)">
     <use xlink:href="#DejaVuSans-31"/>
     <use xlink:href="#DejaVuSans-33" x="63.623047"/>
    </g>
   </g>
   <g id="text_14">
    <!-- 14 -->
    <g style="fill: #ffffff" transform="translate(393.18731 136.106333) scale(0.0833 -0.0833)">
     <use xlink:href="#DejaVuSans-31"/>
     <use xlink:href="#DejaVuSans-34" x="63.623047"/>
    </g>
   </g>
   <g id="text_15">
    <!-- 15 -->
    <g style="fill: #ffffff" transform="translate(371.606118 141.349218) scale(0.0833 -0.0833)">
     <use xlink:href="#DejaVuSans-31"/>
     <use xlink:href="#DejaVuSans-35" x="63.623047"/>
    </g>
   </g>
   <g id="text_16">
    <!-- 16 -->
    <g style="fill: #ffffff" transform="translate(390.235475 112.575256) scale(0.0833 -0.0833)">
     <use xlink:href="#DejaVuSans-31"/>
     <use xlink:href="#DejaVuSans-36" x="63.623047"/>
    </g>
   </g>
   <g id="text_17">
    <!-- 17 -->
    <g style="fill: #ffffff" transform="translate(99.911983 115.81745) scale(0.0833 -0.0833)">
     <use xlink:href="#DejaVuSans-31"/>
     <use xlink:href="#DejaVuSans-37" x="63.623047"/>
    </g>
   </g>
   <g id="text_18">
    <!-- 18 -->
    <g style="fill: #ffffff" transform="translate(131.001757 143.942997) scale(0.0833 -0.0833)">
     <use xlink:href="#DejaVuSans-31"/>
     <use xlink:href="#DejaVuSans-38" x="63.623047"/>
    </g>
   </g>
   <g id="text_19">
    <!-- 19 -->
    <g style="fill: #ffffff" transform="translate(172.231762 133.027511) scale(0.0833 -0.0833)">
     <use xlink:href="#DejaVuSans-31"/>
     <use xlink:href="#DejaVuSans-39" x="63.623047"/>
    </g>
   </g>
  </g>
 </g>
 <defs>
  <clipPath id="p94991cc76d">
   <rect x="57.6" y="41.472" width="357.12" height="266.112"/>
  </clipPath>
 </defs>
</svg>
