<?xml version="1.0" encoding="utf-8" standalone="no"?>
<!DOCTYPE svg PUBLIC "-//W3C//DTD SVG 1.1//EN"
  "http://www.w3.org/Graphics/SVG/1.1/DTD/svg11.dtd">
<svg xmlns:xlink="http://www.w3.org/1999/xlink" width="460.8pt" height="345.6pt" viewBox="0 0 460.8 345.6" xmlns="http://www.w3.org/2000/svg" version="1.1">
 <metadata>
  <rdf:RDF xmlns:dc="http://purl.org/dc/elements/1.1/" xmlns:cc="http://creativecommons.org/ns#" xmlns:rdf="http://www.w3.org/1999/02/22-rdf-syntax-ns#">
   <cc:Work>
    <dc:type rdf:resource="http://purl.org/dc/dcmitype/StillImage"/>
    <dc:date>2024-07-14T12:23:01.663116</dc:date>
    <dc:format>image/svg+xml</dc:format>
    <dc:creator>
     <cc:Agent>
      <dc:title>Matplotlib v3.9.0, https://matplotlib.org/</dc:title>
     </cc:Agent>
    </dc:creator>
   </cc:Work>
  </rdf:RDF>
 </metadata>
 <defs>
  <style type="text/css">*{stroke-linejoin: round; stroke-linecap: butt}</style>
 </defs>
 <g id="figure_1">
  <g id="patch_1">
   <path d="M 0 345.6 
L 460.8 345.6 
L 460.8 0 
L 0 0 
z
" style="fill: #ffffff"/>
  </g>
  <g id="axes_1">
   <g id="patch_2">
    <path d="M 57.6 307.584 
L 414.72 307.584 
L 414.72 41.472 
L 57.6 41.472 
z
" style="fill: #ffffff"/>
   </g>
   <g id="PathCollection_1">
    <defs>
     <path id="m9e3e526b17" d="M 0 5.91608 
C 1.568963 5.91608 3.073876 5.292724 4.1833 4.1833 
C 5.292724 3.073876 5.91608 1.568963 5.91608 0 
C 5.91608 -1.568963 5.292724 -3.073876 4.1833 -4.1833 
C 3.073876 -5.292724 1.568963 -5.91608 0 -5.91608 
C -1.568963 -5.91608 -3.073876 -5.292724 -4.1833 -4.1833 
C -5.292724 -3.073876 -5.91608 -1.568963 -5.91608 0 
C -5.91608 1.568963 -5.292724 3.073876 -4.1833 4.1833 
C -3.073876 5.292724 -1.568963 5.91608 0 5.91608 
z
" style="stroke: #808080"/>
    </defs>
    <g clip-path="url(#p479eea2027)">
     <use xlink:href="#m9e3e526b17" x="123.663785" y="226.786738" style="fill: #808080; stroke: #808080"/>
    </g>
   </g>
   <g id="PathCollection_2">
    <g clip-path="url(#p479eea2027)">
     <use xlink:href="#m9e3e526b17" x="134.918208" y="195.797365" style="fill: #808080; stroke: #808080"/>
    </g>
   </g>
   <g id="PathCollection_3">
    <g clip-path="url(#p479eea2027)">
     <use xlink:href="#m9e3e526b17" x="73.832727" y="162.39127" style="fill: #808080; stroke: #808080"/>
    </g>
   </g>
   <g id="PathCollection_4">
    <g clip-path="url(#p479eea2027)">
     <use xlink:href="#m9e3e526b17" x="203.656406" y="140.323129" style="fill: #808080; stroke: #808080"/>
    </g>
   </g>
   <g id="PathCollection_5">
    <g clip-path="url(#p479eea2027)">
     <use xlink:href="#m9e3e526b17" x="133.934334" y="169.736981" style="fill: #808080; stroke: #808080"/>
    </g>
   </g>
   <g id="PathCollection_6">
    <g clip-path="url(#p479eea2027)">
     <use xlink:href="#m9e3e526b17" x="161.631709" y="211.170134" style="fill: #808080; stroke: #808080"/>
    </g>
   </g>
   <g id="PathCollection_7">
    <g clip-path="url(#p479eea2027)">
     <use xlink:href="#m9e3e526b17" x="211.203533" y="206.283443" style="fill: #808080; stroke: #808080"/>
    </g>
   </g>
   <g id="PathCollection_8">
    <g clip-path="url(#p479eea2027)">
     <use xlink:href="#m9e3e526b17" x="196.815829" y="173.983817" style="fill: #808080; stroke: #808080"/>
    </g>
   </g>
   <g id="PathCollection_9">
    <g clip-path="url(#p479eea2027)">
     <use xlink:href="#m9e3e526b17" x="244.722307" y="122.269262" style="fill: #808080; stroke: #808080"/>
    </g>
   </g>
   <g id="PathCollection_10">
    <g clip-path="url(#p479eea2027)">
     <use xlink:href="#m9e3e526b17" x="375.324722" y="196.110426" style="fill: #808080; stroke: #808080"/>
    </g>
   </g>
   <g id="PathCollection_11">
    <g clip-path="url(#p479eea2027)">
     <use xlink:href="#m9e3e526b17" x="348.231948" y="173.009281" style="fill: #808080; stroke: #808080"/>
    </g>
   </g>
   <g id="PathCollection_12">
    <g clip-path="url(#p479eea2027)">
     <use xlink:href="#m9e3e526b17" x="324.484578" y="145.125418" style="fill: #808080; stroke: #808080"/>
    </g>
   </g>
   <g id="PathCollection_13">
    <g clip-path="url(#p479eea2027)">
     <use xlink:href="#m9e3e526b17" x="398.487273" y="140.144418" style="fill: #808080; stroke: #808080"/>
    </g>
   </g>
   <g id="PathCollection_14">
    <g clip-path="url(#p479eea2027)">
     <use xlink:href="#m9e3e526b17" x="395.211339" y="223.693037" style="fill: #808080; stroke: #808080"/>
    </g>
   </g>
   <g id="matplotlib.axis_1"/>
   <g id="matplotlib.axis_2"/>
   <g id="line2d_1">
    <path d="M 314.515557 219.726984 
L 256.20205 220.335954 
L 234.992191 220.195633 
L 185.898724 219.546754 
L 175.025789 219.95312 
L 154.367362 221.297084 
L 147.917699 221.443286 
L 141.966137 221.128527 
L 137.840998 220.53512 
L 135.596301 219.957965 
L 133.392291 219.189398 
L 130.716761 217.737099 
L 129.424574 216.678869 
L 128.194418 215.250375 
L 127.341305 213.85201 
L 126.607246 212.128845 
L 125.723378 207.97312 
L 125.306021 204.916854 
L 124.510076 200.896519 
L 122.738503 197.152286 
L 120.95846 195.173447 
L 116.562685 192.088453 
L 112.211916 190.046668 
L 104.948511 187.119037 
L 101.539236 185.510775 
L 98.171648 183.627957 
L 95.469223 181.75315 
L 93.861021 180.377673 
L 90.780237 176.988681 
L 88.444986 173.308023 
L 86.932405 169.835572 
L 86.102097 167.074978 
L 85.277713 161.698194 
L 85.607036 155.599682 
L 87.292578 150.022847 
L 90.787978 144.480604 
L 93.611289 141.629686 
L 96.271857 139.544414 
L 98.812371 137.867087 
L 102.688218 135.790056 
L 105.492501 134.5189 
L 108.340246 133.357012 
L 111.584376 132.212691 
L 115.558475 131.006799 
L 119.619496 130.019442 
L 125.849078 129.026221 
L 128.321324 128.768145 
L 132.233163 128.482632 
L 146.665013 127.882452 
L 156.904687 127.474856 
L 162.541235 127.389224 
L 170.145148 127.53838 
L 176.020346 127.820236 
L 180.107803 128.355619 
L 184.74014 129.857074 
L 188.179085 132.188523 
L 189.649894 133.818214 
L 190.591931 135.268824 
L 191.593537 137.615693 
L 192.127172 140.04648 
L 192.197383 143.24569 
L 191.835989 145.102785 
L 191.201811 147.302018 
L 190.568863 148.867989 
L 189.122344 151.594762 
L 187.795107 153.446621 
L 186.556022 154.883754 
L 185.526918 155.882042 
L 182.588789 158.175062 
L 180.121865 159.584613 
L 178.160823 160.418155 
L 174.219628 161.547683 
L 167.975711 162.137738 
L 162.016367 161.938025 
L 137.755707 160.699101 
L 132.515544 160.802301 
L 127.997338 161.509092 
L 126.88054 161.821874 
L 124.301573 162.974206 
L 123.101401 163.836102 
L 121.361212 165.983633 
L 120.482147 168.864366 
L 120.647521 171.066832 
L 120.812581 171.702096 
L 121.947575 174.127333 
L 122.714766 175.224017 
L 123.86378 176.485219 
L 126.02287 178.327894 
L 128.345476 179.871894 
L 132.755042 182.342968 
L 138.163125 185.29303 
L 142.615151 187.956517 
L 153.517781 195.175409 
L 156.682398 196.915055 
L 159.201422 198.084013 
L 162.384609 199.344128 
L 165.099051 200.22119 
L 171.095619 201.579158 
L 174.014263 201.966132 
L 180.693791 202.38561 
L 190.580311 202.61983 
L 192.851359 202.602406 
L 198.87797 201.466013 
L 200.036455 200.878674 
L 202.517171 198.855203 
L 204.502476 195.476056 
L 205.006042 193.499136 
L 205.248612 191.416724 
L 205.359484 187.522452 
L 205.592727 184.621147 
L 207.006488 179.303304 
L 207.598749 177.928745 
L 209.191217 175.29968 
L 216.797481 165.162926 
L 220.05177 160.519718 
L 221.872558 157.522393 
L 228.47876 145.972711 
L 230.590672 142.703833 
L 231.37034 141.702541 
L 236.325991 137.604356 
L 239.968738 135.761197 
L 244.966934 133.972743 
L 247.224649 133.469008 
L 252.123676 133.00988 
L 256.033283 133.440773 
L 261.655353 135.619408 
L 263.173858 136.475669 
L 299.4372 159.288197 
L 304.773697 162.339745 
L 314.211527 167.430073 
L 335.321869 179.019339 
L 341.290397 182.705378 
L 352.094316 190.153363 
L 358.849292 192.806208 
L 361.808851 192.451654 
L 364.067797 191.314658 
L 366.275958 189.083209 
L 367.963359 186.007517 
L 368.354423 184.873609 
L 368.887345 182.052675 
L 368.89281 180.536716 
L 368.711642 179.11446 
L 368.036838 176.720353 
L 366.972429 174.276776 
L 366.240144 172.937437 
L 363.696915 169.529333 
L 360.781191 166.775605 
L 356.038271 163.833554 
L 351.214751 161.741298 
L 347.173216 160.048661 
L 343.413249 157.815693 
L 340.607565 155.485474 
L 337.765659 151.913854 
L 336.622883 149.603665 
L 336.088018 147.806139 
L 335.919869 145.302993 
L 336.614303 142.349672 
L 337.608959 140.493808 
L 339.147951 138.586929 
L 340.214736 137.646666 
L 342.490248 136.196429 
L 344.869019 135.201604 
L 347.281467 134.597385 
L 349.882321 134.283288 
L 351.564571 134.290756 
L 354.848699 134.605371 
L 357.78946 135.280464 
L 363.899844 137.279476 
L 368.939124 138.984131 
L 378.467797 141.843095 
L 381.576622 142.904016 
L 385.17831 144.469818 
L 387.008052 145.508936 
L 390.820808 148.670065 
L 392.975663 151.395438 
L 394.690442 154.544092 
L 396.799231 161.094154 
L 397.485679 165.708066 
L 397.703069 168.371723 
L 397.811191 171.078841 
L 397.924286 185.057053 
L 397.931321 191.377105 
L 397.729292 195.935538 
L 395.982577 204.466925 
L 395.35641 206.000994 
L 392.896123 210.046077 
L 390.33581 212.836196 
L 388.235143 214.640359 
L 383.854415 217.210253 
L 380.97577 218.282215 
L 378.646468 218.887436 
L 374.82733 219.442728 
L 371.703483 219.628989 
L 364.103347 219.697367 
L 343.435822 219.672321 
L 322.927806 219.681181 
L 322.927806 219.681181 
" clip-path="url(#p479eea2027)" style="fill: none; stroke: #1f77b4; stroke-width: 1.5; stroke-linecap: square"/>
   </g>
   <g id="line2d_2">
    <path d="M 130.425162 217.446053 
L 123.663785 226.786738 
" clip-path="url(#p479eea2027)" style="fill: none; stroke: #808080; stroke-width: 1.5; stroke-linecap: square"/>
   </g>
   <g id="line2d_3">
    <path d="M 124.264868 200.209956 
L 134.918208 195.797365 
" clip-path="url(#p479eea2027)" style="fill: none; stroke: #808080; stroke-width: 1.5; stroke-linecap: square"/>
   </g>
   <g id="line2d_4">
    <path d="M 85.341507 161.675304 
L 73.832727 162.39127 
" clip-path="url(#p479eea2027)" style="fill: none; stroke: #808080; stroke-width: 1.5; stroke-linecap: square"/>
   </g>
   <g id="line2d_5">
    <path d="M 192.142798 140.956719 
L 203.656406 140.323129 
" clip-path="url(#p479eea2027)" style="fill: none; stroke: #808080; stroke-width: 1.5; stroke-linecap: square"/>
   </g>
   <g id="line2d_6">
    <path d="M 127.845602 179.529425 
L 133.934334 169.736981 
" clip-path="url(#p479eea2027)" style="fill: none; stroke: #808080; stroke-width: 1.5; stroke-linecap: square"/>
   </g>
   <g id="line2d_7">
    <path d="M 164.889094 200.108757 
L 161.631709 211.170134 
" clip-path="url(#p479eea2027)" style="fill: none; stroke: #808080; stroke-width: 1.5; stroke-linecap: square"/>
   </g>
   <g id="line2d_8">
    <path d="M 202.758749 198.431676 
L 211.203533 206.283443 
" clip-path="url(#p479eea2027)" style="fill: none; stroke: #808080; stroke-width: 1.5; stroke-linecap: square"/>
   </g>
   <g id="line2d_9">
    <path d="M 207.519167 178.27371 
L 196.815829 173.983817 
" clip-path="url(#p479eea2027)" style="fill: none; stroke: #808080; stroke-width: 1.5; stroke-linecap: square"/>
   </g>
   <g id="line2d_10">
    <path d="M 246.99394 133.574318 
L 244.722307 122.269262 
" clip-path="url(#p479eea2027)" style="fill: none; stroke: #808080; stroke-width: 1.5; stroke-linecap: square"/>
   </g>
   <g id="line2d_11">
    <path d="M 366.427477 188.775329 
L 375.324722 196.110426 
" clip-path="url(#p479eea2027)" style="fill: none; stroke: #808080; stroke-width: 1.5; stroke-linecap: square"/>
   </g>
   <g id="line2d_12">
    <path d="M 352.647667 162.357237 
L 348.231948 173.009281 
" clip-path="url(#p479eea2027)" style="fill: none; stroke: #808080; stroke-width: 1.5; stroke-linecap: square"/>
   </g>
   <g id="line2d_13">
    <path d="M 335.974262 146.101011 
L 324.484578 145.125418 
" clip-path="url(#p479eea2027)" style="fill: none; stroke: #808080; stroke-width: 1.5; stroke-linecap: square"/>
   </g>
   <g id="line2d_14">
    <path d="M 390.625632 148.580011 
L 398.487273 140.144418 
" clip-path="url(#p479eea2027)" style="fill: none; stroke: #808080; stroke-width: 1.5; stroke-linecap: square"/>
   </g>
   <g id="line2d_15">
    <path d="M 387.902273 214.774395 
L 395.211339 223.693037 
" clip-path="url(#p479eea2027)" style="fill: none; stroke: #808080; stroke-width: 1.5; stroke-linecap: square"/>
   </g>
   <g id="patch_3">
    <path d="M 57.6 307.584 
L 57.6 41.472 
" style="fill: none; stroke: #000000; stroke-width: 0.8; stroke-linejoin: miter; stroke-linecap: square"/>
   </g>
   <g id="patch_4">
    <path d="M 414.72 307.584 
L 414.72 41.472 
" style="fill: none; stroke: #000000; stroke-width: 0.8; stroke-linejoin: miter; stroke-linecap: square"/>
   </g>
   <g id="patch_5">
    <path d="M 57.6 307.584 
L 414.72 307.584 
" style="fill: none; stroke: #000000; stroke-width: 0.8; stroke-linejoin: miter; stroke-linecap: square"/>
   </g>
   <g id="patch_6">
    <path d="M 57.6 41.472 
L 414.72 41.472 
" style="fill: none; stroke: #000000; stroke-width: 0.8; stroke-linejoin: miter; stroke-linecap: square"/>
   </g>
   <g id="text_1">
    <!-- 1 -->
    <g style="fill: #ffffff" transform="translate(121.013804 229.951487) scale(0.0833 -0.0833)">
     <defs>
      <path id="DejaVuSans-31" d="M 794 531 
L 1825 531 
L 1825 4091 
L 703 3866 
L 703 4441 
L 1819 4666 
L 2450 4666 
L 2450 531 
L 3481 531 
L 3481 0 
L 794 0 
L 794 531 
z
" transform="scale(0.015625)"/>
     </defs>
     <use xlink:href="#DejaVuSans-31"/>
    </g>
   </g>
   <g id="text_2">
    <!-- 2 -->
    <g style="fill: #ffffff" transform="translate(132.268227 198.962114) scale(0.0833 -0.0833)">
     <defs>
      <path id="DejaVuSans-32" d="M 1228 531 
L 3431 531 
L 3431 0 
L 469 0 
L 469 531 
Q 828 903 1448 1529 
Q 2069 2156 2228 2338 
Q 2531 2678 2651 2914 
Q 2772 3150 2772 3378 
Q 2772 3750 2511 3984 
Q 2250 4219 1831 4219 
Q 1534 4219 1204 4116 
Q 875 4013 500 3803 
L 500 4441 
Q 881 4594 1212 4672 
Q 1544 4750 1819 4750 
Q 2544 4750 2975 4387 
Q 3406 4025 3406 3419 
Q 3406 3131 3298 2873 
Q 3191 2616 2906 2266 
Q 2828 2175 2409 1742 
Q 1991 1309 1228 531 
z
" transform="scale(0.015625)"/>
     </defs>
     <use xlink:href="#DejaVuSans-32"/>
    </g>
   </g>
   <g id="text_3">
    <!-- 3 -->
    <g style="fill: #ffffff" transform="translate(71.182746 165.556019) scale(0.0833 -0.0833)">
     <defs>
      <path id="DejaVuSans-33" d="M 2597 2516 
Q 3050 2419 3304 2112 
Q 3559 1806 3559 1356 
Q 3559 666 3084 287 
Q 2609 -91 1734 -91 
Q 1441 -91 1130 -33 
Q 819 25 488 141 
L 488 750 
Q 750 597 1062 519 
Q 1375 441 1716 441 
Q 2309 441 2620 675 
Q 2931 909 2931 1356 
Q 2931 1769 2642 2001 
Q 2353 2234 1838 2234 
L 1294 2234 
L 1294 2753 
L 1863 2753 
Q 2328 2753 2575 2939 
Q 2822 3125 2822 3475 
Q 2822 3834 2567 4026 
Q 2313 4219 1838 4219 
Q 1578 4219 1281 4162 
Q 984 4106 628 3988 
L 628 4550 
Q 988 4650 1302 4700 
Q 1616 4750 1894 4750 
Q 2613 4750 3031 4423 
Q 3450 4097 3450 3541 
Q 3450 3153 3228 2886 
Q 3006 2619 2597 2516 
z
" transform="scale(0.015625)"/>
     </defs>
     <use xlink:href="#DejaVuSans-33"/>
    </g>
   </g>
   <g id="text_4">
    <!-- 4 -->
    <g style="fill: #ffffff" transform="translate(201.006425 143.487879) scale(0.0833 -0.0833)">
     <defs>
      <path id="DejaVuSans-34" d="M 2419 4116 
L 825 1625 
L 2419 1625 
L 2419 4116 
z
M 2253 4666 
L 3047 4666 
L 3047 1625 
L 3713 1625 
L 3713 1100 
L 3047 1100 
L 3047 0 
L 2419 0 
L 2419 1100 
L 313 1100 
L 313 1709 
L 2253 4666 
z
" transform="scale(0.015625)"/>
     </defs>
     <use xlink:href="#DejaVuSans-34"/>
    </g>
   </g>
   <g id="text_5">
    <!-- 5 -->
    <g style="fill: #ffffff" transform="translate(131.284353 172.90173) scale(0.0833 -0.0833)">
     <defs>
      <path id="DejaVuSans-35" d="M 691 4666 
L 3169 4666 
L 3169 4134 
L 1269 4134 
L 1269 2991 
Q 1406 3038 1543 3061 
Q 1681 3084 1819 3084 
Q 2600 3084 3056 2656 
Q 3513 2228 3513 1497 
Q 3513 744 3044 326 
Q 2575 -91 1722 -91 
Q 1428 -91 1123 -41 
Q 819 9 494 109 
L 494 744 
Q 775 591 1075 516 
Q 1375 441 1709 441 
Q 2250 441 2565 725 
Q 2881 1009 2881 1497 
Q 2881 1984 2565 2268 
Q 2250 2553 1709 2553 
Q 1456 2553 1204 2497 
Q 953 2441 691 2322 
L 691 4666 
z
" transform="scale(0.015625)"/>
     </defs>
     <use xlink:href="#DejaVuSans-35"/>
    </g>
   </g>
   <g id="text_6">
    <!-- 6 -->
    <g style="fill: #ffffff" transform="translate(158.981728 214.334883) scale(0.0833 -0.0833)">
     <defs>
      <path id="DejaVuSans-36" d="M 2113 2584 
Q 1688 2584 1439 2293 
Q 1191 2003 1191 1497 
Q 1191 994 1439 701 
Q 1688 409 2113 409 
Q 2538 409 2786 701 
Q 3034 994 3034 1497 
Q 3034 2003 2786 2293 
Q 2538 2584 2113 2584 
z
M 3366 4563 
L 3366 3988 
Q 3128 4100 2886 4159 
Q 2644 4219 2406 4219 
Q 1781 4219 1451 3797 
Q 1122 3375 1075 2522 
Q 1259 2794 1537 2939 
Q 1816 3084 2150 3084 
Q 2853 3084 3261 2657 
Q 3669 2231 3669 1497 
Q 3669 778 3244 343 
Q 2819 -91 2113 -91 
Q 1303 -91 875 529 
Q 447 1150 447 2328 
Q 447 3434 972 4092 
Q 1497 4750 2381 4750 
Q 2619 4750 2861 4703 
Q 3103 4656 3366 4563 
z
" transform="scale(0.015625)"/>
     </defs>
     <use xlink:href="#DejaVuSans-36"/>
    </g>
   </g>
   <g id="text_7">
    <!-- 7 -->
    <g style="fill: #ffffff" transform="translate(208.553552 209.448192) scale(0.0833 -0.0833)">
     <defs>
      <path id="DejaVuSans-37" d="M 525 4666 
L 3525 4666 
L 3525 4397 
L 1831 0 
L 1172 0 
L 2766 4134 
L 525 4134 
L 525 4666 
z
" transform="scale(0.015625)"/>
     </defs>
     <use xlink:href="#DejaVuSans-37"/>
    </g>
   </g>
   <g id="text_8">
    <!-- 8 -->
    <g style="fill: #ffffff" transform="translate(194.165848 177.148566) scale(0.0833 -0.0833)">
     <defs>
      <path id="DejaVuSans-38" d="M 2034 2216 
Q 1584 2216 1326 1975 
Q 1069 1734 1069 1313 
Q 1069 891 1326 650 
Q 1584 409 2034 409 
Q 2484 409 2743 651 
Q 3003 894 3003 1313 
Q 3003 1734 2745 1975 
Q 2488 2216 2034 2216 
z
M 1403 2484 
Q 997 2584 770 2862 
Q 544 3141 544 3541 
Q 544 4100 942 4425 
Q 1341 4750 2034 4750 
Q 2731 4750 3128 4425 
Q 3525 4100 3525 3541 
Q 3525 3141 3298 2862 
Q 3072 2584 2669 2484 
Q 3125 2378 3379 2068 
Q 3634 1759 3634 1313 
Q 3634 634 3220 271 
Q 2806 -91 2034 -91 
Q 1263 -91 848 271 
Q 434 634 434 1313 
Q 434 1759 690 2068 
Q 947 2378 1403 2484 
z
M 1172 3481 
Q 1172 3119 1398 2916 
Q 1625 2713 2034 2713 
Q 2441 2713 2670 2916 
Q 2900 3119 2900 3481 
Q 2900 3844 2670 4047 
Q 2441 4250 2034 4250 
Q 1625 4250 1398 4047 
Q 1172 3844 1172 3481 
z
" transform="scale(0.015625)"/>
     </defs>
     <use xlink:href="#DejaVuSans-38"/>
    </g>
   </g>
   <g id="text_9">
    <!-- 9 -->
    <g style="fill: #ffffff" transform="translate(242.072325 125.434011) scale(0.0833 -0.0833)">
     <defs>
      <path id="DejaVuSans-39" d="M 703 97 
L 703 672 
Q 941 559 1184 500 
Q 1428 441 1663 441 
Q 2288 441 2617 861 
Q 2947 1281 2994 2138 
Q 2813 1869 2534 1725 
Q 2256 1581 1919 1581 
Q 1219 1581 811 2004 
Q 403 2428 403 3163 
Q 403 3881 828 4315 
Q 1253 4750 1959 4750 
Q 2769 4750 3195 4129 
Q 3622 3509 3622 2328 
Q 3622 1225 3098 567 
Q 2575 -91 1691 -91 
Q 1453 -91 1209 -44 
Q 966 3 703 97 
z
M 1959 2075 
Q 2384 2075 2632 2365 
Q 2881 2656 2881 3163 
Q 2881 3666 2632 3958 
Q 2384 4250 1959 4250 
Q 1534 4250 1286 3958 
Q 1038 3666 1038 3163 
Q 1038 2656 1286 2365 
Q 1534 2075 1959 2075 
z
" transform="scale(0.015625)"/>
     </defs>
     <use xlink:href="#DejaVuSans-39"/>
    </g>
   </g>
   <g id="text_10">
    <!-- 10 -->
    <g style="fill: #ffffff" transform="translate(370.02476 199.275175) scale(0.0833 -0.0833)">
     <defs>
      <path id="DejaVuSans-30" d="M 2034 4250 
Q 1547 4250 1301 3770 
Q 1056 3291 1056 2328 
Q 1056 1369 1301 889 
Q 1547 409 2034 409 
Q 2525 409 2770 889 
Q 3016 1369 3016 2328 
Q 3016 3291 2770 3770 
Q 2525 4250 2034 4250 
z
M 2034 4750 
Q 2819 4750 3233 4129 
Q 3647 3509 3647 2328 
Q 3647 1150 3233 529 
Q 2819 -91 2034 -91 
Q 1250 -91 836 529 
Q 422 1150 422 2328 
Q 422 3509 836 4129 
Q 1250 4750 2034 4750 
z
" transform="scale(0.015625)"/>
     </defs>
     <use xlink:href="#DejaVuSans-31"/>
     <use xlink:href="#DejaVuSans-30" x="63.623047"/>
    </g>
   </g>
   <g id="text_11">
    <!-- 11 -->
    <g style="fill: #ffffff" transform="translate(342.931985 176.17403) scale(0.0833 -0.0833)">
     <use xlink:href="#DejaVuSans-31"/>
     <use xlink:href="#DejaVuSans-31" x="63.623047"/>
    </g>
   </g>
   <g id="text_12">
    <!-- 12 -->
    <g style="fill: #ffffff" transform="translate(319.184615 148.290167) scale(0.0833 -0.0833)">
     <use xlink:href="#DejaVuSans-31"/>
     <use xlink:href="#DejaVuSans-32" x="63.623047"/>
    </g>
   </g>
   <g id="text_13">
    <!-- 13 -->
    <g style="fill: #ffffff" transform="translate(393.18731 143.309168) scale(0.0833 -0.0833)">
     <use xlink:href="#DejaVuSans-31"/>
     <use xlink:href="#DejaVuSans-33" x="63.623047"/>
    </g>
   </g>
   <g id="text_14">
    <!-- 14 -->
    <g style="fill: #ffffff" transform="translate(389.911377 226.857786) scale(0.0833 -0.0833)">
     <use xlink:href="#DejaVuSans-31"/>
     <use xlink:href="#DejaVuSans-34" x="63.623047"/>
    </g>
   </g>
  </g>
 </g>
 <defs>
  <clipPath id="p479eea2027">
   <rect x="57.6" y="41.472" width="357.12" height="266.112"/>
  </clipPath>
 </defs>
</svg>
