<?xml version="1.0" encoding="utf-8" standalone="no"?>
<!DOCTYPE svg PUBLIC "-//W3C//DTD SVG 1.1//EN"
  "http://www.w3.org/Graphics/SVG/1.1/DTD/svg11.dtd">
<svg xmlns:xlink="http://www.w3.org/1999/xlink" width="460.8pt" height="345.6pt" viewBox="0 0 460.8 345.6" xmlns="http://www.w3.org/2000/svg" version="1.1">
 <metadata>
  <rdf:RDF xmlns:dc="http://purl.org/dc/elements/1.1/" xmlns:cc="http://creativecommons.org/ns#" xmlns:rdf="http://www.w3.org/1999/02/22-rdf-syntax-ns#">
   <cc:Work>
    <dc:type rdf:resource="http://purl.org/dc/dcmitype/StillImage"/>
    <dc:date>2024-07-14T12:46:02.773899</dc:date>
    <dc:format>image/svg+xml</dc:format>
    <dc:creator>
     <cc:Agent>
      <dc:title>Matplotlib v3.9.0, https://matplotlib.org/</dc:title>
     </cc:Agent>
    </dc:creator>
   </cc:Work>
  </rdf:RDF>
 </metadata>
 <defs>
  <style type="text/css">*{stroke-linejoin: round; stroke-linecap: butt}</style>
 </defs>
 <g id="figure_1">
  <g id="patch_1">
   <path d="M 0 345.6 
L 460.8 345.6 
L 460.8 0 
L 0 0 
z
" style="fill: #ffffff"/>
  </g>
  <g id="axes_1">
   <g id="patch_2">
    <path d="M 57.6 307.584 
L 414.72 307.584 
L 414.72 41.472 
L 57.6 41.472 
z
" style="fill: #ffffff"/>
   </g>
   <g id="PathCollection_1">
    <defs>
     <path id="mec1e8af9e3" d="M 0 5.91608 
C 1.568963 5.91608 3.073876 5.292724 4.1833 4.1833 
C 5.292724 3.073876 5.91608 1.568963 5.91608 0 
C 5.91608 -1.568963 5.292724 -3.073876 4.1833 -4.1833 
C 3.073876 -5.292724 1.568963 -5.91608 0 -5.91608 
C -1.568963 -5.91608 -3.073876 -5.292724 -4.1833 -4.1833 
C -5.292724 -3.073876 -5.91608 -1.568963 -5.91608 0 
C -5.91608 1.568963 -5.292724 3.073876 -4.1833 4.1833 
C -3.073876 5.292724 -1.568963 5.91608 0 5.91608 
z
" style="stroke: #808080"/>
    </defs>
    <g clip-path="url(#p0024aba210)">
     <use xlink:href="#mec1e8af9e3" x="73.832727" y="272.964756" style="fill: #808080; stroke: #808080"/>
    </g>
   </g>
   <g id="PathCollection_2">
    <g clip-path="url(#p0024aba210)">
     <use xlink:href="#mec1e8af9e3" x="108.729766" y="249.28726" style="fill: #808080; stroke: #808080"/>
    </g>
   </g>
   <g id="PathCollection_3">
    <g clip-path="url(#p0024aba210)">
     <use xlink:href="#mec1e8af9e3" x="77.878" y="221.922995" style="fill: #808080; stroke: #808080"/>
    </g>
   </g>
   <g id="PathCollection_4">
    <g clip-path="url(#p0024aba210)">
     <use xlink:href="#mec1e8af9e3" x="115.209522" y="63.865326" style="fill: #808080; stroke: #808080"/>
    </g>
   </g>
   <g id="PathCollection_5">
    <g clip-path="url(#p0024aba210)">
     <use xlink:href="#mec1e8af9e3" x="162.353223" y="128.214911" style="fill: #808080; stroke: #808080"/>
    </g>
   </g>
   <g id="PathCollection_6">
    <g clip-path="url(#p0024aba210)">
     <use xlink:href="#mec1e8af9e3" x="197.958872" y="129.414811" style="fill: #808080; stroke: #808080"/>
    </g>
   </g>
   <g id="PathCollection_7">
    <g clip-path="url(#p0024aba210)">
     <use xlink:href="#mec1e8af9e3" x="175.543457" y="158.72841" style="fill: #808080; stroke: #808080"/>
    </g>
   </g>
   <g id="PathCollection_8">
    <g clip-path="url(#p0024aba210)">
     <use xlink:href="#mec1e8af9e3" x="244.607175" y="204.783933" style="fill: #808080; stroke: #808080"/>
    </g>
   </g>
   <g id="PathCollection_9">
    <g clip-path="url(#p0024aba210)">
     <use xlink:href="#mec1e8af9e3" x="139.878455" y="185.153269" style="fill: #808080; stroke: #808080"/>
    </g>
   </g>
   <g id="PathCollection_10">
    <g clip-path="url(#p0024aba210)">
     <use xlink:href="#mec1e8af9e3" x="114.502975" y="213.952346" style="fill: #808080; stroke: #808080"/>
    </g>
   </g>
   <g id="PathCollection_11">
    <g clip-path="url(#p0024aba210)">
     <use xlink:href="#mec1e8af9e3" x="325.367675" y="208.496501" style="fill: #808080; stroke: #808080"/>
    </g>
   </g>
   <g id="PathCollection_12">
    <g clip-path="url(#p0024aba210)">
     <use xlink:href="#mec1e8af9e3" x="239.658985" y="135.422009" style="fill: #808080; stroke: #808080"/>
    </g>
   </g>
   <g id="PathCollection_13">
    <g clip-path="url(#p0024aba210)">
     <use xlink:href="#mec1e8af9e3" x="279.615431" y="78.893713" style="fill: #808080; stroke: #808080"/>
    </g>
   </g>
   <g id="PathCollection_14">
    <g clip-path="url(#p0024aba210)">
     <use xlink:href="#mec1e8af9e3" x="398.487273" y="265.830056" style="fill: #808080; stroke: #808080"/>
    </g>
   </g>
   <g id="PathCollection_15">
    <g clip-path="url(#p0024aba210)">
     <use xlink:href="#mec1e8af9e3" x="372.55332" y="285.190674" style="fill: #808080; stroke: #808080"/>
    </g>
   </g>
   <g id="matplotlib.axis_1"/>
   <g id="matplotlib.axis_2"/>
   <g id="line2d_1">
    <path d="M 264.698025 271.990345 
L 242.382274 271.774182 
L 175.675143 271.423599 
L 140.071218 271.492799 
L 105.415883 271.68202 
L 95.556824 271.490297 
L 92.332221 271.245563 
L 89.503935 270.655173 
L 87.479858 269.704885 
L 86.667314 269.095154 
L 85.469378 267.682104 
L 84.937825 266.34788 
L 84.829296 265.432797 
L 84.901891 264.587961 
L 85.507738 262.933252 
L 86.206979 261.760242 
L 87.747171 259.817663 
L 93.574505 253.462821 
L 94.589133 251.819361 
L 95.626259 249.358339 
L 96.207179 246.989821 
L 96.433542 243.970054 
L 96.108524 240.510105 
L 94.972985 235.036519 
L 94.266783 232.355609 
L 93.466621 229.907698 
L 91.258264 223.680323 
L 90.202441 217.565847 
L 90.093184 212.975296 
L 90.194428 209.296267 
L 90.531585 204.332787 
L 91.502428 197.049995 
L 98.086216 157.53825 
L 102.008601 133.178755 
L 105.676053 108.828164 
L 108.636091 89.071117 
L 109.371427 86.008052 
L 110.705245 82.541223 
L 111.809382 80.537298 
L 112.832023 79.123277 
L 113.965538 77.960626 
L 115.412093 76.991238 
L 116.69533 76.461466 
L 119.589088 76.003074 
L 122.17102 76.117105 
L 125.722907 76.962992 
L 127.458547 77.693634 
L 130.616221 79.676355 
L 132.061967 80.876557 
L 134.496363 83.343972 
L 137.879995 87.411791 
L 142.778488 93.928088 
L 147.421726 99.713095 
L 156.970175 109.283068 
L 160.142092 111.67368 
L 163.255011 113.836633 
L 166.986887 116.182166 
L 173.261607 119.715114 
L 177.646838 122.497268 
L 179.933292 124.382792 
L 182.530439 127.12529 
L 184.27741 129.642235 
L 184.962812 130.99661 
L 186.253334 135.060949 
L 186.668185 138.900626 
L 186.820579 147.650125 
L 187.242876 152.433938 
L 187.739791 154.969012 
L 188.555087 157.850306 
L 189.838163 160.970508 
L 193.762574 167.367675 
L 195.544507 169.423962 
L 197.867137 171.614513 
L 201.902585 174.613076 
L 207.459935 178.068978 
L 214.87772 182.174592 
L 220.787523 185.490564 
L 225.387382 188.571515 
L 228.849517 191.232759 
L 231.26198 193.803036 
L 231.913877 194.928863 
L 232.388212 196.086415 
L 232.769477 197.502459 
L 232.845714 198.95468 
L 232.69842 199.853173 
L 231.880616 201.285565 
L 231.239159 201.920548 
L 230.41925 202.561762 
L 229.319807 203.238262 
L 227.46269 204.145414 
L 225.647657 204.795854 
L 224.710641 205.007245 
L 222.578117 205.336957 
L 219.032786 205.409715 
L 216.296115 205.250039 
L 210.733828 204.576453 
L 203.619696 203.318953 
L 177.003125 198.35232 
L 166.098198 196.716712 
L 159.362336 196.058585 
L 154.327718 195.877058 
L 150.734071 196.028075 
L 147.862245 196.383604 
L 142.955741 197.67801 
L 140.210814 198.743787 
L 135.725878 201.146539 
L 132.84256 203.36574 
L 131.139616 205.033237 
L 128.436289 208.752084 
L 127.610796 210.69523 
L 127.242399 212.571366 
L 127.378525 214.276737 
L 127.688328 215.108219 
L 128.758798 216.52572 
L 130.01541 217.426236 
L 131.389694 218.041876 
L 134.020266 218.817839 
L 136.589168 219.289665 
L 142.250756 219.88321 
L 150.488935 220.437827 
L 157.084868 220.743501 
L 172.463806 221.12533 
L 184.059961 221.35849 
L 273.818018 222.512145 
L 285.618119 222.738183 
L 292.301781 222.632406 
L 296.016662 222.298485 
L 301.566727 221.160275 
L 305.243328 219.730148 
L 307.066049 218.568954 
L 309.502629 215.982489 
L 310.821961 213.562661 
L 311.573645 211.698665 
L 312.17148 209.814517 
L 312.717115 207.166465 
L 312.808566 203.207011 
L 312.232177 199.857937 
L 311.086926 196.299009 
L 310.061777 193.986577 
L 308.323385 190.984372 
L 306.206156 188.097493 
L 305.037274 186.785525 
L 301.894977 183.781297 
L 296.92219 180.253933 
L 292.528381 177.95704 
L 289.704223 176.753924 
L 286.496777 175.538669 
L 280.27013 173.382352 
L 275.99966 171.693734 
L 271.892507 169.5655 
L 266.746609 166.197326 
L 262.855218 162.93849 
L 259.717048 159.321536 
L 257.694671 156.227151 
L 255.335783 151.536489 
L 253.848438 147.683216 
L 252.945089 144.473181 
L 252.228123 139.291269 
L 252.237187 135.896226 
L 252.565522 132.872898 
L 254.208415 126.562084 
L 256.065693 122.004956 
L 261.299965 110.361779 
L 262.503081 107.537621 
L 265.771305 100.991379 
L 268.153014 97.56453 
L 269.652902 95.929649 
L 271.038678 94.681617 
L 274.897859 92.632532 
L 279.535511 91.679329 
L 283.420266 91.824437 
L 285.634935 92.385206 
L 287.371465 93.141341 
L 290.529138 95.124062 
L 292.241389 96.646773 
L 294.412841 98.893652 
L 296.173732 101.078295 
L 298.111618 103.945912 
L 301.638498 109.923049 
L 307.596294 120.460711 
L 320.795204 143.201346 
L 344.477475 182.549526 
L 353.821898 197.971679 
L 364.572977 215.667419 
L 372.039969 227.760407 
L 382.001003 244.028852 
L 384.725698 248.961983 
L 386.280053 253.272352 
L 386.923453 257.078523 
L 386.695633 260.787496 
L 385.221886 263.901871 
L 384.610373 264.663429 
L 383.056828 266.223612 
L 380.497799 268.227294 
L 377.37347 270.123096 
L 374.280542 271.456268 
L 372.161371 272.168378 
L 369.630749 272.792758 
L 366.40736 273.31371 
L 360.93256 273.683564 
L 357.922586 273.737626 
L 347.52817 273.564598 
L 322.852804 273.022446 
L 275.117043 272.13699 
L 271.363315 272.089403 
L 271.363315 272.089403 
" clip-path="url(#p0024aba210)" style="fill: none; stroke: #1f77b4; stroke-width: 1.5; stroke-linecap: square"/>
   </g>
   <g id="line2d_2">
    <path d="M 85.355648 267.497044 
L 73.832727 272.964756 
" clip-path="url(#p0024aba210)" style="fill: none; stroke: #808080; stroke-width: 1.5; stroke-linecap: square"/>
   </g>
   <g id="line2d_3">
    <path d="M 96.138679 247.25303 
L 108.729766 249.28726 
" clip-path="url(#p0024aba210)" style="fill: none; stroke: #808080; stroke-width: 1.5; stroke-linecap: square"/>
   </g>
   <g id="line2d_4">
    <path d="M 90.414484 219.575625 
L 77.878 221.922995 
" clip-path="url(#p0024aba210)" style="fill: none; stroke: #808080; stroke-width: 1.5; stroke-linecap: square"/>
   </g>
   <g id="line2d_5">
    <path d="M 117.948536 76.322107 
L 115.209522 63.865326 
" clip-path="url(#p0024aba210)" style="fill: none; stroke: #808080; stroke-width: 1.5; stroke-linecap: square"/>
   </g>
   <g id="line2d_6">
    <path d="M 168.634078 117.11426 
L 162.353223 128.214911 
" clip-path="url(#p0024aba210)" style="fill: none; stroke: #808080; stroke-width: 1.5; stroke-linecap: square"/>
   </g>
   <g id="line2d_7">
    <path d="M 185.675886 132.850189 
L 197.958872 129.414811 
" clip-path="url(#p0024aba210)" style="fill: none; stroke: #808080; stroke-width: 1.5; stroke-linecap: square"/>
   </g>
   <g id="line2d_8">
    <path d="M 187.968579 155.849191 
L 175.543457 158.72841 
" clip-path="url(#p0024aba210)" style="fill: none; stroke: #808080; stroke-width: 1.5; stroke-linecap: square"/>
   </g>
   <g id="line2d_9">
    <path d="M 232.836875 199.871335 
L 244.607175 204.783933 
" clip-path="url(#p0024aba210)" style="fill: none; stroke: #808080; stroke-width: 1.5; stroke-linecap: square"/>
   </g>
   <g id="line2d_10">
    <path d="M 143.627057 197.344313 
L 139.878455 185.153269 
" clip-path="url(#p0024aba210)" style="fill: none; stroke: #808080; stroke-width: 1.5; stroke-linecap: square"/>
   </g>
   <g id="line2d_11">
    <path d="M 127.249731 213.51212 
L 114.502975 213.952346 
" clip-path="url(#p0024aba210)" style="fill: none; stroke: #808080; stroke-width: 1.5; stroke-linecap: square"/>
   </g>
   <g id="line2d_12">
    <path d="M 312.770335 206.501353 
L 325.367675 208.496501 
" clip-path="url(#p0024aba210)" style="fill: none; stroke: #808080; stroke-width: 1.5; stroke-linecap: square"/>
   </g>
   <g id="line2d_13">
    <path d="M 252.412057 135.602942 
L 239.658985 135.422009 
" clip-path="url(#p0024aba210)" style="fill: none; stroke: #808080; stroke-width: 1.5; stroke-linecap: square"/>
   </g>
   <g id="line2d_14">
    <path d="M 280.343434 91.627274 
L 279.615431 78.893713 
" clip-path="url(#p0024aba210)" style="fill: none; stroke: #808080; stroke-width: 1.5; stroke-linecap: square"/>
   </g>
   <g id="line2d_15">
    <path d="M 386.393538 261.778495 
L 398.487273 265.830056 
" clip-path="url(#p0024aba210)" style="fill: none; stroke: #808080; stroke-width: 1.5; stroke-linecap: square"/>
   </g>
   <g id="line2d_16">
    <path d="M 369.697663 272.760114 
L 372.55332 285.190674 
" clip-path="url(#p0024aba210)" style="fill: none; stroke: #808080; stroke-width: 1.5; stroke-linecap: square"/>
   </g>
   <g id="patch_3">
    <path d="M 57.6 307.584 
L 57.6 41.472 
" style="fill: none; stroke: #000000; stroke-width: 0.8; stroke-linejoin: miter; stroke-linecap: square"/>
   </g>
   <g id="patch_4">
    <path d="M 414.72 307.584 
L 414.72 41.472 
" style="fill: none; stroke: #000000; stroke-width: 0.8; stroke-linejoin: miter; stroke-linecap: square"/>
   </g>
   <g id="patch_5">
    <path d="M 57.6 307.584 
L 414.72 307.584 
" style="fill: none; stroke: #000000; stroke-width: 0.8; stroke-linejoin: miter; stroke-linecap: square"/>
   </g>
   <g id="patch_6">
    <path d="M 57.6 41.472 
L 414.72 41.472 
" style="fill: none; stroke: #000000; stroke-width: 0.8; stroke-linejoin: miter; stroke-linecap: square"/>
   </g>
   <g id="text_1">
    <!-- 1 -->
    <g style="fill: #ffffff" transform="translate(71.182746 276.129505) scale(0.0833 -0.0833)">
     <defs>
      <path id="DejaVuSans-31" d="M 794 531 
L 1825 531 
L 1825 4091 
L 703 3866 
L 703 4441 
L 1819 4666 
L 2450 4666 
L 2450 531 
L 3481 531 
L 3481 0 
L 794 0 
L 794 531 
z
" transform="scale(0.015625)"/>
     </defs>
     <use xlink:href="#DejaVuSans-31"/>
    </g>
   </g>
   <g id="text_2">
    <!-- 2 -->
    <g style="fill: #ffffff" transform="translate(106.079785 252.45201) scale(0.0833 -0.0833)">
     <defs>
      <path id="DejaVuSans-32" d="M 1228 531 
L 3431 531 
L 3431 0 
L 469 0 
L 469 531 
Q 828 903 1448 1529 
Q 2069 2156 2228 2338 
Q 2531 2678 2651 2914 
Q 2772 3150 2772 3378 
Q 2772 3750 2511 3984 
Q 2250 4219 1831 4219 
Q 1534 4219 1204 4116 
Q 875 4013 500 3803 
L 500 4441 
Q 881 4594 1212 4672 
Q 1544 4750 1819 4750 
Q 2544 4750 2975 4387 
Q 3406 4025 3406 3419 
Q 3406 3131 3298 2873 
Q 3191 2616 2906 2266 
Q 2828 2175 2409 1742 
Q 1991 1309 1228 531 
z
" transform="scale(0.015625)"/>
     </defs>
     <use xlink:href="#DejaVuSans-32"/>
    </g>
   </g>
   <g id="text_3">
    <!-- 3 -->
    <g style="fill: #ffffff" transform="translate(75.228019 225.087745) scale(0.0833 -0.0833)">
     <defs>
      <path id="DejaVuSans-33" d="M 2597 2516 
Q 3050 2419 3304 2112 
Q 3559 1806 3559 1356 
Q 3559 666 3084 287 
Q 2609 -91 1734 -91 
Q 1441 -91 1130 -33 
Q 819 25 488 141 
L 488 750 
Q 750 597 1062 519 
Q 1375 441 1716 441 
Q 2309 441 2620 675 
Q 2931 909 2931 1356 
Q 2931 1769 2642 2001 
Q 2353 2234 1838 2234 
L 1294 2234 
L 1294 2753 
L 1863 2753 
Q 2328 2753 2575 2939 
Q 2822 3125 2822 3475 
Q 2822 3834 2567 4026 
Q 2313 4219 1838 4219 
Q 1578 4219 1281 4162 
Q 984 4106 628 3988 
L 628 4550 
Q 988 4650 1302 4700 
Q 1616 4750 1894 4750 
Q 2613 4750 3031 4423 
Q 3450 4097 3450 3541 
Q 3450 3153 3228 2886 
Q 3006 2619 2597 2516 
z
" transform="scale(0.015625)"/>
     </defs>
     <use xlink:href="#DejaVuSans-33"/>
    </g>
   </g>
   <g id="text_4">
    <!-- 4 -->
    <g style="fill: #ffffff" transform="translate(112.559541 67.030076) scale(0.0833 -0.0833)">
     <defs>
      <path id="DejaVuSans-34" d="M 2419 4116 
L 825 1625 
L 2419 1625 
L 2419 4116 
z
M 2253 4666 
L 3047 4666 
L 3047 1625 
L 3713 1625 
L 3713 1100 
L 3047 1100 
L 3047 0 
L 2419 0 
L 2419 1100 
L 313 1100 
L 313 1709 
L 2253 4666 
z
" transform="scale(0.015625)"/>
     </defs>
     <use xlink:href="#DejaVuSans-34"/>
    </g>
   </g>
   <g id="text_5">
    <!-- 5 -->
    <g style="fill: #ffffff" transform="translate(159.703242 131.37966) scale(0.0833 -0.0833)">
     <defs>
      <path id="DejaVuSans-35" d="M 691 4666 
L 3169 4666 
L 3169 4134 
L 1269 4134 
L 1269 2991 
Q 1406 3038 1543 3061 
Q 1681 3084 1819 3084 
Q 2600 3084 3056 2656 
Q 3513 2228 3513 1497 
Q 3513 744 3044 326 
Q 2575 -91 1722 -91 
Q 1428 -91 1123 -41 
Q 819 9 494 109 
L 494 744 
Q 775 591 1075 516 
Q 1375 441 1709 441 
Q 2250 441 2565 725 
Q 2881 1009 2881 1497 
Q 2881 1984 2565 2268 
Q 2250 2553 1709 2553 
Q 1456 2553 1204 2497 
Q 953 2441 691 2322 
L 691 4666 
z
" transform="scale(0.015625)"/>
     </defs>
     <use xlink:href="#DejaVuSans-35"/>
    </g>
   </g>
   <g id="text_6">
    <!-- 6 -->
    <g style="fill: #ffffff" transform="translate(195.308891 132.57956) scale(0.0833 -0.0833)">
     <defs>
      <path id="DejaVuSans-36" d="M 2113 2584 
Q 1688 2584 1439 2293 
Q 1191 2003 1191 1497 
Q 1191 994 1439 701 
Q 1688 409 2113 409 
Q 2538 409 2786 701 
Q 3034 994 3034 1497 
Q 3034 2003 2786 2293 
Q 2538 2584 2113 2584 
z
M 3366 4563 
L 3366 3988 
Q 3128 4100 2886 4159 
Q 2644 4219 2406 4219 
Q 1781 4219 1451 3797 
Q 1122 3375 1075 2522 
Q 1259 2794 1537 2939 
Q 1816 3084 2150 3084 
Q 2853 3084 3261 2657 
Q 3669 2231 3669 1497 
Q 3669 778 3244 343 
Q 2819 -91 2113 -91 
Q 1303 -91 875 529 
Q 447 1150 447 2328 
Q 447 3434 972 4092 
Q 1497 4750 2381 4750 
Q 2619 4750 2861 4703 
Q 3103 4656 3366 4563 
z
" transform="scale(0.015625)"/>
     </defs>
     <use xlink:href="#DejaVuSans-36"/>
    </g>
   </g>
   <g id="text_7">
    <!-- 7 -->
    <g style="fill: #ffffff" transform="translate(172.893475 161.893159) scale(0.0833 -0.0833)">
     <defs>
      <path id="DejaVuSans-37" d="M 525 4666 
L 3525 4666 
L 3525 4397 
L 1831 0 
L 1172 0 
L 2766 4134 
L 525 4134 
L 525 4666 
z
" transform="scale(0.015625)"/>
     </defs>
     <use xlink:href="#DejaVuSans-37"/>
    </g>
   </g>
   <g id="text_8">
    <!-- 8 -->
    <g style="fill: #ffffff" transform="translate(241.957194 207.948682) scale(0.0833 -0.0833)">
     <defs>
      <path id="DejaVuSans-38" d="M 2034 2216 
Q 1584 2216 1326 1975 
Q 1069 1734 1069 1313 
Q 1069 891 1326 650 
Q 1584 409 2034 409 
Q 2484 409 2743 651 
Q 3003 894 3003 1313 
Q 3003 1734 2745 1975 
Q 2488 2216 2034 2216 
z
M 1403 2484 
Q 997 2584 770 2862 
Q 544 3141 544 3541 
Q 544 4100 942 4425 
Q 1341 4750 2034 4750 
Q 2731 4750 3128 4425 
Q 3525 4100 3525 3541 
Q 3525 3141 3298 2862 
Q 3072 2584 2669 2484 
Q 3125 2378 3379 2068 
Q 3634 1759 3634 1313 
Q 3634 634 3220 271 
Q 2806 -91 2034 -91 
Q 1263 -91 848 271 
Q 434 634 434 1313 
Q 434 1759 690 2068 
Q 947 2378 1403 2484 
z
M 1172 3481 
Q 1172 3119 1398 2916 
Q 1625 2713 2034 2713 
Q 2441 2713 2670 2916 
Q 2900 3119 2900 3481 
Q 2900 3844 2670 4047 
Q 2441 4250 2034 4250 
Q 1625 4250 1398 4047 
Q 1172 3844 1172 3481 
z
" transform="scale(0.015625)"/>
     </defs>
     <use xlink:href="#DejaVuSans-38"/>
    </g>
   </g>
   <g id="text_9">
    <!-- 9 -->
    <g style="fill: #ffffff" transform="translate(137.228474 188.318018) scale(0.0833 -0.0833)">
     <defs>
      <path id="DejaVuSans-39" d="M 703 97 
L 703 672 
Q 941 559 1184 500 
Q 1428 441 1663 441 
Q 2288 441 2617 861 
Q 2947 1281 2994 2138 
Q 2813 1869 2534 1725 
Q 2256 1581 1919 1581 
Q 1219 1581 811 2004 
Q 403 2428 403 3163 
Q 403 3881 828 4315 
Q 1253 4750 1959 4750 
Q 2769 4750 3195 4129 
Q 3622 3509 3622 2328 
Q 3622 1225 3098 567 
Q 2575 -91 1691 -91 
Q 1453 -91 1209 -44 
Q 966 3 703 97 
z
M 1959 2075 
Q 2384 2075 2632 2365 
Q 2881 2656 2881 3163 
Q 2881 3666 2632 3958 
Q 2384 4250 1959 4250 
Q 1534 4250 1286 3958 
Q 1038 3666 1038 3163 
Q 1038 2656 1286 2365 
Q 1534 2075 1959 2075 
z
" transform="scale(0.015625)"/>
     </defs>
     <use xlink:href="#DejaVuSans-39"/>
    </g>
   </g>
   <g id="text_10">
    <!-- 10 -->
    <g style="fill: #ffffff" transform="translate(109.203013 217.117095) scale(0.0833 -0.0833)">
     <defs>
      <path id="DejaVuSans-30" d="M 2034 4250 
Q 1547 4250 1301 3770 
Q 1056 3291 1056 2328 
Q 1056 1369 1301 889 
Q 1547 409 2034 409 
Q 2525 409 2770 889 
Q 3016 1369 3016 2328 
Q 3016 3291 2770 3770 
Q 2525 4250 2034 4250 
z
M 2034 4750 
Q 2819 4750 3233 4129 
Q 3647 3509 3647 2328 
Q 3647 1150 3233 529 
Q 2819 -91 2034 -91 
Q 1250 -91 836 529 
Q 422 1150 422 2328 
Q 422 3509 836 4129 
Q 1250 4750 2034 4750 
z
" transform="scale(0.015625)"/>
     </defs>
     <use xlink:href="#DejaVuSans-31"/>
     <use xlink:href="#DejaVuSans-30" x="63.623047"/>
    </g>
   </g>
   <g id="text_11">
    <!-- 11 -->
    <g style="fill: #ffffff" transform="translate(320.067712 211.66125) scale(0.0833 -0.0833)">
     <use xlink:href="#DejaVuSans-31"/>
     <use xlink:href="#DejaVuSans-31" x="63.623047"/>
    </g>
   </g>
   <g id="text_12">
    <!-- 12 -->
    <g style="fill: #ffffff" transform="translate(234.359023 138.586758) scale(0.0833 -0.0833)">
     <use xlink:href="#DejaVuSans-31"/>
     <use xlink:href="#DejaVuSans-32" x="63.623047"/>
    </g>
   </g>
   <g id="text_13">
    <!-- 13 -->
    <g style="fill: #ffffff" transform="translate(274.315469 82.058462) scale(0.0833 -0.0833)">
     <use xlink:href="#DejaVuSans-31"/>
     <use xlink:href="#DejaVuSans-33" x="63.623047"/>
    </g>
   </g>
   <g id="text_14">
    <!-- 14 -->
    <g style="fill: #ffffff" transform="translate(393.18731 268.994805) scale(0.0833 -0.0833)">
     <use xlink:href="#DejaVuSans-31"/>
     <use xlink:href="#DejaVuSans-34" x="63.623047"/>
    </g>
   </g>
   <g id="text_15">
    <!-- 15 -->
    <g style="fill: #ffffff" transform="translate(367.253357 288.355423) scale(0.0833 -0.0833)">
     <use xlink:href="#DejaVuSans-31"/>
     <use xlink:href="#DejaVuSans-35" x="63.623047"/>
    </g>
   </g>
  </g>
 </g>
 <defs>
  <clipPath id="p0024aba210">
   <rect x="57.6" y="41.472" width="357.12" height="266.112"/>
  </clipPath>
 </defs>
</svg>
