<?xml version="1.0" encoding="utf-8" standalone="no"?>
<!DOCTYPE svg PUBLIC "-//W3C//DTD SVG 1.1//EN"
  "http://www.w3.org/Graphics/SVG/1.1/DTD/svg11.dtd">
<svg xmlns:xlink="http://www.w3.org/1999/xlink" width="460.8pt" height="345.6pt" viewBox="0 0 460.8 345.6" xmlns="http://www.w3.org/2000/svg" version="1.1">
 <metadata>
  <rdf:RDF xmlns:dc="http://purl.org/dc/elements/1.1/" xmlns:cc="http://creativecommons.org/ns#" xmlns:rdf="http://www.w3.org/1999/02/22-rdf-syntax-ns#">
   <cc:Work>
    <dc:type rdf:resource="http://purl.org/dc/dcmitype/StillImage"/>
    <dc:date>2024-07-14T12:50:43.619649</dc:date>
    <dc:format>image/svg+xml</dc:format>
    <dc:creator>
     <cc:Agent>
      <dc:title>Matplotlib v3.9.0, https://matplotlib.org/</dc:title>
     </cc:Agent>
    </dc:creator>
   </cc:Work>
  </rdf:RDF>
 </metadata>
 <defs>
  <style type="text/css">*{stroke-linejoin: round; stroke-linecap: butt}</style>
 </defs>
 <g id="figure_1">
  <g id="patch_1">
   <path d="M 0 345.6 
L 460.8 345.6 
L 460.8 0 
L 0 0 
z
" style="fill: #ffffff"/>
  </g>
  <g id="axes_1">
   <g id="patch_2">
    <path d="M 57.6 307.584 
L 414.72 307.584 
L 414.72 41.472 
L 57.6 41.472 
z
" style="fill: #ffffff"/>
   </g>
   <g id="PathCollection_1">
    <defs>
     <path id="m951e09c2e4" d="M 0 5.91608 
C 1.568963 5.91608 3.073876 5.292724 4.1833 4.1833 
C 5.292724 3.073876 5.91608 1.568963 5.91608 0 
C 5.91608 -1.568963 5.292724 -3.073876 4.1833 -4.1833 
C 3.073876 -5.292724 1.568963 -5.91608 0 -5.91608 
C -1.568963 -5.91608 -3.073876 -5.292724 -4.1833 -4.1833 
C -5.292724 -3.073876 -5.91608 -1.568963 -5.91608 0 
C -5.91608 1.568963 -5.292724 3.073876 -4.1833 4.1833 
C -3.073876 5.292724 -1.568963 5.91608 0 5.91608 
z
" style="stroke: #808080"/>
    </defs>
    <g clip-path="url(#p6c3ab2a9ec)">
     <use xlink:href="#m951e09c2e4" x="123.663785" y="226.786738" style="fill: #808080; stroke: #808080"/>
    </g>
   </g>
   <g id="PathCollection_2">
    <g clip-path="url(#p6c3ab2a9ec)">
     <use xlink:href="#m951e09c2e4" x="134.918208" y="195.797365" style="fill: #808080; stroke: #808080"/>
    </g>
   </g>
   <g id="PathCollection_3">
    <g clip-path="url(#p6c3ab2a9ec)">
     <use xlink:href="#m951e09c2e4" x="73.832727" y="162.39127" style="fill: #808080; stroke: #808080"/>
    </g>
   </g>
   <g id="PathCollection_4">
    <g clip-path="url(#p6c3ab2a9ec)">
     <use xlink:href="#m951e09c2e4" x="203.656406" y="140.323129" style="fill: #808080; stroke: #808080"/>
    </g>
   </g>
   <g id="PathCollection_5">
    <g clip-path="url(#p6c3ab2a9ec)">
     <use xlink:href="#m951e09c2e4" x="133.934334" y="169.736981" style="fill: #808080; stroke: #808080"/>
    </g>
   </g>
   <g id="PathCollection_6">
    <g clip-path="url(#p6c3ab2a9ec)">
     <use xlink:href="#m951e09c2e4" x="161.631709" y="211.170134" style="fill: #808080; stroke: #808080"/>
    </g>
   </g>
   <g id="PathCollection_7">
    <g clip-path="url(#p6c3ab2a9ec)">
     <use xlink:href="#m951e09c2e4" x="211.203533" y="206.283443" style="fill: #808080; stroke: #808080"/>
    </g>
   </g>
   <g id="PathCollection_8">
    <g clip-path="url(#p6c3ab2a9ec)">
     <use xlink:href="#m951e09c2e4" x="196.815829" y="173.983817" style="fill: #808080; stroke: #808080"/>
    </g>
   </g>
   <g id="PathCollection_9">
    <g clip-path="url(#p6c3ab2a9ec)">
     <use xlink:href="#m951e09c2e4" x="244.722307" y="122.269262" style="fill: #808080; stroke: #808080"/>
    </g>
   </g>
   <g id="PathCollection_10">
    <g clip-path="url(#p6c3ab2a9ec)">
     <use xlink:href="#m951e09c2e4" x="375.324722" y="196.110426" style="fill: #808080; stroke: #808080"/>
    </g>
   </g>
   <g id="PathCollection_11">
    <g clip-path="url(#p6c3ab2a9ec)">
     <use xlink:href="#m951e09c2e4" x="348.231948" y="173.009281" style="fill: #808080; stroke: #808080"/>
    </g>
   </g>
   <g id="PathCollection_12">
    <g clip-path="url(#p6c3ab2a9ec)">
     <use xlink:href="#m951e09c2e4" x="324.484578" y="145.125418" style="fill: #808080; stroke: #808080"/>
    </g>
   </g>
   <g id="PathCollection_13">
    <g clip-path="url(#p6c3ab2a9ec)">
     <use xlink:href="#m951e09c2e4" x="398.487273" y="140.144418" style="fill: #808080; stroke: #808080"/>
    </g>
   </g>
   <g id="PathCollection_14">
    <g clip-path="url(#p6c3ab2a9ec)">
     <use xlink:href="#m951e09c2e4" x="395.211339" y="223.693037" style="fill: #808080; stroke: #808080"/>
    </g>
   </g>
   <g id="matplotlib.axis_1"/>
   <g id="matplotlib.axis_2"/>
   <g id="line2d_1">
    <path d="M 309.487149 219.775164 
L 243.377315 220.277437 
L 204.894558 219.749963 
L 188.118529 219.53511 
L 177.265937 219.84577 
L 171.025025 220.186389 
L 156.121197 221.203067 
L 151.609 221.410986 
L 146.836809 221.430268 
L 143.915161 221.29273 
L 139.32205 220.78324 
L 137.318006 220.407283 
L 132.438236 218.736533 
L 131.478402 218.232424 
L 129.633324 216.873285 
L 127.016735 213.182841 
L 125.977906 209.677715 
L 124.779397 201.904049 
L 123.485352 198.344676 
L 121.931627 196.163868 
L 119.799661 194.193584 
L 118.950096 193.562869 
L 115.857065 191.721738 
L 107.194982 188.080017 
L 102.575435 186.047787 
L 100.159898 184.784125 
L 95.526246 181.798614 
L 92.956437 179.535203 
L 89.792736 175.595094 
L 87.006767 170.034766 
L 86.285498 167.780827 
L 85.372188 162.351798 
L 85.419256 158.443965 
L 86.069457 154.914405 
L 88.134819 149.668378 
L 88.782101 148.505573 
L 92.598294 143.414965 
L 95.296772 140.837602 
L 97.976682 138.73977 
L 101.677683 136.308813 
L 107.805695 133.126688 
L 113.918915 130.641628 
L 117.226849 129.510869 
L 125.813858 127.701674 
L 129.046972 127.471953 
L 131.926161 127.417077 
L 143.901873 127.861965 
L 151.957421 127.690328 
L 162.573137 127.396005 
L 170.010759 127.543158 
L 177.541083 127.960091 
L 180.120364 128.374961 
L 184.148566 129.581286 
L 187.463909 131.55303 
L 189.857643 134.095775 
L 191.172489 136.459211 
L 191.912099 138.783735 
L 192.263648 141.992729 
L 192.056756 144.299456 
L 190.884336 148.168149 
L 189.814088 150.45808 
L 186.853926 154.580299 
L 185.791919 155.654952 
L 182.279325 158.37603 
L 177.903605 160.530198 
L 175.232937 161.329606 
L 171.284189 162.024065 
L 167.457498 162.144289 
L 156.084146 161.610706 
L 139.002888 160.714123 
L 133.36056 160.748512 
L 129.568546 161.176196 
L 125.222181 162.48635 
L 123.818037 163.288218 
L 122.402104 164.537716 
L 121.570191 165.627933 
L 120.728264 167.549605 
L 120.460573 169.593333 
L 120.63496 171.047491 
L 121.25875 172.897262 
L 123.25687 175.88941 
L 124.2745 176.905953 
L 126.523516 178.717728 
L 130.346286 181.047403 
L 137.565771 184.965999 
L 141.87863 187.499875 
L 154.451492 195.72398 
L 157.165705 197.151158 
L 161.486576 199.019872 
L 165.443192 200.327683 
L 168.294026 201.033676 
L 172.487746 201.775034 
L 175.765094 202.121551 
L 180.163016 202.37282 
L 189.480079 202.619371 
L 193.735058 202.523496 
L 196.351477 201.979304 
L 197.726495 201.471334 
L 199.457442 200.622227 
L 203.069518 198.139026 
L 204.688651 196.482585 
L 206.561142 192.379249 
L 206.925769 189.722602 
L 207.067542 185.918256 
L 207.310342 183.285729 
L 208.030126 179.820975 
L 209.704423 175.708855 
L 212.896139 170.418824 
L 216.626641 164.476419 
L 227.607393 146.621078 
L 232.750594 140.228728 
L 234.256453 138.948329 
L 237.647991 136.71834 
L 244.187725 133.873804 
L 247.780774 132.970365 
L 250.446434 132.586684 
L 257.590929 133.171681 
L 260.417414 134.305962 
L 264.90612 137.110619 
L 268.317941 139.569676 
L 273.229927 142.814409 
L 291.598474 154.204336 
L 303.690261 161.475931 
L 321.933661 171.572211 
L 336.744668 179.855257 
L 343.675805 184.346085 
L 352.227704 190.23173 
L 353.714306 191.08121 
L 355.501589 191.927915 
L 357.559652 192.598773 
L 359.700088 192.803662 
L 361.103002 192.635054 
L 362.882188 192.029604 
L 364.345358 191.106909 
L 366.777062 188.372811 
L 367.830744 186.39612 
L 368.16756 185.517428 
L 368.717591 183.40034 
L 368.907688 181.956969 
L 368.841796 179.99238 
L 368.234802 177.279253 
L 367.197517 174.708068 
L 366.358968 173.162754 
L 364.47289 170.427824 
L 362.509218 168.293252 
L 358.33876 165.089434 
L 353.989993 162.881358 
L 346.512059 159.708067 
L 344.479346 158.525777 
L 341.544052 156.334725 
L 338.916447 153.558881 
L 338.067111 152.37805 
L 336.363118 148.864913 
L 335.905076 146.000058 
L 336.033371 144.376835 
L 337.079729 141.414959 
L 339.432293 138.347279 
L 341.369444 136.841793 
L 344.329461 135.387007 
L 345.973257 134.869481 
L 349.337985 134.334302 
L 354.522899 134.569463 
L 356.571405 134.971544 
L 361.988731 136.623181 
L 369.066732 139.011254 
L 380.442715 142.512952 
L 382.728869 143.365665 
L 388.828009 146.829392 
L 392.824937 151.163341 
L 394.995671 155.225822 
L 396.81079 161.196641 
L 397.359531 164.497565 
L 397.83408 171.83393 
L 397.937619 185.543365 
L 397.908746 192.189217 
L 397.619566 197.079231 
L 397.10198 200.220187 
L 396.34852 203.294334 
L 395.441559 205.835705 
L 393.787061 208.835033 
L 389.320268 213.77068 
L 383.745147 217.253714 
L 382.774297 217.664205 
L 375.371666 219.391714 
L 368.683125 219.720544 
L 331.455102 219.64316 
L 318.923265 219.696916 
L 318.923265 219.696916 
" clip-path="url(#p6c3ab2a9ec)" style="fill: none; stroke: #1f77b4; stroke-width: 1.5; stroke-linecap: square"/>
   </g>
   <g id="line2d_2">
    <path d="M 130.425162 217.446053 
L 123.663785 226.786738 
" clip-path="url(#p6c3ab2a9ec)" style="fill: none; stroke: #808080; stroke-width: 1.5; stroke-linecap: square"/>
   </g>
   <g id="line2d_3">
    <path d="M 124.264868 200.209956 
L 134.918208 195.797365 
" clip-path="url(#p6c3ab2a9ec)" style="fill: none; stroke: #808080; stroke-width: 1.5; stroke-linecap: square"/>
   </g>
   <g id="line2d_4">
    <path d="M 85.341507 161.675304 
L 73.832727 162.39127 
" clip-path="url(#p6c3ab2a9ec)" style="fill: none; stroke: #808080; stroke-width: 1.5; stroke-linecap: square"/>
   </g>
   <g id="line2d_5">
    <path d="M 192.142798 140.956719 
L 203.656406 140.323129 
" clip-path="url(#p6c3ab2a9ec)" style="fill: none; stroke: #808080; stroke-width: 1.5; stroke-linecap: square"/>
   </g>
   <g id="line2d_6">
    <path d="M 127.845602 179.529425 
L 133.934334 169.736981 
" clip-path="url(#p6c3ab2a9ec)" style="fill: none; stroke: #808080; stroke-width: 1.5; stroke-linecap: square"/>
   </g>
   <g id="line2d_7">
    <path d="M 164.889094 200.108757 
L 161.631709 211.170134 
" clip-path="url(#p6c3ab2a9ec)" style="fill: none; stroke: #808080; stroke-width: 1.5; stroke-linecap: square"/>
   </g>
   <g id="line2d_8">
    <path d="M 202.758749 198.431676 
L 211.203533 206.283443 
" clip-path="url(#p6c3ab2a9ec)" style="fill: none; stroke: #808080; stroke-width: 1.5; stroke-linecap: square"/>
   </g>
   <g id="line2d_9">
    <path d="M 207.519167 178.27371 
L 196.815829 173.983817 
" clip-path="url(#p6c3ab2a9ec)" style="fill: none; stroke: #808080; stroke-width: 1.5; stroke-linecap: square"/>
   </g>
   <g id="line2d_10">
    <path d="M 246.99394 133.574318 
L 244.722307 122.269262 
" clip-path="url(#p6c3ab2a9ec)" style="fill: none; stroke: #808080; stroke-width: 1.5; stroke-linecap: square"/>
   </g>
   <g id="line2d_11">
    <path d="M 366.427477 188.775329 
L 375.324722 196.110426 
" clip-path="url(#p6c3ab2a9ec)" style="fill: none; stroke: #808080; stroke-width: 1.5; stroke-linecap: square"/>
   </g>
   <g id="line2d_12">
    <path d="M 352.647667 162.357237 
L 348.231948 173.009281 
" clip-path="url(#p6c3ab2a9ec)" style="fill: none; stroke: #808080; stroke-width: 1.5; stroke-linecap: square"/>
   </g>
   <g id="line2d_13">
    <path d="M 335.974262 146.101011 
L 324.484578 145.125418 
" clip-path="url(#p6c3ab2a9ec)" style="fill: none; stroke: #808080; stroke-width: 1.5; stroke-linecap: square"/>
   </g>
   <g id="line2d_14">
    <path d="M 390.625632 148.580011 
L 398.487273 140.144418 
" clip-path="url(#p6c3ab2a9ec)" style="fill: none; stroke: #808080; stroke-width: 1.5; stroke-linecap: square"/>
   </g>
   <g id="line2d_15">
    <path d="M 387.902273 214.774395 
L 395.211339 223.693037 
" clip-path="url(#p6c3ab2a9ec)" style="fill: none; stroke: #808080; stroke-width: 1.5; stroke-linecap: square"/>
   </g>
   <g id="patch_3">
    <path d="M 57.6 307.584 
L 57.6 41.472 
" style="fill: none; stroke: #000000; stroke-width: 0.8; stroke-linejoin: miter; stroke-linecap: square"/>
   </g>
   <g id="patch_4">
    <path d="M 414.72 307.584 
L 414.72 41.472 
" style="fill: none; stroke: #000000; stroke-width: 0.8; stroke-linejoin: miter; stroke-linecap: square"/>
   </g>
   <g id="patch_5">
    <path d="M 57.6 307.584 
L 414.72 307.584 
" style="fill: none; stroke: #000000; stroke-width: 0.8; stroke-linejoin: miter; stroke-linecap: square"/>
   </g>
   <g id="patch_6">
    <path d="M 57.6 41.472 
L 414.72 41.472 
" style="fill: none; stroke: #000000; stroke-width: 0.8; stroke-linejoin: miter; stroke-linecap: square"/>
   </g>
   <g id="text_1">
    <!-- 1 -->
    <g style="fill: #ffffff" transform="translate(121.013804 229.951487) scale(0.0833 -0.0833)">
     <defs>
      <path id="DejaVuSans-31" d="M 794 531 
L 1825 531 
L 1825 4091 
L 703 3866 
L 703 4441 
L 1819 4666 
L 2450 4666 
L 2450 531 
L 3481 531 
L 3481 0 
L 794 0 
L 794 531 
z
" transform="scale(0.015625)"/>
     </defs>
     <use xlink:href="#DejaVuSans-31"/>
    </g>
   </g>
   <g id="text_2">
    <!-- 2 -->
    <g style="fill: #ffffff" transform="translate(132.268227 198.962114) scale(0.0833 -0.0833)">
     <defs>
      <path id="DejaVuSans-32" d="M 1228 531 
L 3431 531 
L 3431 0 
L 469 0 
L 469 531 
Q 828 903 1448 1529 
Q 2069 2156 2228 2338 
Q 2531 2678 2651 2914 
Q 2772 3150 2772 3378 
Q 2772 3750 2511 3984 
Q 2250 4219 1831 4219 
Q 1534 4219 1204 4116 
Q 875 4013 500 3803 
L 500 4441 
Q 881 4594 1212 4672 
Q 1544 4750 1819 4750 
Q 2544 4750 2975 4387 
Q 3406 4025 3406 3419 
Q 3406 3131 3298 2873 
Q 3191 2616 2906 2266 
Q 2828 2175 2409 1742 
Q 1991 1309 1228 531 
z
" transform="scale(0.015625)"/>
     </defs>
     <use xlink:href="#DejaVuSans-32"/>
    </g>
   </g>
   <g id="text_3">
    <!-- 3 -->
    <g style="fill: #ffffff" transform="translate(71.182746 165.556019) scale(0.0833 -0.0833)">
     <defs>
      <path id="DejaVuSans-33" d="M 2597 2516 
Q 3050 2419 3304 2112 
Q 3559 1806 3559 1356 
Q 3559 666 3084 287 
Q 2609 -91 1734 -91 
Q 1441 -91 1130 -33 
Q 819 25 488 141 
L 488 750 
Q 750 597 1062 519 
Q 1375 441 1716 441 
Q 2309 441 2620 675 
Q 2931 909 2931 1356 
Q 2931 1769 2642 2001 
Q 2353 2234 1838 2234 
L 1294 2234 
L 1294 2753 
L 1863 2753 
Q 2328 2753 2575 2939 
Q 2822 3125 2822 3475 
Q 2822 3834 2567 4026 
Q 2313 4219 1838 4219 
Q 1578 4219 1281 4162 
Q 984 4106 628 3988 
L 628 4550 
Q 988 4650 1302 4700 
Q 1616 4750 1894 4750 
Q 2613 4750 3031 4423 
Q 3450 4097 3450 3541 
Q 3450 3153 3228 2886 
Q 3006 2619 2597 2516 
z
" transform="scale(0.015625)"/>
     </defs>
     <use xlink:href="#DejaVuSans-33"/>
    </g>
   </g>
   <g id="text_4">
    <!-- 4 -->
    <g style="fill: #ffffff" transform="translate(201.006425 143.487879) scale(0.0833 -0.0833)">
     <defs>
      <path id="DejaVuSans-34" d="M 2419 4116 
L 825 1625 
L 2419 1625 
L 2419 4116 
z
M 2253 4666 
L 3047 4666 
L 3047 1625 
L 3713 1625 
L 3713 1100 
L 3047 1100 
L 3047 0 
L 2419 0 
L 2419 1100 
L 313 1100 
L 313 1709 
L 2253 4666 
z
" transform="scale(0.015625)"/>
     </defs>
     <use xlink:href="#DejaVuSans-34"/>
    </g>
   </g>
   <g id="text_5">
    <!-- 5 -->
    <g style="fill: #ffffff" transform="translate(131.284353 172.90173) scale(0.0833 -0.0833)">
     <defs>
      <path id="DejaVuSans-35" d="M 691 4666 
L 3169 4666 
L 3169 4134 
L 1269 4134 
L 1269 2991 
Q 1406 3038 1543 3061 
Q 1681 3084 1819 3084 
Q 2600 3084 3056 2656 
Q 3513 2228 3513 1497 
Q 3513 744 3044 326 
Q 2575 -91 1722 -91 
Q 1428 -91 1123 -41 
Q 819 9 494 109 
L 494 744 
Q 775 591 1075 516 
Q 1375 441 1709 441 
Q 2250 441 2565 725 
Q 2881 1009 2881 1497 
Q 2881 1984 2565 2268 
Q 2250 2553 1709 2553 
Q 1456 2553 1204 2497 
Q 953 2441 691 2322 
L 691 4666 
z
" transform="scale(0.015625)"/>
     </defs>
     <use xlink:href="#DejaVuSans-35"/>
    </g>
   </g>
   <g id="text_6">
    <!-- 6 -->
    <g style="fill: #ffffff" transform="translate(158.981728 214.334883) scale(0.0833 -0.0833)">
     <defs>
      <path id="DejaVuSans-36" d="M 2113 2584 
Q 1688 2584 1439 2293 
Q 1191 2003 1191 1497 
Q 1191 994 1439 701 
Q 1688 409 2113 409 
Q 2538 409 2786 701 
Q 3034 994 3034 1497 
Q 3034 2003 2786 2293 
Q 2538 2584 2113 2584 
z
M 3366 4563 
L 3366 3988 
Q 3128 4100 2886 4159 
Q 2644 4219 2406 4219 
Q 1781 4219 1451 3797 
Q 1122 3375 1075 2522 
Q 1259 2794 1537 2939 
Q 1816 3084 2150 3084 
Q 2853 3084 3261 2657 
Q 3669 2231 3669 1497 
Q 3669 778 3244 343 
Q 2819 -91 2113 -91 
Q 1303 -91 875 529 
Q 447 1150 447 2328 
Q 447 3434 972 4092 
Q 1497 4750 2381 4750 
Q 2619 4750 2861 4703 
Q 3103 4656 3366 4563 
z
" transform="scale(0.015625)"/>
     </defs>
     <use xlink:href="#DejaVuSans-36"/>
    </g>
   </g>
   <g id="text_7">
    <!-- 7 -->
    <g style="fill: #ffffff" transform="translate(208.553552 209.448192) scale(0.0833 -0.0833)">
     <defs>
      <path id="DejaVuSans-37" d="M 525 4666 
L 3525 4666 
L 3525 4397 
L 1831 0 
L 1172 0 
L 2766 4134 
L 525 4134 
L 525 4666 
z
" transform="scale(0.015625)"/>
     </defs>
     <use xlink:href="#DejaVuSans-37"/>
    </g>
   </g>
   <g id="text_8">
    <!-- 8 -->
    <g style="fill: #ffffff" transform="translate(194.165848 177.148566) scale(0.0833 -0.0833)">
     <defs>
      <path id="DejaVuSans-38" d="M 2034 2216 
Q 1584 2216 1326 1975 
Q 1069 1734 1069 1313 
Q 1069 891 1326 650 
Q 1584 409 2034 409 
Q 2484 409 2743 651 
Q 3003 894 3003 1313 
Q 3003 1734 2745 1975 
Q 2488 2216 2034 2216 
z
M 1403 2484 
Q 997 2584 770 2862 
Q 544 3141 544 3541 
Q 544 4100 942 4425 
Q 1341 4750 2034 4750 
Q 2731 4750 3128 4425 
Q 3525 4100 3525 3541 
Q 3525 3141 3298 2862 
Q 3072 2584 2669 2484 
Q 3125 2378 3379 2068 
Q 3634 1759 3634 1313 
Q 3634 634 3220 271 
Q 2806 -91 2034 -91 
Q 1263 -91 848 271 
Q 434 634 434 1313 
Q 434 1759 690 2068 
Q 947 2378 1403 2484 
z
M 1172 3481 
Q 1172 3119 1398 2916 
Q 1625 2713 2034 2713 
Q 2441 2713 2670 2916 
Q 2900 3119 2900 3481 
Q 2900 3844 2670 4047 
Q 2441 4250 2034 4250 
Q 1625 4250 1398 4047 
Q 1172 3844 1172 3481 
z
" transform="scale(0.015625)"/>
     </defs>
     <use xlink:href="#DejaVuSans-38"/>
    </g>
   </g>
   <g id="text_9">
    <!-- 9 -->
    <g style="fill: #ffffff" transform="translate(242.072325 125.434011) scale(0.0833 -0.0833)">
     <defs>
      <path id="DejaVuSans-39" d="M 703 97 
L 703 672 
Q 941 559 1184 500 
Q 1428 441 1663 441 
Q 2288 441 2617 861 
Q 2947 1281 2994 2138 
Q 2813 1869 2534 1725 
Q 2256 1581 1919 1581 
Q 1219 1581 811 2004 
Q 403 2428 403 3163 
Q 403 3881 828 4315 
Q 1253 4750 1959 4750 
Q 2769 4750 3195 4129 
Q 3622 3509 3622 2328 
Q 3622 1225 3098 567 
Q 2575 -91 1691 -91 
Q 1453 -91 1209 -44 
Q 966 3 703 97 
z
M 1959 2075 
Q 2384 2075 2632 2365 
Q 2881 2656 2881 3163 
Q 2881 3666 2632 3958 
Q 2384 4250 1959 4250 
Q 1534 4250 1286 3958 
Q 1038 3666 1038 3163 
Q 1038 2656 1286 2365 
Q 1534 2075 1959 2075 
z
" transform="scale(0.015625)"/>
     </defs>
     <use xlink:href="#DejaVuSans-39"/>
    </g>
   </g>
   <g id="text_10">
    <!-- 10 -->
    <g style="fill: #ffffff" transform="translate(370.02476 199.275175) scale(0.0833 -0.0833)">
     <defs>
      <path id="DejaVuSans-30" d="M 2034 4250 
Q 1547 4250 1301 3770 
Q 1056 3291 1056 2328 
Q 1056 1369 1301 889 
Q 1547 409 2034 409 
Q 2525 409 2770 889 
Q 3016 1369 3016 2328 
Q 3016 3291 2770 3770 
Q 2525 4250 2034 4250 
z
M 2034 4750 
Q 2819 4750 3233 4129 
Q 3647 3509 3647 2328 
Q 3647 1150 3233 529 
Q 2819 -91 2034 -91 
Q 1250 -91 836 529 
Q 422 1150 422 2328 
Q 422 3509 836 4129 
Q 1250 4750 2034 4750 
z
" transform="scale(0.015625)"/>
     </defs>
     <use xlink:href="#DejaVuSans-31"/>
     <use xlink:href="#DejaVuSans-30" x="63.623047"/>
    </g>
   </g>
   <g id="text_11">
    <!-- 11 -->
    <g style="fill: #ffffff" transform="translate(342.931985 176.17403) scale(0.0833 -0.0833)">
     <use xlink:href="#DejaVuSans-31"/>
     <use xlink:href="#DejaVuSans-31" x="63.623047"/>
    </g>
   </g>
   <g id="text_12">
    <!-- 12 -->
    <g style="fill: #ffffff" transform="translate(319.184615 148.290167) scale(0.0833 -0.0833)">
     <use xlink:href="#DejaVuSans-31"/>
     <use xlink:href="#DejaVuSans-32" x="63.623047"/>
    </g>
   </g>
   <g id="text_13">
    <!-- 13 -->
    <g style="fill: #ffffff" transform="translate(393.18731 143.309168) scale(0.0833 -0.0833)">
     <use xlink:href="#DejaVuSans-31"/>
     <use xlink:href="#DejaVuSans-33" x="63.623047"/>
    </g>
   </g>
   <g id="text_14">
    <!-- 14 -->
    <g style="fill: #ffffff" transform="translate(389.911377 226.857786) scale(0.0833 -0.0833)">
     <use xlink:href="#DejaVuSans-31"/>
     <use xlink:href="#DejaVuSans-34" x="63.623047"/>
    </g>
   </g>
  </g>
 </g>
 <defs>
  <clipPath id="p6c3ab2a9ec">
   <rect x="57.6" y="41.472" width="357.12" height="266.112"/>
  </clipPath>
 </defs>
</svg>
