<?xml version="1.0" encoding="utf-8" standalone="no"?>
<!DOCTYPE svg PUBLIC "-//W3C//DTD SVG 1.1//EN"
  "http://www.w3.org/Graphics/SVG/1.1/DTD/svg11.dtd">
<svg xmlns:xlink="http://www.w3.org/1999/xlink" width="460.8pt" height="345.6pt" viewBox="0 0 460.8 345.6" xmlns="http://www.w3.org/2000/svg" version="1.1">
 <metadata>
  <rdf:RDF xmlns:dc="http://purl.org/dc/elements/1.1/" xmlns:cc="http://creativecommons.org/ns#" xmlns:rdf="http://www.w3.org/1999/02/22-rdf-syntax-ns#">
   <cc:Work>
    <dc:type rdf:resource="http://purl.org/dc/dcmitype/StillImage"/>
    <dc:date>2024-07-14T12:51:49.367625</dc:date>
    <dc:format>image/svg+xml</dc:format>
    <dc:creator>
     <cc:Agent>
      <dc:title>Matplotlib v3.9.0, https://matplotlib.org/</dc:title>
     </cc:Agent>
    </dc:creator>
   </cc:Work>
  </rdf:RDF>
 </metadata>
 <defs>
  <style type="text/css">*{stroke-linejoin: round; stroke-linecap: butt}</style>
 </defs>
 <g id="figure_1">
  <g id="patch_1">
   <path d="M 0 345.6 
L 460.8 345.6 
L 460.8 0 
L 0 0 
z
" style="fill: #ffffff"/>
  </g>
  <g id="axes_1">
   <g id="patch_2">
    <path d="M 57.6 307.584 
L 414.72 307.584 
L 414.72 41.472 
L 57.6 41.472 
z
" style="fill: #ffffff"/>
   </g>
   <g id="PathCollection_1">
    <defs>
     <path id="mdc405815d2" d="M 0 5.91608 
C 1.568963 5.91608 3.073876 5.292724 4.1833 4.1833 
C 5.292724 3.073876 5.91608 1.568963 5.91608 0 
C 5.91608 -1.568963 5.292724 -3.073876 4.1833 -4.1833 
C 3.073876 -5.292724 1.568963 -5.91608 0 -5.91608 
C -1.568963 -5.91608 -3.073876 -5.292724 -4.1833 -4.1833 
C -5.292724 -3.073876 -5.91608 -1.568963 -5.91608 0 
C -5.91608 1.568963 -5.292724 3.073876 -4.1833 4.1833 
C -3.073876 5.292724 -1.568963 5.91608 0 5.91608 
z
" style="stroke: #808080"/>
    </defs>
    <g clip-path="url(#pa1a2b35e61)">
     <use xlink:href="#mdc405815d2" x="227.282276" y="205.304804" style="fill: #808080; stroke: #808080"/>
    </g>
   </g>
   <g id="PathCollection_2">
    <g clip-path="url(#pa1a2b35e61)">
     <use xlink:href="#mdc405815d2" x="244.560947" y="173.178413" style="fill: #808080; stroke: #808080"/>
    </g>
   </g>
   <g id="PathCollection_3">
    <g clip-path="url(#pa1a2b35e61)">
     <use xlink:href="#mdc405815d2" x="200.031757" y="140.619507" style="fill: #808080; stroke: #808080"/>
    </g>
   </g>
   <g id="PathCollection_4">
    <g clip-path="url(#pa1a2b35e61)">
     <use xlink:href="#mdc405815d2" x="237.718911" y="118.627547" style="fill: #808080; stroke: #808080"/>
    </g>
   </g>
   <g id="PathCollection_5">
    <g clip-path="url(#pa1a2b35e61)">
     <use xlink:href="#mdc405815d2" x="194.648526" y="106.124813" style="fill: #808080; stroke: #808080"/>
    </g>
   </g>
   <g id="PathCollection_6">
    <g clip-path="url(#pa1a2b35e61)">
     <use xlink:href="#mdc405815d2" x="113.129501" y="220.862891" style="fill: #808080; stroke: #808080"/>
    </g>
   </g>
   <g id="PathCollection_7">
    <g clip-path="url(#pa1a2b35e61)">
     <use xlink:href="#mdc405815d2" x="153.937802" y="243.898644" style="fill: #808080; stroke: #808080"/>
    </g>
   </g>
   <g id="PathCollection_8">
    <g clip-path="url(#pa1a2b35e61)">
     <use xlink:href="#mdc405815d2" x="88.048105" y="221.426965" style="fill: #808080; stroke: #808080"/>
    </g>
   </g>
   <g id="PathCollection_9">
    <g clip-path="url(#pa1a2b35e61)">
     <use xlink:href="#mdc405815d2" x="73.832727" y="120.335755" style="fill: #808080; stroke: #808080"/>
    </g>
   </g>
   <g id="PathCollection_10">
    <g clip-path="url(#pa1a2b35e61)">
     <use xlink:href="#mdc405815d2" x="176.968484" y="104.528684" style="fill: #808080; stroke: #808080"/>
    </g>
   </g>
   <g id="PathCollection_11">
    <g clip-path="url(#pa1a2b35e61)">
     <use xlink:href="#mdc405815d2" x="188.8471" y="82.438492" style="fill: #808080; stroke: #808080"/>
    </g>
   </g>
   <g id="PathCollection_12">
    <g clip-path="url(#pa1a2b35e61)">
     <use xlink:href="#mdc405815d2" x="213.573282" y="85.186812" style="fill: #808080; stroke: #808080"/>
    </g>
   </g>
   <g id="PathCollection_13">
    <g clip-path="url(#pa1a2b35e61)">
     <use xlink:href="#mdc405815d2" x="239.517585" y="76.50178" style="fill: #808080; stroke: #808080"/>
    </g>
   </g>
   <g id="PathCollection_14">
    <g clip-path="url(#pa1a2b35e61)">
     <use xlink:href="#mdc405815d2" x="250.436739" y="108.308532" style="fill: #808080; stroke: #808080"/>
    </g>
   </g>
   <g id="PathCollection_15">
    <g clip-path="url(#pa1a2b35e61)">
     <use xlink:href="#mdc405815d2" x="398.487273" y="175.003649" style="fill: #808080; stroke: #808080"/>
    </g>
   </g>
   <g id="PathCollection_16">
    <g clip-path="url(#pa1a2b35e61)">
     <use xlink:href="#mdc405815d2" x="327.833231" y="228.718041" style="fill: #808080; stroke: #808080"/>
    </g>
   </g>
   <g id="PathCollection_17">
    <g clip-path="url(#pa1a2b35e61)">
     <use xlink:href="#mdc405815d2" x="347.88232" y="245.429684" style="fill: #808080; stroke: #808080"/>
    </g>
   </g>
   <g id="PathCollection_18">
    <g clip-path="url(#pa1a2b35e61)">
     <use xlink:href="#mdc405815d2" x="321.519028" y="272.55422" style="fill: #808080; stroke: #808080"/>
    </g>
   </g>
   <g id="matplotlib.axis_1"/>
   <g id="matplotlib.axis_2"/>
   <g id="line2d_1">
    <path d="M 291.027439 250.125566 
L 284.509858 245.540177 
L 266.692285 233.645018 
L 255.694943 226.773653 
L 250.268219 223.084034 
L 245.061523 219.009593 
L 243.466949 217.574688 
L 241.416831 215.437333 
L 239.001252 212.091535 
L 237.786658 209.709496 
L 236.223857 204.555986 
L 235.689959 200.066943 
L 235.599932 196.460345 
L 235.821895 192.016743 
L 236.371906 186.681698 
L 236.519673 183.713317 
L 236.408975 179.514798 
L 235.888858 175.42037 
L 235.020249 172.146262 
L 234.286425 170.16049 
L 232.108583 165.908444 
L 230.576133 163.681176 
L 227.467046 160.018377 
L 223.547034 156.276141 
L 218.364709 151.356781 
L 216.57761 149.551461 
L 213.181531 145.898683 
L 210.539661 142.758335 
L 209.021788 139.919956 
L 208.739123 138.511072 
L 208.716744 136.841675 
L 209.064153 134.961816 
L 209.663535 133.611926 
L 210.397245 132.50877 
L 211.890973 131.055812 
L 214.060899 129.93842 
L 216.550788 129.240868 
L 222.837065 128.231154 
L 224.555661 127.560537 
L 226.189355 126.515747 
L 227.648461 125.099916 
L 228.385303 124.086445 
L 229.084791 122.517552 
L 229.061786 120.830217 
L 228.126497 119.246576 
L 227.249632 118.307416 
L 225.441066 116.9159 
L 224.394852 116.269996 
L 222.785074 115.428265 
L 220.890182 114.650368 
L 218.421305 113.892514 
L 214.094892 112.912184 
L 211.783918 112.561871 
L 209.42477 112.374871 
L 207.610624 112.366387 
L 205.729114 112.485967 
L 201.872252 113.123501 
L 200.146766 113.596811 
L 197.806011 114.450786 
L 193.433416 116.776508 
L 189.968323 119.375842 
L 187.483502 121.761355 
L 185.981233 123.483994 
L 183.6099 126.547982 
L 177.836338 134.525808 
L 169.23738 145.421849 
L 160.169781 156.783227 
L 133.819763 189.059651 
L 128.9582 194.868519 
L 125.144046 199.8147 
L 122.717478 203.868358 
L 121.76898 206.020632 
L 120.739622 209.97162 
L 120.638947 211.71715 
L 120.888756 215.7851 
L 122.256072 219.454847 
L 124.727113 222.331777 
L 126.708785 223.537658 
L 128.132303 224.188345 
L 130.908615 225.007299 
L 133.10633 225.199937 
L 139.668382 225.401799 
L 141.204305 225.671424 
L 142.877062 226.25953 
L 144.379218 227.10502 
L 146.213237 228.711153 
L 147.633054 230.798683 
L 148.435723 233.213065 
L 148.478544 234.953584 
L 148.293365 235.822078 
L 147.964691 236.695584 
L 146.461396 238.903149 
L 144.997279 240.175483 
L 142.90098 241.344181 
L 140.254669 242.190867 
L 137.571003 242.482131 
L 134.477063 242.338749 
L 130.010285 241.453115 
L 126.266398 240.183059 
L 123.459621 239.005991 
L 120.391704 237.5507 
L 116.204572 235.416136 
L 112.259164 233.003747 
L 109.202066 230.829722 
L 107.189302 229.247789 
L 103.163547 225.563123 
L 100.760723 223.096866 
L 97.480807 219.170648 
L 95.591894 216.506856 
L 94.753181 215.11739 
L 93.311441 212.402064 
L 91.79522 209.096695 
L 90.472548 205.676814 
L 89.181138 201.60932 
L 88.182984 197.711175 
L 86.652811 189.377798 
L 81.932063 156.534169 
L 79.787474 143.463136 
L 79.192647 138.257864 
L 79.109966 135.890175 
L 79.545921 131.403182 
L 80.188636 128.722819 
L 82.735694 122.976817 
L 84.80523 120.013162 
L 86.983241 117.584487 
L 91.783363 114.130382 
L 94.182713 112.897224 
L 97.172731 111.607522 
L 104.148075 109.244786 
L 109.270722 107.826735 
L 115.593899 106.330842 
L 121.499113 105.208722 
L 128.627805 104.151632 
L 136.733866 103.311836 
L 149.760939 102.479783 
L 152.392046 102.226273 
L 156.911326 101.529689 
L 161.402646 100.546738 
L 165.528336 99.379008 
L 169.895122 97.915516 
L 174.446688 96.086393 
L 181.505852 93.038291 
L 184.844191 91.951933 
L 187.412718 91.449183 
L 192.441979 91.471105 
L 195.14882 91.843512 
L 201.226402 93.08595 
L 205.764928 93.969078 
L 209.733 94.459072 
L 213.862277 94.422628 
L 218.491456 93.273233 
L 221.405342 91.860477 
L 223.95485 90.298816 
L 227.273544 88.135608 
L 229.192351 87.026985 
L 232.23806 85.789215 
L 235.808556 85.17964 
L 237.607271 85.260499 
L 241.371373 86.080876 
L 242.444065 86.456472 
L 246.634328 88.680721 
L 249.561084 91.236435 
L 251.160271 93.317701 
L 251.939535 94.547612 
L 254.387686 98.826137 
L 255.918883 101.01753 
L 257.06002 102.324599 
L 261.419917 106.320857 
L 263.45187 107.938037 
L 267.002038 110.346269 
L 270.300232 112.224533 
L 276.785013 115.356396 
L 299.309949 125.255361 
L 332.414379 139.831336 
L 345.185779 145.563214 
L 356.795429 150.940566 
L 364.979047 154.893091 
L 373.868701 159.521359 
L 376.104624 160.808156 
L 380.849512 164.000777 
L 382.531266 165.360803 
L 385.413606 168.187452 
L 387.758689 171.57163 
L 388.686689 173.460827 
L 389.707336 176.460242 
L 390.095801 179.35602 
L 389.87213 182.722147 
L 389.079256 185.731015 
L 387.777882 188.57805 
L 386.430383 190.618545 
L 384.689523 192.708694 
L 382.497731 194.742755 
L 379.680021 196.852549 
L 374.401635 199.982136 
L 371.076052 201.948036 
L 368.250826 203.842586 
L 361.431392 209.127181 
L 352.627895 216.223074 
L 348.673319 219.719488 
L 339.286099 228.613698 
L 338.609104 229.28386 
L 336.127017 232.261921 
L 335.383513 233.598885 
L 334.809585 235.163394 
L 334.549982 236.986309 
L 334.839993 239.634101 
L 335.67267 241.364997 
L 338.001468 244.282812 
L 339.10508 246.058123 
L 339.461771 247.015448 
L 339.622407 248.015538 
L 339.4087 250.124193 
L 338.79662 252.139007 
L 338.28066 253.306395 
L 337.107521 255.19713 
L 334.886745 257.42975 
L 333.247642 258.833908 
L 330.002576 261.04842 
L 327.562341 262.139334 
L 323.150912 263.352961 
L 321.202665 263.618543 
L 316.318779 263.645421 
L 312.435382 263.008799 
L 307.027905 260.898891 
L 305.728694 260.207945 
L 300.217296 256.664954 
L 297.458466 254.803773 
L 297.458466 254.803773 
" clip-path="url(#pa1a2b35e61)" style="fill: none; stroke: #1f77b4; stroke-width: 1.5; stroke-linecap: square"/>
   </g>
   <g id="line2d_2">
    <path d="M 236.106279 203.670976 
L 227.282276 205.304804 
" clip-path="url(#pa1a2b35e61)" style="fill: none; stroke: #808080; stroke-width: 1.5; stroke-linecap: square"/>
   </g>
   <g id="line2d_3">
    <path d="M 235.852216 175.344153 
L 244.560947 173.178413 
" clip-path="url(#pa1a2b35e61)" style="fill: none; stroke: #808080; stroke-width: 1.5; stroke-linecap: square"/>
   </g>
   <g id="line2d_4">
    <path d="M 208.86237 139.021789 
L 200.031757 140.619507 
" clip-path="url(#pa1a2b35e61)" style="fill: none; stroke: #808080; stroke-width: 1.5; stroke-linecap: square"/>
   </g>
   <g id="line2d_5">
    <path d="M 229.098461 121.121593 
L 237.718911 118.627547 
" clip-path="url(#pa1a2b35e61)" style="fill: none; stroke: #808080; stroke-width: 1.5; stroke-linecap: square"/>
   </g>
   <g id="line2d_6">
    <path d="M 197.879823 114.496858 
L 194.648526 106.124813 
" clip-path="url(#pa1a2b35e61)" style="fill: none; stroke: #808080; stroke-width: 1.5; stroke-linecap: square"/>
   </g>
   <g id="line2d_7">
    <path d="M 121.545795 217.748663 
L 113.129501 220.862891 
" clip-path="url(#pa1a2b35e61)" style="fill: none; stroke: #808080; stroke-width: 1.5; stroke-linecap: square"/>
   </g>
   <g id="line2d_8">
    <path d="M 146.866994 238.372696 
L 153.937802 243.898644 
" clip-path="url(#pa1a2b35e61)" style="fill: none; stroke: #808080; stroke-width: 1.5; stroke-linecap: square"/>
   </g>
   <g id="line2d_9">
    <path d="M 95.431903 216.326773 
L 88.048105 221.426965 
" clip-path="url(#pa1a2b35e61)" style="fill: none; stroke: #808080; stroke-width: 1.5; stroke-linecap: square"/>
   </g>
   <g id="line2d_10">
    <path d="M 81.712146 124.630773 
L 73.832727 120.335755 
" clip-path="url(#pa1a2b35e61)" style="fill: none; stroke: #808080; stroke-width: 1.5; stroke-linecap: square"/>
   </g>
   <g id="line2d_11">
    <path d="M 173.510098 96.247863 
L 176.968484 104.528684 
" clip-path="url(#pa1a2b35e61)" style="fill: none; stroke: #808080; stroke-width: 1.5; stroke-linecap: square"/>
   </g>
   <g id="line2d_12">
    <path d="M 189.042536 91.41035 
L 188.8471 82.438492 
" clip-path="url(#pa1a2b35e61)" style="fill: none; stroke: #808080; stroke-width: 1.5; stroke-linecap: square"/>
   </g>
   <g id="line2d_13">
    <path d="M 214.842485 94.070592 
L 213.573282 85.186812 
" clip-path="url(#pa1a2b35e61)" style="fill: none; stroke: #808080; stroke-width: 1.5; stroke-linecap: square"/>
   </g>
   <g id="line2d_14">
    <path d="M 238.086293 85.36089 
L 239.517585 76.50178 
" clip-path="url(#pa1a2b35e61)" style="fill: none; stroke: #808080; stroke-width: 1.5; stroke-linecap: square"/>
   </g>
   <g id="line2d_15">
    <path d="M 256.932642 102.116952 
L 250.436739 108.308532 
" clip-path="url(#pa1a2b35e61)" style="fill: none; stroke: #808080; stroke-width: 1.5; stroke-linecap: square"/>
   </g>
   <g id="line2d_16">
    <path d="M 389.664145 176.642198 
L 398.487273 175.003649 
" clip-path="url(#pa1a2b35e61)" style="fill: none; stroke: #808080; stroke-width: 1.5; stroke-linecap: square"/>
   </g>
   <g id="line2d_17">
    <path d="M 335.852384 232.746142 
L 327.833231 228.718041 
" clip-path="url(#pa1a2b35e61)" style="fill: none; stroke: #808080; stroke-width: 1.5; stroke-linecap: square"/>
   </g>
   <g id="line2d_18">
    <path d="M 339.108837 247.31606 
L 347.88232 245.429684 
" clip-path="url(#pa1a2b35e61)" style="fill: none; stroke: #808080; stroke-width: 1.5; stroke-linecap: square"/>
   </g>
   <g id="line2d_19">
    <path d="M 320.981348 263.596356 
L 321.519028 272.55422 
" clip-path="url(#pa1a2b35e61)" style="fill: none; stroke: #808080; stroke-width: 1.5; stroke-linecap: square"/>
   </g>
   <g id="patch_3">
    <path d="M 57.6 307.584 
L 57.6 41.472 
" style="fill: none; stroke: #000000; stroke-width: 0.8; stroke-linejoin: miter; stroke-linecap: square"/>
   </g>
   <g id="patch_4">
    <path d="M 414.72 307.584 
L 414.72 41.472 
" style="fill: none; stroke: #000000; stroke-width: 0.8; stroke-linejoin: miter; stroke-linecap: square"/>
   </g>
   <g id="patch_5">
    <path d="M 57.6 307.584 
L 414.72 307.584 
" style="fill: none; stroke: #000000; stroke-width: 0.8; stroke-linejoin: miter; stroke-linecap: square"/>
   </g>
   <g id="patch_6">
    <path d="M 57.6 41.472 
L 414.72 41.472 
" style="fill: none; stroke: #000000; stroke-width: 0.8; stroke-linejoin: miter; stroke-linecap: square"/>
   </g>
   <g id="text_1">
    <!-- 1 -->
    <g style="fill: #ffffff" transform="translate(224.632295 208.469553) scale(0.0833 -0.0833)">
     <defs>
      <path id="DejaVuSans-31" d="M 794 531 
L 1825 531 
L 1825 4091 
L 703 3866 
L 703 4441 
L 1819 4666 
L 2450 4666 
L 2450 531 
L 3481 531 
L 3481 0 
L 794 0 
L 794 531 
z
" transform="scale(0.015625)"/>
     </defs>
     <use xlink:href="#DejaVuSans-31"/>
    </g>
   </g>
   <g id="text_2">
    <!-- 2 -->
    <g style="fill: #ffffff" transform="translate(241.910966 176.343162) scale(0.0833 -0.0833)">
     <defs>
      <path id="DejaVuSans-32" d="M 1228 531 
L 3431 531 
L 3431 0 
L 469 0 
L 469 531 
Q 828 903 1448 1529 
Q 2069 2156 2228 2338 
Q 2531 2678 2651 2914 
Q 2772 3150 2772 3378 
Q 2772 3750 2511 3984 
Q 2250 4219 1831 4219 
Q 1534 4219 1204 4116 
Q 875 4013 500 3803 
L 500 4441 
Q 881 4594 1212 4672 
Q 1544 4750 1819 4750 
Q 2544 4750 2975 4387 
Q 3406 4025 3406 3419 
Q 3406 3131 3298 2873 
Q 3191 2616 2906 2266 
Q 2828 2175 2409 1742 
Q 1991 1309 1228 531 
z
" transform="scale(0.015625)"/>
     </defs>
     <use xlink:href="#DejaVuSans-32"/>
    </g>
   </g>
   <g id="text_3">
    <!-- 3 -->
    <g style="fill: #ffffff" transform="translate(197.381776 143.784256) scale(0.0833 -0.0833)">
     <defs>
      <path id="DejaVuSans-33" d="M 2597 2516 
Q 3050 2419 3304 2112 
Q 3559 1806 3559 1356 
Q 3559 666 3084 287 
Q 2609 -91 1734 -91 
Q 1441 -91 1130 -33 
Q 819 25 488 141 
L 488 750 
Q 750 597 1062 519 
Q 1375 441 1716 441 
Q 2309 441 2620 675 
Q 2931 909 2931 1356 
Q 2931 1769 2642 2001 
Q 2353 2234 1838 2234 
L 1294 2234 
L 1294 2753 
L 1863 2753 
Q 2328 2753 2575 2939 
Q 2822 3125 2822 3475 
Q 2822 3834 2567 4026 
Q 2313 4219 1838 4219 
Q 1578 4219 1281 4162 
Q 984 4106 628 3988 
L 628 4550 
Q 988 4650 1302 4700 
Q 1616 4750 1894 4750 
Q 2613 4750 3031 4423 
Q 3450 4097 3450 3541 
Q 3450 3153 3228 2886 
Q 3006 2619 2597 2516 
z
" transform="scale(0.015625)"/>
     </defs>
     <use xlink:href="#DejaVuSans-33"/>
    </g>
   </g>
   <g id="text_4">
    <!-- 4 -->
    <g style="fill: #ffffff" transform="translate(235.068929 121.792297) scale(0.0833 -0.0833)">
     <defs>
      <path id="DejaVuSans-34" d="M 2419 4116 
L 825 1625 
L 2419 1625 
L 2419 4116 
z
M 2253 4666 
L 3047 4666 
L 3047 1625 
L 3713 1625 
L 3713 1100 
L 3047 1100 
L 3047 0 
L 2419 0 
L 2419 1100 
L 313 1100 
L 313 1709 
L 2253 4666 
z
" transform="scale(0.015625)"/>
     </defs>
     <use xlink:href="#DejaVuSans-34"/>
    </g>
   </g>
   <g id="text_5">
    <!-- 5 -->
    <g style="fill: #ffffff" transform="translate(191.998545 109.289562) scale(0.0833 -0.0833)">
     <defs>
      <path id="DejaVuSans-35" d="M 691 4666 
L 3169 4666 
L 3169 4134 
L 1269 4134 
L 1269 2991 
Q 1406 3038 1543 3061 
Q 1681 3084 1819 3084 
Q 2600 3084 3056 2656 
Q 3513 2228 3513 1497 
Q 3513 744 3044 326 
Q 2575 -91 1722 -91 
Q 1428 -91 1123 -41 
Q 819 9 494 109 
L 494 744 
Q 775 591 1075 516 
Q 1375 441 1709 441 
Q 2250 441 2565 725 
Q 2881 1009 2881 1497 
Q 2881 1984 2565 2268 
Q 2250 2553 1709 2553 
Q 1456 2553 1204 2497 
Q 953 2441 691 2322 
L 691 4666 
z
" transform="scale(0.015625)"/>
     </defs>
     <use xlink:href="#DejaVuSans-35"/>
    </g>
   </g>
   <g id="text_6">
    <!-- 6 -->
    <g style="fill: #ffffff" transform="translate(110.47952 224.02764) scale(0.0833 -0.0833)">
     <defs>
      <path id="DejaVuSans-36" d="M 2113 2584 
Q 1688 2584 1439 2293 
Q 1191 2003 1191 1497 
Q 1191 994 1439 701 
Q 1688 409 2113 409 
Q 2538 409 2786 701 
Q 3034 994 3034 1497 
Q 3034 2003 2786 2293 
Q 2538 2584 2113 2584 
z
M 3366 4563 
L 3366 3988 
Q 3128 4100 2886 4159 
Q 2644 4219 2406 4219 
Q 1781 4219 1451 3797 
Q 1122 3375 1075 2522 
Q 1259 2794 1537 2939 
Q 1816 3084 2150 3084 
Q 2853 3084 3261 2657 
Q 3669 2231 3669 1497 
Q 3669 778 3244 343 
Q 2819 -91 2113 -91 
Q 1303 -91 875 529 
Q 447 1150 447 2328 
Q 447 3434 972 4092 
Q 1497 4750 2381 4750 
Q 2619 4750 2861 4703 
Q 3103 4656 3366 4563 
z
" transform="scale(0.015625)"/>
     </defs>
     <use xlink:href="#DejaVuSans-36"/>
    </g>
   </g>
   <g id="text_7">
    <!-- 7 -->
    <g style="fill: #ffffff" transform="translate(151.287821 247.063393) scale(0.0833 -0.0833)">
     <defs>
      <path id="DejaVuSans-37" d="M 525 4666 
L 3525 4666 
L 3525 4397 
L 1831 0 
L 1172 0 
L 2766 4134 
L 525 4134 
L 525 4666 
z
" transform="scale(0.015625)"/>
     </defs>
     <use xlink:href="#DejaVuSans-37"/>
    </g>
   </g>
   <g id="text_8">
    <!-- 8 -->
    <g style="fill: #ffffff" transform="translate(85.398123 224.591714) scale(0.0833 -0.0833)">
     <defs>
      <path id="DejaVuSans-38" d="M 2034 2216 
Q 1584 2216 1326 1975 
Q 1069 1734 1069 1313 
Q 1069 891 1326 650 
Q 1584 409 2034 409 
Q 2484 409 2743 651 
Q 3003 894 3003 1313 
Q 3003 1734 2745 1975 
Q 2488 2216 2034 2216 
z
M 1403 2484 
Q 997 2584 770 2862 
Q 544 3141 544 3541 
Q 544 4100 942 4425 
Q 1341 4750 2034 4750 
Q 2731 4750 3128 4425 
Q 3525 4100 3525 3541 
Q 3525 3141 3298 2862 
Q 3072 2584 2669 2484 
Q 3125 2378 3379 2068 
Q 3634 1759 3634 1313 
Q 3634 634 3220 271 
Q 2806 -91 2034 -91 
Q 1263 -91 848 271 
Q 434 634 434 1313 
Q 434 1759 690 2068 
Q 947 2378 1403 2484 
z
M 1172 3481 
Q 1172 3119 1398 2916 
Q 1625 2713 2034 2713 
Q 2441 2713 2670 2916 
Q 2900 3119 2900 3481 
Q 2900 3844 2670 4047 
Q 2441 4250 2034 4250 
Q 1625 4250 1398 4047 
Q 1172 3844 1172 3481 
z
" transform="scale(0.015625)"/>
     </defs>
     <use xlink:href="#DejaVuSans-38"/>
    </g>
   </g>
   <g id="text_9">
    <!-- 9 -->
    <g style="fill: #ffffff" transform="translate(71.182746 123.500505) scale(0.0833 -0.0833)">
     <defs>
      <path id="DejaVuSans-39" d="M 703 97 
L 703 672 
Q 941 559 1184 500 
Q 1428 441 1663 441 
Q 2288 441 2617 861 
Q 2947 1281 2994 2138 
Q 2813 1869 2534 1725 
Q 2256 1581 1919 1581 
Q 1219 1581 811 2004 
Q 403 2428 403 3163 
Q 403 3881 828 4315 
Q 1253 4750 1959 4750 
Q 2769 4750 3195 4129 
Q 3622 3509 3622 2328 
Q 3622 1225 3098 567 
Q 2575 -91 1691 -91 
Q 1453 -91 1209 -44 
Q 966 3 703 97 
z
M 1959 2075 
Q 2384 2075 2632 2365 
Q 2881 2656 2881 3163 
Q 2881 3666 2632 3958 
Q 2384 4250 1959 4250 
Q 1534 4250 1286 3958 
Q 1038 3666 1038 3163 
Q 1038 2656 1286 2365 
Q 1534 2075 1959 2075 
z
" transform="scale(0.015625)"/>
     </defs>
     <use xlink:href="#DejaVuSans-39"/>
    </g>
   </g>
   <g id="text_10">
    <!-- 10 -->
    <g style="fill: #ffffff" transform="translate(171.668521 107.693433) scale(0.0833 -0.0833)">
     <defs>
      <path id="DejaVuSans-30" d="M 2034 4250 
Q 1547 4250 1301 3770 
Q 1056 3291 1056 2328 
Q 1056 1369 1301 889 
Q 1547 409 2034 409 
Q 2525 409 2770 889 
Q 3016 1369 3016 2328 
Q 3016 3291 2770 3770 
Q 2525 4250 2034 4250 
z
M 2034 4750 
Q 2819 4750 3233 4129 
Q 3647 3509 3647 2328 
Q 3647 1150 3233 529 
Q 2819 -91 2034 -91 
Q 1250 -91 836 529 
Q 422 1150 422 2328 
Q 422 3509 836 4129 
Q 1250 4750 2034 4750 
z
" transform="scale(0.015625)"/>
     </defs>
     <use xlink:href="#DejaVuSans-31"/>
     <use xlink:href="#DejaVuSans-30" x="63.623047"/>
    </g>
   </g>
   <g id="text_11">
    <!-- 11 -->
    <g style="fill: #ffffff" transform="translate(183.547137 85.603241) scale(0.0833 -0.0833)">
     <use xlink:href="#DejaVuSans-31"/>
     <use xlink:href="#DejaVuSans-31" x="63.623047"/>
    </g>
   </g>
   <g id="text_12">
    <!-- 12 -->
    <g style="fill: #ffffff" transform="translate(208.27332 88.351561) scale(0.0833 -0.0833)">
     <use xlink:href="#DejaVuSans-31"/>
     <use xlink:href="#DejaVuSans-32" x="63.623047"/>
    </g>
   </g>
   <g id="text_13">
    <!-- 13 -->
    <g style="fill: #ffffff" transform="translate(234.217622 79.666529) scale(0.0833 -0.0833)">
     <use xlink:href="#DejaVuSans-31"/>
     <use xlink:href="#DejaVuSans-33" x="63.623047"/>
    </g>
   </g>
   <g id="text_14">
    <!-- 14 -->
    <g style="fill: #ffffff" transform="translate(245.136776 111.473281) scale(0.0833 -0.0833)">
     <use xlink:href="#DejaVuSans-31"/>
     <use xlink:href="#DejaVuSans-34" x="63.623047"/>
    </g>
   </g>
   <g id="text_15">
    <!-- 15 -->
    <g style="fill: #ffffff" transform="translate(393.18731 178.168398) scale(0.0833 -0.0833)">
     <use xlink:href="#DejaVuSans-31"/>
     <use xlink:href="#DejaVuSans-35" x="63.623047"/>
    </g>
   </g>
   <g id="text_16">
    <!-- 16 -->
    <g style="fill: #ffffff" transform="translate(322.533269 231.88279) scale(0.0833 -0.0833)">
     <use xlink:href="#DejaVuSans-31"/>
     <use xlink:href="#DejaVuSans-36" x="63.623047"/>
    </g>
   </g>
   <g id="text_17">
    <!-- 17 -->
    <g style="fill: #ffffff" transform="translate(342.582358 248.594433) scale(0.0833 -0.0833)">
     <use xlink:href="#DejaVuSans-31"/>
     <use xlink:href="#DejaVuSans-37" x="63.623047"/>
    </g>
   </g>
   <g id="text_18">
    <!-- 18 -->
    <g style="fill: #ffffff" transform="translate(316.219065 275.718969) scale(0.0833 -0.0833)">
     <use xlink:href="#DejaVuSans-31"/>
     <use xlink:href="#DejaVuSans-38" x="63.623047"/>
    </g>
   </g>
  </g>
 </g>
 <defs>
  <clipPath id="pa1a2b35e61">
   <rect x="57.6" y="41.472" width="357.12" height="266.112"/>
  </clipPath>
 </defs>
</svg>
