<?xml version="1.0" encoding="utf-8" standalone="no"?>
<!DOCTYPE svg PUBLIC "-//W3C//DTD SVG 1.1//EN"
  "http://www.w3.org/Graphics/SVG/1.1/DTD/svg11.dtd">
<svg xmlns:xlink="http://www.w3.org/1999/xlink" width="460.8pt" height="345.6pt" viewBox="0 0 460.8 345.6" xmlns="http://www.w3.org/2000/svg" version="1.1">
 <metadata>
  <rdf:RDF xmlns:dc="http://purl.org/dc/elements/1.1/" xmlns:cc="http://creativecommons.org/ns#" xmlns:rdf="http://www.w3.org/1999/02/22-rdf-syntax-ns#">
   <cc:Work>
    <dc:type rdf:resource="http://purl.org/dc/dcmitype/StillImage"/>
    <dc:date>2024-08-17T22:15:33.424061</dc:date>
    <dc:format>image/svg+xml</dc:format>
    <dc:creator>
     <cc:Agent>
      <dc:title>Matplotlib v3.9.0, https://matplotlib.org/</dc:title>
     </cc:Agent>
    </dc:creator>
   </cc:Work>
  </rdf:RDF>
 </metadata>
 <defs>
  <style type="text/css">*{stroke-linejoin: round; stroke-linecap: butt}</style>
 </defs>
 <g id="figure_1">
  <g id="patch_1">
   <path d="M 0 345.6 
L 460.8 345.6 
L 460.8 0 
L 0 0 
z
" style="fill: #ffffff"/>
  </g>
  <g id="axes_1">
   <g id="patch_2">
    <path d="M 57.6 307.584 
L 414.72 307.584 
L 414.72 41.472 
L 57.6 41.472 
z
" style="fill: #ffffff"/>
   </g>
   <g id="PathCollection_1">
    <defs>
     <path id="m1e37a5ed22" d="M 0 5.91608 
C 1.568963 5.91608 3.073876 5.292724 4.1833 4.1833 
C 5.292724 3.073876 5.91608 1.568963 5.91608 0 
C 5.91608 -1.568963 5.292724 -3.073876 4.1833 -4.1833 
C 3.073876 -5.292724 1.568963 -5.91608 0 -5.91608 
C -1.568963 -5.91608 -3.073876 -5.292724 -4.1833 -4.1833 
C -5.292724 -3.073876 -5.91608 -1.568963 -5.91608 0 
C -5.91608 1.568963 -5.292724 3.073876 -4.1833 4.1833 
C -3.073876 5.292724 -1.568963 5.91608 0 5.91608 
z
" style="stroke: #808080"/>
    </defs>
    <g clip-path="url(#p709ee84b3e)">
     <use xlink:href="#m1e37a5ed22" x="111.482011" y="288.191807" style="fill: #808080; stroke: #808080"/>
    </g>
   </g>
   <g id="PathCollection_2">
    <g clip-path="url(#p709ee84b3e)">
     <use xlink:href="#m1e37a5ed22" x="158.908517" y="251.383177" style="fill: #808080; stroke: #808080"/>
    </g>
   </g>
   <g id="PathCollection_3">
    <g clip-path="url(#p709ee84b3e)">
     <use xlink:href="#m1e37a5ed22" x="246.04435" y="253.643138" style="fill: #808080; stroke: #808080"/>
    </g>
   </g>
   <g id="PathCollection_4">
    <g clip-path="url(#p709ee84b3e)">
     <use xlink:href="#m1e37a5ed22" x="209.385053" y="216.255571" style="fill: #808080; stroke: #808080"/>
    </g>
   </g>
   <g id="PathCollection_5">
    <g clip-path="url(#p709ee84b3e)">
     <use xlink:href="#m1e37a5ed22" x="164.80042" y="114.508949" style="fill: #808080; stroke: #808080"/>
    </g>
   </g>
   <g id="PathCollection_6">
    <g clip-path="url(#p709ee84b3e)">
     <use xlink:href="#m1e37a5ed22" x="149.275805" y="70.400196" style="fill: #808080; stroke: #808080"/>
    </g>
   </g>
   <g id="PathCollection_7">
    <g clip-path="url(#p709ee84b3e)">
     <use xlink:href="#m1e37a5ed22" x="220.855296" y="56.369442" style="fill: #808080; stroke: #808080"/>
    </g>
   </g>
   <g id="PathCollection_8">
    <g clip-path="url(#p709ee84b3e)">
     <use xlink:href="#m1e37a5ed22" x="203.429594" y="79.728157" style="fill: #808080; stroke: #808080"/>
    </g>
   </g>
   <g id="PathCollection_9">
    <g clip-path="url(#p709ee84b3e)">
     <use xlink:href="#m1e37a5ed22" x="247.631599" y="107.165559" style="fill: #808080; stroke: #808080"/>
    </g>
   </g>
   <g id="PathCollection_10">
    <g clip-path="url(#p709ee84b3e)">
     <use xlink:href="#m1e37a5ed22" x="283.979942" y="73.390362" style="fill: #808080; stroke: #808080"/>
    </g>
   </g>
   <g id="PathCollection_11">
    <g clip-path="url(#p709ee84b3e)">
     <use xlink:href="#m1e37a5ed22" x="300.788162" y="133.127434" style="fill: #808080; stroke: #808080"/>
    </g>
   </g>
   <g id="PathCollection_12">
    <g clip-path="url(#p709ee84b3e)">
     <use xlink:href="#m1e37a5ed22" x="360.837989" y="142.164718" style="fill: #808080; stroke: #808080"/>
    </g>
   </g>
   <g id="PathCollection_13">
    <g clip-path="url(#p709ee84b3e)">
     <use xlink:href="#m1e37a5ed22" x="351.368353" y="252.94798" style="fill: #808080; stroke: #808080"/>
    </g>
   </g>
   <g id="PathCollection_14">
    <g clip-path="url(#p709ee84b3e)">
     <use xlink:href="#m1e37a5ed22" x="313.884246" y="229.574101" style="fill: #808080; stroke: #808080"/>
    </g>
   </g>
   <g id="PathCollection_15">
    <g clip-path="url(#p709ee84b3e)">
     <use xlink:href="#m1e37a5ed22" x="272.519912" y="254.147532" style="fill: #808080; stroke: #808080"/>
    </g>
   </g>
   <g id="PathCollection_16">
    <g clip-path="url(#p709ee84b3e)">
     <use xlink:href="#m1e37a5ed22" x="353.092388" y="281.627842" style="fill: #808080; stroke: #808080"/>
    </g>
   </g>
   <g id="matplotlib.axis_1"/>
   <g id="matplotlib.axis_2"/>
   <g id="line2d_1">
    <path d="M 275.353218 293.004769 
L 256.662861 293.243592 
L 216.124687 293.639471 
L 194.742913 293.925697 
L 166.835245 294.843181 
L 153.318503 295.357843 
L 144.096141 295.488 
L 140.830339 295.432112 
L 136.664471 295.156043 
L 126.56591 291.762056 
L 124.362654 289.058819 
L 124.099031 288.434655 
L 123.795698 286.445702 
L 124.24702 284.116146 
L 125.006924 282.503084 
L 126.0765 280.987834 
L 127.986262 278.962669 
L 130.93754 276.55128 
L 134.978366 273.810909 
L 136.938798 272.62111 
L 139.259343 271.35674 
L 142.904536 269.501085 
L 147.993249 267.312057 
L 152.153177 265.837344 
L 155.963522 264.720994 
L 158.72621 264.061048 
L 164.80755 263.054987 
L 172.23285 262.449378 
L 175.708534 262.329155 
L 185.010947 262.294399 
L 213.959273 262.617123 
L 217.801208 262.352148 
L 220.249405 262.053635 
L 223.057053 261.486019 
L 226.659927 260.316159 
L 230.440431 257.92428 
L 232.948246 254.519406 
L 233.602219 252.702603 
L 233.87086 251.046561 
L 233.819298 249.008918 
L 233.536365 247.393017 
L 231.939282 243.823484 
L 230.478631 241.927752 
L 228.779809 240.329412 
L 226.752894 238.843803 
L 224.580138 237.610627 
L 221.826859 236.34434 
L 219.486112 235.414695 
L 212.324172 232.808012 
L 209.925525 231.731866 
L 207.826681 230.66427 
L 205.781346 229.389203 
L 203.057446 227.382951 
L 200.085274 224.577084 
L 196.95891 220.502489 
L 193.979016 213.541283 
L 193.34802 210.851846 
L 191.764044 202.686811 
L 190.716522 195.664835 
L 187.419169 178.793063 
L 181.081515 146.557079 
L 179.915123 139.27719 
L 179.551018 135.355864 
L 179.05748 128.064125 
L 178.709122 120.325423 
L 177.50457 113.077554 
L 176.734533 110.764899 
L 175.282201 107.561619 
L 170.919328 101.858413 
L 166.503406 98.378172 
L 164.998025 97.397856 
L 161.313749 95.254544 
L 153.239661 90.747079 
L 146.646164 86.492904 
L 142.712295 83.160914 
L 140.589749 80.747609 
L 138.675764 77.769131 
L 136.942249 72.525796 
L 136.767426 69.876268 
L 137.388918 66.005812 
L 139.067507 62.581428 
L 141.354481 59.882088 
L 145.674708 56.777214 
L 151.066953 54.756177 
L 154.814578 53.952569 
L 158.541373 53.589124 
L 164.766375 53.568 
L 167.812426 53.710739 
L 174.384171 54.374089 
L 187.557931 56.163103 
L 200.754501 58.095547 
L 204.85283 59.143602 
L 206.590242 59.896706 
L 209.339362 61.816767 
L 210.319049 62.945564 
L 210.828963 63.785749 
L 211.362348 64.963897 
L 212.836201 70.750255 
L 214.281073 73.634654 
L 216.663511 76.512682 
L 219.095069 78.829266 
L 222.758515 81.412741 
L 229.809506 86.095888 
L 236.075571 90.657325 
L 238.050726 91.926252 
L 240.829885 93.30088 
L 246.386654 94.653325 
L 248.925431 94.734004 
L 253.036238 93.820735 
L 253.733653 93.528163 
L 258.641204 90.58075 
L 263.260573 87.289895 
L 267.45602 85.005036 
L 269.886886 84.29838 
L 272.972847 83.984946 
L 275.422363 84.075495 
L 278.211162 84.531636 
L 280.577129 85.375091 
L 282.401392 86.347946 
L 283.948663 87.455682 
L 286.246 89.689806 
L 288.414827 92.584504 
L 289.633576 94.618187 
L 291.518181 98.336631 
L 295.669455 107.46881 
L 297.264558 110.454749 
L 298.595379 112.621993 
L 301.232229 116.229456 
L 302.877541 118.035267 
L 306.365767 121.611139 
L 310.106854 124.519636 
L 313.289997 126.530708 
L 316.966813 128.355138 
L 323.75679 130.363537 
L 331.499684 132.190114 
L 338.0879 134.888038 
L 340.82342 136.559398 
L 343.451919 138.6457 
L 348.278425 144.707698 
L 350.644456 151.208571 
L 351.119311 154.874395 
L 351.146114 159.013723 
L 350.965215 162.091794 
L 349.570577 179.649194 
L 347.875771 203.668677 
L 347.247574 215.900911 
L 347.070898 223.982625 
L 347.065283 231.725718 
L 346.459603 237.436217 
L 345.936781 239.37057 
L 345.101216 241.242203 
L 343.99041 242.824565 
L 342.161788 244.326446 
L 340.429657 245.129593 
L 339.126498 245.475246 
L 335.447074 245.7014 
L 333.041857 245.50865 
L 314.358699 242.2299 
L 305.635919 241.095488 
L 303.830307 240.919838 
L 298.723802 240.68523 
L 296.342056 240.830442 
L 292.699702 241.64326 
L 290.566228 242.588088 
L 287.76386 244.711954 
L 286.499753 246.227865 
L 285.510887 248.033048 
L 284.821394 250.659996 
L 284.818125 252.516049 
L 285.715154 255.600029 
L 286.417849 256.863707 
L 288.239273 258.879399 
L 291.354645 260.654709 
L 295.146371 261.569863 
L 298.486084 261.791332 
L 302.615542 261.675269 
L 315.74804 260.702684 
L 321.028676 260.56358 
L 325.513426 260.832189 
L 328.193885 261.31421 
L 333.1629 263.32241 
L 335.426236 264.93478 
L 338.733531 268.760014 
L 340.026851 271.153809 
L 341.041 274.919854 
L 341.159012 276.804197 
L 340.733802 280.24984 
L 340.38379 281.421418 
L 339.732227 283.008599 
L 338.454749 285.283556 
L 336.78141 287.435481 
L 335.115959 289.093074 
L 333.57968 290.284623 
L 330.753182 291.875995 
L 326.156161 293.294788 
L 319.91406 293.915516 
L 312.700391 293.920861 
L 307.339044 293.770033 
L 286.722224 292.991701 
L 283.472432 292.954893 
L 283.472432 292.954893 
" clip-path="url(#p709ee84b3e)" style="fill: none; stroke: #1f77b4; stroke-width: 1.5; stroke-linecap: square"/>
   </g>
   <g id="line2d_2">
    <path d="M 123.855083 286.777311 
L 111.482011 288.191807 
" clip-path="url(#p709ee84b3e)" style="fill: none; stroke: #808080; stroke-width: 1.5; stroke-linecap: square"/>
   </g>
   <g id="line2d_3">
    <path d="M 161.171819 263.629449 
L 158.908517 251.383177 
" clip-path="url(#p709ee84b3e)" style="fill: none; stroke: #808080; stroke-width: 1.5; stroke-linecap: square"/>
   </g>
   <g id="line2d_4">
    <path d="M 233.792672 251.409282 
L 246.04435 253.643138 
" clip-path="url(#p709ee84b3e)" style="fill: none; stroke: #808080; stroke-width: 1.5; stroke-linecap: square"/>
   </g>
   <g id="line2d_5">
    <path d="M 200.629305 225.111676 
L 209.385053 216.255571 
" clip-path="url(#p709ee84b3e)" style="fill: none; stroke: #808080; stroke-width: 1.5; stroke-linecap: square"/>
   </g>
   <g id="line2d_6">
    <path d="M 176.594563 110.509959 
L 164.80042 114.508949 
" clip-path="url(#p709ee84b3e)" style="fill: none; stroke: #808080; stroke-width: 1.5; stroke-linecap: square"/>
   </g>
   <g id="line2d_7">
    <path d="M 136.87261 69.280165 
L 149.275805 70.400196 
" clip-path="url(#p709ee84b3e)" style="fill: none; stroke: #808080; stroke-width: 1.5; stroke-linecap: square"/>
   </g>
   <g id="line2d_8">
    <path d="M 210.429289 63.180617 
L 220.855296 56.369442 
" clip-path="url(#p709ee84b3e)" style="fill: none; stroke: #808080; stroke-width: 1.5; stroke-linecap: square"/>
   </g>
   <g id="line2d_9">
    <path d="M 214.019044 73.173978 
L 203.429594 79.728157 
" clip-path="url(#p709ee84b3e)" style="fill: none; stroke: #808080; stroke-width: 1.5; stroke-linecap: square"/>
   </g>
   <g id="line2d_10">
    <path d="M 248.215606 94.725597 
L 247.631599 107.165559 
" clip-path="url(#p709ee84b3e)" style="fill: none; stroke: #808080; stroke-width: 1.5; stroke-linecap: square"/>
   </g>
   <g id="line2d_11">
    <path d="M 279.949586 85.173823 
L 283.979942 73.390362 
" clip-path="url(#p709ee84b3e)" style="fill: none; stroke: #808080; stroke-width: 1.5; stroke-linecap: square"/>
   </g>
   <g id="line2d_12">
    <path d="M 308.22951 123.141441 
L 300.788162 133.127434 
" clip-path="url(#p709ee84b3e)" style="fill: none; stroke: #808080; stroke-width: 1.5; stroke-linecap: square"/>
   </g>
   <g id="line2d_13">
    <path d="M 349.375345 147.033137 
L 360.837989 142.164718 
" clip-path="url(#p709ee84b3e)" style="fill: none; stroke: #808080; stroke-width: 1.5; stroke-linecap: square"/>
   </g>
   <g id="line2d_14">
    <path d="M 343.11185 243.624682 
L 351.368353 252.94798 
" clip-path="url(#p709ee84b3e)" style="fill: none; stroke: #808080; stroke-width: 1.5; stroke-linecap: square"/>
   </g>
   <g id="line2d_15">
    <path d="M 312.215148 241.915407 
L 313.884246 229.574101 
" clip-path="url(#p709ee84b3e)" style="fill: none; stroke: #808080; stroke-width: 1.5; stroke-linecap: square"/>
   </g>
   <g id="line2d_16">
    <path d="M 284.893096 252.734012 
L 272.519912 254.147532 
" clip-path="url(#p709ee84b3e)" style="fill: none; stroke: #808080; stroke-width: 1.5; stroke-linecap: square"/>
   </g>
   <g id="line2d_17">
    <path d="M 340.830724 279.449465 
L 353.092388 281.627842 
" clip-path="url(#p709ee84b3e)" style="fill: none; stroke: #808080; stroke-width: 1.5; stroke-linecap: square"/>
   </g>
   <g id="patch_3">
    <path d="M 57.6 307.584 
L 57.6 41.472 
" style="fill: none; stroke: #000000; stroke-width: 0.8; stroke-linejoin: miter; stroke-linecap: square"/>
   </g>
   <g id="patch_4">
    <path d="M 414.72 307.584 
L 414.72 41.472 
" style="fill: none; stroke: #000000; stroke-width: 0.8; stroke-linejoin: miter; stroke-linecap: square"/>
   </g>
   <g id="patch_5">
    <path d="M 57.6 307.584 
L 414.72 307.584 
" style="fill: none; stroke: #000000; stroke-width: 0.8; stroke-linejoin: miter; stroke-linecap: square"/>
   </g>
   <g id="patch_6">
    <path d="M 57.6 41.472 
L 414.72 41.472 
" style="fill: none; stroke: #000000; stroke-width: 0.8; stroke-linejoin: miter; stroke-linecap: square"/>
   </g>
   <g id="text_1">
    <!-- 1 -->
    <g style="fill: #ffffff" transform="translate(108.832029 291.356556) scale(0.0833 -0.0833)">
     <defs>
      <path id="DejaVuSans-31" d="M 794 531 
L 1825 531 
L 1825 4091 
L 703 3866 
L 703 4441 
L 1819 4666 
L 2450 4666 
L 2450 531 
L 3481 531 
L 3481 0 
L 794 0 
L 794 531 
z
" transform="scale(0.015625)"/>
     </defs>
     <use xlink:href="#DejaVuSans-31"/>
    </g>
   </g>
   <g id="text_2">
    <!-- 1A -->
    <g style="fill: #ffffff" transform="translate(153.409415 254.547926) scale(0.0833 -0.0833)">
     <defs>
      <path id="DejaVuSans-41" d="M 2188 4044 
L 1331 1722 
L 3047 1722 
L 2188 4044 
z
M 1831 4666 
L 2547 4666 
L 4325 0 
L 3669 0 
L 3244 1197 
L 1141 1197 
L 716 0 
L 50 0 
L 1831 4666 
z
" transform="scale(0.015625)"/>
     </defs>
     <use xlink:href="#DejaVuSans-31"/>
     <use xlink:href="#DejaVuSans-41" x="63.623047"/>
    </g>
   </g>
   <g id="text_3">
    <!-- 2 -->
    <g style="fill: #ffffff" transform="translate(243.394369 256.807887) scale(0.0833 -0.0833)">
     <defs>
      <path id="DejaVuSans-32" d="M 1228 531 
L 3431 531 
L 3431 0 
L 469 0 
L 469 531 
Q 828 903 1448 1529 
Q 2069 2156 2228 2338 
Q 2531 2678 2651 2914 
Q 2772 3150 2772 3378 
Q 2772 3750 2511 3984 
Q 2250 4219 1831 4219 
Q 1534 4219 1204 4116 
Q 875 4013 500 3803 
L 500 4441 
Q 881 4594 1212 4672 
Q 1544 4750 1819 4750 
Q 2544 4750 2975 4387 
Q 3406 4025 3406 3419 
Q 3406 3131 3298 2873 
Q 3191 2616 2906 2266 
Q 2828 2175 2409 1742 
Q 1991 1309 1228 531 
z
" transform="scale(0.015625)"/>
     </defs>
     <use xlink:href="#DejaVuSans-32"/>
    </g>
   </g>
   <g id="text_4">
    <!-- 3 -->
    <g style="fill: #ffffff" transform="translate(206.735072 219.42032) scale(0.0833 -0.0833)">
     <defs>
      <path id="DejaVuSans-33" d="M 2597 2516 
Q 3050 2419 3304 2112 
Q 3559 1806 3559 1356 
Q 3559 666 3084 287 
Q 2609 -91 1734 -91 
Q 1441 -91 1130 -33 
Q 819 25 488 141 
L 488 750 
Q 750 597 1062 519 
Q 1375 441 1716 441 
Q 2309 441 2620 675 
Q 2931 909 2931 1356 
Q 2931 1769 2642 2001 
Q 2353 2234 1838 2234 
L 1294 2234 
L 1294 2753 
L 1863 2753 
Q 2328 2753 2575 2939 
Q 2822 3125 2822 3475 
Q 2822 3834 2567 4026 
Q 2313 4219 1838 4219 
Q 1578 4219 1281 4162 
Q 984 4106 628 3988 
L 628 4550 
Q 988 4650 1302 4700 
Q 1616 4750 1894 4750 
Q 2613 4750 3031 4423 
Q 3450 4097 3450 3541 
Q 3450 3153 3228 2886 
Q 3006 2619 2597 2516 
z
" transform="scale(0.015625)"/>
     </defs>
     <use xlink:href="#DejaVuSans-33"/>
    </g>
   </g>
   <g id="text_5">
    <!-- 4 -->
    <g style="fill: #ffffff" transform="translate(162.150439 117.673698) scale(0.0833 -0.0833)">
     <defs>
      <path id="DejaVuSans-34" d="M 2419 4116 
L 825 1625 
L 2419 1625 
L 2419 4116 
z
M 2253 4666 
L 3047 4666 
L 3047 1625 
L 3713 1625 
L 3713 1100 
L 3047 1100 
L 3047 0 
L 2419 0 
L 2419 1100 
L 313 1100 
L 313 1709 
L 2253 4666 
z
" transform="scale(0.015625)"/>
     </defs>
     <use xlink:href="#DejaVuSans-34"/>
    </g>
   </g>
   <g id="text_6">
    <!-- 5 -->
    <g style="fill: #ffffff" transform="translate(146.625824 73.564945) scale(0.0833 -0.0833)">
     <defs>
      <path id="DejaVuSans-35" d="M 691 4666 
L 3169 4666 
L 3169 4134 
L 1269 4134 
L 1269 2991 
Q 1406 3038 1543 3061 
Q 1681 3084 1819 3084 
Q 2600 3084 3056 2656 
Q 3513 2228 3513 1497 
Q 3513 744 3044 326 
Q 2575 -91 1722 -91 
Q 1428 -91 1123 -41 
Q 819 9 494 109 
L 494 744 
Q 775 591 1075 516 
Q 1375 441 1709 441 
Q 2250 441 2565 725 
Q 2881 1009 2881 1497 
Q 2881 1984 2565 2268 
Q 2250 2553 1709 2553 
Q 1456 2553 1204 2497 
Q 953 2441 691 2322 
L 691 4666 
z
" transform="scale(0.015625)"/>
     </defs>
     <use xlink:href="#DejaVuSans-35"/>
    </g>
   </g>
   <g id="text_7">
    <!-- 6 -->
    <g style="fill: #ffffff" transform="translate(218.205315 59.534191) scale(0.0833 -0.0833)">
     <defs>
      <path id="DejaVuSans-36" d="M 2113 2584 
Q 1688 2584 1439 2293 
Q 1191 2003 1191 1497 
Q 1191 994 1439 701 
Q 1688 409 2113 409 
Q 2538 409 2786 701 
Q 3034 994 3034 1497 
Q 3034 2003 2786 2293 
Q 2538 2584 2113 2584 
z
M 3366 4563 
L 3366 3988 
Q 3128 4100 2886 4159 
Q 2644 4219 2406 4219 
Q 1781 4219 1451 3797 
Q 1122 3375 1075 2522 
Q 1259 2794 1537 2939 
Q 1816 3084 2150 3084 
Q 2853 3084 3261 2657 
Q 3669 2231 3669 1497 
Q 3669 778 3244 343 
Q 2819 -91 2113 -91 
Q 1303 -91 875 529 
Q 447 1150 447 2328 
Q 447 3434 972 4092 
Q 1497 4750 2381 4750 
Q 2619 4750 2861 4703 
Q 3103 4656 3366 4563 
z
" transform="scale(0.015625)"/>
     </defs>
     <use xlink:href="#DejaVuSans-36"/>
    </g>
   </g>
   <g id="text_8">
    <!-- 7 -->
    <g style="fill: #ffffff" transform="translate(200.779613 82.892906) scale(0.0833 -0.0833)">
     <defs>
      <path id="DejaVuSans-37" d="M 525 4666 
L 3525 4666 
L 3525 4397 
L 1831 0 
L 1172 0 
L 2766 4134 
L 525 4134 
L 525 4666 
z
" transform="scale(0.015625)"/>
     </defs>
     <use xlink:href="#DejaVuSans-37"/>
    </g>
   </g>
   <g id="text_9">
    <!-- 8 -->
    <g style="fill: #ffffff" transform="translate(244.981618 110.330308) scale(0.0833 -0.0833)">
     <defs>
      <path id="DejaVuSans-38" d="M 2034 2216 
Q 1584 2216 1326 1975 
Q 1069 1734 1069 1313 
Q 1069 891 1326 650 
Q 1584 409 2034 409 
Q 2484 409 2743 651 
Q 3003 894 3003 1313 
Q 3003 1734 2745 1975 
Q 2488 2216 2034 2216 
z
M 1403 2484 
Q 997 2584 770 2862 
Q 544 3141 544 3541 
Q 544 4100 942 4425 
Q 1341 4750 2034 4750 
Q 2731 4750 3128 4425 
Q 3525 4100 3525 3541 
Q 3525 3141 3298 2862 
Q 3072 2584 2669 2484 
Q 3125 2378 3379 2068 
Q 3634 1759 3634 1313 
Q 3634 634 3220 271 
Q 2806 -91 2034 -91 
Q 1263 -91 848 271 
Q 434 634 434 1313 
Q 434 1759 690 2068 
Q 947 2378 1403 2484 
z
M 1172 3481 
Q 1172 3119 1398 2916 
Q 1625 2713 2034 2713 
Q 2441 2713 2670 2916 
Q 2900 3119 2900 3481 
Q 2900 3844 2670 4047 
Q 2441 4250 2034 4250 
Q 1625 4250 1398 4047 
Q 1172 3844 1172 3481 
z
" transform="scale(0.015625)"/>
     </defs>
     <use xlink:href="#DejaVuSans-38"/>
    </g>
   </g>
   <g id="text_10">
    <!-- 9 -->
    <g style="fill: #ffffff" transform="translate(281.329961 76.555111) scale(0.0833 -0.0833)">
     <defs>
      <path id="DejaVuSans-39" d="M 703 97 
L 703 672 
Q 941 559 1184 500 
Q 1428 441 1663 441 
Q 2288 441 2617 861 
Q 2947 1281 2994 2138 
Q 2813 1869 2534 1725 
Q 2256 1581 1919 1581 
Q 1219 1581 811 2004 
Q 403 2428 403 3163 
Q 403 3881 828 4315 
Q 1253 4750 1959 4750 
Q 2769 4750 3195 4129 
Q 3622 3509 3622 2328 
Q 3622 1225 3098 567 
Q 2575 -91 1691 -91 
Q 1453 -91 1209 -44 
Q 966 3 703 97 
z
M 1959 2075 
Q 2384 2075 2632 2365 
Q 2881 2656 2881 3163 
Q 2881 3666 2632 3958 
Q 2384 4250 1959 4250 
Q 1534 4250 1286 3958 
Q 1038 3666 1038 3163 
Q 1038 2656 1286 2365 
Q 1534 2075 1959 2075 
z
" transform="scale(0.015625)"/>
     </defs>
     <use xlink:href="#DejaVuSans-39"/>
    </g>
   </g>
   <g id="text_11">
    <!-- 10 -->
    <g style="fill: #ffffff" transform="translate(295.488199 136.292184) scale(0.0833 -0.0833)">
     <defs>
      <path id="DejaVuSans-30" d="M 2034 4250 
Q 1547 4250 1301 3770 
Q 1056 3291 1056 2328 
Q 1056 1369 1301 889 
Q 1547 409 2034 409 
Q 2525 409 2770 889 
Q 3016 1369 3016 2328 
Q 3016 3291 2770 3770 
Q 2525 4250 2034 4250 
z
M 2034 4750 
Q 2819 4750 3233 4129 
Q 3647 3509 3647 2328 
Q 3647 1150 3233 529 
Q 2819 -91 2034 -91 
Q 1250 -91 836 529 
Q 422 1150 422 2328 
Q 422 3509 836 4129 
Q 1250 4750 2034 4750 
z
" transform="scale(0.015625)"/>
     </defs>
     <use xlink:href="#DejaVuSans-31"/>
     <use xlink:href="#DejaVuSans-30" x="63.623047"/>
    </g>
   </g>
   <g id="text_12">
    <!-- 11 -->
    <g style="fill: #ffffff" transform="translate(355.538027 145.329467) scale(0.0833 -0.0833)">
     <use xlink:href="#DejaVuSans-31"/>
     <use xlink:href="#DejaVuSans-31" x="63.623047"/>
    </g>
   </g>
   <g id="text_13">
    <!-- 12 -->
    <g style="fill: #ffffff" transform="translate(346.06839 256.112729) scale(0.0833 -0.0833)">
     <use xlink:href="#DejaVuSans-31"/>
     <use xlink:href="#DejaVuSans-32" x="63.623047"/>
    </g>
   </g>
   <g id="text_14">
    <!-- 12A -->
    <g style="fill: #ffffff" transform="translate(305.735164 232.73885) scale(0.0833 -0.0833)">
     <use xlink:href="#DejaVuSans-31"/>
     <use xlink:href="#DejaVuSans-32" x="63.623047"/>
     <use xlink:href="#DejaVuSans-41" x="127.246094"/>
    </g>
   </g>
   <g id="text_15">
    <!-- 13 -->
    <g style="fill: #ffffff" transform="translate(267.21995 257.312281) scale(0.0833 -0.0833)">
     <use xlink:href="#DejaVuSans-31"/>
     <use xlink:href="#DejaVuSans-33" x="63.623047"/>
    </g>
   </g>
   <g id="text_16">
    <!-- 14 -->
    <g style="fill: #ffffff" transform="translate(347.792426 284.792591) scale(0.0833 -0.0833)">
     <use xlink:href="#DejaVuSans-31"/>
     <use xlink:href="#DejaVuSans-34" x="63.623047"/>
    </g>
   </g>
  </g>
 </g>
 <defs>
  <clipPath id="p709ee84b3e">
   <rect x="57.6" y="41.472" width="357.12" height="266.112"/>
  </clipPath>
 </defs>
</svg>
