<?xml version="1.0" encoding="utf-8" standalone="no"?>
<!DOCTYPE svg PUBLIC "-//W3C//DTD SVG 1.1//EN"
  "http://www.w3.org/Graphics/SVG/1.1/DTD/svg11.dtd">
<svg xmlns:xlink="http://www.w3.org/1999/xlink" width="460.8pt" height="345.6pt" viewBox="0 0 460.8 345.6" xmlns="http://www.w3.org/2000/svg" version="1.1">
 <metadata>
  <rdf:RDF xmlns:dc="http://purl.org/dc/elements/1.1/" xmlns:cc="http://creativecommons.org/ns#" xmlns:rdf="http://www.w3.org/1999/02/22-rdf-syntax-ns#">
   <cc:Work>
    <dc:type rdf:resource="http://purl.org/dc/dcmitype/StillImage"/>
    <dc:date>2024-08-17T22:19:38.883802</dc:date>
    <dc:format>image/svg+xml</dc:format>
    <dc:creator>
     <cc:Agent>
      <dc:title>Matplotlib v3.9.0, https://matplotlib.org/</dc:title>
     </cc:Agent>
    </dc:creator>
   </cc:Work>
  </rdf:RDF>
 </metadata>
 <defs>
  <style type="text/css">*{stroke-linejoin: round; stroke-linecap: butt}</style>
 </defs>
 <g id="figure_1">
  <g id="patch_1">
   <path d="M 0 345.6 
L 460.8 345.6 
L 460.8 0 
L 0 0 
z
" style="fill: #ffffff"/>
  </g>
  <g id="axes_1">
   <g id="patch_2">
    <path d="M 57.6 307.584 
L 414.72 307.584 
L 414.72 41.472 
L 57.6 41.472 
z
" style="fill: #ffffff"/>
   </g>
   <g id="PathCollection_1">
    <defs>
     <path id="mfe56c1bbfc" d="M 0 5.91608 
C 1.568963 5.91608 3.073876 5.292724 4.1833 4.1833 
C 5.292724 3.073876 5.91608 1.568963 5.91608 0 
C 5.91608 -1.568963 5.292724 -3.073876 4.1833 -4.1833 
C 3.073876 -5.292724 1.568963 -5.91608 0 -5.91608 
C -1.568963 -5.91608 -3.073876 -5.292724 -4.1833 -4.1833 
C -5.292724 -3.073876 -5.91608 -1.568963 -5.91608 0 
C -5.91608 1.568963 -5.292724 3.073876 -4.1833 4.1833 
C -3.073876 5.292724 -1.568963 5.91608 0 5.91608 
z
" style="stroke: #808080"/>
    </defs>
    <g clip-path="url(#pd180fc568f)">
     <use xlink:href="#mfe56c1bbfc" x="73.832727" y="252.994143" style="fill: #808080; stroke: #808080"/>
    </g>
   </g>
   <g id="PathCollection_2">
    <g clip-path="url(#pd180fc568f)">
     <use xlink:href="#mfe56c1bbfc" x="146.827899" y="165.346221" style="fill: #808080; stroke: #808080"/>
    </g>
   </g>
   <g id="PathCollection_3">
    <g clip-path="url(#pd180fc568f)">
     <use xlink:href="#mfe56c1bbfc" x="148.041672" y="141.250743" style="fill: #808080; stroke: #808080"/>
    </g>
   </g>
   <g id="PathCollection_4">
    <g clip-path="url(#pd180fc568f)">
     <use xlink:href="#mfe56c1bbfc" x="169.042001" y="151.908683" style="fill: #808080; stroke: #808080"/>
    </g>
   </g>
   <g id="PathCollection_5">
    <g clip-path="url(#pd180fc568f)">
     <use xlink:href="#mfe56c1bbfc" x="332.040789" y="66.991946" style="fill: #808080; stroke: #808080"/>
    </g>
   </g>
   <g id="PathCollection_6">
    <g clip-path="url(#pd180fc568f)">
     <use xlink:href="#mfe56c1bbfc" x="337.45972" y="89.367905" style="fill: #808080; stroke: #808080"/>
    </g>
   </g>
   <g id="PathCollection_7">
    <g clip-path="url(#pd180fc568f)">
     <use xlink:href="#mfe56c1bbfc" x="361.41194" y="86.277879" style="fill: #808080; stroke: #808080"/>
    </g>
   </g>
   <g id="PathCollection_8">
    <g clip-path="url(#pd180fc568f)">
     <use xlink:href="#mfe56c1bbfc" x="398.487273" y="135.44949" style="fill: #808080; stroke: #808080"/>
    </g>
   </g>
   <g id="PathCollection_9">
    <g clip-path="url(#pd180fc568f)">
     <use xlink:href="#mfe56c1bbfc" x="365.255654" y="116.09799" style="fill: #808080; stroke: #808080"/>
    </g>
   </g>
   <g id="PathCollection_10">
    <g clip-path="url(#pd180fc568f)">
     <use xlink:href="#mfe56c1bbfc" x="283.437476" y="126.587417" style="fill: #808080; stroke: #808080"/>
    </g>
   </g>
   <g id="PathCollection_11">
    <g clip-path="url(#pd180fc568f)">
     <use xlink:href="#mfe56c1bbfc" x="296.011377" y="162.339208" style="fill: #808080; stroke: #808080"/>
    </g>
   </g>
   <g id="PathCollection_12">
    <g clip-path="url(#pd180fc568f)">
     <use xlink:href="#mfe56c1bbfc" x="357.182692" y="188.239881" style="fill: #808080; stroke: #808080"/>
    </g>
   </g>
   <g id="PathCollection_13">
    <g clip-path="url(#pd180fc568f)">
     <use xlink:href="#mfe56c1bbfc" x="341.884005" y="218.847021" style="fill: #808080; stroke: #808080"/>
    </g>
   </g>
   <g id="PathCollection_14">
    <g clip-path="url(#pd180fc568f)">
     <use xlink:href="#mfe56c1bbfc" x="392.217439" y="242.170375" style="fill: #808080; stroke: #808080"/>
    </g>
   </g>
   <g id="PathCollection_15">
    <g clip-path="url(#pd180fc568f)">
     <use xlink:href="#mfe56c1bbfc" x="363.936328" y="282.064054" style="fill: #808080; stroke: #808080"/>
    </g>
   </g>
   <g id="PathCollection_16">
    <g clip-path="url(#pd180fc568f)">
     <use xlink:href="#mfe56c1bbfc" x="276.658099" y="207.358084" style="fill: #808080; stroke: #808080"/>
    </g>
   </g>
   <g id="PathCollection_17">
    <g clip-path="url(#pd180fc568f)">
     <use xlink:href="#mfe56c1bbfc" x="240.499295" y="178.281711" style="fill: #808080; stroke: #808080"/>
    </g>
   </g>
   <g id="PathCollection_18">
    <g clip-path="url(#pd180fc568f)">
     <use xlink:href="#mfe56c1bbfc" x="156.845418" y="215.963432" style="fill: #808080; stroke: #808080"/>
    </g>
   </g>
   <g id="PathCollection_19">
    <g clip-path="url(#pd180fc568f)">
     <use xlink:href="#mfe56c1bbfc" x="156.436884" y="192.629675" style="fill: #808080; stroke: #808080"/>
    </g>
   </g>
   <g id="matplotlib.axis_1"/>
   <g id="matplotlib.axis_2"/>
   <g id="line2d_1">
    <path d="M 126.757293 217.265981 
L 87.807027 243.991056 
L 86.300251 244.905622 
L 83.94273 246.152275 
L 82.476883 246.685441 
L 81.338774 246.911511 
L 79.418411 246.84986 
L 78.700416 246.608603 
L 78.074518 246.191257 
L 77.572985 245.628984 
L 77.244219 244.968524 
L 77.051801 243.940861 
L 77.143425 242.828931 
L 77.69277 240.677989 
L 78.831396 237.755391 
L 80.222074 234.733223 
L 87.900461 219.355937 
L 90.008938 215.65504 
L 92.804607 211.339398 
L 96.088247 206.809034 
L 98.353 203.882642 
L 100.653342 201.177694 
L 104.640227 196.952292 
L 111.562012 190.026729 
L 122.558548 179.365947 
L 129.801349 172.656847 
L 133.952893 168.777532 
L 136.041478 166.66317 
L 137.782868 164.65004 
L 139.113913 162.755105 
L 140.539627 159.922668 
L 142.098643 156.5486 
L 144.763778 152.933158 
L 148.739154 149.865874 
L 151.443592 148.502132 
L 157.230465 146.529421 
L 163.539157 145.372419 
L 168.10836 143.611305 
L 169.066782 143.086995 
L 172.787258 140.86484 
L 177.694601 137.575083 
L 193.864291 125.221955 
L 198.297584 122.035645 
L 200.570837 120.504949 
L 204.713087 117.910608 
L 208.326162 115.896531 
L 211.282652 114.433219 
L 214.304508 113.079798 
L 217.644334 111.768413 
L 237.728571 104.676546 
L 265.852292 94.716106 
L 298.073657 83.240712 
L 317.101284 76.500387 
L 319.577 75.664079 
L 322.544008 74.803335 
L 325.057251 74.299471 
L 326.689142 74.191677 
L 328.49989 74.334551 
L 330.973231 75.179644 
L 332.400285 76.058861 
L 334.654869 78.002241 
L 336.862989 80.00988 
L 338.276399 81.016231 
L 339.556034 81.628369 
L 341.292478 82.058054 
L 342.341257 82.166642 
L 344.354825 82.115634 
L 346.362857 81.747484 
L 348.807966 80.975158 
L 355.236951 78.531245 
L 356.753138 78.155818 
L 359.476121 77.854499 
L 361.558099 78.087809 
L 363.31123 78.564788 
L 365.54893 79.540889 
L 367.618569 80.884746 
L 369.083979 82.143979 
L 370.848933 84.206939 
L 374.263608 89.001069 
L 378.717491 95.172904 
L 384.202001 102.230876 
L 391.903765 111.819769 
L 393.922628 114.798285 
L 395.91808 118.253067 
L 396.592576 119.637138 
L 397.077894 121.087959 
L 397.220447 122.893724 
L 397.010547 124.499437 
L 396.141847 126.529058 
L 395.101291 127.800309 
L 393.929728 128.835919 
L 392.704503 129.523504 
L 391.553029 129.892564 
L 389.89053 130.06434 
L 388.921867 130.001939 
L 388.046685 129.842735 
L 385.84319 129.008794 
L 385.057891 128.546645 
L 382.707335 126.557354 
L 381.736537 125.463969 
L 379.982459 123.115305 
L 379.281508 122.033071 
L 373.646695 112.725337 
L 371.853626 110.869072 
L 370.118645 109.614544 
L 369.125821 109.076709 
L 365.987315 108.290812 
L 364.653662 108.21892 
L 361.819681 108.522177 
L 359.498383 109.117861 
L 356.378064 110.282658 
L 344.633684 115.357252 
L 340.378854 116.95426 
L 335.851133 118.365689 
L 328.85691 120.232579 
L 323.376383 121.58133 
L 302.476124 126.450917 
L 297.502469 127.759097 
L 295.027583 128.642976 
L 291.035046 130.727124 
L 287.099134 134.237852 
L 286.384933 135.122721 
L 284.273688 138.665047 
L 283.549363 140.787319 
L 283.099786 144.110298 
L 282.938519 149.410978 
L 282.992019 151.567259 
L 283.447044 155.82616 
L 284.291931 158.793445 
L 285.231488 160.823226 
L 287.142119 163.962251 
L 288.813868 166.137871 
L 290.882596 168.338285 
L 292.188052 169.521001 
L 294.375056 171.227632 
L 297.150154 173.003308 
L 301.741536 175.238999 
L 306.068134 176.844836 
L 329.332262 183.81453 
L 342.250645 187.840021 
L 343.272415 188.218733 
L 345.557963 189.20986 
L 348.282723 190.827796 
L 350.537307 192.771176 
L 351.653862 194.036498 
L 352.76148 195.698523 
L 353.338619 196.957399 
L 353.710448 198.267444 
L 353.891991 199.580811 
L 353.930741 201.800796 
L 353.586431 203.884712 
L 353.073863 205.416398 
L 350.988163 209.513444 
L 350.034285 212.115579 
L 349.698912 213.802792 
L 349.601395 215.485852 
L 349.982831 218.255022 
L 350.370516 219.56479 
L 351.262225 221.579545 
L 352.225192 223.133062 
L 353.327274 224.477946 
L 361.201019 230.288712 
L 363.489612 231.454267 
L 374.444132 236.56092 
L 377.054017 237.958795 
L 379.570144 239.437616 
L 382.319064 241.530986 
L 382.900712 242.139446 
L 384.004455 243.579473 
L 384.941798 245.482398 
L 385.264948 246.729845 
L 385.325447 248.378424 
L 385.120253 250.253707 
L 384.753719 251.973187 
L 384.347445 253.233366 
L 383.048034 256.031875 
L 381.585348 258.563582 
L 379.468844 261.804624 
L 377.565758 264.550223 
L 376.308186 266.110776 
L 373.971978 268.578421 
L 372.174712 270.11667 
L 368.927457 272.187809 
L 367.039558 273.077304 
L 364.294826 273.950031 
L 362.158 274.209395 
L 358.382087 274.164271 
L 355.489186 273.81822 
L 351.524729 272.967431 
L 347.585343 271.73552 
L 342.855123 269.724319 
L 340.950421 268.742406 
L 338.242349 267.171764 
L 334.182633 264.498523 
L 331.966129 262.919301 
L 327.285302 259.194156 
L 324.240991 256.534914 
L 319.256745 251.784043 
L 315.571036 247.819462 
L 312.88258 244.646429 
L 309.763849 240.449885 
L 307.516068 237.078817 
L 294.922165 216.202354 
L 292.202905 212.173317 
L 288.457723 207.527713 
L 285.421519 204.424198 
L 283.455683 202.66612 
L 281.54157 201.145067 
L 279.068862 199.427561 
L 276.712413 198.009401 
L 273.814056 196.44208 
L 267.833424 193.675474 
L 262.257246 191.361802 
L 255.838706 188.9518 
L 253.748701 188.258635 
L 248.712689 186.903108 
L 242.815887 186.212944 
L 239.534863 186.349524 
L 234.885072 187.128609 
L 231.021132 188.401556 
L 227.192505 189.880092 
L 220.20263 192.904823 
L 206.479085 199.092571 
L 204.212001 200.067994 
L 198.587573 202.259936 
L 194.926731 203.354857 
L 187.375851 205.136293 
L 178.208383 206.993533 
L 167.849699 208.760531 
L 165.031574 209.063512 
L 162.588483 209.042709 
L 160.681486 208.838067 
L 158.972881 208.185831 
L 158.507214 207.860859 
L 157.844066 207.126927 
L 157.614041 206.670948 
L 157.321221 205.343661 
L 157.088035 202.889141 
L 156.82076 202.116575 
L 156.493655 201.551257 
L 155.575134 200.726611 
L 155.095824 200.528773 
L 154.363356 200.367077 
L 153.094792 200.38922 
L 151.751649 200.682317 
L 150.365363 201.229956 
L 148.370341 202.343387 
L 145.157013 204.540829 
L 133.262126 212.806286 
L 128.732307 215.914972 
L 128.732307 215.914972 
" clip-path="url(#pd180fc568f)" style="fill: none; stroke: #1f77b4; stroke-width: 1.5; stroke-linecap: square"/>
   </g>
   <g id="line2d_2">
    <path d="M 78.188439 246.367804 
L 73.832727 252.994143 
" clip-path="url(#pd180fc568f)" style="fill: none; stroke: #808080; stroke-width: 1.5; stroke-linecap: square"/>
   </g>
   <g id="line2d_3">
    <path d="M 139.771517 161.728478 
L 146.827899 165.346221 
" clip-path="url(#pd180fc568f)" style="fill: none; stroke: #808080; stroke-width: 1.5; stroke-linecap: square"/>
   </g>
   <g id="line2d_4">
    <path d="M 151.091984 148.570319 
L 148.041672 141.250743 
" clip-path="url(#pd180fc568f)" style="fill: none; stroke: #808080; stroke-width: 1.5; stroke-linecap: square"/>
   </g>
   <g id="line2d_5">
    <path d="M 166.119309 144.53722 
L 169.042001 151.908683 
" clip-path="url(#pd180fc568f)" style="fill: none; stroke: #808080; stroke-width: 1.5; stroke-linecap: square"/>
   </g>
   <g id="line2d_6">
    <path d="M 329.584509 74.53166 
L 332.040789 66.991946 
" clip-path="url(#pd180fc568f)" style="fill: none; stroke: #808080; stroke-width: 1.5; stroke-linecap: square"/>
   </g>
   <g id="line2d_7">
    <path d="M 339.660526 81.7497 
L 337.45972 89.367905 
" clip-path="url(#pd180fc568f)" style="fill: none; stroke: #808080; stroke-width: 1.5; stroke-linecap: square"/>
   </g>
   <g id="line2d_8">
    <path d="M 364.818408 79.117113 
L 361.41194 86.277879 
" clip-path="url(#pd180fc568f)" style="fill: none; stroke: #808080; stroke-width: 1.5; stroke-linecap: square"/>
   </g>
   <g id="line2d_9">
    <path d="M 394.153994 128.808459 
L 398.487273 135.44949 
" clip-path="url(#pd180fc568f)" style="fill: none; stroke: #808080; stroke-width: 1.5; stroke-linecap: square"/>
   </g>
   <g id="line2d_10">
    <path d="M 366.19075 108.223589 
L 365.255654 116.09799 
" clip-path="url(#pd180fc568f)" style="fill: none; stroke: #808080; stroke-width: 1.5; stroke-linecap: square"/>
   </g>
   <g id="line2d_11">
    <path d="M 288.738524 132.48483 
L 283.437476 126.587417 
" clip-path="url(#pd180fc568f)" style="fill: none; stroke: #808080; stroke-width: 1.5; stroke-linecap: square"/>
   </g>
   <g id="line2d_12">
    <path d="M 290.396164 167.938313 
L 296.011377 162.339208 
" clip-path="url(#pd180fc568f)" style="fill: none; stroke: #808080; stroke-width: 1.5; stroke-linecap: square"/>
   </g>
   <g id="line2d_13">
    <path d="M 351.227549 193.475993 
L 357.182692 188.239881 
" clip-path="url(#pd180fc568f)" style="fill: none; stroke: #808080; stroke-width: 1.5; stroke-linecap: square"/>
   </g>
   <g id="line2d_14">
    <path d="M 349.581637 216.942539 
L 341.884005 218.847021 
" clip-path="url(#pd180fc568f)" style="fill: none; stroke: #808080; stroke-width: 1.5; stroke-linecap: square"/>
   </g>
   <g id="line2d_15">
    <path d="M 384.856753 245.120105 
L 392.217439 242.170375 
" clip-path="url(#pd180fc568f)" style="fill: none; stroke: #808080; stroke-width: 1.5; stroke-linecap: square"/>
   </g>
   <g id="line2d_16">
    <path d="M 362.886006 274.204193 
L 363.936328 282.064054 
" clip-path="url(#pd180fc568f)" style="fill: none; stroke: #808080; stroke-width: 1.5; stroke-linecap: square"/>
   </g>
   <g id="line2d_17">
    <path d="M 281.355974 200.969769 
L 276.658099 207.358084 
" clip-path="url(#pd180fc568f)" style="fill: none; stroke: #808080; stroke-width: 1.5; stroke-linecap: square"/>
   </g>
   <g id="line2d_18">
    <path d="M 241.013404 186.194757 
L 240.499295 178.281711 
" clip-path="url(#pd180fc568f)" style="fill: none; stroke: #808080; stroke-width: 1.5; stroke-linecap: square"/>
   </g>
   <g id="line2d_19">
    <path d="M 159.719274 208.572793 
L 156.845418 215.963432 
" clip-path="url(#pd180fc568f)" style="fill: none; stroke: #808080; stroke-width: 1.5; stroke-linecap: square"/>
   </g>
   <g id="line2d_20">
    <path d="M 154.583589 200.339791 
L 156.436884 192.629675 
" clip-path="url(#pd180fc568f)" style="fill: none; stroke: #808080; stroke-width: 1.5; stroke-linecap: square"/>
   </g>
   <g id="patch_3">
    <path d="M 57.6 307.584 
L 57.6 41.472 
" style="fill: none; stroke: #000000; stroke-width: 0.8; stroke-linejoin: miter; stroke-linecap: square"/>
   </g>
   <g id="patch_4">
    <path d="M 414.72 307.584 
L 414.72 41.472 
" style="fill: none; stroke: #000000; stroke-width: 0.8; stroke-linejoin: miter; stroke-linecap: square"/>
   </g>
   <g id="patch_5">
    <path d="M 57.6 307.584 
L 414.72 307.584 
" style="fill: none; stroke: #000000; stroke-width: 0.8; stroke-linejoin: miter; stroke-linecap: square"/>
   </g>
   <g id="patch_6">
    <path d="M 57.6 41.472 
L 414.72 41.472 
" style="fill: none; stroke: #000000; stroke-width: 0.8; stroke-linejoin: miter; stroke-linecap: square"/>
   </g>
   <g id="text_1">
    <!-- 1 -->
    <g style="fill: #ffffff" transform="translate(71.182746 256.158892) scale(0.0833 -0.0833)">
     <defs>
      <path id="DejaVuSans-31" d="M 794 531 
L 1825 531 
L 1825 4091 
L 703 3866 
L 703 4441 
L 1819 4666 
L 2450 4666 
L 2450 531 
L 3481 531 
L 3481 0 
L 794 0 
L 794 531 
z
" transform="scale(0.015625)"/>
     </defs>
     <use xlink:href="#DejaVuSans-31"/>
    </g>
   </g>
   <g id="text_2">
    <!-- 2 -->
    <g style="fill: #ffffff" transform="translate(144.177918 168.51097) scale(0.0833 -0.0833)">
     <defs>
      <path id="DejaVuSans-32" d="M 1228 531 
L 3431 531 
L 3431 0 
L 469 0 
L 469 531 
Q 828 903 1448 1529 
Q 2069 2156 2228 2338 
Q 2531 2678 2651 2914 
Q 2772 3150 2772 3378 
Q 2772 3750 2511 3984 
Q 2250 4219 1831 4219 
Q 1534 4219 1204 4116 
Q 875 4013 500 3803 
L 500 4441 
Q 881 4594 1212 4672 
Q 1544 4750 1819 4750 
Q 2544 4750 2975 4387 
Q 3406 4025 3406 3419 
Q 3406 3131 3298 2873 
Q 3191 2616 2906 2266 
Q 2828 2175 2409 1742 
Q 1991 1309 1228 531 
z
" transform="scale(0.015625)"/>
     </defs>
     <use xlink:href="#DejaVuSans-32"/>
    </g>
   </g>
   <g id="text_3">
    <!-- 3 -->
    <g style="fill: #ffffff" transform="translate(145.391691 144.415492) scale(0.0833 -0.0833)">
     <defs>
      <path id="DejaVuSans-33" d="M 2597 2516 
Q 3050 2419 3304 2112 
Q 3559 1806 3559 1356 
Q 3559 666 3084 287 
Q 2609 -91 1734 -91 
Q 1441 -91 1130 -33 
Q 819 25 488 141 
L 488 750 
Q 750 597 1062 519 
Q 1375 441 1716 441 
Q 2309 441 2620 675 
Q 2931 909 2931 1356 
Q 2931 1769 2642 2001 
Q 2353 2234 1838 2234 
L 1294 2234 
L 1294 2753 
L 1863 2753 
Q 2328 2753 2575 2939 
Q 2822 3125 2822 3475 
Q 2822 3834 2567 4026 
Q 2313 4219 1838 4219 
Q 1578 4219 1281 4162 
Q 984 4106 628 3988 
L 628 4550 
Q 988 4650 1302 4700 
Q 1616 4750 1894 4750 
Q 2613 4750 3031 4423 
Q 3450 4097 3450 3541 
Q 3450 3153 3228 2886 
Q 3006 2619 2597 2516 
z
" transform="scale(0.015625)"/>
     </defs>
     <use xlink:href="#DejaVuSans-33"/>
    </g>
   </g>
   <g id="text_4">
    <!-- 4 -->
    <g style="fill: #ffffff" transform="translate(166.392019 155.073433) scale(0.0833 -0.0833)">
     <defs>
      <path id="DejaVuSans-34" d="M 2419 4116 
L 825 1625 
L 2419 1625 
L 2419 4116 
z
M 2253 4666 
L 3047 4666 
L 3047 1625 
L 3713 1625 
L 3713 1100 
L 3047 1100 
L 3047 0 
L 2419 0 
L 2419 1100 
L 313 1100 
L 313 1709 
L 2253 4666 
z
" transform="scale(0.015625)"/>
     </defs>
     <use xlink:href="#DejaVuSans-34"/>
    </g>
   </g>
   <g id="text_5">
    <!-- 5 -->
    <g style="fill: #ffffff" transform="translate(329.390808 70.156695) scale(0.0833 -0.0833)">
     <defs>
      <path id="DejaVuSans-35" d="M 691 4666 
L 3169 4666 
L 3169 4134 
L 1269 4134 
L 1269 2991 
Q 1406 3038 1543 3061 
Q 1681 3084 1819 3084 
Q 2600 3084 3056 2656 
Q 3513 2228 3513 1497 
Q 3513 744 3044 326 
Q 2575 -91 1722 -91 
Q 1428 -91 1123 -41 
Q 819 9 494 109 
L 494 744 
Q 775 591 1075 516 
Q 1375 441 1709 441 
Q 2250 441 2565 725 
Q 2881 1009 2881 1497 
Q 2881 1984 2565 2268 
Q 2250 2553 1709 2553 
Q 1456 2553 1204 2497 
Q 953 2441 691 2322 
L 691 4666 
z
" transform="scale(0.015625)"/>
     </defs>
     <use xlink:href="#DejaVuSans-35"/>
    </g>
   </g>
   <g id="text_6">
    <!-- 6 -->
    <g style="fill: #ffffff" transform="translate(334.809739 92.532654) scale(0.0833 -0.0833)">
     <defs>
      <path id="DejaVuSans-36" d="M 2113 2584 
Q 1688 2584 1439 2293 
Q 1191 2003 1191 1497 
Q 1191 994 1439 701 
Q 1688 409 2113 409 
Q 2538 409 2786 701 
Q 3034 994 3034 1497 
Q 3034 2003 2786 2293 
Q 2538 2584 2113 2584 
z
M 3366 4563 
L 3366 3988 
Q 3128 4100 2886 4159 
Q 2644 4219 2406 4219 
Q 1781 4219 1451 3797 
Q 1122 3375 1075 2522 
Q 1259 2794 1537 2939 
Q 1816 3084 2150 3084 
Q 2853 3084 3261 2657 
Q 3669 2231 3669 1497 
Q 3669 778 3244 343 
Q 2819 -91 2113 -91 
Q 1303 -91 875 529 
Q 447 1150 447 2328 
Q 447 3434 972 4092 
Q 1497 4750 2381 4750 
Q 2619 4750 2861 4703 
Q 3103 4656 3366 4563 
z
" transform="scale(0.015625)"/>
     </defs>
     <use xlink:href="#DejaVuSans-36"/>
    </g>
   </g>
   <g id="text_7">
    <!-- 7 -->
    <g style="fill: #ffffff" transform="translate(358.761958 89.442628) scale(0.0833 -0.0833)">
     <defs>
      <path id="DejaVuSans-37" d="M 525 4666 
L 3525 4666 
L 3525 4397 
L 1831 0 
L 1172 0 
L 2766 4134 
L 525 4134 
L 525 4666 
z
" transform="scale(0.015625)"/>
     </defs>
     <use xlink:href="#DejaVuSans-37"/>
    </g>
   </g>
   <g id="text_8">
    <!-- 8 -->
    <g style="fill: #ffffff" transform="translate(395.837291 138.61424) scale(0.0833 -0.0833)">
     <defs>
      <path id="DejaVuSans-38" d="M 2034 2216 
Q 1584 2216 1326 1975 
Q 1069 1734 1069 1313 
Q 1069 891 1326 650 
Q 1584 409 2034 409 
Q 2484 409 2743 651 
Q 3003 894 3003 1313 
Q 3003 1734 2745 1975 
Q 2488 2216 2034 2216 
z
M 1403 2484 
Q 997 2584 770 2862 
Q 544 3141 544 3541 
Q 544 4100 942 4425 
Q 1341 4750 2034 4750 
Q 2731 4750 3128 4425 
Q 3525 4100 3525 3541 
Q 3525 3141 3298 2862 
Q 3072 2584 2669 2484 
Q 3125 2378 3379 2068 
Q 3634 1759 3634 1313 
Q 3634 634 3220 271 
Q 2806 -91 2034 -91 
Q 1263 -91 848 271 
Q 434 634 434 1313 
Q 434 1759 690 2068 
Q 947 2378 1403 2484 
z
M 1172 3481 
Q 1172 3119 1398 2916 
Q 1625 2713 2034 2713 
Q 2441 2713 2670 2916 
Q 2900 3119 2900 3481 
Q 2900 3844 2670 4047 
Q 2441 4250 2034 4250 
Q 1625 4250 1398 4047 
Q 1172 3844 1172 3481 
z
" transform="scale(0.015625)"/>
     </defs>
     <use xlink:href="#DejaVuSans-38"/>
    </g>
   </g>
   <g id="text_9">
    <!-- 9 -->
    <g style="fill: #ffffff" transform="translate(362.605673 119.262739) scale(0.0833 -0.0833)">
     <defs>
      <path id="DejaVuSans-39" d="M 703 97 
L 703 672 
Q 941 559 1184 500 
Q 1428 441 1663 441 
Q 2288 441 2617 861 
Q 2947 1281 2994 2138 
Q 2813 1869 2534 1725 
Q 2256 1581 1919 1581 
Q 1219 1581 811 2004 
Q 403 2428 403 3163 
Q 403 3881 828 4315 
Q 1253 4750 1959 4750 
Q 2769 4750 3195 4129 
Q 3622 3509 3622 2328 
Q 3622 1225 3098 567 
Q 2575 -91 1691 -91 
Q 1453 -91 1209 -44 
Q 966 3 703 97 
z
M 1959 2075 
Q 2384 2075 2632 2365 
Q 2881 2656 2881 3163 
Q 2881 3666 2632 3958 
Q 2384 4250 1959 4250 
Q 1534 4250 1286 3958 
Q 1038 3666 1038 3163 
Q 1038 2656 1286 2365 
Q 1534 2075 1959 2075 
z
" transform="scale(0.015625)"/>
     </defs>
     <use xlink:href="#DejaVuSans-39"/>
    </g>
   </g>
   <g id="text_10">
    <!-- 10 -->
    <g style="fill: #ffffff" transform="translate(278.137513 129.752166) scale(0.0833 -0.0833)">
     <defs>
      <path id="DejaVuSans-30" d="M 2034 4250 
Q 1547 4250 1301 3770 
Q 1056 3291 1056 2328 
Q 1056 1369 1301 889 
Q 1547 409 2034 409 
Q 2525 409 2770 889 
Q 3016 1369 3016 2328 
Q 3016 3291 2770 3770 
Q 2525 4250 2034 4250 
z
M 2034 4750 
Q 2819 4750 3233 4129 
Q 3647 3509 3647 2328 
Q 3647 1150 3233 529 
Q 2819 -91 2034 -91 
Q 1250 -91 836 529 
Q 422 1150 422 2328 
Q 422 3509 836 4129 
Q 1250 4750 2034 4750 
z
" transform="scale(0.015625)"/>
     </defs>
     <use xlink:href="#DejaVuSans-31"/>
     <use xlink:href="#DejaVuSans-30" x="63.623047"/>
    </g>
   </g>
   <g id="text_11">
    <!-- 11 -->
    <g style="fill: #ffffff" transform="translate(290.711415 165.503957) scale(0.0833 -0.0833)">
     <use xlink:href="#DejaVuSans-31"/>
     <use xlink:href="#DejaVuSans-31" x="63.623047"/>
    </g>
   </g>
   <g id="text_12">
    <!-- 12 -->
    <g style="fill: #ffffff" transform="translate(351.88273 191.40463) scale(0.0833 -0.0833)">
     <use xlink:href="#DejaVuSans-31"/>
     <use xlink:href="#DejaVuSans-32" x="63.623047"/>
    </g>
   </g>
   <g id="text_13">
    <!-- 13 -->
    <g style="fill: #ffffff" transform="translate(336.584043 222.01177) scale(0.0833 -0.0833)">
     <use xlink:href="#DejaVuSans-31"/>
     <use xlink:href="#DejaVuSans-33" x="63.623047"/>
    </g>
   </g>
   <g id="text_14">
    <!-- 14 -->
    <g style="fill: #ffffff" transform="translate(386.917476 245.335124) scale(0.0833 -0.0833)">
     <use xlink:href="#DejaVuSans-31"/>
     <use xlink:href="#DejaVuSans-34" x="63.623047"/>
    </g>
   </g>
   <g id="text_15">
    <!-- 15 -->
    <g style="fill: #ffffff" transform="translate(358.636365 285.228803) scale(0.0833 -0.0833)">
     <use xlink:href="#DejaVuSans-31"/>
     <use xlink:href="#DejaVuSans-35" x="63.623047"/>
    </g>
   </g>
   <g id="text_16">
    <!-- 16 -->
    <g style="fill: #ffffff" transform="translate(271.358137 210.522833) scale(0.0833 -0.0833)">
     <use xlink:href="#DejaVuSans-31"/>
     <use xlink:href="#DejaVuSans-36" x="63.623047"/>
    </g>
   </g>
   <g id="text_17">
    <!-- 17 -->
    <g style="fill: #ffffff" transform="translate(235.199332 181.446461) scale(0.0833 -0.0833)">
     <use xlink:href="#DejaVuSans-31"/>
     <use xlink:href="#DejaVuSans-37" x="63.623047"/>
    </g>
   </g>
   <g id="text_18">
    <!-- 18 -->
    <g style="fill: #ffffff" transform="translate(151.545456 219.128182) scale(0.0833 -0.0833)">
     <use xlink:href="#DejaVuSans-31"/>
     <use xlink:href="#DejaVuSans-38" x="63.623047"/>
    </g>
   </g>
   <g id="text_19">
    <!-- 19 -->
    <g style="fill: #ffffff" transform="translate(151.136922 195.794424) scale(0.0833 -0.0833)">
     <use xlink:href="#DejaVuSans-31"/>
     <use xlink:href="#DejaVuSans-39" x="63.623047"/>
    </g>
   </g>
  </g>
 </g>
 <defs>
  <clipPath id="pd180fc568f">
   <rect x="57.6" y="41.472" width="357.12" height="266.112"/>
  </clipPath>
 </defs>
</svg>
