<?xml version="1.0" encoding="utf-8" standalone="no"?>
<!DOCTYPE svg PUBLIC "-//W3C//DTD SVG 1.1//EN"
  "http://www.w3.org/Graphics/SVG/1.1/DTD/svg11.dtd">
<svg xmlns:xlink="http://www.w3.org/1999/xlink" width="460.8pt" height="345.6pt" viewBox="0 0 460.8 345.6" xmlns="http://www.w3.org/2000/svg" version="1.1">
 <metadata>
  <rdf:RDF xmlns:dc="http://purl.org/dc/elements/1.1/" xmlns:cc="http://creativecommons.org/ns#" xmlns:rdf="http://www.w3.org/1999/02/22-rdf-syntax-ns#">
   <cc:Work>
    <dc:type rdf:resource="http://purl.org/dc/dcmitype/StillImage"/>
    <dc:date>2024-09-07T22:54:02.741598</dc:date>
    <dc:format>image/svg+xml</dc:format>
    <dc:creator>
     <cc:Agent>
      <dc:title>Matplotlib v3.9.0, https://matplotlib.org/</dc:title>
     </cc:Agent>
    </dc:creator>
   </cc:Work>
  </rdf:RDF>
 </metadata>
 <defs>
  <style type="text/css">*{stroke-linejoin: round; stroke-linecap: butt}</style>
 </defs>
 <g id="figure_1">
  <g id="patch_1">
   <path d="M 0 345.6 
L 460.8 345.6 
L 460.8 0 
L 0 0 
z
" style="fill: #ffffff"/>
  </g>
  <g id="axes_1">
   <g id="patch_2">
    <path d="M 57.6 307.584 
L 414.72 307.584 
L 414.72 41.472 
L 57.6 41.472 
z
" style="fill: #ffffff"/>
   </g>
   <g id="PathCollection_1">
    <defs>
     <path id="m55bd7d097f" d="M 0 5.91608 
C 1.568963 5.91608 3.073876 5.292724 4.1833 4.1833 
C 5.292724 3.073876 5.91608 1.568963 5.91608 0 
C 5.91608 -1.568963 5.292724 -3.073876 4.1833 -4.1833 
C 3.073876 -5.292724 1.568963 -5.91608 0 -5.91608 
C -1.568963 -5.91608 -3.073876 -5.292724 -4.1833 -4.1833 
C -5.292724 -3.073876 -5.91608 -1.568963 -5.91608 0 
C -5.91608 1.568963 -5.292724 3.073876 -4.1833 4.1833 
C -3.073876 5.292724 -1.568963 5.91608 0 5.91608 
z
" style="stroke: #808080"/>
    </defs>
    <g clip-path="url(#p3ef40c6b7a)">
     <use xlink:href="#m55bd7d097f" x="191.885939" y="53.568" style="fill: #808080; stroke: #808080"/>
    </g>
   </g>
   <g id="PathCollection_2">
    <g clip-path="url(#p3ef40c6b7a)">
     <use xlink:href="#m55bd7d097f" x="191.903759" y="149.521664" style="fill: #808080; stroke: #808080"/>
    </g>
   </g>
   <g id="PathCollection_3">
    <g clip-path="url(#p3ef40c6b7a)">
     <use xlink:href="#m55bd7d097f" x="162.210392" y="166.645618" style="fill: #808080; stroke: #808080"/>
    </g>
   </g>
   <g id="PathCollection_4">
    <g clip-path="url(#p3ef40c6b7a)">
     <use xlink:href="#m55bd7d097f" x="205.756313" y="181.063368" style="fill: #808080; stroke: #808080"/>
    </g>
   </g>
   <g id="PathCollection_5">
    <g clip-path="url(#p3ef40c6b7a)">
     <use xlink:href="#m55bd7d097f" x="254.511302" y="158.208048" style="fill: #808080; stroke: #808080"/>
    </g>
   </g>
   <g id="PathCollection_6">
    <g clip-path="url(#p3ef40c6b7a)">
     <use xlink:href="#m55bd7d097f" x="300.45439" y="166.806528" style="fill: #808080; stroke: #808080"/>
    </g>
   </g>
   <g id="PathCollection_7">
    <g clip-path="url(#p3ef40c6b7a)">
     <use xlink:href="#m55bd7d097f" x="356.176385" y="174.840096" style="fill: #808080; stroke: #808080"/>
    </g>
   </g>
   <g id="PathCollection_8">
    <g clip-path="url(#p3ef40c6b7a)">
     <use xlink:href="#m55bd7d097f" x="328.335044" y="234.71781" style="fill: #808080; stroke: #808080"/>
    </g>
   </g>
   <g id="PathCollection_9">
    <g clip-path="url(#p3ef40c6b7a)">
     <use xlink:href="#m55bd7d097f" x="295.67009" y="227.961618" style="fill: #808080; stroke: #808080"/>
    </g>
   </g>
   <g id="PathCollection_10">
    <g clip-path="url(#p3ef40c6b7a)">
     <use xlink:href="#m55bd7d097f" x="322.528867" y="195.473966" style="fill: #808080; stroke: #808080"/>
    </g>
   </g>
   <g id="PathCollection_11">
    <g clip-path="url(#p3ef40c6b7a)">
     <use xlink:href="#m55bd7d097f" x="188.249889" y="194.638727" style="fill: #808080; stroke: #808080"/>
    </g>
   </g>
   <g id="PathCollection_12">
    <g clip-path="url(#p3ef40c6b7a)">
     <use xlink:href="#m55bd7d097f" x="175.689296" y="213.387869" style="fill: #808080; stroke: #808080"/>
    </g>
   </g>
   <g id="PathCollection_13">
    <g clip-path="url(#p3ef40c6b7a)">
     <use xlink:href="#m55bd7d097f" x="160.497994" y="280.480591" style="fill: #808080; stroke: #808080"/>
    </g>
   </g>
   <g id="PathCollection_14">
    <g clip-path="url(#p3ef40c6b7a)">
     <use xlink:href="#m55bd7d097f" x="117.378413" y="266.875052" style="fill: #808080; stroke: #808080"/>
    </g>
   </g>
   <g id="matplotlib.axis_1"/>
   <g id="matplotlib.axis_2"/>
   <g id="line2d_1">
    <path d="M 148.452889 135.55313 
L 161.720905 102.963567 
L 163.241198 98.706746 
L 168.714255 79.716899 
L 169.985773 76.095836 
L 171.229649 73.359308 
L 172.749943 70.926838 
L 174.463728 68.964278 
L 176.509214 67.416343 
L 178.527058 66.448883 
L 182.14812 65.785482 
L 184.608232 66.034258 
L 188.118727 67.361059 
L 190.053646 69.102486 
L 190.882897 70.152871 
L 192.209699 72.474773 
L 193.232442 76.206403 
L 193.343008 78.887648 
L 192.707249 83.255036 
L 191.795073 86.57204 
L 190.164213 91.354054 
L 188.588636 95.555592 
L 185.769183 102.079033 
L 181.788778 111.14551 
L 179.356309 118.912828 
L 178.803475 123.611916 
L 178.775833 125.850894 
L 179.688009 138.842492 
L 179.079892 143.928565 
L 178.665266 145.1448 
L 176.509214 148.738221 
L 172.832868 151.917016 
L 167.995571 154.377127 
L 155.003972 159.4632 
L 151.465835 161.702177 
L 149.392707 163.996438 
L 148.342323 166.014282 
L 147.678922 169.55242 
L 147.789489 171.404414 
L 148.231756 173.145841 
L 149.005723 174.887268 
L 152.875561 178.259555 
L 155.390956 179.227015 
L 157.90635 179.613998 
L 161.112788 179.337581 
L 167.111036 177.706721 
L 172.335317 176.103503 
L 179.936784 173.228766 
L 184.939932 171.487339 
L 189.887796 169.939404 
L 193.315367 169.027228 
L 197.59983 168.142693 
L 204.648463 167.285801 
L 212.360497 167.11995 
L 220.293665 167.755709 
L 225.960213 168.667886 
L 238.260769 170.989788 
L 246.636204 172.095456 
L 250.4784 172.233665 
L 257.720525 171.653189 
L 264.022832 170.077612 
L 267.699178 168.695527 
L 272.481192 166.428908 
L 277.097356 163.802947 
L 285.776849 158.523382 
L 290.420655 156.035629 
L 295.257952 153.990143 
L 299.874116 152.608059 
L 303.771595 151.834091 
L 308.857668 151.253615 
L 316.652627 150.866631 
L 325.525612 150.783706 
L 336.609934 150.977198 
L 342.387049 151.308899 
L 346.367453 151.778808 
L 350.182008 152.552775 
L 353.416087 153.60316 
L 357.921684 155.897421 
L 361.92973 159.020933 
L 366.628819 164.853331 
L 368.784871 169.303645 
L 369.918181 173.145841 
L 370.443373 180.470891 
L 369.862897 185.114696 
L 366.905236 193.351923 
L 365.467867 195.867317 
L 352.973819 216.018116 
L 350.403141 220.80013 
L 348.081239 225.747994 
L 343.078091 236.91524 
L 341.143172 240.481019 
L 337.881452 244.544349 
L 333.12708 247.474369 
L 327.128831 248.939379 
L 325.221554 249.132871 
L 320.024914 249.243438 
L 313.44619 248.718246 
L 310.51617 248.275978 
L 305.789439 247.225594 
L 301.449693 245.898792 
L 297.911555 244.489066 
L 295.285594 243.217547 
L 291.609248 241.033853 
L 289.480837 239.430635 
L 286.191475 236.390048 
L 284.394765 234.178712 
L 283.454947 232.68606 
L 282.266354 229.451981 
L 282.238712 227.185362 
L 282.598054 225.941486 
L 284.118348 223.232599 
L 286.025625 220.993622 
L 288.015827 219.224553 
L 289.895463 217.814826 
L 294.56691 215.161223 
L 298.436748 213.613288 
L 301.753751 212.645828 
L 305.623589 211.788936 
L 314.74535 210.462134 
L 319.555006 209.494675 
L 324.032961 208.250798 
L 326.078446 207.532114 
L 328.649124 206.426446 
L 332.104337 204.242752 
L 333.873406 202.4184 
L 334.509165 201.340374 
L 335.200207 199.875364 
L 335.808324 197.885161 
L 336.029458 196.226659 
L 336.001816 194.734008 
L 335.08964 190.615394 
L 334.205106 188.791042 
L 331.82792 185.639889 
L 330.666968 184.617146 
L 326.327222 182.212318 
L 323.53541 181.383067 
L 318.836321 180.470891 
L 308.221909 179.033523 
L 305.319531 178.701822 
L 298.105047 178.148988 
L 291.360473 178.093705 
L 284.228914 178.480689 
L 280.165585 178.840031 
L 273.807994 179.64164 
L 265.377276 181.217217 
L 261.479796 182.129393 
L 253.546629 184.257804 
L 241.467206 188.26585 
L 233.506397 191.251154 
L 226.678897 193.462489 
L 222.422076 194.734008 
L 212.664556 197.995728 
L 208.048392 199.792438 
L 199.866449 203.330576 
L 191.435731 207.421547 
L 188.560995 208.306082 
L 186.128525 208.195515 
L 183.834264 206.97928 
L 181.65057 204.989078 
L 179.660367 203.358218 
L 177.531957 202.224908 
L 173.717402 201.45094 
L 170.538607 201.754999 
L 168.79718 202.335475 
L 167.746795 202.860667 
L 166.115935 204.021618 
L 164.954984 205.320778 
L 164.153374 206.592296 
L 163.572899 208.084948 
L 163.213557 210.241001 
L 163.296482 212.866962 
L 164.512717 220.551354 
L 169.239447 247.529652 
L 173.634477 273.042941 
L 174.076744 276.60872 
L 173.689761 283.76792 
L 171.616633 288.577575 
L 170.151623 290.512494 
L 169.101239 291.59052 
L 166.613486 293.387231 
L 162.550156 294.990449 
L 159.592494 295.405075 
L 156.164923 295.488 
L 145.108244 294.935166 
L 141.570106 294.686391 
L 136.566959 294.050632 
L 134.023923 293.553081 
L 131.121544 292.806755 
L 126.035472 291.065328 
L 123.133093 289.876735 
L 118.268154 287.250774 
L 115.006434 284.928871 
L 110.528479 280.754974 
L 106.520432 275.47541 
L 105.442406 273.6787 
L 103.507487 269.504803 
L 102.484744 266.326008 
L 101.876627 258.72454 
L 102.291252 255.214045 
L 102.816445 252.643367 
L 104.115604 248.46947 
L 108.731768 237.550999 
L 114.425958 222.790332 
L 142.979833 148.904071 
L 142.979833 148.904071 
" clip-path="url(#p3ef40c6b7a)" style="fill: none; stroke: #1f77b4; stroke-width: 1.5; stroke-linecap: square"/>
   </g>
   <g id="line2d_2">
    <path d="M 186.411458 66.258388 
L 191.885939 53.568 
" clip-path="url(#p3ef40c6b7a)" style="fill: none; stroke: #808080; stroke-width: 1.5; stroke-linecap: square"/>
   </g>
   <g id="line2d_3">
    <path d="M 178.792579 145.149841 
L 191.903759 149.521664 
" clip-path="url(#p3ef40c6b7a)" style="fill: none; stroke: #808080; stroke-width: 1.5; stroke-linecap: square"/>
   </g>
   <g id="line2d_4">
    <path d="M 150.155751 173.405906 
L 162.210392 166.645618 
" clip-path="url(#p3ef40c6b7a)" style="fill: none; stroke: #808080; stroke-width: 1.5; stroke-linecap: square"/>
   </g>
   <g id="line2d_5">
    <path d="M 204.977923 167.264455 
L 205.756313 181.063368 
" clip-path="url(#p3ef40c6b7a)" style="fill: none; stroke: #808080; stroke-width: 1.5; stroke-linecap: square"/>
   </g>
   <g id="line2d_6">
    <path d="M 255.799845 171.9687 
L 254.511302 158.208048 
" clip-path="url(#p3ef40c6b7a)" style="fill: none; stroke: #808080; stroke-width: 1.5; stroke-linecap: square"/>
   </g>
   <g id="line2d_7">
    <path d="M 295.755827 153.80886 
L 300.45439 166.806528 
" clip-path="url(#p3ef40c6b7a)" style="fill: none; stroke: #808080; stroke-width: 1.5; stroke-linecap: square"/>
   </g>
   <g id="line2d_8">
    <path d="M 369.577492 171.459825 
L 356.176385 174.840096 
" clip-path="url(#p3ef40c6b7a)" style="fill: none; stroke: #808080; stroke-width: 1.5; stroke-linecap: square"/>
   </g>
   <g id="line2d_9">
    <path d="M 332.774473 247.806254 
L 328.335044 234.71781 
" clip-path="url(#p3ef40c6b7a)" style="fill: none; stroke: #808080; stroke-width: 1.5; stroke-linecap: square"/>
   </g>
   <g id="line2d_10">
    <path d="M 281.853874 227.60378 
L 295.67009 227.961618 
" clip-path="url(#p3ef40c6b7a)" style="fill: none; stroke: #808080; stroke-width: 1.5; stroke-linecap: square"/>
   </g>
   <g id="line2d_11">
    <path d="M 336.015583 192.453311 
L 322.528867 195.473966 
" clip-path="url(#p3ef40c6b7a)" style="fill: none; stroke: #808080; stroke-width: 1.5; stroke-linecap: square"/>
   </g>
   <g id="line2d_12">
    <path d="M 185.620514 208.207156 
L 188.249889 194.638727 
" clip-path="url(#p3ef40c6b7a)" style="fill: none; stroke: #808080; stroke-width: 1.5; stroke-linecap: square"/>
   </g>
   <g id="line2d_13">
    <path d="M 164.827495 204.841691 
L 175.689296 213.387869 
" clip-path="url(#p3ef40c6b7a)" style="fill: none; stroke: #808080; stroke-width: 1.5; stroke-linecap: square"/>
   </g>
   <g id="line2d_14">
    <path d="M 172.47142 287.383702 
L 160.497994 280.480591 
" clip-path="url(#p3ef40c6b7a)" style="fill: none; stroke: #808080; stroke-width: 1.5; stroke-linecap: square"/>
   </g>
   <g id="line2d_15">
    <path d="M 105.512322 273.961077 
L 117.378413 266.875052 
" clip-path="url(#p3ef40c6b7a)" style="fill: none; stroke: #808080; stroke-width: 1.5; stroke-linecap: square"/>
   </g>
   <g id="patch_3">
    <path d="M 57.6 307.584 
L 57.6 41.472 
" style="fill: none; stroke: #000000; stroke-width: 0.8; stroke-linejoin: miter; stroke-linecap: square"/>
   </g>
   <g id="patch_4">
    <path d="M 414.72 307.584 
L 414.72 41.472 
" style="fill: none; stroke: #000000; stroke-width: 0.8; stroke-linejoin: miter; stroke-linecap: square"/>
   </g>
   <g id="patch_5">
    <path d="M 57.6 307.584 
L 414.72 307.584 
" style="fill: none; stroke: #000000; stroke-width: 0.8; stroke-linejoin: miter; stroke-linecap: square"/>
   </g>
   <g id="patch_6">
    <path d="M 57.6 41.472 
L 414.72 41.472 
" style="fill: none; stroke: #000000; stroke-width: 0.8; stroke-linejoin: miter; stroke-linecap: square"/>
   </g>
   <g id="text_1">
    <!-- 1 -->
    <g style="fill: #ffffff" transform="translate(189.235958 56.732749) scale(0.0833 -0.0833)">
     <defs>
      <path id="DejaVuSans-31" d="M 794 531 
L 1825 531 
L 1825 4091 
L 703 3866 
L 703 4441 
L 1819 4666 
L 2450 4666 
L 2450 531 
L 3481 531 
L 3481 0 
L 794 0 
L 794 531 
z
" transform="scale(0.015625)"/>
     </defs>
     <use xlink:href="#DejaVuSans-31"/>
    </g>
   </g>
   <g id="text_2">
    <!-- 2 -->
    <g style="fill: #ffffff" transform="translate(189.253778 152.686414) scale(0.0833 -0.0833)">
     <defs>
      <path id="DejaVuSans-32" d="M 1228 531 
L 3431 531 
L 3431 0 
L 469 0 
L 469 531 
Q 828 903 1448 1529 
Q 2069 2156 2228 2338 
Q 2531 2678 2651 2914 
Q 2772 3150 2772 3378 
Q 2772 3750 2511 3984 
Q 2250 4219 1831 4219 
Q 1534 4219 1204 4116 
Q 875 4013 500 3803 
L 500 4441 
Q 881 4594 1212 4672 
Q 1544 4750 1819 4750 
Q 2544 4750 2975 4387 
Q 3406 4025 3406 3419 
Q 3406 3131 3298 2873 
Q 3191 2616 2906 2266 
Q 2828 2175 2409 1742 
Q 1991 1309 1228 531 
z
" transform="scale(0.015625)"/>
     </defs>
     <use xlink:href="#DejaVuSans-32"/>
    </g>
   </g>
   <g id="text_3">
    <!-- 3 -->
    <g style="fill: #ffffff" transform="translate(159.560411 169.810367) scale(0.0833 -0.0833)">
     <defs>
      <path id="DejaVuSans-33" d="M 2597 2516 
Q 3050 2419 3304 2112 
Q 3559 1806 3559 1356 
Q 3559 666 3084 287 
Q 2609 -91 1734 -91 
Q 1441 -91 1130 -33 
Q 819 25 488 141 
L 488 750 
Q 750 597 1062 519 
Q 1375 441 1716 441 
Q 2309 441 2620 675 
Q 2931 909 2931 1356 
Q 2931 1769 2642 2001 
Q 2353 2234 1838 2234 
L 1294 2234 
L 1294 2753 
L 1863 2753 
Q 2328 2753 2575 2939 
Q 2822 3125 2822 3475 
Q 2822 3834 2567 4026 
Q 2313 4219 1838 4219 
Q 1578 4219 1281 4162 
Q 984 4106 628 3988 
L 628 4550 
Q 988 4650 1302 4700 
Q 1616 4750 1894 4750 
Q 2613 4750 3031 4423 
Q 3450 4097 3450 3541 
Q 3450 3153 3228 2886 
Q 3006 2619 2597 2516 
z
" transform="scale(0.015625)"/>
     </defs>
     <use xlink:href="#DejaVuSans-33"/>
    </g>
   </g>
   <g id="text_4">
    <!-- 4 -->
    <g style="fill: #ffffff" transform="translate(203.106332 184.228117) scale(0.0833 -0.0833)">
     <defs>
      <path id="DejaVuSans-34" d="M 2419 4116 
L 825 1625 
L 2419 1625 
L 2419 4116 
z
M 2253 4666 
L 3047 4666 
L 3047 1625 
L 3713 1625 
L 3713 1100 
L 3047 1100 
L 3047 0 
L 2419 0 
L 2419 1100 
L 313 1100 
L 313 1709 
L 2253 4666 
z
" transform="scale(0.015625)"/>
     </defs>
     <use xlink:href="#DejaVuSans-34"/>
    </g>
   </g>
   <g id="text_5">
    <!-- 5 -->
    <g style="fill: #ffffff" transform="translate(251.86132 161.372797) scale(0.0833 -0.0833)">
     <defs>
      <path id="DejaVuSans-35" d="M 691 4666 
L 3169 4666 
L 3169 4134 
L 1269 4134 
L 1269 2991 
Q 1406 3038 1543 3061 
Q 1681 3084 1819 3084 
Q 2600 3084 3056 2656 
Q 3513 2228 3513 1497 
Q 3513 744 3044 326 
Q 2575 -91 1722 -91 
Q 1428 -91 1123 -41 
Q 819 9 494 109 
L 494 744 
Q 775 591 1075 516 
Q 1375 441 1709 441 
Q 2250 441 2565 725 
Q 2881 1009 2881 1497 
Q 2881 1984 2565 2268 
Q 2250 2553 1709 2553 
Q 1456 2553 1204 2497 
Q 953 2441 691 2322 
L 691 4666 
z
" transform="scale(0.015625)"/>
     </defs>
     <use xlink:href="#DejaVuSans-35"/>
    </g>
   </g>
   <g id="text_6">
    <!-- 6 -->
    <g style="fill: #ffffff" transform="translate(297.804408 169.971277) scale(0.0833 -0.0833)">
     <defs>
      <path id="DejaVuSans-36" d="M 2113 2584 
Q 1688 2584 1439 2293 
Q 1191 2003 1191 1497 
Q 1191 994 1439 701 
Q 1688 409 2113 409 
Q 2538 409 2786 701 
Q 3034 994 3034 1497 
Q 3034 2003 2786 2293 
Q 2538 2584 2113 2584 
z
M 3366 4563 
L 3366 3988 
Q 3128 4100 2886 4159 
Q 2644 4219 2406 4219 
Q 1781 4219 1451 3797 
Q 1122 3375 1075 2522 
Q 1259 2794 1537 2939 
Q 1816 3084 2150 3084 
Q 2853 3084 3261 2657 
Q 3669 2231 3669 1497 
Q 3669 778 3244 343 
Q 2819 -91 2113 -91 
Q 1303 -91 875 529 
Q 447 1150 447 2328 
Q 447 3434 972 4092 
Q 1497 4750 2381 4750 
Q 2619 4750 2861 4703 
Q 3103 4656 3366 4563 
z
" transform="scale(0.015625)"/>
     </defs>
     <use xlink:href="#DejaVuSans-36"/>
    </g>
   </g>
   <g id="text_7">
    <!-- 7 -->
    <g style="fill: #ffffff" transform="translate(353.526404 178.004845) scale(0.0833 -0.0833)">
     <defs>
      <path id="DejaVuSans-37" d="M 525 4666 
L 3525 4666 
L 3525 4397 
L 1831 0 
L 1172 0 
L 2766 4134 
L 525 4134 
L 525 4666 
z
" transform="scale(0.015625)"/>
     </defs>
     <use xlink:href="#DejaVuSans-37"/>
    </g>
   </g>
   <g id="text_8">
    <!-- 8 -->
    <g style="fill: #ffffff" transform="translate(325.685063 237.882559) scale(0.0833 -0.0833)">
     <defs>
      <path id="DejaVuSans-38" d="M 2034 2216 
Q 1584 2216 1326 1975 
Q 1069 1734 1069 1313 
Q 1069 891 1326 650 
Q 1584 409 2034 409 
Q 2484 409 2743 651 
Q 3003 894 3003 1313 
Q 3003 1734 2745 1975 
Q 2488 2216 2034 2216 
z
M 1403 2484 
Q 997 2584 770 2862 
Q 544 3141 544 3541 
Q 544 4100 942 4425 
Q 1341 4750 2034 4750 
Q 2731 4750 3128 4425 
Q 3525 4100 3525 3541 
Q 3525 3141 3298 2862 
Q 3072 2584 2669 2484 
Q 3125 2378 3379 2068 
Q 3634 1759 3634 1313 
Q 3634 634 3220 271 
Q 2806 -91 2034 -91 
Q 1263 -91 848 271 
Q 434 634 434 1313 
Q 434 1759 690 2068 
Q 947 2378 1403 2484 
z
M 1172 3481 
Q 1172 3119 1398 2916 
Q 1625 2713 2034 2713 
Q 2441 2713 2670 2916 
Q 2900 3119 2900 3481 
Q 2900 3844 2670 4047 
Q 2441 4250 2034 4250 
Q 1625 4250 1398 4047 
Q 1172 3844 1172 3481 
z
" transform="scale(0.015625)"/>
     </defs>
     <use xlink:href="#DejaVuSans-38"/>
    </g>
   </g>
   <g id="text_9">
    <!-- 9 -->
    <g style="fill: #ffffff" transform="translate(293.020109 231.126368) scale(0.0833 -0.0833)">
     <defs>
      <path id="DejaVuSans-39" d="M 703 97 
L 703 672 
Q 941 559 1184 500 
Q 1428 441 1663 441 
Q 2288 441 2617 861 
Q 2947 1281 2994 2138 
Q 2813 1869 2534 1725 
Q 2256 1581 1919 1581 
Q 1219 1581 811 2004 
Q 403 2428 403 3163 
Q 403 3881 828 4315 
Q 1253 4750 1959 4750 
Q 2769 4750 3195 4129 
Q 3622 3509 3622 2328 
Q 3622 1225 3098 567 
Q 2575 -91 1691 -91 
Q 1453 -91 1209 -44 
Q 966 3 703 97 
z
M 1959 2075 
Q 2384 2075 2632 2365 
Q 2881 2656 2881 3163 
Q 2881 3666 2632 3958 
Q 2384 4250 1959 4250 
Q 1534 4250 1286 3958 
Q 1038 3666 1038 3163 
Q 1038 2656 1286 2365 
Q 1534 2075 1959 2075 
z
" transform="scale(0.015625)"/>
     </defs>
     <use xlink:href="#DejaVuSans-39"/>
    </g>
   </g>
   <g id="text_10">
    <!-- 10 -->
    <g style="fill: #ffffff" transform="translate(317.228904 198.638716) scale(0.0833 -0.0833)">
     <defs>
      <path id="DejaVuSans-30" d="M 2034 4250 
Q 1547 4250 1301 3770 
Q 1056 3291 1056 2328 
Q 1056 1369 1301 889 
Q 1547 409 2034 409 
Q 2525 409 2770 889 
Q 3016 1369 3016 2328 
Q 3016 3291 2770 3770 
Q 2525 4250 2034 4250 
z
M 2034 4750 
Q 2819 4750 3233 4129 
Q 3647 3509 3647 2328 
Q 3647 1150 3233 529 
Q 2819 -91 2034 -91 
Q 1250 -91 836 529 
Q 422 1150 422 2328 
Q 422 3509 836 4129 
Q 1250 4750 2034 4750 
z
" transform="scale(0.015625)"/>
     </defs>
     <use xlink:href="#DejaVuSans-31"/>
     <use xlink:href="#DejaVuSans-30" x="63.623047"/>
    </g>
   </g>
   <g id="text_11">
    <!-- 11 -->
    <g style="fill: #ffffff" transform="translate(182.949927 197.803476) scale(0.0833 -0.0833)">
     <use xlink:href="#DejaVuSans-31"/>
     <use xlink:href="#DejaVuSans-31" x="63.623047"/>
    </g>
   </g>
   <g id="text_12">
    <!-- 12 -->
    <g style="fill: #ffffff" transform="translate(170.389334 216.552618) scale(0.0833 -0.0833)">
     <use xlink:href="#DejaVuSans-31"/>
     <use xlink:href="#DejaVuSans-32" x="63.623047"/>
    </g>
   </g>
   <g id="text_13">
    <!-- 13 -->
    <g style="fill: #ffffff" transform="translate(155.198031 283.64534) scale(0.0833 -0.0833)">
     <use xlink:href="#DejaVuSans-31"/>
     <use xlink:href="#DejaVuSans-33" x="63.623047"/>
    </g>
   </g>
   <g id="text_14">
    <!-- 14 -->
    <g style="fill: #ffffff" transform="translate(112.078451 270.039801) scale(0.0833 -0.0833)">
     <use xlink:href="#DejaVuSans-31"/>
     <use xlink:href="#DejaVuSans-34" x="63.623047"/>
    </g>
   </g>
  </g>
 </g>
 <defs>
  <clipPath id="p3ef40c6b7a">
   <rect x="57.6" y="41.472" width="357.12" height="266.112"/>
  </clipPath>
 </defs>
</svg>
