<?xml version="1.0" encoding="utf-8" standalone="no"?>
<!DOCTYPE svg PUBLIC "-//W3C//DTD SVG 1.1//EN"
  "http://www.w3.org/Graphics/SVG/1.1/DTD/svg11.dtd">
<svg xmlns:xlink="http://www.w3.org/1999/xlink" width="460.8pt" height="345.6pt" viewBox="0 0 460.8 345.6" xmlns="http://www.w3.org/2000/svg" version="1.1">
 <metadata>
  <rdf:RDF xmlns:dc="http://purl.org/dc/elements/1.1/" xmlns:cc="http://creativecommons.org/ns#" xmlns:rdf="http://www.w3.org/1999/02/22-rdf-syntax-ns#">
   <cc:Work>
    <dc:type rdf:resource="http://purl.org/dc/dcmitype/StillImage"/>
    <dc:date>2024-07-14T12:46:45.183930</dc:date>
    <dc:format>image/svg+xml</dc:format>
    <dc:creator>
     <cc:Agent>
      <dc:title>Matplotlib v3.9.0, https://matplotlib.org/</dc:title>
     </cc:Agent>
    </dc:creator>
   </cc:Work>
  </rdf:RDF>
 </metadata>
 <defs>
  <style type="text/css">*{stroke-linejoin: round; stroke-linecap: butt}</style>
 </defs>
 <g id="figure_1">
  <g id="patch_1">
   <path d="M 0 345.6 
L 460.8 345.6 
L 460.8 0 
L 0 0 
z
" style="fill: #ffffff"/>
  </g>
  <g id="axes_1">
   <g id="patch_2">
    <path d="M 57.6 307.584 
L 414.72 307.584 
L 414.72 41.472 
L 57.6 41.472 
z
" style="fill: #ffffff"/>
   </g>
   <g id="PathCollection_1">
    <defs>
     <path id="m1f1b98e61c" d="M 0 5.91608 
C 1.568963 5.91608 3.073876 5.292724 4.1833 4.1833 
C 5.292724 3.073876 5.91608 1.568963 5.91608 0 
C 5.91608 -1.568963 5.292724 -3.073876 4.1833 -4.1833 
C 3.073876 -5.292724 1.568963 -5.91608 0 -5.91608 
C -1.568963 -5.91608 -3.073876 -5.292724 -4.1833 -4.1833 
C -5.292724 -3.073876 -5.91608 -1.568963 -5.91608 0 
C -5.91608 1.568963 -5.292724 3.073876 -4.1833 4.1833 
C -3.073876 5.292724 -1.568963 5.91608 0 5.91608 
z
" style="stroke: #808080"/>
    </defs>
    <g clip-path="url(#padfd799a17)">
     <use xlink:href="#m1f1b98e61c" x="193.761982" y="257.245551" style="fill: #808080; stroke: #808080"/>
    </g>
   </g>
   <g id="PathCollection_2">
    <g clip-path="url(#padfd799a17)">
     <use xlink:href="#m1f1b98e61c" x="197.246177" y="236.025126" style="fill: #808080; stroke: #808080"/>
    </g>
   </g>
   <g id="PathCollection_3">
    <g clip-path="url(#padfd799a17)">
     <use xlink:href="#m1f1b98e61c" x="87.181899" y="226.761715" style="fill: #808080; stroke: #808080"/>
    </g>
   </g>
   <g id="PathCollection_4">
    <g clip-path="url(#padfd799a17)">
     <use xlink:href="#m1f1b98e61c" x="109.889881" y="199.207877" style="fill: #808080; stroke: #808080"/>
    </g>
   </g>
   <g id="PathCollection_5">
    <g clip-path="url(#padfd799a17)">
     <use xlink:href="#m1f1b98e61c" x="73.832727" y="182.69812" style="fill: #808080; stroke: #808080"/>
    </g>
   </g>
   <g id="PathCollection_6">
    <g clip-path="url(#padfd799a17)">
     <use xlink:href="#m1f1b98e61c" x="91.752503" y="110.542437" style="fill: #808080; stroke: #808080"/>
    </g>
   </g>
   <g id="PathCollection_7">
    <g clip-path="url(#padfd799a17)">
     <use xlink:href="#m1f1b98e61c" x="118.015685" y="116.837354" style="fill: #808080; stroke: #808080"/>
    </g>
   </g>
   <g id="PathCollection_8">
    <g clip-path="url(#padfd799a17)">
     <use xlink:href="#m1f1b98e61c" x="144.409134" y="91.810449" style="fill: #808080; stroke: #808080"/>
    </g>
   </g>
   <g id="PathCollection_9">
    <g clip-path="url(#padfd799a17)">
     <use xlink:href="#m1f1b98e61c" x="281.249302" y="191.510483" style="fill: #808080; stroke: #808080"/>
    </g>
   </g>
   <g id="PathCollection_10">
    <g clip-path="url(#padfd799a17)">
     <use xlink:href="#m1f1b98e61c" x="285.598184" y="164.837252" style="fill: #808080; stroke: #808080"/>
    </g>
   </g>
   <g id="PathCollection_11">
    <g clip-path="url(#padfd799a17)">
     <use xlink:href="#m1f1b98e61c" x="398.487273" y="194.306373" style="fill: #808080; stroke: #808080"/>
    </g>
   </g>
   <g id="PathCollection_12">
    <g clip-path="url(#padfd799a17)">
     <use xlink:href="#m1f1b98e61c" x="374.773702" y="239.813713" style="fill: #808080; stroke: #808080"/>
    </g>
   </g>
   <g id="PathCollection_13">
    <g clip-path="url(#padfd799a17)">
     <use xlink:href="#m1f1b98e61c" x="328.532085" y="221.262071" style="fill: #808080; stroke: #808080"/>
    </g>
   </g>
   <g id="PathCollection_14">
    <g clip-path="url(#padfd799a17)">
     <use xlink:href="#m1f1b98e61c" x="333.075077" y="256.653608" style="fill: #808080; stroke: #808080"/>
    </g>
   </g>
   <g id="matplotlib.axis_1"/>
   <g id="matplotlib.axis_2"/>
   <g id="line2d_1">
    <path d="M 247.938954 253.261901 
L 208.292507 253.606294 
L 204.618716 253.386147 
L 203.107047 253.159163 
L 200.888581 252.563222 
L 198.99923 251.627551 
L 197.550793 250.331813 
L 196.591392 249.111478 
L 195.669497 247.657765 
L 192.854526 242.928005 
L 190.920499 240.721099 
L 188.316847 238.569371 
L 185.228107 236.75465 
L 183.490451 236.066803 
L 178.471077 235.043065 
L 174.796508 234.867481 
L 173.235608 234.907102 
L 166.866152 235.252841 
L 157.591047 235.425274 
L 149.659079 235.264532 
L 141.254079 234.750059 
L 133.789197 234.00682 
L 130.897606 233.666594 
L 124.017498 232.62152 
L 114.642539 230.853094 
L 101.809883 227.976745 
L 98.938573 227.113089 
L 97.192693 226.257933 
L 95.752092 225.151786 
L 94.964334 224.313354 
L 94.312601 223.343564 
L 93.958368 222.568421 
L 93.705708 221.081813 
L 94.056604 219.494297 
L 94.644434 218.378979 
L 96.071084 216.453621 
L 101.038218 210.254912 
L 101.635827 209.217775 
L 102.296725 207.747113 
L 102.74964 206.061078 
L 102.896888 204.648316 
L 102.801368 203.097585 
L 102.126851 200.879231 
L 101.554855 199.810534 
L 99.777579 197.561787 
L 98.538293 196.414576 
L 95.230566 193.737919 
L 88.576051 188.707108 
L 85.690513 186.104685 
L 84.007088 184.22534 
L 82.146907 181.618527 
L 80.875836 179.100007 
L 80.024563 176.154185 
L 79.794963 174.623402 
L 79.763843 171.937072 
L 79.921981 169.900417 
L 80.659166 164.697731 
L 81.799702 158.733126 
L 82.990417 154.363038 
L 85.111746 148.393264 
L 91.970327 131.517855 
L 93.456985 127.431542 
L 94.48556 124.05047 
L 95.407782 120.377789 
L 96.392238 117.608887 
L 97.386587 116.188623 
L 98.575639 115.106088 
L 100.354189 114.089564 
L 104.348038 113.212008 
L 107.352927 112.80754 
L 109.827717 112.126355 
L 112.444755 110.957302 
L 115.57461 109.139684 
L 123.361877 104.182646 
L 127.994732 101.811757 
L 132.054981 100.32242 
L 136.304488 99.482759 
L 138.981428 99.351176 
L 144.623472 99.817422 
L 148.742569 100.702858 
L 151.823418 101.692759 
L 154.821808 102.937541 
L 157.727181 104.403587 
L 162.062208 106.964444 
L 171.548639 113.838926 
L 175.208265 117.424418 
L 178.735812 121.553677 
L 183.414352 127.419256 
L 185.678054 131.169836 
L 190.401941 141.460512 
L 192.747437 146.271232 
L 194.687135 150.707106 
L 196.960064 157.121345 
L 198.065382 159.558962 
L 199.579999 162.170888 
L 201.145014 164.449363 
L 203.228792 167.015501 
L 208.917407 172.475226 
L 213.686461 176.347548 
L 215.700558 177.798036 
L 218.290873 179.436891 
L 220.729881 180.805641 
L 223.735717 182.262296 
L 229.191063 184.486089 
L 230.77469 185.059804 
L 233.977506 186.085268 
L 237.216273 186.966482 
L 241.90453 187.806132 
L 245.843371 188.164637 
L 252.794935 188.308266 
L 259.296137 188.07627 
L 265.210176 187.644571 
L 271.711322 186.777347 
L 274.880351 185.907682 
L 276.949733 184.829369 
L 279.157417 182.850778 
L 284.851961 175.840084 
L 287.177666 173.484645 
L 290.608853 171.003626 
L 292.471864 170.256041 
L 294.976771 169.764836 
L 300.947097 169.300687 
L 304.840151 169.090032 
L 314.503771 168.367163 
L 324.833126 167.811936 
L 328.36578 167.817877 
L 332.450036 168.145488 
L 336.017141 168.731536 
L 339.545962 169.595525 
L 342.805066 170.588538 
L 348.704105 172.931519 
L 354.274417 175.591948 
L 362.712984 179.929518 
L 378.800472 188.512863 
L 382.936129 191.003374 
L 389.496015 195.709347 
L 391.311965 197.657872 
L 392.010263 199.152259 
L 392.09089 200.279245 
L 391.860738 201.333941 
L 391.118158 203.014919 
L 387.830724 208.752596 
L 384.620248 213.912111 
L 381.709938 218.47507 
L 379.620833 221.960217 
L 377.210837 225.952403 
L 376.02851 227.926604 
L 374.81801 229.599415 
L 372.831979 231.648741 
L 371.533851 232.59564 
L 370.6563 233.070673 
L 368.548578 233.791698 
L 366.671453 234.070975 
L 362.239299 233.882168 
L 358.674917 233.140146 
L 355.150374 232.031057 
L 350.155559 230.238787 
L 343.169763 227.587083 
L 338.90914 226.509723 
L 337.742646 226.299908 
L 335.9941 226.235954 
L 334.987914 226.418989 
L 333.817976 227.04494 
L 332.977989 227.921825 
L 332.542187 228.627456 
L 332.057988 230.190357 
L 331.998369 232.329031 
L 332.224857 234.038069 
L 333.147755 237.988132 
L 333.355519 240.131473 
L 332.882436 243.611395 
L 331.669326 246.710637 
L 330.799278 248.032771 
L 329.686074 249.239218 
L 326.607062 251.336332 
L 324.708879 252.183603 
L 322.77041 252.784994 
L 321.350648 253.038821 
L 319.30777 253.237193 
L 314.056687 253.357278 
L 296.896123 253.258337 
L 271.21176 253.066335 
L 256.242657 253.195101 
L 256.242657 253.195101 
" clip-path="url(#padfd799a17)" style="fill: none; stroke: #1f77b4; stroke-width: 1.5; stroke-linecap: square"/>
   </g>
   <g id="line2d_2">
    <path d="M 199.098428 251.448859 
L 193.761982 257.245551 
" clip-path="url(#padfd799a17)" style="fill: none; stroke: #808080; stroke-width: 1.5; stroke-linecap: square"/>
   </g>
   <g id="line2d_3">
    <path d="M 191.435558 241.346405 
L 197.246177 236.025126 
" clip-path="url(#padfd799a17)" style="fill: none; stroke: #808080; stroke-width: 1.5; stroke-linecap: square"/>
   </g>
   <g id="line2d_4">
    <path d="M 94.247891 223.275879 
L 87.181899 226.761715 
" clip-path="url(#padfd799a17)" style="fill: none; stroke: #808080; stroke-width: 1.5; stroke-linecap: square"/>
   </g>
   <g id="line2d_5">
    <path d="M 102.513359 201.976671 
L 109.889881 199.207877 
" clip-path="url(#padfd799a17)" style="fill: none; stroke: #808080; stroke-width: 1.5; stroke-linecap: square"/>
   </g>
   <g id="line2d_6">
    <path d="M 81.073768 179.592218 
L 73.832727 182.69812 
" clip-path="url(#padfd799a17)" style="fill: none; stroke: #808080; stroke-width: 1.5; stroke-linecap: square"/>
   </g>
   <g id="line2d_7">
    <path d="M 97.852779 115.529011 
L 91.752503 110.542437 
" clip-path="url(#padfd799a17)" style="fill: none; stroke: #808080; stroke-width: 1.5; stroke-linecap: square"/>
   </g>
   <g id="line2d_8">
    <path d="M 114.084016 110.009377 
L 118.015685 116.837354 
" clip-path="url(#padfd799a17)" style="fill: none; stroke: #808080; stroke-width: 1.5; stroke-linecap: square"/>
   </g>
   <g id="line2d_9">
    <path d="M 143.468802 99.633177 
L 144.409134 91.810449 
" clip-path="url(#padfd799a17)" style="fill: none; stroke: #808080; stroke-width: 1.5; stroke-linecap: square"/>
   </g>
   <g id="line2d_10">
    <path d="M 276.980852 184.887823 
L 281.249302 191.510483 
" clip-path="url(#padfd799a17)" style="fill: none; stroke: #808080; stroke-width: 1.5; stroke-linecap: square"/>
   </g>
   <g id="line2d_11">
    <path d="M 289.233487 171.827521 
L 285.598184 164.837252 
" clip-path="url(#padfd799a17)" style="fill: none; stroke: #808080; stroke-width: 1.5; stroke-linecap: square"/>
   </g>
   <g id="line2d_12">
    <path d="M 391.54477 198.032088 
L 398.487273 194.306373 
" clip-path="url(#padfd799a17)" style="fill: none; stroke: #808080; stroke-width: 1.5; stroke-linecap: square"/>
   </g>
   <g id="line2d_13">
    <path d="M 371.084785 232.851587 
L 374.773702 239.813713 
" clip-path="url(#padfd799a17)" style="fill: none; stroke: #808080; stroke-width: 1.5; stroke-linecap: square"/>
   </g>
   <g id="line2d_14">
    <path d="M 333.989409 226.945108 
L 328.532085 221.262071 
" clip-path="url(#padfd799a17)" style="fill: none; stroke: #808080; stroke-width: 1.5; stroke-linecap: square"/>
   </g>
   <g id="line2d_15">
    <path d="M 328.377755 250.32791 
L 333.075077 256.653608 
" clip-path="url(#padfd799a17)" style="fill: none; stroke: #808080; stroke-width: 1.5; stroke-linecap: square"/>
   </g>
   <g id="patch_3">
    <path d="M 57.6 307.584 
L 57.6 41.472 
" style="fill: none; stroke: #000000; stroke-width: 0.8; stroke-linejoin: miter; stroke-linecap: square"/>
   </g>
   <g id="patch_4">
    <path d="M 414.72 307.584 
L 414.72 41.472 
" style="fill: none; stroke: #000000; stroke-width: 0.8; stroke-linejoin: miter; stroke-linecap: square"/>
   </g>
   <g id="patch_5">
    <path d="M 57.6 307.584 
L 414.72 307.584 
" style="fill: none; stroke: #000000; stroke-width: 0.8; stroke-linejoin: miter; stroke-linecap: square"/>
   </g>
   <g id="patch_6">
    <path d="M 57.6 41.472 
L 414.72 41.472 
" style="fill: none; stroke: #000000; stroke-width: 0.8; stroke-linejoin: miter; stroke-linecap: square"/>
   </g>
   <g id="text_1">
    <!-- 1 -->
    <g style="fill: #ffffff" transform="translate(191.112001 260.4103) scale(0.0833 -0.0833)">
     <defs>
      <path id="DejaVuSans-31" d="M 794 531 
L 1825 531 
L 1825 4091 
L 703 3866 
L 703 4441 
L 1819 4666 
L 2450 4666 
L 2450 531 
L 3481 531 
L 3481 0 
L 794 0 
L 794 531 
z
" transform="scale(0.015625)"/>
     </defs>
     <use xlink:href="#DejaVuSans-31"/>
    </g>
   </g>
   <g id="text_2">
    <!-- 2 -->
    <g style="fill: #ffffff" transform="translate(194.596196 239.189875) scale(0.0833 -0.0833)">
     <defs>
      <path id="DejaVuSans-32" d="M 1228 531 
L 3431 531 
L 3431 0 
L 469 0 
L 469 531 
Q 828 903 1448 1529 
Q 2069 2156 2228 2338 
Q 2531 2678 2651 2914 
Q 2772 3150 2772 3378 
Q 2772 3750 2511 3984 
Q 2250 4219 1831 4219 
Q 1534 4219 1204 4116 
Q 875 4013 500 3803 
L 500 4441 
Q 881 4594 1212 4672 
Q 1544 4750 1819 4750 
Q 2544 4750 2975 4387 
Q 3406 4025 3406 3419 
Q 3406 3131 3298 2873 
Q 3191 2616 2906 2266 
Q 2828 2175 2409 1742 
Q 1991 1309 1228 531 
z
" transform="scale(0.015625)"/>
     </defs>
     <use xlink:href="#DejaVuSans-32"/>
    </g>
   </g>
   <g id="text_3">
    <!-- 3 -->
    <g style="fill: #ffffff" transform="translate(84.531917 229.926465) scale(0.0833 -0.0833)">
     <defs>
      <path id="DejaVuSans-33" d="M 2597 2516 
Q 3050 2419 3304 2112 
Q 3559 1806 3559 1356 
Q 3559 666 3084 287 
Q 2609 -91 1734 -91 
Q 1441 -91 1130 -33 
Q 819 25 488 141 
L 488 750 
Q 750 597 1062 519 
Q 1375 441 1716 441 
Q 2309 441 2620 675 
Q 2931 909 2931 1356 
Q 2931 1769 2642 2001 
Q 2353 2234 1838 2234 
L 1294 2234 
L 1294 2753 
L 1863 2753 
Q 2328 2753 2575 2939 
Q 2822 3125 2822 3475 
Q 2822 3834 2567 4026 
Q 2313 4219 1838 4219 
Q 1578 4219 1281 4162 
Q 984 4106 628 3988 
L 628 4550 
Q 988 4650 1302 4700 
Q 1616 4750 1894 4750 
Q 2613 4750 3031 4423 
Q 3450 4097 3450 3541 
Q 3450 3153 3228 2886 
Q 3006 2619 2597 2516 
z
" transform="scale(0.015625)"/>
     </defs>
     <use xlink:href="#DejaVuSans-33"/>
    </g>
   </g>
   <g id="text_4">
    <!-- 4 -->
    <g style="fill: #ffffff" transform="translate(107.2399 202.372626) scale(0.0833 -0.0833)">
     <defs>
      <path id="DejaVuSans-34" d="M 2419 4116 
L 825 1625 
L 2419 1625 
L 2419 4116 
z
M 2253 4666 
L 3047 4666 
L 3047 1625 
L 3713 1625 
L 3713 1100 
L 3047 1100 
L 3047 0 
L 2419 0 
L 2419 1100 
L 313 1100 
L 313 1709 
L 2253 4666 
z
" transform="scale(0.015625)"/>
     </defs>
     <use xlink:href="#DejaVuSans-34"/>
    </g>
   </g>
   <g id="text_5">
    <!-- 5 -->
    <g style="fill: #ffffff" transform="translate(71.182746 185.862869) scale(0.0833 -0.0833)">
     <defs>
      <path id="DejaVuSans-35" d="M 691 4666 
L 3169 4666 
L 3169 4134 
L 1269 4134 
L 1269 2991 
Q 1406 3038 1543 3061 
Q 1681 3084 1819 3084 
Q 2600 3084 3056 2656 
Q 3513 2228 3513 1497 
Q 3513 744 3044 326 
Q 2575 -91 1722 -91 
Q 1428 -91 1123 -41 
Q 819 9 494 109 
L 494 744 
Q 775 591 1075 516 
Q 1375 441 1709 441 
Q 2250 441 2565 725 
Q 2881 1009 2881 1497 
Q 2881 1984 2565 2268 
Q 2250 2553 1709 2553 
Q 1456 2553 1204 2497 
Q 953 2441 691 2322 
L 691 4666 
z
" transform="scale(0.015625)"/>
     </defs>
     <use xlink:href="#DejaVuSans-35"/>
    </g>
   </g>
   <g id="text_6">
    <!-- 6 -->
    <g style="fill: #ffffff" transform="translate(89.102521 113.707186) scale(0.0833 -0.0833)">
     <defs>
      <path id="DejaVuSans-36" d="M 2113 2584 
Q 1688 2584 1439 2293 
Q 1191 2003 1191 1497 
Q 1191 994 1439 701 
Q 1688 409 2113 409 
Q 2538 409 2786 701 
Q 3034 994 3034 1497 
Q 3034 2003 2786 2293 
Q 2538 2584 2113 2584 
z
M 3366 4563 
L 3366 3988 
Q 3128 4100 2886 4159 
Q 2644 4219 2406 4219 
Q 1781 4219 1451 3797 
Q 1122 3375 1075 2522 
Q 1259 2794 1537 2939 
Q 1816 3084 2150 3084 
Q 2853 3084 3261 2657 
Q 3669 2231 3669 1497 
Q 3669 778 3244 343 
Q 2819 -91 2113 -91 
Q 1303 -91 875 529 
Q 447 1150 447 2328 
Q 447 3434 972 4092 
Q 1497 4750 2381 4750 
Q 2619 4750 2861 4703 
Q 3103 4656 3366 4563 
z
" transform="scale(0.015625)"/>
     </defs>
     <use xlink:href="#DejaVuSans-36"/>
    </g>
   </g>
   <g id="text_7">
    <!-- 7 -->
    <g style="fill: #ffffff" transform="translate(115.365704 120.002104) scale(0.0833 -0.0833)">
     <defs>
      <path id="DejaVuSans-37" d="M 525 4666 
L 3525 4666 
L 3525 4397 
L 1831 0 
L 1172 0 
L 2766 4134 
L 525 4134 
L 525 4666 
z
" transform="scale(0.015625)"/>
     </defs>
     <use xlink:href="#DejaVuSans-37"/>
    </g>
   </g>
   <g id="text_8">
    <!-- 8 -->
    <g style="fill: #ffffff" transform="translate(141.759153 94.975198) scale(0.0833 -0.0833)">
     <defs>
      <path id="DejaVuSans-38" d="M 2034 2216 
Q 1584 2216 1326 1975 
Q 1069 1734 1069 1313 
Q 1069 891 1326 650 
Q 1584 409 2034 409 
Q 2484 409 2743 651 
Q 3003 894 3003 1313 
Q 3003 1734 2745 1975 
Q 2488 2216 2034 2216 
z
M 1403 2484 
Q 997 2584 770 2862 
Q 544 3141 544 3541 
Q 544 4100 942 4425 
Q 1341 4750 2034 4750 
Q 2731 4750 3128 4425 
Q 3525 4100 3525 3541 
Q 3525 3141 3298 2862 
Q 3072 2584 2669 2484 
Q 3125 2378 3379 2068 
Q 3634 1759 3634 1313 
Q 3634 634 3220 271 
Q 2806 -91 2034 -91 
Q 1263 -91 848 271 
Q 434 634 434 1313 
Q 434 1759 690 2068 
Q 947 2378 1403 2484 
z
M 1172 3481 
Q 1172 3119 1398 2916 
Q 1625 2713 2034 2713 
Q 2441 2713 2670 2916 
Q 2900 3119 2900 3481 
Q 2900 3844 2670 4047 
Q 2441 4250 2034 4250 
Q 1625 4250 1398 4047 
Q 1172 3844 1172 3481 
z
" transform="scale(0.015625)"/>
     </defs>
     <use xlink:href="#DejaVuSans-38"/>
    </g>
   </g>
   <g id="text_9">
    <!-- 9 -->
    <g style="fill: #ffffff" transform="translate(278.59932 194.675232) scale(0.0833 -0.0833)">
     <defs>
      <path id="DejaVuSans-39" d="M 703 97 
L 703 672 
Q 941 559 1184 500 
Q 1428 441 1663 441 
Q 2288 441 2617 861 
Q 2947 1281 2994 2138 
Q 2813 1869 2534 1725 
Q 2256 1581 1919 1581 
Q 1219 1581 811 2004 
Q 403 2428 403 3163 
Q 403 3881 828 4315 
Q 1253 4750 1959 4750 
Q 2769 4750 3195 4129 
Q 3622 3509 3622 2328 
Q 3622 1225 3098 567 
Q 2575 -91 1691 -91 
Q 1453 -91 1209 -44 
Q 966 3 703 97 
z
M 1959 2075 
Q 2384 2075 2632 2365 
Q 2881 2656 2881 3163 
Q 2881 3666 2632 3958 
Q 2384 4250 1959 4250 
Q 1534 4250 1286 3958 
Q 1038 3666 1038 3163 
Q 1038 2656 1286 2365 
Q 1534 2075 1959 2075 
z
" transform="scale(0.015625)"/>
     </defs>
     <use xlink:href="#DejaVuSans-39"/>
    </g>
   </g>
   <g id="text_10">
    <!-- 10 -->
    <g style="fill: #ffffff" transform="translate(280.298222 168.002001) scale(0.0833 -0.0833)">
     <defs>
      <path id="DejaVuSans-30" d="M 2034 4250 
Q 1547 4250 1301 3770 
Q 1056 3291 1056 2328 
Q 1056 1369 1301 889 
Q 1547 409 2034 409 
Q 2525 409 2770 889 
Q 3016 1369 3016 2328 
Q 3016 3291 2770 3770 
Q 2525 4250 2034 4250 
z
M 2034 4750 
Q 2819 4750 3233 4129 
Q 3647 3509 3647 2328 
Q 3647 1150 3233 529 
Q 2819 -91 2034 -91 
Q 1250 -91 836 529 
Q 422 1150 422 2328 
Q 422 3509 836 4129 
Q 1250 4750 2034 4750 
z
" transform="scale(0.015625)"/>
     </defs>
     <use xlink:href="#DejaVuSans-31"/>
     <use xlink:href="#DejaVuSans-30" x="63.623047"/>
    </g>
   </g>
   <g id="text_11">
    <!-- 11 -->
    <g style="fill: #ffffff" transform="translate(393.18731 197.471122) scale(0.0833 -0.0833)">
     <use xlink:href="#DejaVuSans-31"/>
     <use xlink:href="#DejaVuSans-31" x="63.623047"/>
    </g>
   </g>
   <g id="text_12">
    <!-- 12 -->
    <g style="fill: #ffffff" transform="translate(369.473739 242.978462) scale(0.0833 -0.0833)">
     <use xlink:href="#DejaVuSans-31"/>
     <use xlink:href="#DejaVuSans-32" x="63.623047"/>
    </g>
   </g>
   <g id="text_13">
    <!-- 13 -->
    <g style="fill: #ffffff" transform="translate(323.232122 224.42682) scale(0.0833 -0.0833)">
     <use xlink:href="#DejaVuSans-31"/>
     <use xlink:href="#DejaVuSans-33" x="63.623047"/>
    </g>
   </g>
   <g id="text_14">
    <!-- 14 -->
    <g style="fill: #ffffff" transform="translate(327.775115 259.818358) scale(0.0833 -0.0833)">
     <use xlink:href="#DejaVuSans-31"/>
     <use xlink:href="#DejaVuSans-34" x="63.623047"/>
    </g>
   </g>
  </g>
 </g>
 <defs>
  <clipPath id="padfd799a17">
   <rect x="57.6" y="41.472" width="357.12" height="266.112"/>
  </clipPath>
 </defs>
</svg>
