<?xml version="1.0" encoding="utf-8" standalone="no"?>
<!DOCTYPE svg PUBLIC "-//W3C//DTD SVG 1.1//EN"
  "http://www.w3.org/Graphics/SVG/1.1/DTD/svg11.dtd">
<svg xmlns:xlink="http://www.w3.org/1999/xlink" width="460.8pt" height="345.6pt" viewBox="0 0 460.8 345.6" xmlns="http://www.w3.org/2000/svg" version="1.1">
 <metadata>
  <rdf:RDF xmlns:dc="http://purl.org/dc/elements/1.1/" xmlns:cc="http://creativecommons.org/ns#" xmlns:rdf="http://www.w3.org/1999/02/22-rdf-syntax-ns#">
   <cc:Work>
    <dc:type rdf:resource="http://purl.org/dc/dcmitype/StillImage"/>
    <dc:date>2024-07-14T12:47:14.951724</dc:date>
    <dc:format>image/svg+xml</dc:format>
    <dc:creator>
     <cc:Agent>
      <dc:title>Matplotlib v3.9.0, https://matplotlib.org/</dc:title>
     </cc:Agent>
    </dc:creator>
   </cc:Work>
  </rdf:RDF>
 </metadata>
 <defs>
  <style type="text/css">*{stroke-linejoin: round; stroke-linecap: butt}</style>
 </defs>
 <g id="figure_1">
  <g id="patch_1">
   <path d="M 0 345.6 
L 460.8 345.6 
L 460.8 0 
L 0 0 
z
" style="fill: #ffffff"/>
  </g>
  <g id="axes_1">
   <g id="patch_2">
    <path d="M 57.6 307.584 
L 414.72 307.584 
L 414.72 41.472 
L 57.6 41.472 
z
" style="fill: #ffffff"/>
   </g>
   <g id="PathCollection_1">
    <defs>
     <path id="m7909248d99" d="M 0 5.91608 
C 1.568963 5.91608 3.073876 5.292724 4.1833 4.1833 
C 5.292724 3.073876 5.91608 1.568963 5.91608 0 
C 5.91608 -1.568963 5.292724 -3.073876 4.1833 -4.1833 
C 3.073876 -5.292724 1.568963 -5.91608 0 -5.91608 
C -1.568963 -5.91608 -3.073876 -5.292724 -4.1833 -4.1833 
C -5.292724 -3.073876 -5.91608 -1.568963 -5.91608 0 
C -5.91608 1.568963 -5.292724 3.073876 -4.1833 4.1833 
C -3.073876 5.292724 -1.568963 5.91608 0 5.91608 
z
" style="stroke: #808080"/>
    </defs>
    <g clip-path="url(#p716160f59c)">
     <use xlink:href="#m7909248d99" x="390.883886" y="97.996476" style="fill: #808080; stroke: #808080"/>
    </g>
   </g>
   <g id="PathCollection_2">
    <g clip-path="url(#p716160f59c)">
     <use xlink:href="#m7909248d99" x="398.487273" y="125.37198" style="fill: #808080; stroke: #808080"/>
    </g>
   </g>
   <g id="PathCollection_3">
    <g clip-path="url(#p716160f59c)">
     <use xlink:href="#m7909248d99" x="356.42284" y="130.850855" style="fill: #808080; stroke: #808080"/>
    </g>
   </g>
   <g id="PathCollection_4">
    <g clip-path="url(#p716160f59c)">
     <use xlink:href="#m7909248d99" x="336.553423" y="141.857418" style="fill: #808080; stroke: #808080"/>
    </g>
   </g>
   <g id="PathCollection_5">
    <g clip-path="url(#p716160f59c)">
     <use xlink:href="#m7909248d99" x="316.598507" y="135.345153" style="fill: #808080; stroke: #808080"/>
    </g>
   </g>
   <g id="PathCollection_6">
    <g clip-path="url(#p716160f59c)">
     <use xlink:href="#m7909248d99" x="292.582405" y="133.350963" style="fill: #808080; stroke: #808080"/>
    </g>
   </g>
   <g id="PathCollection_7">
    <g clip-path="url(#p716160f59c)">
     <use xlink:href="#m7909248d99" x="256.415916" y="132.145763" style="fill: #808080; stroke: #808080"/>
    </g>
   </g>
   <g id="PathCollection_8">
    <g clip-path="url(#p716160f59c)">
     <use xlink:href="#m7909248d99" x="249.408694" y="183.855322" style="fill: #808080; stroke: #808080"/>
    </g>
   </g>
   <g id="PathCollection_9">
    <g clip-path="url(#p716160f59c)">
     <use xlink:href="#m7909248d99" x="230.195183" y="211.233489" style="fill: #808080; stroke: #808080"/>
    </g>
   </g>
   <g id="PathCollection_10">
    <g clip-path="url(#p716160f59c)">
     <use xlink:href="#m7909248d99" x="189.874722" y="175.897637" style="fill: #808080; stroke: #808080"/>
    </g>
   </g>
   <g id="PathCollection_11">
    <g clip-path="url(#p716160f59c)">
     <use xlink:href="#m7909248d99" x="167.749283" y="155.72298" style="fill: #808080; stroke: #808080"/>
    </g>
   </g>
   <g id="PathCollection_12">
    <g clip-path="url(#p716160f59c)">
     <use xlink:href="#m7909248d99" x="167.70662" y="199.997915" style="fill: #808080; stroke: #808080"/>
    </g>
   </g>
   <g id="PathCollection_13">
    <g clip-path="url(#p716160f59c)">
     <use xlink:href="#m7909248d99" x="91.669138" y="218.829633" style="fill: #808080; stroke: #808080"/>
    </g>
   </g>
   <g id="PathCollection_14">
    <g clip-path="url(#p716160f59c)">
     <use xlink:href="#m7909248d99" x="73.832727" y="249.987307" style="fill: #808080; stroke: #808080"/>
    </g>
   </g>
   <g id="PathCollection_15">
    <g clip-path="url(#p716160f59c)">
     <use xlink:href="#m7909248d99" x="215.53864" y="185.984352" style="fill: #808080; stroke: #808080"/>
    </g>
   </g>
   <g id="PathCollection_16">
    <g clip-path="url(#p716160f59c)">
     <use xlink:href="#m7909248d99" x="221.568654" y="124.442167" style="fill: #808080; stroke: #808080"/>
    </g>
   </g>
   <g id="PathCollection_17">
    <g clip-path="url(#p716160f59c)">
     <use xlink:href="#m7909248d99" x="230.00293" y="121.497376" style="fill: #808080; stroke: #808080"/>
    </g>
   </g>
   <g id="PathCollection_18">
    <g clip-path="url(#p716160f59c)">
     <use xlink:href="#m7909248d99" x="245.899774" y="95.726739" style="fill: #808080; stroke: #808080"/>
    </g>
   </g>
   <g id="matplotlib.axis_1"/>
   <g id="matplotlib.axis_2"/>
   <g id="line2d_1">
    <path d="M 281.889353 99.253582 
L 360.369271 99.975879 
L 373.636207 100.210492 
L 378.350093 100.500773 
L 384.062878 102.569858 
L 386.374982 104.290043 
L 387.906728 105.931958 
L 390.72132 109.93059 
L 392.354747 113.026607 
L 392.814097 114.688163 
L 392.724958 118.004261 
L 391.616116 120.827105 
L 390.673057 122.221424 
L 388.171512 124.599236 
L 387.130467 125.225522 
L 384.493424 126.140528 
L 382.393235 126.342736 
L 380.682918 126.263077 
L 374.346228 125.24497 
L 365.233376 123.46899 
L 360.85251 123.033655 
L 358.713343 122.995054 
L 355.718554 123.226609 
L 353.821812 123.647057 
L 349.897829 125.471218 
L 347.34552 127.597974 
L 344.916233 130.059292 
L 342.366466 132.064103 
L 338.712952 133.481909 
L 336.895094 133.764003 
L 333.163935 133.438212 
L 330.124856 132.244863 
L 322.469423 128.673294 
L 320.383951 127.977821 
L 316.199367 127.816574 
L 315.214097 127.974029 
L 312.255281 128.878326 
L 309.711062 130.32926 
L 308.015839 131.731896 
L 304.999471 134.820965 
L 301.692068 137.863966 
L 300.22171 138.841296 
L 298.702127 139.589603 
L 296.800301 140.253941 
L 295.242741 140.617462 
L 292.496465 140.920198 
L 289.514928 140.708035 
L 286.536859 139.753955 
L 284.67317 138.589112 
L 283.557562 137.515866 
L 282.616129 136.242254 
L 279.440484 130.088121 
L 277.34886 126.138562 
L 276.202902 124.314693 
L 274.600439 122.611304 
L 272.412898 121.247711 
L 269.405633 120.351021 
L 267.067641 120.160277 
L 264.57396 120.43428 
L 261.716598 121.364692 
L 256.717214 123.640425 
L 253.270768 125.486543 
L 250.024224 127.816822 
L 247.420686 130.002509 
L 245.805424 131.59881 
L 242.94998 134.931231 
L 241.171403 137.358116 
L 239.550744 140.460285 
L 238.135148 144.27872 
L 237.116663 148.235433 
L 236.624174 150.849131 
L 236.360245 153.72359 
L 236.363628 155.671636 
L 237.025877 160.55138 
L 239.398885 171.532714 
L 240.939003 180.734706 
L 241.035287 183.694675 
L 240.576465 185.365087 
L 239.282588 187.758078 
L 232.747882 198.155694 
L 230.923162 200.39762 
L 228.529697 202.579687 
L 226.473184 203.564796 
L 224.421142 203.66401 
L 222.486349 203.223675 
L 220.463352 202.313507 
L 214.711362 198.575627 
L 200.472277 190.770844 
L 191.831347 185.928743 
L 186.814725 182.892186 
L 185.161109 181.723723 
L 183.151288 179.893842 
L 181.387362 177.781092 
L 179.566433 174.853164 
L 178.781226 173.280813 
L 175.41531 165.988728 
L 174.739337 165.028647 
L 174.071605 164.344733 
L 173.071855 163.661897 
L 172.36884 163.423243 
L 171.068423 163.34813 
L 169.483747 163.957082 
L 168.589298 164.93842 
L 168.212829 165.72856 
L 168.022859 166.494589 
L 168.017462 168.000457 
L 168.382523 169.580048 
L 169.172426 171.69449 
L 170.797838 175.942324 
L 172.350065 180.726626 
L 174.273591 187.654641 
L 175.161167 191.799093 
L 175.482003 195.595733 
L 175.440859 197.856846 
L 175.240408 200.372634 
L 174.490852 203.90096 
L 173.346651 206.693067 
L 172.123955 208.837546 
L 169.95404 212.000262 
L 167.868095 214.780734 
L 164.763136 218.185951 
L 163.214972 219.633653 
L 160.839919 221.604107 
L 157.932019 223.71145 
L 155.282801 225.402192 
L 152.325138 227.114502 
L 145.722203 230.520787 
L 143.21943 231.61459 
L 139.18059 232.904363 
L 135.945067 233.650892 
L 133.472417 234.067332 
L 128.930778 234.340635 
L 126.657879 234.289246 
L 122.878034 233.900441 
L 121.128739 233.579973 
L 117.190976 232.515884 
L 102.986238 228.051773 
L 98.091863 226.92174 
L 92.695529 226.845228 
L 90.352063 227.684356 
L 88.770005 228.647357 
L 86.902148 230.272391 
L 86.058926 231.194798 
L 84.268024 233.445428 
L 82.534588 236.20125 
L 81.608012 238.147906 
L 80.843901 240.359945 
L 80.526977 241.843318 
L 80.429832 243.145276 
L 80.901659 245.935077 
L 81.259943 246.784536 
L 81.845246 247.872726 
L 83.312976 249.707304 
L 84.230761 250.48443 
L 85.368865 251.246149 
L 87.509723 252.258773 
L 88.903967 252.725837 
L 91.541237 253.238817 
L 93.097331 253.329261 
L 95.098145 253.288978 
L 99.197068 252.858446 
L 105.266456 251.637009 
L 113.516382 249.621046 
L 118.886838 248.061041 
L 123.477475 246.588775 
L 128.758726 244.702913 
L 136.527883 241.66894 
L 139.205371 240.54078 
L 143.669365 238.523881 
L 150.710857 234.898743 
L 157.025299 231.324446 
L 187.14957 213.642767 
L 216.061164 196.665795 
L 219.606371 194.015747 
L 221.139593 192.037741 
L 222.992744 188.14443 
L 223.853688 185.89241 
L 225.412571 180.956977 
L 226.542529 175.586606 
L 227.245564 169.493344 
L 227.389788 164.590415 
L 226.837956 151.633078 
L 225.930533 138.656327 
L 225.898956 136.621695 
L 226.026223 134.642374 
L 226.287836 133.317846 
L 226.706753 132.026597 
L 227.465855 130.534444 
L 228.633854 129.190814 
L 229.642621 128.577855 
L 230.467506 128.343057 
L 232.330968 128.079914 
L 233.913102 127.592908 
L 234.506884 127.219293 
L 235.371135 126.439323 
L 236.153346 125.277647 
L 236.632735 124.059658 
L 236.851749 122.284248 
L 236.706091 118.143264 
L 236.793992 116.709116 
L 237.046361 115.252397 
L 237.967237 112.907628 
L 238.531209 111.949399 
L 239.793423 110.211739 
L 242.025964 107.786319 
L 245.349312 105.129645 
L 247.800782 103.618778 
L 251.513151 101.776205 
L 255.212808 100.543359 
L 259.225069 99.665026 
L 264.274442 99.212311 
L 268.862225 99.123968 
L 274.722768 99.190159 
L 274.722768 99.190159 
" clip-path="url(#p716160f59c)" style="fill: none; stroke: #1f77b4; stroke-width: 1.5; stroke-linecap: square"/>
   </g>
   <g id="line2d_2">
    <path d="M 385.574915 103.722446 
L 390.883886 97.996476 
" clip-path="url(#p716160f59c)" style="fill: none; stroke: #808080; stroke-width: 1.5; stroke-linecap: square"/>
   </g>
   <g id="line2d_3">
    <path d="M 391.746538 121.430609 
L 398.487273 125.37198 
" clip-path="url(#p716160f59c)" style="fill: none; stroke: #808080; stroke-width: 1.5; stroke-linecap: square"/>
   </g>
   <g id="line2d_4">
    <path d="M 355.76696 123.069999 
L 356.42284 130.850855 
" clip-path="url(#p716160f59c)" style="fill: none; stroke: #808080; stroke-width: 1.5; stroke-linecap: square"/>
   </g>
   <g id="line2d_5">
    <path d="M 336.171832 134.058296 
L 336.553423 141.857418 
" clip-path="url(#p716160f59c)" style="fill: none; stroke: #808080; stroke-width: 1.5; stroke-linecap: square"/>
   </g>
   <g id="line2d_6">
    <path d="M 315.287805 127.647494 
L 316.598507 135.345153 
" clip-path="url(#p716160f59c)" style="fill: none; stroke: #808080; stroke-width: 1.5; stroke-linecap: square"/>
   </g>
   <g id="line2d_7">
    <path d="M 292.400967 141.157306 
L 292.582405 133.350963 
" clip-path="url(#p716160f59c)" style="fill: none; stroke: #808080; stroke-width: 1.5; stroke-linecap: square"/>
   </g>
   <g id="line2d_8">
    <path d="M 252.252782 125.539689 
L 256.415916 132.145763 
" clip-path="url(#p716160f59c)" style="fill: none; stroke: #808080; stroke-width: 1.5; stroke-linecap: square"/>
   </g>
   <g id="line2d_9">
    <path d="M 241.603723 183.62221 
L 249.408694 183.855322 
" clip-path="url(#p716160f59c)" style="fill: none; stroke: #808080; stroke-width: 1.5; stroke-linecap: square"/>
   </g>
   <g id="line2d_10">
    <path d="M 227.41478 203.936828 
L 230.195183 211.233489 
" clip-path="url(#p716160f59c)" style="fill: none; stroke: #808080; stroke-width: 1.5; stroke-linecap: square"/>
   </g>
   <g id="line2d_11">
    <path d="M 185.478977 182.351266 
L 189.874722 175.897637 
" clip-path="url(#p716160f59c)" style="fill: none; stroke: #808080; stroke-width: 1.5; stroke-linecap: square"/>
   </g>
   <g id="line2d_12">
    <path d="M 170.073154 163.177611 
L 167.749283 155.72298 
" clip-path="url(#p716160f59c)" style="fill: none; stroke: #808080; stroke-width: 1.5; stroke-linecap: square"/>
   </g>
   <g id="line2d_13">
    <path d="M 175.262373 201.968321 
L 167.70662 199.997915 
" clip-path="url(#p716160f59c)" style="fill: none; stroke: #808080; stroke-width: 1.5; stroke-linecap: square"/>
   </g>
   <g id="line2d_14">
    <path d="M 92.766315 226.560617 
L 91.669138 218.829633 
" clip-path="url(#p716160f59c)" style="fill: none; stroke: #808080; stroke-width: 1.5; stroke-linecap: square"/>
   </g>
   <g id="line2d_15">
    <path d="M 81.058418 247.027358 
L 73.832727 249.987307 
" clip-path="url(#p716160f59c)" style="fill: none; stroke: #808080; stroke-width: 1.5; stroke-linecap: square"/>
   </g>
   <g id="line2d_16">
    <path d="M 222.575607 189.368581 
L 215.53864 185.984352 
" clip-path="url(#p716160f59c)" style="fill: none; stroke: #808080; stroke-width: 1.5; stroke-linecap: square"/>
   </g>
   <g id="line2d_17">
    <path d="M 227.430563 129.600648 
L 221.568654 124.442167 
" clip-path="url(#p716160f59c)" style="fill: none; stroke: #808080; stroke-width: 1.5; stroke-linecap: square"/>
   </g>
   <g id="line2d_18">
    <path d="M 235.44578 127.096242 
L 230.00293 121.497376 
" clip-path="url(#p716160f59c)" style="fill: none; stroke: #808080; stroke-width: 1.5; stroke-linecap: square"/>
   </g>
   <g id="line2d_19">
    <path d="M 249.160139 102.821944 
L 245.899774 95.726739 
" clip-path="url(#p716160f59c)" style="fill: none; stroke: #808080; stroke-width: 1.5; stroke-linecap: square"/>
   </g>
   <g id="patch_3">
    <path d="M 57.6 307.584 
L 57.6 41.472 
" style="fill: none; stroke: #000000; stroke-width: 0.8; stroke-linejoin: miter; stroke-linecap: square"/>
   </g>
   <g id="patch_4">
    <path d="M 414.72 307.584 
L 414.72 41.472 
" style="fill: none; stroke: #000000; stroke-width: 0.8; stroke-linejoin: miter; stroke-linecap: square"/>
   </g>
   <g id="patch_5">
    <path d="M 57.6 307.584 
L 414.72 307.584 
" style="fill: none; stroke: #000000; stroke-width: 0.8; stroke-linejoin: miter; stroke-linecap: square"/>
   </g>
   <g id="patch_6">
    <path d="M 57.6 41.472 
L 414.72 41.472 
" style="fill: none; stroke: #000000; stroke-width: 0.8; stroke-linejoin: miter; stroke-linecap: square"/>
   </g>
   <g id="text_1">
    <!-- 1 -->
    <g style="fill: #ffffff" transform="translate(388.233905 101.161225) scale(0.0833 -0.0833)">
     <defs>
      <path id="DejaVuSans-31" d="M 794 531 
L 1825 531 
L 1825 4091 
L 703 3866 
L 703 4441 
L 1819 4666 
L 2450 4666 
L 2450 531 
L 3481 531 
L 3481 0 
L 794 0 
L 794 531 
z
" transform="scale(0.015625)"/>
     </defs>
     <use xlink:href="#DejaVuSans-31"/>
    </g>
   </g>
   <g id="text_2">
    <!-- 2 -->
    <g style="fill: #ffffff" transform="translate(395.837291 128.536729) scale(0.0833 -0.0833)">
     <defs>
      <path id="DejaVuSans-32" d="M 1228 531 
L 3431 531 
L 3431 0 
L 469 0 
L 469 531 
Q 828 903 1448 1529 
Q 2069 2156 2228 2338 
Q 2531 2678 2651 2914 
Q 2772 3150 2772 3378 
Q 2772 3750 2511 3984 
Q 2250 4219 1831 4219 
Q 1534 4219 1204 4116 
Q 875 4013 500 3803 
L 500 4441 
Q 881 4594 1212 4672 
Q 1544 4750 1819 4750 
Q 2544 4750 2975 4387 
Q 3406 4025 3406 3419 
Q 3406 3131 3298 2873 
Q 3191 2616 2906 2266 
Q 2828 2175 2409 1742 
Q 1991 1309 1228 531 
z
" transform="scale(0.015625)"/>
     </defs>
     <use xlink:href="#DejaVuSans-32"/>
    </g>
   </g>
   <g id="text_3">
    <!-- 3 -->
    <g style="fill: #ffffff" transform="translate(353.772859 134.015604) scale(0.0833 -0.0833)">
     <defs>
      <path id="DejaVuSans-33" d="M 2597 2516 
Q 3050 2419 3304 2112 
Q 3559 1806 3559 1356 
Q 3559 666 3084 287 
Q 2609 -91 1734 -91 
Q 1441 -91 1130 -33 
Q 819 25 488 141 
L 488 750 
Q 750 597 1062 519 
Q 1375 441 1716 441 
Q 2309 441 2620 675 
Q 2931 909 2931 1356 
Q 2931 1769 2642 2001 
Q 2353 2234 1838 2234 
L 1294 2234 
L 1294 2753 
L 1863 2753 
Q 2328 2753 2575 2939 
Q 2822 3125 2822 3475 
Q 2822 3834 2567 4026 
Q 2313 4219 1838 4219 
Q 1578 4219 1281 4162 
Q 984 4106 628 3988 
L 628 4550 
Q 988 4650 1302 4700 
Q 1616 4750 1894 4750 
Q 2613 4750 3031 4423 
Q 3450 4097 3450 3541 
Q 3450 3153 3228 2886 
Q 3006 2619 2597 2516 
z
" transform="scale(0.015625)"/>
     </defs>
     <use xlink:href="#DejaVuSans-33"/>
    </g>
   </g>
   <g id="text_4">
    <!-- 4 -->
    <g style="fill: #ffffff" transform="translate(333.903442 145.022167) scale(0.0833 -0.0833)">
     <defs>
      <path id="DejaVuSans-34" d="M 2419 4116 
L 825 1625 
L 2419 1625 
L 2419 4116 
z
M 2253 4666 
L 3047 4666 
L 3047 1625 
L 3713 1625 
L 3713 1100 
L 3047 1100 
L 3047 0 
L 2419 0 
L 2419 1100 
L 313 1100 
L 313 1709 
L 2253 4666 
z
" transform="scale(0.015625)"/>
     </defs>
     <use xlink:href="#DejaVuSans-34"/>
    </g>
   </g>
   <g id="text_5">
    <!-- 5 -->
    <g style="fill: #ffffff" transform="translate(313.948526 138.509903) scale(0.0833 -0.0833)">
     <defs>
      <path id="DejaVuSans-35" d="M 691 4666 
L 3169 4666 
L 3169 4134 
L 1269 4134 
L 1269 2991 
Q 1406 3038 1543 3061 
Q 1681 3084 1819 3084 
Q 2600 3084 3056 2656 
Q 3513 2228 3513 1497 
Q 3513 744 3044 326 
Q 2575 -91 1722 -91 
Q 1428 -91 1123 -41 
Q 819 9 494 109 
L 494 744 
Q 775 591 1075 516 
Q 1375 441 1709 441 
Q 2250 441 2565 725 
Q 2881 1009 2881 1497 
Q 2881 1984 2565 2268 
Q 2250 2553 1709 2553 
Q 1456 2553 1204 2497 
Q 953 2441 691 2322 
L 691 4666 
z
" transform="scale(0.015625)"/>
     </defs>
     <use xlink:href="#DejaVuSans-35"/>
    </g>
   </g>
   <g id="text_6">
    <!-- 6 -->
    <g style="fill: #ffffff" transform="translate(289.932424 136.515712) scale(0.0833 -0.0833)">
     <defs>
      <path id="DejaVuSans-36" d="M 2113 2584 
Q 1688 2584 1439 2293 
Q 1191 2003 1191 1497 
Q 1191 994 1439 701 
Q 1688 409 2113 409 
Q 2538 409 2786 701 
Q 3034 994 3034 1497 
Q 3034 2003 2786 2293 
Q 2538 2584 2113 2584 
z
M 3366 4563 
L 3366 3988 
Q 3128 4100 2886 4159 
Q 2644 4219 2406 4219 
Q 1781 4219 1451 3797 
Q 1122 3375 1075 2522 
Q 1259 2794 1537 2939 
Q 1816 3084 2150 3084 
Q 2853 3084 3261 2657 
Q 3669 2231 3669 1497 
Q 3669 778 3244 343 
Q 2819 -91 2113 -91 
Q 1303 -91 875 529 
Q 447 1150 447 2328 
Q 447 3434 972 4092 
Q 1497 4750 2381 4750 
Q 2619 4750 2861 4703 
Q 3103 4656 3366 4563 
z
" transform="scale(0.015625)"/>
     </defs>
     <use xlink:href="#DejaVuSans-36"/>
    </g>
   </g>
   <g id="text_7">
    <!-- 7 -->
    <g style="fill: #ffffff" transform="translate(253.765935 135.310512) scale(0.0833 -0.0833)">
     <defs>
      <path id="DejaVuSans-37" d="M 525 4666 
L 3525 4666 
L 3525 4397 
L 1831 0 
L 1172 0 
L 2766 4134 
L 525 4134 
L 525 4666 
z
" transform="scale(0.015625)"/>
     </defs>
     <use xlink:href="#DejaVuSans-37"/>
    </g>
   </g>
   <g id="text_8">
    <!-- 8 -->
    <g style="fill: #ffffff" transform="translate(246.758713 187.020071) scale(0.0833 -0.0833)">
     <defs>
      <path id="DejaVuSans-38" d="M 2034 2216 
Q 1584 2216 1326 1975 
Q 1069 1734 1069 1313 
Q 1069 891 1326 650 
Q 1584 409 2034 409 
Q 2484 409 2743 651 
Q 3003 894 3003 1313 
Q 3003 1734 2745 1975 
Q 2488 2216 2034 2216 
z
M 1403 2484 
Q 997 2584 770 2862 
Q 544 3141 544 3541 
Q 544 4100 942 4425 
Q 1341 4750 2034 4750 
Q 2731 4750 3128 4425 
Q 3525 4100 3525 3541 
Q 3525 3141 3298 2862 
Q 3072 2584 2669 2484 
Q 3125 2378 3379 2068 
Q 3634 1759 3634 1313 
Q 3634 634 3220 271 
Q 2806 -91 2034 -91 
Q 1263 -91 848 271 
Q 434 634 434 1313 
Q 434 1759 690 2068 
Q 947 2378 1403 2484 
z
M 1172 3481 
Q 1172 3119 1398 2916 
Q 1625 2713 2034 2713 
Q 2441 2713 2670 2916 
Q 2900 3119 2900 3481 
Q 2900 3844 2670 4047 
Q 2441 4250 2034 4250 
Q 1625 4250 1398 4047 
Q 1172 3844 1172 3481 
z
" transform="scale(0.015625)"/>
     </defs>
     <use xlink:href="#DejaVuSans-38"/>
    </g>
   </g>
   <g id="text_9">
    <!-- 9 -->
    <g style="fill: #ffffff" transform="translate(227.545202 214.398238) scale(0.0833 -0.0833)">
     <defs>
      <path id="DejaVuSans-39" d="M 703 97 
L 703 672 
Q 941 559 1184 500 
Q 1428 441 1663 441 
Q 2288 441 2617 861 
Q 2947 1281 2994 2138 
Q 2813 1869 2534 1725 
Q 2256 1581 1919 1581 
Q 1219 1581 811 2004 
Q 403 2428 403 3163 
Q 403 3881 828 4315 
Q 1253 4750 1959 4750 
Q 2769 4750 3195 4129 
Q 3622 3509 3622 2328 
Q 3622 1225 3098 567 
Q 2575 -91 1691 -91 
Q 1453 -91 1209 -44 
Q 966 3 703 97 
z
M 1959 2075 
Q 2384 2075 2632 2365 
Q 2881 2656 2881 3163 
Q 2881 3666 2632 3958 
Q 2384 4250 1959 4250 
Q 1534 4250 1286 3958 
Q 1038 3666 1038 3163 
Q 1038 2656 1286 2365 
Q 1534 2075 1959 2075 
z
" transform="scale(0.015625)"/>
     </defs>
     <use xlink:href="#DejaVuSans-39"/>
    </g>
   </g>
   <g id="text_10">
    <!-- 10 -->
    <g style="fill: #ffffff" transform="translate(184.57476 179.062386) scale(0.0833 -0.0833)">
     <defs>
      <path id="DejaVuSans-30" d="M 2034 4250 
Q 1547 4250 1301 3770 
Q 1056 3291 1056 2328 
Q 1056 1369 1301 889 
Q 1547 409 2034 409 
Q 2525 409 2770 889 
Q 3016 1369 3016 2328 
Q 3016 3291 2770 3770 
Q 2525 4250 2034 4250 
z
M 2034 4750 
Q 2819 4750 3233 4129 
Q 3647 3509 3647 2328 
Q 3647 1150 3233 529 
Q 2819 -91 2034 -91 
Q 1250 -91 836 529 
Q 422 1150 422 2328 
Q 422 3509 836 4129 
Q 1250 4750 2034 4750 
z
" transform="scale(0.015625)"/>
     </defs>
     <use xlink:href="#DejaVuSans-31"/>
     <use xlink:href="#DejaVuSans-30" x="63.623047"/>
    </g>
   </g>
   <g id="text_11">
    <!-- 11 -->
    <g style="fill: #ffffff" transform="translate(162.44932 158.887729) scale(0.0833 -0.0833)">
     <use xlink:href="#DejaVuSans-31"/>
     <use xlink:href="#DejaVuSans-31" x="63.623047"/>
    </g>
   </g>
   <g id="text_12">
    <!-- 12 -->
    <g style="fill: #ffffff" transform="translate(162.406658 203.162664) scale(0.0833 -0.0833)">
     <use xlink:href="#DejaVuSans-31"/>
     <use xlink:href="#DejaVuSans-32" x="63.623047"/>
    </g>
   </g>
   <g id="text_13">
    <!-- 13 -->
    <g style="fill: #ffffff" transform="translate(86.369175 221.994382) scale(0.0833 -0.0833)">
     <use xlink:href="#DejaVuSans-31"/>
     <use xlink:href="#DejaVuSans-33" x="63.623047"/>
    </g>
   </g>
   <g id="text_14">
    <!-- 14 -->
    <g style="fill: #ffffff" transform="translate(68.532765 253.152057) scale(0.0833 -0.0833)">
     <use xlink:href="#DejaVuSans-31"/>
     <use xlink:href="#DejaVuSans-34" x="63.623047"/>
    </g>
   </g>
   <g id="text_15">
    <!-- 15 -->
    <g style="fill: #ffffff" transform="translate(210.238678 189.149102) scale(0.0833 -0.0833)">
     <use xlink:href="#DejaVuSans-31"/>
     <use xlink:href="#DejaVuSans-35" x="63.623047"/>
    </g>
   </g>
   <g id="text_16">
    <!-- 16 -->
    <g style="fill: #ffffff" transform="translate(216.268691 127.606916) scale(0.0833 -0.0833)">
     <use xlink:href="#DejaVuSans-31"/>
     <use xlink:href="#DejaVuSans-36" x="63.623047"/>
    </g>
   </g>
   <g id="text_17">
    <!-- 17 -->
    <g style="fill: #ffffff" transform="translate(224.702968 124.662125) scale(0.0833 -0.0833)">
     <use xlink:href="#DejaVuSans-31"/>
     <use xlink:href="#DejaVuSans-37" x="63.623047"/>
    </g>
   </g>
   <g id="text_18">
    <!-- 18 -->
    <g style="fill: #ffffff" transform="translate(240.599812 98.891489) scale(0.0833 -0.0833)">
     <use xlink:href="#DejaVuSans-31"/>
     <use xlink:href="#DejaVuSans-38" x="63.623047"/>
    </g>
   </g>
  </g>
 </g>
 <defs>
  <clipPath id="p716160f59c">
   <rect x="57.6" y="41.472" width="357.12" height="266.112"/>
  </clipPath>
 </defs>
</svg>
