<?xml version="1.0" encoding="utf-8" standalone="no"?>
<!DOCTYPE svg PUBLIC "-//W3C//DTD SVG 1.1//EN"
  "http://www.w3.org/Graphics/SVG/1.1/DTD/svg11.dtd">
<svg xmlns:xlink="http://www.w3.org/1999/xlink" width="460.8pt" height="345.6pt" viewBox="0 0 460.8 345.6" xmlns="http://www.w3.org/2000/svg" version="1.1">
 <metadata>
  <rdf:RDF xmlns:dc="http://purl.org/dc/elements/1.1/" xmlns:cc="http://creativecommons.org/ns#" xmlns:rdf="http://www.w3.org/1999/02/22-rdf-syntax-ns#">
   <cc:Work>
    <dc:type rdf:resource="http://purl.org/dc/dcmitype/StillImage"/>
    <dc:date>2024-07-14T12:47:50.066288</dc:date>
    <dc:format>image/svg+xml</dc:format>
    <dc:creator>
     <cc:Agent>
      <dc:title>Matplotlib v3.9.0, https://matplotlib.org/</dc:title>
     </cc:Agent>
    </dc:creator>
   </cc:Work>
  </rdf:RDF>
 </metadata>
 <defs>
  <style type="text/css">*{stroke-linejoin: round; stroke-linecap: butt}</style>
 </defs>
 <g id="figure_1">
  <g id="patch_1">
   <path d="M 0 345.6 
L 460.8 345.6 
L 460.8 0 
L 0 0 
z
" style="fill: #ffffff"/>
  </g>
  <g id="axes_1">
   <g id="patch_2">
    <path d="M 57.6 307.584 
L 414.72 307.584 
L 414.72 41.472 
L 57.6 41.472 
z
" style="fill: #ffffff"/>
   </g>
   <g id="PathCollection_1">
    <defs>
     <path id="m6484df747d" d="M 0 5.91608 
C 1.568963 5.91608 3.073876 5.292724 4.1833 4.1833 
C 5.292724 3.073876 5.91608 1.568963 5.91608 0 
C 5.91608 -1.568963 5.292724 -3.073876 4.1833 -4.1833 
C 3.073876 -5.292724 1.568963 -5.91608 0 -5.91608 
C -1.568963 -5.91608 -3.073876 -5.292724 -4.1833 -4.1833 
C -5.292724 -3.073876 -5.91608 -1.568963 -5.91608 0 
C -5.91608 1.568963 -5.292724 3.073876 -4.1833 4.1833 
C -3.073876 5.292724 -1.568963 5.91608 0 5.91608 
z
" style="stroke: #808080"/>
    </defs>
    <g clip-path="url(#p2a06fbf540)">
     <use xlink:href="#m6484df747d" x="235.879447" y="72.199645" style="fill: #808080; stroke: #808080"/>
    </g>
   </g>
   <g id="PathCollection_2">
    <g clip-path="url(#p2a06fbf540)">
     <use xlink:href="#m6484df747d" x="256.184035" y="97.486793" style="fill: #808080; stroke: #808080"/>
    </g>
   </g>
   <g id="PathCollection_3">
    <g clip-path="url(#p2a06fbf540)">
     <use xlink:href="#m6484df747d" x="246.344111" y="108.764926" style="fill: #808080; stroke: #808080"/>
    </g>
   </g>
   <g id="PathCollection_4">
    <g clip-path="url(#p2a06fbf540)">
     <use xlink:href="#m6484df747d" x="250.930919" y="133.253647" style="fill: #808080; stroke: #808080"/>
    </g>
   </g>
   <g id="PathCollection_5">
    <g clip-path="url(#p2a06fbf540)">
     <use xlink:href="#m6484df747d" x="321.985498" y="102.834612" style="fill: #808080; stroke: #808080"/>
    </g>
   </g>
   <g id="PathCollection_6">
    <g clip-path="url(#p2a06fbf540)">
     <use xlink:href="#m6484df747d" x="384.252973" y="136.130916" style="fill: #808080; stroke: #808080"/>
    </g>
   </g>
   <g id="PathCollection_7">
    <g clip-path="url(#p2a06fbf540)">
     <use xlink:href="#m6484df747d" x="286.607465" y="159.16388" style="fill: #808080; stroke: #808080"/>
    </g>
   </g>
   <g id="PathCollection_8">
    <g clip-path="url(#p2a06fbf540)">
     <use xlink:href="#m6484df747d" x="276.932716" y="210.344167" style="fill: #808080; stroke: #808080"/>
    </g>
   </g>
   <g id="PathCollection_9">
    <g clip-path="url(#p2a06fbf540)">
     <use xlink:href="#m6484df747d" x="253.782793" y="233.478651" style="fill: #808080; stroke: #808080"/>
    </g>
   </g>
   <g id="PathCollection_10">
    <g clip-path="url(#p2a06fbf540)">
     <use xlink:href="#m6484df747d" x="244.541807" y="257.648188" style="fill: #808080; stroke: #808080"/>
    </g>
   </g>
   <g id="PathCollection_11">
    <g clip-path="url(#p2a06fbf540)">
     <use xlink:href="#m6484df747d" x="367.536566" y="261.80194" style="fill: #808080; stroke: #808080"/>
    </g>
   </g>
   <g id="PathCollection_12">
    <g clip-path="url(#p2a06fbf540)">
     <use xlink:href="#m6484df747d" x="351.043603" y="228.262316" style="fill: #808080; stroke: #808080"/>
    </g>
   </g>
   <g id="PathCollection_13">
    <g clip-path="url(#p2a06fbf540)">
     <use xlink:href="#m6484df747d" x="398.487273" y="260.69103" style="fill: #808080; stroke: #808080"/>
    </g>
   </g>
   <g id="PathCollection_14">
    <g clip-path="url(#p2a06fbf540)">
     <use xlink:href="#m6484df747d" x="73.832727" y="272.286054" style="fill: #808080; stroke: #808080"/>
    </g>
   </g>
   <g id="PathCollection_15">
    <g clip-path="url(#p2a06fbf540)">
     <use xlink:href="#m6484df747d" x="97.110309" y="251.528904" style="fill: #808080; stroke: #808080"/>
    </g>
   </g>
   <g id="PathCollection_16">
    <g clip-path="url(#p2a06fbf540)">
     <use xlink:href="#m6484df747d" x="175.560667" y="266.214024" style="fill: #808080; stroke: #808080"/>
    </g>
   </g>
   <g id="matplotlib.axis_1"/>
   <g id="matplotlib.axis_2"/>
   <g id="line2d_1">
    <path d="M 192.373381 195.063053 
L 194.546413 188.620041 
L 202.913493 164.729545 
L 221.550551 111.172605 
L 224.600013 102.961518 
L 226.113051 99.459867 
L 229.027093 94.177502 
L 232.663794 89.581853 
L 234.739328 87.641286 
L 239.09815 84.73756 
L 244.89437 82.549874 
L 248.738205 82.029426 
L 253.17957 82.304677 
L 255.518905 82.845481 
L 258.600014 84.085417 
L 262.526392 86.743945 
L 264.697336 89.050618 
L 265.553039 90.285747 
L 267.294676 94.216025 
L 267.728538 96.644773 
L 267.744374 97.95956 
L 267.533029 99.83342 
L 267.181937 101.127339 
L 266.690335 102.302832 
L 265.996153 103.455476 
L 264.667652 104.957149 
L 263.941714 105.572806 
L 263.038025 106.127383 
L 261.874409 106.621871 
L 260.721228 106.932895 
L 259.414132 107.062434 
L 257.997065 106.984672 
L 256.836956 106.720477 
L 255.325075 106.11913 
L 253.623791 105.014304 
L 249.360572 101.158651 
L 246.974098 99.853451 
L 245.230088 99.400306 
L 243.984071 99.352093 
L 242.438145 99.598306 
L 241.324184 100.016331 
L 240.351724 100.634957 
L 239.60766 101.320374 
L 238.916221 102.175851 
L 238.175353 103.651481 
L 237.902477 104.615713 
L 237.716723 105.989826 
L 237.721898 106.944387 
L 238.023704 108.906896 
L 239.107494 111.757713 
L 240.724314 114.248076 
L 242.511957 116.2243 
L 243.323491 116.941556 
L 246.173687 118.955558 
L 248.616517 120.215825 
L 251.081206 121.191338 
L 254.429706 122.061376 
L 259.057505 122.593583 
L 262.123767 122.600906 
L 266.089987 122.268644 
L 274.622246 121.015271 
L 286.994381 118.912754 
L 301.448442 116.450094 
L 304.926338 115.990952 
L 309.460085 115.538059 
L 316.372162 115.189282 
L 322.089094 115.341694 
L 327.487989 115.858292 
L 336.208578 117.11881 
L 339.922026 117.845369 
L 349.754285 120.072409 
L 361.312429 122.822354 
L 365.28207 123.823995 
L 367.694135 124.629448 
L 369.883741 125.861155 
L 370.804257 126.703539 
L 371.781355 128.04468 
L 372.170594 128.868175 
L 372.605219 130.835407 
L 372.532943 131.658139 
L 371.991912 133.453784 
L 371.049454 134.988739 
L 370.344611 135.781158 
L 368.741791 137.077509 
L 366.632522 138.31674 
L 364.311003 139.255071 
L 361.350216 140.131559 
L 357.288645 140.945442 
L 353.968395 141.371075 
L 350.127303 141.594356 
L 345.536972 141.548492 
L 338.226975 140.877896 
L 329.917258 139.612429 
L 316.775183 137.627558 
L 312.363367 137.181258 
L 307.537938 137.037074 
L 304.277777 137.202781 
L 294.825682 139.24484 
L 287.519476 143.088113 
L 284.901243 145.111081 
L 281.641451 148.456754 
L 279.799263 150.874984 
L 278.076717 153.778567 
L 276.056919 158.771993 
L 275.293883 162.081272 
L 274.88703 167.143779 
L 275.214569 171.242818 
L 275.721161 173.936214 
L 276.597649 176.897001 
L 279.6351 183.435306 
L 284.437883 191.147207 
L 287.482799 197.255525 
L 288.165162 199.845652 
L 288.603746 202.14158 
L 288.799683 206.861761 
L 288.720704 207.652963 
L 287.737416 212.096534 
L 286.927014 214.097728 
L 285.415502 216.676347 
L 283.864543 218.604274 
L 282.08892 220.250417 
L 280.014149 221.729469 
L 276.632283 223.33806 
L 273.847268 224.111279 
L 272.156109 224.371885 
L 268.894959 224.455418 
L 264.786023 223.961215 
L 260.735196 223.042738 
L 256.588029 222.523708 
L 254.433374 222.619202 
L 253.398619 222.789715 
L 250.533409 223.728273 
L 248.763271 224.780081 
L 247.39357 226.010404 
L 246.539762 227.032209 
L 245.22984 229.551502 
L 244.798553 231.010758 
L 244.604798 233.820064 
L 244.868373 235.757746 
L 245.622476 238.530347 
L 246.985308 241.453666 
L 248.074357 243.166458 
L 249.915615 245.394916 
L 252.420967 247.646985 
L 256.175079 249.650099 
L 260.656118 251.119731 
L 262.842529 251.561226 
L 266.62848 252.008742 
L 273.344905 252.212336 
L 283.270847 252.244511 
L 297.859848 252.587198 
L 304.56386 252.809908 
L 317.316469 253.427594 
L 327.686027 254.073982 
L 347.964616 255.448171 
L 349.754322 255.496156 
L 353.128187 255.322758 
L 355.088717 254.856603 
L 356.07656 254.465385 
L 358.307987 252.87065 
L 359.581884 251.034568 
L 360.158177 249.017228 
L 360.250333 247.745394 
L 359.910832 244.752851 
L 359.688684 243.63021 
L 359.482003 240.642389 
L 359.724877 238.761827 
L 361.091919 235.736085 
L 361.577047 235.072753 
L 362.731755 233.838698 
L 363.827363 232.946743 
L 365.679675 231.893945 
L 367.34776 231.292229 
L 369.290164 230.895835 
L 371.862392 230.826922 
L 373.742954 231.069795 
L 376.197972 231.767257 
L 378.32056 232.683671 
L 380.932688 234.352829 
L 383.374982 236.618302 
L 385.231622 239.074167 
L 386.726283 241.920034 
L 387.936644 245.831424 
L 388.338666 249.815769 
L 388.225868 251.998221 
L 386.752193 258.243149 
L 385.595196 260.861752 
L 383.356983 264.517543 
L 381.450746 266.867002 
L 379.563399 268.685185 
L 376.789498 270.90601 
L 372.94162 273.190347 
L 369.318944 274.751263 
L 364.914509 275.967561 
L 359.991976 276.68434 
L 353.058804 276.856355 
L 307.026411 276.178002 
L 287.544199 275.837353 
L 237.403096 275.208488 
L 222.733899 275.031139 
L 169.04316 274.678941 
L 114.719091 274.757947 
L 97.614445 274.98293 
L 94.529067 274.963194 
L 92.352327 274.799751 
L 91.129159 274.54896 
L 89.884896 274.121406 
L 88.081333 272.922981 
L 87.54983 272.360402 
L 87.09281 271.68313 
L 86.813542 271.066936 
L 86.699385 269.987248 
L 86.949187 268.681905 
L 87.405528 267.728108 
L 88.275482 266.472194 
L 89.337582 265.422592 
L 92.570256 263.499697 
L 94.061579 262.919076 
L 98.925549 261.539192 
L 101.675302 260.987668 
L 104.666856 260.565993 
L 108.342609 260.262518 
L 114.52281 260.036352 
L 118.442343 260.027076 
L 129.023925 260.430674 
L 144.395674 261.200152 
L 152.209914 261.219829 
L 156.911969 261.093653 
L 159.638874 260.744708 
L 165.011046 259.042603 
L 166.802052 257.623867 
L 168.064752 256.432765 
L 169.14772 255.016235 
L 170.842469 251.90436 
L 171.97365 249.241814 
L 177.334901 235.085483 
L 182.852809 220.813469 
L 187.264364 209.16577 
L 189.438612 203.348622 
L 189.438612 203.348622 
" clip-path="url(#p2a06fbf540)" style="fill: none; stroke: #1f77b4; stroke-width: 1.5; stroke-linecap: square"/>
   </g>
   <g id="line2d_2">
    <path d="M 240.523057 82.607016 
L 235.879447 72.199645 
" clip-path="url(#p2a06fbf540)" style="fill: none; stroke: #808080; stroke-width: 1.5; stroke-linecap: square"/>
   </g>
   <g id="line2d_3">
    <path d="M 266.409286 102.518764 
L 256.184035 97.486793 
" clip-path="url(#p2a06fbf540)" style="fill: none; stroke: #808080; stroke-width: 1.5; stroke-linecap: square"/>
   </g>
   <g id="line2d_4">
    <path d="M 238.899002 100.136667 
L 246.344111 108.764926 
" clip-path="url(#p2a06fbf540)" style="fill: none; stroke: #808080; stroke-width: 1.5; stroke-linecap: square"/>
   </g>
   <g id="line2d_5">
    <path d="M 253.147946 122.075039 
L 250.930919 133.253647 
" clip-path="url(#p2a06fbf540)" style="fill: none; stroke: #808080; stroke-width: 1.5; stroke-linecap: square"/>
   </g>
   <g id="line2d_6">
    <path d="M 321.274713 114.208761 
L 321.985498 102.834612 
" clip-path="url(#p2a06fbf540)" style="fill: none; stroke: #808080; stroke-width: 1.5; stroke-linecap: square"/>
   </g>
   <g id="line2d_7">
    <path d="M 373.502547 132.348744 
L 384.252973 136.130916 
" clip-path="url(#p2a06fbf540)" style="fill: none; stroke: #808080; stroke-width: 1.5; stroke-linecap: square"/>
   </g>
   <g id="line2d_8">
    <path d="M 276.62447 153.666944 
L 286.607465 159.16388 
" clip-path="url(#p2a06fbf540)" style="fill: none; stroke: #808080; stroke-width: 1.5; stroke-linecap: square"/>
   </g>
   <g id="line2d_9">
    <path d="M 286.440152 216.627888 
L 276.932716 210.344167 
" clip-path="url(#p2a06fbf540)" style="fill: none; stroke: #808080; stroke-width: 1.5; stroke-linecap: square"/>
   </g>
   <g id="line2d_10">
    <path d="M 246.594556 224.635251 
L 253.782793 233.478651 
" clip-path="url(#p2a06fbf540)" style="fill: none; stroke: #808080; stroke-width: 1.5; stroke-linecap: square"/>
   </g>
   <g id="line2d_11">
    <path d="M 251.712172 248.790291 
L 244.541807 257.648188 
" clip-path="url(#p2a06fbf540)" style="fill: none; stroke: #808080; stroke-width: 1.5; stroke-linecap: square"/>
   </g>
   <g id="line2d_12">
    <path d="M 359.794301 253.439297 
L 367.536566 261.80194 
" clip-path="url(#p2a06fbf540)" style="fill: none; stroke: #808080; stroke-width: 1.5; stroke-linecap: square"/>
   </g>
   <g id="line2d_13">
    <path d="M 360.139462 235.128308 
L 351.043603 228.262316 
" clip-path="url(#p2a06fbf540)" style="fill: none; stroke: #808080; stroke-width: 1.5; stroke-linecap: square"/>
   </g>
   <g id="line2d_14">
    <path d="M 387.686727 257.054453 
L 398.487273 260.69103 
" clip-path="url(#p2a06fbf540)" style="fill: none; stroke: #808080; stroke-width: 1.5; stroke-linecap: square"/>
   </g>
   <g id="line2d_15">
    <path d="M 85.226849 272.061396 
L 73.832727 272.286054 
" clip-path="url(#p2a06fbf540)" style="fill: none; stroke: #808080; stroke-width: 1.5; stroke-linecap: square"/>
   </g>
   <g id="line2d_16">
    <path d="M 100.11282 262.522602 
L 97.110309 251.528904 
" clip-path="url(#p2a06fbf540)" style="fill: none; stroke: #808080; stroke-width: 1.5; stroke-linecap: square"/>
   </g>
   <g id="line2d_17">
    <path d="M 167.16119 258.511734 
L 175.560667 266.214024 
" clip-path="url(#p2a06fbf540)" style="fill: none; stroke: #808080; stroke-width: 1.5; stroke-linecap: square"/>
   </g>
   <g id="patch_3">
    <path d="M 57.6 307.584 
L 57.6 41.472 
" style="fill: none; stroke: #000000; stroke-width: 0.8; stroke-linejoin: miter; stroke-linecap: square"/>
   </g>
   <g id="patch_4">
    <path d="M 414.72 307.584 
L 414.72 41.472 
" style="fill: none; stroke: #000000; stroke-width: 0.8; stroke-linejoin: miter; stroke-linecap: square"/>
   </g>
   <g id="patch_5">
    <path d="M 57.6 307.584 
L 414.72 307.584 
" style="fill: none; stroke: #000000; stroke-width: 0.8; stroke-linejoin: miter; stroke-linecap: square"/>
   </g>
   <g id="patch_6">
    <path d="M 57.6 41.472 
L 414.72 41.472 
" style="fill: none; stroke: #000000; stroke-width: 0.8; stroke-linejoin: miter; stroke-linecap: square"/>
   </g>
   <g id="text_1">
    <!-- 1 -->
    <g style="fill: #ffffff" transform="translate(233.229466 75.364394) scale(0.0833 -0.0833)">
     <defs>
      <path id="DejaVuSans-31" d="M 794 531 
L 1825 531 
L 1825 4091 
L 703 3866 
L 703 4441 
L 1819 4666 
L 2450 4666 
L 2450 531 
L 3481 531 
L 3481 0 
L 794 0 
L 794 531 
z
" transform="scale(0.015625)"/>
     </defs>
     <use xlink:href="#DejaVuSans-31"/>
    </g>
   </g>
   <g id="text_2">
    <!-- 2 -->
    <g style="fill: #ffffff" transform="translate(253.534054 100.651542) scale(0.0833 -0.0833)">
     <defs>
      <path id="DejaVuSans-32" d="M 1228 531 
L 3431 531 
L 3431 0 
L 469 0 
L 469 531 
Q 828 903 1448 1529 
Q 2069 2156 2228 2338 
Q 2531 2678 2651 2914 
Q 2772 3150 2772 3378 
Q 2772 3750 2511 3984 
Q 2250 4219 1831 4219 
Q 1534 4219 1204 4116 
Q 875 4013 500 3803 
L 500 4441 
Q 881 4594 1212 4672 
Q 1544 4750 1819 4750 
Q 2544 4750 2975 4387 
Q 3406 4025 3406 3419 
Q 3406 3131 3298 2873 
Q 3191 2616 2906 2266 
Q 2828 2175 2409 1742 
Q 1991 1309 1228 531 
z
" transform="scale(0.015625)"/>
     </defs>
     <use xlink:href="#DejaVuSans-32"/>
    </g>
   </g>
   <g id="text_3">
    <!-- 3 -->
    <g style="fill: #ffffff" transform="translate(243.69413 111.929676) scale(0.0833 -0.0833)">
     <defs>
      <path id="DejaVuSans-33" d="M 2597 2516 
Q 3050 2419 3304 2112 
Q 3559 1806 3559 1356 
Q 3559 666 3084 287 
Q 2609 -91 1734 -91 
Q 1441 -91 1130 -33 
Q 819 25 488 141 
L 488 750 
Q 750 597 1062 519 
Q 1375 441 1716 441 
Q 2309 441 2620 675 
Q 2931 909 2931 1356 
Q 2931 1769 2642 2001 
Q 2353 2234 1838 2234 
L 1294 2234 
L 1294 2753 
L 1863 2753 
Q 2328 2753 2575 2939 
Q 2822 3125 2822 3475 
Q 2822 3834 2567 4026 
Q 2313 4219 1838 4219 
Q 1578 4219 1281 4162 
Q 984 4106 628 3988 
L 628 4550 
Q 988 4650 1302 4700 
Q 1616 4750 1894 4750 
Q 2613 4750 3031 4423 
Q 3450 4097 3450 3541 
Q 3450 3153 3228 2886 
Q 3006 2619 2597 2516 
z
" transform="scale(0.015625)"/>
     </defs>
     <use xlink:href="#DejaVuSans-33"/>
    </g>
   </g>
   <g id="text_4">
    <!-- 4 -->
    <g style="fill: #ffffff" transform="translate(248.280938 136.418397) scale(0.0833 -0.0833)">
     <defs>
      <path id="DejaVuSans-34" d="M 2419 4116 
L 825 1625 
L 2419 1625 
L 2419 4116 
z
M 2253 4666 
L 3047 4666 
L 3047 1625 
L 3713 1625 
L 3713 1100 
L 3047 1100 
L 3047 0 
L 2419 0 
L 2419 1100 
L 313 1100 
L 313 1709 
L 2253 4666 
z
" transform="scale(0.015625)"/>
     </defs>
     <use xlink:href="#DejaVuSans-34"/>
    </g>
   </g>
   <g id="text_5">
    <!-- 5 -->
    <g style="fill: #ffffff" transform="translate(319.335517 105.999361) scale(0.0833 -0.0833)">
     <defs>
      <path id="DejaVuSans-35" d="M 691 4666 
L 3169 4666 
L 3169 4134 
L 1269 4134 
L 1269 2991 
Q 1406 3038 1543 3061 
Q 1681 3084 1819 3084 
Q 2600 3084 3056 2656 
Q 3513 2228 3513 1497 
Q 3513 744 3044 326 
Q 2575 -91 1722 -91 
Q 1428 -91 1123 -41 
Q 819 9 494 109 
L 494 744 
Q 775 591 1075 516 
Q 1375 441 1709 441 
Q 2250 441 2565 725 
Q 2881 1009 2881 1497 
Q 2881 1984 2565 2268 
Q 2250 2553 1709 2553 
Q 1456 2553 1204 2497 
Q 953 2441 691 2322 
L 691 4666 
z
" transform="scale(0.015625)"/>
     </defs>
     <use xlink:href="#DejaVuSans-35"/>
    </g>
   </g>
   <g id="text_6">
    <!-- 6 -->
    <g style="fill: #ffffff" transform="translate(381.602992 139.295665) scale(0.0833 -0.0833)">
     <defs>
      <path id="DejaVuSans-36" d="M 2113 2584 
Q 1688 2584 1439 2293 
Q 1191 2003 1191 1497 
Q 1191 994 1439 701 
Q 1688 409 2113 409 
Q 2538 409 2786 701 
Q 3034 994 3034 1497 
Q 3034 2003 2786 2293 
Q 2538 2584 2113 2584 
z
M 3366 4563 
L 3366 3988 
Q 3128 4100 2886 4159 
Q 2644 4219 2406 4219 
Q 1781 4219 1451 3797 
Q 1122 3375 1075 2522 
Q 1259 2794 1537 2939 
Q 1816 3084 2150 3084 
Q 2853 3084 3261 2657 
Q 3669 2231 3669 1497 
Q 3669 778 3244 343 
Q 2819 -91 2113 -91 
Q 1303 -91 875 529 
Q 447 1150 447 2328 
Q 447 3434 972 4092 
Q 1497 4750 2381 4750 
Q 2619 4750 2861 4703 
Q 3103 4656 3366 4563 
z
" transform="scale(0.015625)"/>
     </defs>
     <use xlink:href="#DejaVuSans-36"/>
    </g>
   </g>
   <g id="text_7">
    <!-- 7 -->
    <g style="fill: #ffffff" transform="translate(283.957484 162.328629) scale(0.0833 -0.0833)">
     <defs>
      <path id="DejaVuSans-37" d="M 525 4666 
L 3525 4666 
L 3525 4397 
L 1831 0 
L 1172 0 
L 2766 4134 
L 525 4134 
L 525 4666 
z
" transform="scale(0.015625)"/>
     </defs>
     <use xlink:href="#DejaVuSans-37"/>
    </g>
   </g>
   <g id="text_8">
    <!-- 8 -->
    <g style="fill: #ffffff" transform="translate(274.282735 213.508916) scale(0.0833 -0.0833)">
     <defs>
      <path id="DejaVuSans-38" d="M 2034 2216 
Q 1584 2216 1326 1975 
Q 1069 1734 1069 1313 
Q 1069 891 1326 650 
Q 1584 409 2034 409 
Q 2484 409 2743 651 
Q 3003 894 3003 1313 
Q 3003 1734 2745 1975 
Q 2488 2216 2034 2216 
z
M 1403 2484 
Q 997 2584 770 2862 
Q 544 3141 544 3541 
Q 544 4100 942 4425 
Q 1341 4750 2034 4750 
Q 2731 4750 3128 4425 
Q 3525 4100 3525 3541 
Q 3525 3141 3298 2862 
Q 3072 2584 2669 2484 
Q 3125 2378 3379 2068 
Q 3634 1759 3634 1313 
Q 3634 634 3220 271 
Q 2806 -91 2034 -91 
Q 1263 -91 848 271 
Q 434 634 434 1313 
Q 434 1759 690 2068 
Q 947 2378 1403 2484 
z
M 1172 3481 
Q 1172 3119 1398 2916 
Q 1625 2713 2034 2713 
Q 2441 2713 2670 2916 
Q 2900 3119 2900 3481 
Q 2900 3844 2670 4047 
Q 2441 4250 2034 4250 
Q 1625 4250 1398 4047 
Q 1172 3844 1172 3481 
z
" transform="scale(0.015625)"/>
     </defs>
     <use xlink:href="#DejaVuSans-38"/>
    </g>
   </g>
   <g id="text_9">
    <!-- 9 -->
    <g style="fill: #ffffff" transform="translate(251.132812 236.6434) scale(0.0833 -0.0833)">
     <defs>
      <path id="DejaVuSans-39" d="M 703 97 
L 703 672 
Q 941 559 1184 500 
Q 1428 441 1663 441 
Q 2288 441 2617 861 
Q 2947 1281 2994 2138 
Q 2813 1869 2534 1725 
Q 2256 1581 1919 1581 
Q 1219 1581 811 2004 
Q 403 2428 403 3163 
Q 403 3881 828 4315 
Q 1253 4750 1959 4750 
Q 2769 4750 3195 4129 
Q 3622 3509 3622 2328 
Q 3622 1225 3098 567 
Q 2575 -91 1691 -91 
Q 1453 -91 1209 -44 
Q 966 3 703 97 
z
M 1959 2075 
Q 2384 2075 2632 2365 
Q 2881 2656 2881 3163 
Q 2881 3666 2632 3958 
Q 2384 4250 1959 4250 
Q 1534 4250 1286 3958 
Q 1038 3666 1038 3163 
Q 1038 2656 1286 2365 
Q 1534 2075 1959 2075 
z
" transform="scale(0.015625)"/>
     </defs>
     <use xlink:href="#DejaVuSans-39"/>
    </g>
   </g>
   <g id="text_10">
    <!-- 10 -->
    <g style="fill: #ffffff" transform="translate(239.241845 260.812938) scale(0.0833 -0.0833)">
     <defs>
      <path id="DejaVuSans-30" d="M 2034 4250 
Q 1547 4250 1301 3770 
Q 1056 3291 1056 2328 
Q 1056 1369 1301 889 
Q 1547 409 2034 409 
Q 2525 409 2770 889 
Q 3016 1369 3016 2328 
Q 3016 3291 2770 3770 
Q 2525 4250 2034 4250 
z
M 2034 4750 
Q 2819 4750 3233 4129 
Q 3647 3509 3647 2328 
Q 3647 1150 3233 529 
Q 2819 -91 2034 -91 
Q 1250 -91 836 529 
Q 422 1150 422 2328 
Q 422 3509 836 4129 
Q 1250 4750 2034 4750 
z
" transform="scale(0.015625)"/>
     </defs>
     <use xlink:href="#DejaVuSans-31"/>
     <use xlink:href="#DejaVuSans-30" x="63.623047"/>
    </g>
   </g>
   <g id="text_11">
    <!-- 11 -->
    <g style="fill: #ffffff" transform="translate(362.236604 264.96669) scale(0.0833 -0.0833)">
     <use xlink:href="#DejaVuSans-31"/>
     <use xlink:href="#DejaVuSans-31" x="63.623047"/>
    </g>
   </g>
   <g id="text_12">
    <!-- 12 -->
    <g style="fill: #ffffff" transform="translate(345.743641 231.427065) scale(0.0833 -0.0833)">
     <use xlink:href="#DejaVuSans-31"/>
     <use xlink:href="#DejaVuSans-32" x="63.623047"/>
    </g>
   </g>
   <g id="text_13">
    <!-- 13 -->
    <g style="fill: #ffffff" transform="translate(393.18731 263.85578) scale(0.0833 -0.0833)">
     <use xlink:href="#DejaVuSans-31"/>
     <use xlink:href="#DejaVuSans-33" x="63.623047"/>
    </g>
   </g>
   <g id="text_14">
    <!-- 14 -->
    <g style="fill: #ffffff" transform="translate(68.532765 275.450803) scale(0.0833 -0.0833)">
     <use xlink:href="#DejaVuSans-31"/>
     <use xlink:href="#DejaVuSans-34" x="63.623047"/>
    </g>
   </g>
   <g id="text_15">
    <!-- 15 -->
    <g style="fill: #ffffff" transform="translate(91.810346 254.693653) scale(0.0833 -0.0833)">
     <use xlink:href="#DejaVuSans-31"/>
     <use xlink:href="#DejaVuSans-35" x="63.623047"/>
    </g>
   </g>
   <g id="text_16">
    <!-- 16 -->
    <g style="fill: #ffffff" transform="translate(170.260705 269.378773) scale(0.0833 -0.0833)">
     <use xlink:href="#DejaVuSans-31"/>
     <use xlink:href="#DejaVuSans-36" x="63.623047"/>
    </g>
   </g>
  </g>
 </g>
 <defs>
  <clipPath id="p2a06fbf540">
   <rect x="57.6" y="41.472" width="357.12" height="266.112"/>
  </clipPath>
 </defs>
</svg>
